ISO-10303-21;
HEADER;
/* Generated by software containing ST-Developer
 * from STEP Tools, Inc. (www.steptools.com) 
 */

FILE_DESCRIPTION(
/* description */ (''),
/* implementation_level */ '2;1');

FILE_NAME(
/* name */ 'BME688_Module.step',
/* time_stamp */ '2026-09-24T16:53:25-04:00',
/* author */ (''),
/* organization */ (''),
/* preprocessor_version */ 'ST-DEVELOPER v20.2',
/* originating_system */ 'Autodesk Translation Framework v15.15.0.0',
/* authorisation */ '');

FILE_SCHEMA (('AUTOMOTIVE_DESIGN { 1 0 10303 214 3 1 1 }'));
ENDSEC;

DATA;
#10=MECHANICAL_DESIGN_GEOMETRIC_PRESENTATION_REPRESENTATION('',(#13),#615);
#11=SHAPE_REPRESENTATION_RELATIONSHIP('SRR','None',#622,#12);
#12=ADVANCED_BREP_SHAPE_REPRESENTATION('',(#14),#614);
#13=STYLED_ITEM('',(#631),#14);
#14=MANIFOLD_SOLID_BREP('Body1',#367);
#15=FACE_BOUND('',#62,.T.);
#16=FACE_BOUND('',#76,.T.);
#17=PLANE('',#385);
#18=PLANE('',#386);
#19=PLANE('',#387);
#20=PLANE('',#388);
#21=PLANE('',#389);
#22=PLANE('',#390);
#23=PLANE('',#391);
#24=PLANE('',#392);
#25=PLANE('',#393);
#26=PLANE('',#394);
#27=PLANE('',#395);
#28=PLANE('',#396);
#29=PLANE('',#397);
#30=PLANE('',#398);
#31=PLANE('',#399);
#32=PLANE('',#400);
#33=PLANE('',#401);
#34=PLANE('',#402);
#35=FACE_OUTER_BOUND('',#55,.T.);
#36=FACE_OUTER_BOUND('',#56,.T.);
#37=FACE_OUTER_BOUND('',#57,.T.);
#38=FACE_OUTER_BOUND('',#58,.T.);
#39=FACE_OUTER_BOUND('',#59,.T.);
#40=FACE_OUTER_BOUND('',#60,.T.);
#41=FACE_OUTER_BOUND('',#61,.T.);
#42=FACE_OUTER_BOUND('',#63,.T.);
#43=FACE_OUTER_BOUND('',#64,.T.);
#44=FACE_OUTER_BOUND('',#65,.T.);
#45=FACE_OUTER_BOUND('',#66,.T.);
#46=FACE_OUTER_BOUND('',#67,.T.);
#47=FACE_OUTER_BOUND('',#68,.T.);
#48=FACE_OUTER_BOUND('',#69,.T.);
#49=FACE_OUTER_BOUND('',#70,.T.);
#50=FACE_OUTER_BOUND('',#71,.T.);
#51=FACE_OUTER_BOUND('',#72,.T.);
#52=FACE_OUTER_BOUND('',#73,.T.);
#53=FACE_OUTER_BOUND('',#74,.T.);
#54=FACE_OUTER_BOUND('',#75,.T.);
#55=EDGE_LOOP('',(#249,#250,#251,#252));
#56=EDGE_LOOP('',(#253,#254,#255,#256));
#57=EDGE_LOOP('',(#257,#258,#259,#260));
#58=EDGE_LOOP('',(#261,#262,#263,#264));
#59=EDGE_LOOP('',(#265,#266,#267,#268));
#60=EDGE_LOOP('',(#269,#270,#271,#272));
#61=EDGE_LOOP('',(#273,#274,#275,#276,#277,#278,#279,#280));
#62=EDGE_LOOP('',(#281,#282,#283,#284));
#63=EDGE_LOOP('',(#285,#286,#287,#288));
#64=EDGE_LOOP('',(#289,#290,#291,#292));
#65=EDGE_LOOP('',(#293,#294,#295,#296));
#66=EDGE_LOOP('',(#297,#298,#299,#300));
#67=EDGE_LOOP('',(#301,#302,#303,#304));
#68=EDGE_LOOP('',(#305,#306,#307,#308));
#69=EDGE_LOOP('',(#309,#310,#311,#312));
#70=EDGE_LOOP('',(#313,#314,#315,#316));
#71=EDGE_LOOP('',(#317,#318,#319,#320));
#72=EDGE_LOOP('',(#321,#322,#323,#324));
#73=EDGE_LOOP('',(#325,#326,#327,#328));
#74=EDGE_LOOP('',(#329,#330,#331,#332));
#75=EDGE_LOOP('',(#333,#334,#335,#336));
#76=EDGE_LOOP('',(#337,#338,#339,#340,#341,#342,#343,#344));
#77=LINE('',#508,#121);
#78=LINE('',#511,#122);
#79=LINE('',#526,#123);
#80=LINE('',#529,#124);
#81=LINE('',#532,#125);
#82=LINE('',#534,#126);
#83=LINE('',#535,#127);
#84=LINE('',#538,#128);
#85=LINE('',#540,#129);
#86=LINE('',#541,#130);
#87=LINE('',#544,#131);
#88=LINE('',#546,#132);
#89=LINE('',#547,#133);
#90=LINE('',#551,#134);
#91=LINE('',#553,#135);
#92=LINE('',#555,#136);
#93=LINE('',#556,#137);
#94=LINE('',#558,#138);
#95=LINE('',#560,#139);
#96=LINE('',#561,#140);
#97=LINE('',#564,#141);
#98=LINE('',#566,#142);
#99=LINE('',#568,#143);
#100=LINE('',#569,#144);
#101=LINE('',#572,#145);
#102=LINE('',#574,#146);
#103=LINE('',#575,#147);
#104=LINE('',#578,#148);
#105=LINE('',#579,#149);
#106=LINE('',#582,#150);
#107=LINE('',#583,#151);
#108=LINE('',#586,#152);
#109=LINE('',#587,#153);
#110=LINE('',#589,#154);
#111=LINE('',#591,#155);
#112=LINE('',#593,#156);
#113=LINE('',#598,#157);
#114=LINE('',#599,#158);
#115=LINE('',#600,#159);
#116=LINE('',#603,#160);
#117=LINE('',#604,#161);
#118=LINE('',#607,#162);
#119=LINE('',#608,#163);
#120=LINE('',#610,#164);
#121=VECTOR('',#407,10.);
#122=VECTOR('',#410,10.);
#123=VECTOR('',#413,10.);
#124=VECTOR('',#416,10.);
#125=VECTOR('',#419,10.);
#126=VECTOR('',#420,10.);
#127=VECTOR('',#421,10.);
#128=VECTOR('',#424,10.);
#129=VECTOR('',#425,10.);
#130=VECTOR('',#426,10.);
#131=VECTOR('',#429,10.);
#132=VECTOR('',#430,10.);
#133=VECTOR('',#431,10.);
#134=VECTOR('',#434,10.);
#135=VECTOR('',#435,10.);
#136=VECTOR('',#436,10.);
#137=VECTOR('',#437,10.);
#138=VECTOR('',#440,10.);
#139=VECTOR('',#441,10.);
#140=VECTOR('',#442,10.);
#141=VECTOR('',#443,10.);
#142=VECTOR('',#444,10.);
#143=VECTOR('',#445,10.);
#144=VECTOR('',#446,10.);
#145=VECTOR('',#449,10.);
#146=VECTOR('',#450,10.);
#147=VECTOR('',#451,10.);
#148=VECTOR('',#454,10.);
#149=VECTOR('',#455,10.);
#150=VECTOR('',#458,10.);
#151=VECTOR('',#459,10.);
#152=VECTOR('',#462,10.);
#153=VECTOR('',#463,10.);
#154=VECTOR('',#466,10.);
#155=VECTOR('',#469,10.);
#156=VECTOR('',#472,10.);
#157=VECTOR('',#477,10.);
#158=VECTOR('',#478,10.);
#159=VECTOR('',#479,10.);
#160=VECTOR('',#482,10.);
#161=VECTOR('',#483,10.);
#162=VECTOR('',#486,10.);
#163=VECTOR('',#487,10.);
#164=VECTOR('',#490,10.);
#165=ELLIPSE('',#381,3.50000005215406,1.50000002235174);
#166=ELLIPSE('',#382,3.50000005215406,1.50000002235174);
#167=ELLIPSE('',#383,3.50000005215406,1.50000002235174);
#168=ELLIPSE('',#384,3.50000005215406,1.50000002235174);
#169=VERTEX_POINT('',#504);
#170=VERTEX_POINT('',#505);
#171=VERTEX_POINT('',#507);
#172=VERTEX_POINT('',#509);
#173=VERTEX_POINT('',#522);
#174=VERTEX_POINT('',#523);
#175=VERTEX_POINT('',#525);
#176=VERTEX_POINT('',#527);
#177=VERTEX_POINT('',#531);
#178=VERTEX_POINT('',#533);
#179=VERTEX_POINT('',#537);
#180=VERTEX_POINT('',#539);
#181=VERTEX_POINT('',#543);
#182=VERTEX_POINT('',#545);
#183=VERTEX_POINT('',#549);
#184=VERTEX_POINT('',#550);
#185=VERTEX_POINT('',#552);
#186=VERTEX_POINT('',#554);
#187=VERTEX_POINT('',#559);
#188=VERTEX_POINT('',#562);
#189=VERTEX_POINT('',#563);
#190=VERTEX_POINT('',#565);
#191=VERTEX_POINT('',#567);
#192=VERTEX_POINT('',#571);
#193=VERTEX_POINT('',#573);
#194=VERTEX_POINT('',#577);
#195=VERTEX_POINT('',#581);
#196=VERTEX_POINT('',#585);
#197=VERTEX_POINT('',#596);
#198=VERTEX_POINT('',#597);
#199=VERTEX_POINT('',#602);
#200=VERTEX_POINT('',#606);
#201=EDGE_CURVE('',#169,#170,#165,.T.);
#202=EDGE_CURVE('',#171,#169,#77,.T.);
#203=EDGE_CURVE('',#171,#172,#166,.T.);
#204=EDGE_CURVE('',#170,#172,#78,.T.);
#205=EDGE_CURVE('',#173,#174,#167,.T.);
#206=EDGE_CURVE('',#175,#173,#79,.T.);
#207=EDGE_CURVE('',#175,#176,#168,.T.);
#208=EDGE_CURVE('',#174,#176,#80,.T.);
#209=EDGE_CURVE('',#177,#169,#81,.T.);
#210=EDGE_CURVE('',#177,#178,#82,.T.);
#211=EDGE_CURVE('',#178,#171,#83,.T.);
#212=EDGE_CURVE('',#172,#179,#84,.T.);
#213=EDGE_CURVE('',#180,#179,#85,.T.);
#214=EDGE_CURVE('',#170,#180,#86,.T.);
#215=EDGE_CURVE('',#181,#173,#87,.T.);
#216=EDGE_CURVE('',#181,#182,#88,.T.);
#217=EDGE_CURVE('',#182,#175,#89,.T.);
#218=EDGE_CURVE('',#183,#184,#90,.T.);
#219=EDGE_CURVE('',#184,#185,#91,.T.);
#220=EDGE_CURVE('',#185,#186,#92,.T.);
#221=EDGE_CURVE('',#186,#183,#93,.T.);
#222=EDGE_CURVE('',#179,#182,#94,.T.);
#223=EDGE_CURVE('',#187,#178,#95,.T.);
#224=EDGE_CURVE('',#176,#187,#96,.T.);
#225=EDGE_CURVE('',#188,#189,#97,.T.);
#226=EDGE_CURVE('',#190,#188,#98,.T.);
#227=EDGE_CURVE('',#191,#190,#99,.T.);
#228=EDGE_CURVE('',#189,#191,#100,.T.);
#229=EDGE_CURVE('',#191,#192,#101,.T.);
#230=EDGE_CURVE('',#192,#193,#102,.T.);
#231=EDGE_CURVE('',#189,#193,#103,.T.);
#232=EDGE_CURVE('',#190,#194,#104,.T.);
#233=EDGE_CURVE('',#194,#192,#105,.T.);
#234=EDGE_CURVE('',#195,#194,#106,.T.);
#235=EDGE_CURVE('',#193,#195,#107,.T.);
#236=EDGE_CURVE('',#196,#177,#108,.T.);
#237=EDGE_CURVE('',#196,#187,#109,.T.);
#238=EDGE_CURVE('',#180,#181,#110,.T.);
#239=EDGE_CURVE('',#174,#196,#111,.T.);
#240=EDGE_CURVE('',#188,#195,#112,.T.);
#241=EDGE_CURVE('',#197,#198,#113,.T.);
#242=EDGE_CURVE('',#197,#183,#114,.T.);
#243=EDGE_CURVE('',#198,#186,#115,.T.);
#244=EDGE_CURVE('',#198,#199,#116,.T.);
#245=EDGE_CURVE('',#199,#185,#117,.T.);
#246=EDGE_CURVE('',#199,#200,#118,.T.);
#247=EDGE_CURVE('',#200,#184,#119,.T.);
#248=EDGE_CURVE('',#200,#197,#120,.T.);
#249=ORIENTED_EDGE('',*,*,#201,.F.);
#250=ORIENTED_EDGE('',*,*,#202,.F.);
#251=ORIENTED_EDGE('',*,*,#203,.T.);
#252=ORIENTED_EDGE('',*,*,#204,.F.);
#253=ORIENTED_EDGE('',*,*,#205,.F.);
#254=ORIENTED_EDGE('',*,*,#206,.F.);
#255=ORIENTED_EDGE('',*,*,#207,.T.);
#256=ORIENTED_EDGE('',*,*,#208,.F.);
#257=ORIENTED_EDGE('',*,*,#202,.T.);
#258=ORIENTED_EDGE('',*,*,#209,.F.);
#259=ORIENTED_EDGE('',*,*,#210,.T.);
#260=ORIENTED_EDGE('',*,*,#211,.T.);
#261=ORIENTED_EDGE('',*,*,#204,.T.);
#262=ORIENTED_EDGE('',*,*,#212,.T.);
#263=ORIENTED_EDGE('',*,*,#213,.F.);
#264=ORIENTED_EDGE('',*,*,#214,.F.);
#265=ORIENTED_EDGE('',*,*,#206,.T.);
#266=ORIENTED_EDGE('',*,*,#215,.F.);
#267=ORIENTED_EDGE('',*,*,#216,.T.);
#268=ORIENTED_EDGE('',*,*,#217,.T.);
#269=ORIENTED_EDGE('',*,*,#218,.T.);
#270=ORIENTED_EDGE('',*,*,#219,.T.);
#271=ORIENTED_EDGE('',*,*,#220,.T.);
#272=ORIENTED_EDGE('',*,*,#221,.T.);
#273=ORIENTED_EDGE('',*,*,#217,.F.);
#274=ORIENTED_EDGE('',*,*,#222,.F.);
#275=ORIENTED_EDGE('',*,*,#212,.F.);
#276=ORIENTED_EDGE('',*,*,#203,.F.);
#277=ORIENTED_EDGE('',*,*,#211,.F.);
#278=ORIENTED_EDGE('',*,*,#223,.F.);
#279=ORIENTED_EDGE('',*,*,#224,.F.);
#280=ORIENTED_EDGE('',*,*,#207,.F.);
#281=ORIENTED_EDGE('',*,*,#225,.F.);
#282=ORIENTED_EDGE('',*,*,#226,.F.);
#283=ORIENTED_EDGE('',*,*,#227,.F.);
#284=ORIENTED_EDGE('',*,*,#228,.F.);
#285=ORIENTED_EDGE('',*,*,#228,.T.);
#286=ORIENTED_EDGE('',*,*,#229,.T.);
#287=ORIENTED_EDGE('',*,*,#230,.T.);
#288=ORIENTED_EDGE('',*,*,#231,.F.);
#289=ORIENTED_EDGE('',*,*,#227,.T.);
#290=ORIENTED_EDGE('',*,*,#232,.T.);
#291=ORIENTED_EDGE('',*,*,#233,.T.);
#292=ORIENTED_EDGE('',*,*,#229,.F.);
#293=ORIENTED_EDGE('',*,*,#234,.F.);
#294=ORIENTED_EDGE('',*,*,#235,.F.);
#295=ORIENTED_EDGE('',*,*,#230,.F.);
#296=ORIENTED_EDGE('',*,*,#233,.F.);
#297=ORIENTED_EDGE('',*,*,#236,.F.);
#298=ORIENTED_EDGE('',*,*,#237,.T.);
#299=ORIENTED_EDGE('',*,*,#223,.T.);
#300=ORIENTED_EDGE('',*,*,#210,.F.);
#301=ORIENTED_EDGE('',*,*,#238,.F.);
#302=ORIENTED_EDGE('',*,*,#213,.T.);
#303=ORIENTED_EDGE('',*,*,#222,.T.);
#304=ORIENTED_EDGE('',*,*,#216,.F.);
#305=ORIENTED_EDGE('',*,*,#208,.T.);
#306=ORIENTED_EDGE('',*,*,#224,.T.);
#307=ORIENTED_EDGE('',*,*,#237,.F.);
#308=ORIENTED_EDGE('',*,*,#239,.F.);
#309=ORIENTED_EDGE('',*,*,#226,.T.);
#310=ORIENTED_EDGE('',*,*,#240,.T.);
#311=ORIENTED_EDGE('',*,*,#234,.T.);
#312=ORIENTED_EDGE('',*,*,#232,.F.);
#313=ORIENTED_EDGE('',*,*,#225,.T.);
#314=ORIENTED_EDGE('',*,*,#231,.T.);
#315=ORIENTED_EDGE('',*,*,#235,.T.);
#316=ORIENTED_EDGE('',*,*,#240,.F.);
#317=ORIENTED_EDGE('',*,*,#241,.F.);
#318=ORIENTED_EDGE('',*,*,#242,.T.);
#319=ORIENTED_EDGE('',*,*,#221,.F.);
#320=ORIENTED_EDGE('',*,*,#243,.F.);
#321=ORIENTED_EDGE('',*,*,#244,.F.);
#322=ORIENTED_EDGE('',*,*,#243,.T.);
#323=ORIENTED_EDGE('',*,*,#220,.F.);
#324=ORIENTED_EDGE('',*,*,#245,.F.);
#325=ORIENTED_EDGE('',*,*,#246,.F.);
#326=ORIENTED_EDGE('',*,*,#245,.T.);
#327=ORIENTED_EDGE('',*,*,#219,.F.);
#328=ORIENTED_EDGE('',*,*,#247,.F.);
#329=ORIENTED_EDGE('',*,*,#248,.F.);
#330=ORIENTED_EDGE('',*,*,#247,.T.);
#331=ORIENTED_EDGE('',*,*,#218,.F.);
#332=ORIENTED_EDGE('',*,*,#242,.F.);
#333=ORIENTED_EDGE('',*,*,#248,.T.);
#334=ORIENTED_EDGE('',*,*,#241,.T.);
#335=ORIENTED_EDGE('',*,*,#244,.T.);
#336=ORIENTED_EDGE('',*,*,#246,.T.);
#337=ORIENTED_EDGE('',*,*,#201,.T.);
#338=ORIENTED_EDGE('',*,*,#214,.T.);
#339=ORIENTED_EDGE('',*,*,#238,.T.);
#340=ORIENTED_EDGE('',*,*,#215,.T.);
#341=ORIENTED_EDGE('',*,*,#205,.T.);
#342=ORIENTED_EDGE('',*,*,#239,.T.);
#343=ORIENTED_EDGE('',*,*,#236,.T.);
#344=ORIENTED_EDGE('',*,*,#209,.T.);
#345=(
BOUNDED_SURFACE()
B_SPLINE_SURFACE(1,2,((#494,#495,#496,#497,#498),(#499,#500,#501,#502,#503)),
 .UNSPECIFIED.,.F.,.F.,.F.)
B_SPLINE_SURFACE_WITH_KNOTS((2,2),(3,2,3),(-7.82579019417108E-16,0.571428562913623),
(7.71619367264556E-7,1.5707963267949,3.14159188197043),.UNSPECIFIED.)
GEOMETRIC_REPRESENTATION_ITEM()
RATIONAL_B_SPLINE_SURFACE(((1.,0.707107053995138,1.,0.707107053995138,1.),
(1.,0.707107053995138,1.,0.707107053995138,1.)))
REPRESENTATION_ITEM('')
SURFACE()
);
#346=(
BOUNDED_SURFACE()
B_SPLINE_SURFACE(1,2,((#512,#513,#514,#515,#516),(#517,#518,#519,#520,#521)),
 .UNSPECIFIED.,.F.,.F.,.F.)
B_SPLINE_SURFACE_WITH_KNOTS((2,2),(3,2,3),(-6.34413147475168E-16,0.571428562913623),
(-3.14159286220605,-1.5707963267949,2.08616253161154E-7),.UNSPECIFIED.)
GEOMETRIC_REPRESENTATION_ITEM()
RATIONAL_B_SPLINE_SURFACE(((1.,0.70710670742956,1.,0.70710670742956,1.),
(1.,0.70710670742956,1.,0.70710670742956,1.)))
REPRESENTATION_ITEM('')
SURFACE()
);
#347=ADVANCED_FACE('',(#35),#345,.T.);
#348=ADVANCED_FACE('',(#36),#346,.T.);
#349=ADVANCED_FACE('',(#37),#17,.F.);
#350=ADVANCED_FACE('',(#38),#18,.F.);
#351=ADVANCED_FACE('',(#39),#19,.F.);
#352=ADVANCED_FACE('',(#40),#20,.T.);
#353=ADVANCED_FACE('',(#41,#15),#21,.F.);
#354=ADVANCED_FACE('',(#42),#22,.F.);
#355=ADVANCED_FACE('',(#43),#23,.F.);
#356=ADVANCED_FACE('',(#44),#24,.F.);
#357=ADVANCED_FACE('',(#45),#25,.F.);
#358=ADVANCED_FACE('',(#46),#26,.F.);
#359=ADVANCED_FACE('',(#47),#27,.F.);
#360=ADVANCED_FACE('',(#48),#28,.F.);
#361=ADVANCED_FACE('',(#49),#29,.F.);
#362=ADVANCED_FACE('',(#50),#30,.T.);
#363=ADVANCED_FACE('',(#51),#31,.T.);
#364=ADVANCED_FACE('',(#52),#32,.T.);
#365=ADVANCED_FACE('',(#53),#33,.T.);
#366=ADVANCED_FACE('',(#54,#16),#34,.T.);
#367=CLOSED_SHELL('',(#347,#348,#349,#350,#351,#352,#353,#354,#355,#356,
#357,#358,#359,#360,#361,#362,#363,#364,#365,#366));
#368=DERIVED_UNIT_ELEMENT(#370,1.);
#369=DERIVED_UNIT_ELEMENT(#617,-3.);
#370=(
MASS_UNIT()
NAMED_UNIT(*)
SI_UNIT(.KILO.,.GRAM.)
);
#371=DERIVED_UNIT((#368,#369));
#372=MEASURE_REPRESENTATION_ITEM('density measure',
POSITIVE_RATIO_MEASURE(7850.),#371);
#373=PROPERTY_DEFINITION_REPRESENTATION(#378,#375);
#374=PROPERTY_DEFINITION_REPRESENTATION(#379,#376);
#375=REPRESENTATION('material name',(#377),#614);
#376=REPRESENTATION('density',(#372),#614);
#377=DESCRIPTIVE_REPRESENTATION_ITEM('Steel','Steel');
#378=PROPERTY_DEFINITION('material property','material name',#624);
#379=PROPERTY_DEFINITION('material property','density of part',#624);
#380=AXIS2_PLACEMENT_3D('',#493,#403,#404);
#381=AXIS2_PLACEMENT_3D('',#506,#405,#406);
#382=AXIS2_PLACEMENT_3D('',#510,#408,#409);
#383=AXIS2_PLACEMENT_3D('',#524,#411,#412);
#384=AXIS2_PLACEMENT_3D('',#528,#414,#415);
#385=AXIS2_PLACEMENT_3D('',#530,#417,#418);
#386=AXIS2_PLACEMENT_3D('',#536,#422,#423);
#387=AXIS2_PLACEMENT_3D('',#542,#427,#428);
#388=AXIS2_PLACEMENT_3D('',#548,#432,#433);
#389=AXIS2_PLACEMENT_3D('',#557,#438,#439);
#390=AXIS2_PLACEMENT_3D('',#570,#447,#448);
#391=AXIS2_PLACEMENT_3D('',#576,#452,#453);
#392=AXIS2_PLACEMENT_3D('',#580,#456,#457);
#393=AXIS2_PLACEMENT_3D('',#584,#460,#461);
#394=AXIS2_PLACEMENT_3D('',#588,#464,#465);
#395=AXIS2_PLACEMENT_3D('',#590,#467,#468);
#396=AXIS2_PLACEMENT_3D('',#592,#470,#471);
#397=AXIS2_PLACEMENT_3D('',#594,#473,#474);
#398=AXIS2_PLACEMENT_3D('',#595,#475,#476);
#399=AXIS2_PLACEMENT_3D('',#601,#480,#481);
#400=AXIS2_PLACEMENT_3D('',#605,#484,#485);
#401=AXIS2_PLACEMENT_3D('',#609,#488,#489);
#402=AXIS2_PLACEMENT_3D('',#611,#491,#492);
#403=DIRECTION('axis',(0.,0.,1.));
#404=DIRECTION('refdir',(1.,0.,0.));
#405=DIRECTION('center_axis',(-1.65074105677544E-32,2.33436287888467E-16,
-1.));
#406=DIRECTION('ref_axis',(-1.,0.,0.));
#407=DIRECTION('',(0.,0.,1.));
#408=DIRECTION('center_axis',(0.,0.,-1.));
#409=DIRECTION('ref_axis',(-1.,0.,0.));
#410=DIRECTION('',(0.,0.,-1.));
#411=DIRECTION('center_axis',(-1.65074105677544E-32,2.33436287888467E-16,
-1.));
#412=DIRECTION('ref_axis',(-1.,0.,0.));
#413=DIRECTION('',(0.,0.,1.));
#414=DIRECTION('center_axis',(0.,0.,-1.));
#415=DIRECTION('ref_axis',(-1.,0.,0.));
#416=DIRECTION('',(0.,0.,-1.));
#417=DIRECTION('center_axis',(0.,1.,0.));
#418=DIRECTION('ref_axis',(1.,0.,0.));
#419=DIRECTION('',(1.,0.,-1.65074105677544E-32));
#420=DIRECTION('',(0.,0.,-1.));
#421=DIRECTION('',(1.,0.,0.));
#422=DIRECTION('center_axis',(0.,1.,0.));
#423=DIRECTION('ref_axis',(1.,0.,0.));
#424=DIRECTION('',(1.,0.,0.));
#425=DIRECTION('',(0.,0.,-1.));
#426=DIRECTION('',(1.,0.,-1.65074105677544E-32));
#427=DIRECTION('center_axis',(0.,-1.,0.));
#428=DIRECTION('ref_axis',(-1.,0.,0.));
#429=DIRECTION('',(-1.,0.,1.65074105677544E-32));
#430=DIRECTION('',(0.,0.,-1.));
#431=DIRECTION('',(-1.,0.,0.));
#432=DIRECTION('center_axis',(0.,0.,-1.));
#433=DIRECTION('ref_axis',(-1.,0.,0.));
#434=DIRECTION('',(0.,1.,2.33436287888467E-16));
#435=DIRECTION('',(1.,7.07148435107118E-17,0.));
#436=DIRECTION('',(0.,-1.,-2.33436287888467E-16));
#437=DIRECTION('',(-1.,0.,0.));
#438=DIRECTION('center_axis',(0.,0.,-1.));
#439=DIRECTION('ref_axis',(-1.,0.,0.));
#440=DIRECTION('',(0.,-1.,0.));
#441=DIRECTION('',(0.,1.,0.));
#442=DIRECTION('',(-1.,0.,0.));
#443=DIRECTION('',(0.,1.,0.));
#444=DIRECTION('',(1.,0.,0.));
#445=DIRECTION('',(0.,-1.,0.));
#446=DIRECTION('',(-1.,0.,0.));
#447=DIRECTION('center_axis',(0.,1.,0.));
#448=DIRECTION('ref_axis',(1.,0.,0.));
#449=DIRECTION('',(0.,0.,-1.));
#450=DIRECTION('',(1.,0.,0.));
#451=DIRECTION('',(0.,0.,-1.));
#452=DIRECTION('center_axis',(-1.,0.,0.));
#453=DIRECTION('ref_axis',(0.,1.,0.));
#454=DIRECTION('',(0.,0.,-1.));
#455=DIRECTION('',(0.,1.,0.));
#456=DIRECTION('center_axis',(0.,0.,-1.));
#457=DIRECTION('ref_axis',(-1.,0.,0.));
#458=DIRECTION('',(-1.,0.,0.));
#459=DIRECTION('',(0.,-1.,0.));
#460=DIRECTION('center_axis',(-1.,0.,0.));
#461=DIRECTION('ref_axis',(0.,1.,0.));
#462=DIRECTION('',(0.,1.,2.33436287888467E-16));
#463=DIRECTION('',(0.,0.,-1.));
#464=DIRECTION('center_axis',(1.,0.,0.));
#465=DIRECTION('ref_axis',(0.,-1.,0.));
#466=DIRECTION('',(0.,-1.,-2.33436287888467E-16));
#467=DIRECTION('center_axis',(0.,-1.,0.));
#468=DIRECTION('ref_axis',(-1.,0.,0.));
#469=DIRECTION('',(-1.,0.,1.65074105677544E-32));
#470=DIRECTION('center_axis',(0.,-1.,0.));
#471=DIRECTION('ref_axis',(-1.,0.,0.));
#472=DIRECTION('',(0.,0.,-1.));
#473=DIRECTION('center_axis',(1.,0.,0.));
#474=DIRECTION('ref_axis',(0.,-1.,0.));
#475=DIRECTION('center_axis',(0.,-1.,-2.35922392732846E-16));
#476=DIRECTION('ref_axis',(-1.,0.,0.));
#477=DIRECTION('',(1.,0.,0.));
#478=DIRECTION('',(0.,2.35922392732846E-16,-1.));
#479=DIRECTION('',(0.,2.35922392732846E-16,-1.));
#480=DIRECTION('center_axis',(1.,0.,0.));
#481=DIRECTION('ref_axis',(0.,-1.,-2.33436287888467E-16));
#482=DIRECTION('',(0.,1.,2.33436287888467E-16));
#483=DIRECTION('',(0.,2.35922392732846E-16,-1.));
#484=DIRECTION('center_axis',(-7.07148435107118E-17,1.,2.35922392732846E-16));
#485=DIRECTION('ref_axis',(1.,7.07148435107118E-17,0.));
#486=DIRECTION('',(-1.,-7.07148435107118E-17,0.));
#487=DIRECTION('',(0.,2.35922392732846E-16,-1.));
#488=DIRECTION('center_axis',(-1.,0.,0.));
#489=DIRECTION('ref_axis',(0.,1.,2.33436287888467E-16));
#490=DIRECTION('',(0.,-1.,-2.33436287888467E-16));
#491=DIRECTION('center_axis',(1.65074105677544E-32,-2.33436287888467E-16,
1.));
#492=DIRECTION('ref_axis',(-1.,0.,1.65074105677544E-32));
#493=CARTESIAN_POINT('',(0.,0.,0.));
#494=CARTESIAN_POINT('Ctrl Pts',(14.5000002160679,-3.21999915549532,8.));
#495=CARTESIAN_POINT('Ctrl Pts',(14.5000029167336,-1.72000029057264,8.));
#496=CARTESIAN_POINT('Ctrl Pts',(18.0000002682209,-1.72000029057264,8.));
#497=CARTESIAN_POINT('Ctrl Pts',(21.4999976197082,-1.72000029057264,8.));
#498=CARTESIAN_POINT('Ctrl Pts',(21.5000003203739,-3.21999915549532,8.));
#499=CARTESIAN_POINT('Ctrl Pts',(14.5000002160679,-3.21999915549532,6.));
#500=CARTESIAN_POINT('Ctrl Pts',(14.5000029167336,-1.72000029057264,6.));
#501=CARTESIAN_POINT('Ctrl Pts',(18.0000002682209,-1.72000029057264,6.));
#502=CARTESIAN_POINT('Ctrl Pts',(21.4999976197082,-1.72000029057264,6.));
#503=CARTESIAN_POINT('Ctrl Pts',(21.5000003203739,-3.21999915549532,6.));
#504=CARTESIAN_POINT('',(14.5000002160679,-3.21999915549532,8.));
#505=CARTESIAN_POINT('',(21.5000003203739,-3.21999915549532,8.));
#506=CARTESIAN_POINT('Origin',(18.0000002682209,-3.22000031292438,8.));
#507=CARTESIAN_POINT('',(14.5000002160679,-3.21999915549532,6.));
#508=CARTESIAN_POINT('',(14.5000002160679,-3.21999915549532,8.));
#509=CARTESIAN_POINT('',(21.5000003203739,-3.21999915549532,6.));
#510=CARTESIAN_POINT('Origin',(18.0000002682209,-3.22000031292438,6.));
#511=CARTESIAN_POINT('',(21.5000003203739,-3.21999915549532,8.));
#512=CARTESIAN_POINT('Ctrl Pts',(21.5000003203749,-21.,8.));
#513=CARTESIAN_POINT('Ctrl Pts',(21.5000010505319,-22.5000003352761,8.));
#514=CARTESIAN_POINT('Ctrl Pts',(18.0000002682209,-22.5000003352761,8.));
#515=CARTESIAN_POINT('Ctrl Pts',(14.4999994859099,-22.5000003352761,8.));
#516=CARTESIAN_POINT('Ctrl Pts',(14.5000002160669,-21.,8.));
#517=CARTESIAN_POINT('Ctrl Pts',(21.5000003203749,-21.,6.));
#518=CARTESIAN_POINT('Ctrl Pts',(21.5000010505319,-22.5000003352761,6.));
#519=CARTESIAN_POINT('Ctrl Pts',(18.0000002682209,-22.5000003352761,6.));
#520=CARTESIAN_POINT('Ctrl Pts',(14.4999994859099,-22.5000003352761,6.));
#521=CARTESIAN_POINT('Ctrl Pts',(14.5000002160669,-21.,6.));
#522=CARTESIAN_POINT('',(21.5000003203749,-21.,8.));
#523=CARTESIAN_POINT('',(14.5000002160669,-21.,8.));
#524=CARTESIAN_POINT('Origin',(18.0000002682209,-21.0000003129244,8.));
#525=CARTESIAN_POINT('',(21.5000003203749,-21.,6.));
#526=CARTESIAN_POINT('',(21.5000003203749,-21.,8.));
#527=CARTESIAN_POINT('',(14.5000002160669,-21.,6.));
#528=CARTESIAN_POINT('Origin',(18.0000002682209,-21.0000003129244,6.));
#529=CARTESIAN_POINT('',(14.5000002160669,-21.,8.));
#530=CARTESIAN_POINT('Origin',(5.,-3.21999915549532,14.));
#531=CARTESIAN_POINT('',(5.,-3.21999915549532,8.00000000000001));
#532=CARTESIAN_POINT('',(11.3499998468906,-3.21999915549532,8.00000000000001));
#533=CARTESIAN_POINT('',(5.,-3.21999915549532,6.00000000000001));
#534=CARTESIAN_POINT('',(5.,-3.21999915549532,14.));
#535=CARTESIAN_POINT('',(5.,-3.21999915549532,6.00000000000001));
#536=CARTESIAN_POINT('Origin',(5.,-3.21999915549532,14.));
#537=CARTESIAN_POINT('',(30.3999994322658,-3.21999915549532,6.00000000000001));
#538=CARTESIAN_POINT('',(5.,-3.21999915549532,6.00000000000001));
#539=CARTESIAN_POINT('',(30.3999994322658,-3.21999915549532,8.00000000000001));
#540=CARTESIAN_POINT('',(30.3999994322658,-3.21999915549532,14.));
#541=CARTESIAN_POINT('',(11.3499998468906,-3.21999915549532,8.00000000000001));
#542=CARTESIAN_POINT('Origin',(30.3999994322658,-21.,14.));
#543=CARTESIAN_POINT('',(30.3999994322658,-21.,8.));
#544=CARTESIAN_POINT('',(24.0499995630234,-21.,8.));
#545=CARTESIAN_POINT('',(30.3999994322658,-21.,6.00000000000001));
#546=CARTESIAN_POINT('',(30.3999994322658,-21.,14.));
#547=CARTESIAN_POINT('',(30.3999994322658,-21.,6.00000000000001));
#548=CARTESIAN_POINT('Origin',(17.6999996937811,-12.1099995777477,0.));
#549=CARTESIAN_POINT('',(1.99999995529652,-24.,0.));
#550=CARTESIAN_POINT('',(1.99999995529652,-0.219999155495318,5.55111512312578E-15));
#551=CARTESIAN_POINT('',(1.99999995529652,-0.219999155495317,5.55111512312578E-15));
#552=CARTESIAN_POINT('',(33.3999994322658,-0.219999155495318,5.55111512312578E-15));
#553=CARTESIAN_POINT('',(33.3999994322658,-0.219999155495315,5.55111512312578E-15));
#554=CARTESIAN_POINT('',(33.3999994322658,-24.,0.));
#555=CARTESIAN_POINT('',(33.3999994322658,-24.,0.));
#556=CARTESIAN_POINT('',(1.99999995529652,-24.,0.));
#557=CARTESIAN_POINT('Origin',(17.6999997161329,-12.1099995777477,6.00000000000001));
#558=CARTESIAN_POINT('',(30.3999994322658,-3.21999915549532,6.00000000000001));
#559=CARTESIAN_POINT('',(5.,-21.,6.00000000000001));
#560=CARTESIAN_POINT('',(5.,-21.,6.00000000000001));
#561=CARTESIAN_POINT('',(30.3999994322658,-21.,6.00000000000001));
#562=CARTESIAN_POINT('',(26.0999995283782,-19.7000000290573,6.00000000000001));
#563=CARTESIAN_POINT('',(26.0999995283782,-17.2000000849366,6.00000000000001));
#564=CARTESIAN_POINT('',(26.0999995283782,-14.6549998313421,6.00000000000001));
#565=CARTESIAN_POINT('',(9.39999990165234,-19.7000000290573,6.00000000000001));
#566=CARTESIAN_POINT('',(21.8999996222556,-19.7000000290573,6.00000000000001));
#567=CARTESIAN_POINT('',(9.39999990165234,-17.2000000849366,6.00000000000001));
#568=CARTESIAN_POINT('',(9.39999990165234,-15.9049998034025,6.00000000000001));
#569=CARTESIAN_POINT('',(13.5499998088926,-17.2000000849366,6.00000000000001));
#570=CARTESIAN_POINT('Origin',(9.39999990165234,-17.2000000849366,10.5));
#571=CARTESIAN_POINT('',(9.39999990165234,-17.2000000849366,4.));
#572=CARTESIAN_POINT('',(9.39999990165234,-17.2000000849366,10.5));
#573=CARTESIAN_POINT('',(26.0999995283782,-17.2000000849366,4.));
#574=CARTESIAN_POINT('',(13.5749998083338,-17.2000000849366,4.));
#575=CARTESIAN_POINT('',(26.0999995283782,-17.2000000849366,10.5));
#576=CARTESIAN_POINT('Origin',(9.39999990165234,-19.7000000290573,10.5));
#577=CARTESIAN_POINT('',(9.39999990165234,-19.7000000290573,4.));
#578=CARTESIAN_POINT('',(9.39999990165234,-19.7000000290573,10.5));
#579=CARTESIAN_POINT('',(9.39999990165234,-19.0750000430271,4.));
#580=CARTESIAN_POINT('Origin',(17.7499997150153,-18.4500000569969,4.));
#581=CARTESIAN_POINT('',(26.0999995283782,-19.7000000290573,4.));
#582=CARTESIAN_POINT('',(21.9249996216968,-19.7000000290573,4.));
#583=CARTESIAN_POINT('',(26.0999995283782,-17.8250000709668,4.));
#584=CARTESIAN_POINT('Origin',(5.,-21.,14.));
#585=CARTESIAN_POINT('',(5.,-21.,8.));
#586=CARTESIAN_POINT('',(5.,-16.5549997888738,8.));
#587=CARTESIAN_POINT('',(5.,-21.,14.));
#588=CARTESIAN_POINT('Origin',(30.3999994322658,-3.21999915549532,14.));
#589=CARTESIAN_POINT('',(30.3999994322658,-7.66499936662148,8.00000000000001));
#590=CARTESIAN_POINT('Origin',(30.3999994322658,-21.,14.));
#591=CARTESIAN_POINT('',(24.0499995630234,-21.,8.));
#592=CARTESIAN_POINT('Origin',(26.0999995283782,-19.7000000290573,10.5));
#593=CARTESIAN_POINT('',(26.0999995283782,-19.7000000290573,10.5));
#594=CARTESIAN_POINT('Origin',(26.0999995283782,-17.2000000849366,10.5));
#595=CARTESIAN_POINT('Origin',(33.3999994322658,-24.,8.));
#596=CARTESIAN_POINT('',(1.99999995529652,-24.,8.));
#597=CARTESIAN_POINT('',(33.3999994322658,-24.,8.));
#598=CARTESIAN_POINT('',(1.99999995529652,-24.,8.));
#599=CARTESIAN_POINT('',(1.99999995529652,-24.,8.));
#600=CARTESIAN_POINT('',(33.3999994322658,-24.,8.));
#601=CARTESIAN_POINT('Origin',(33.3999994322658,-0.219999155495318,8.00000000000001));
#602=CARTESIAN_POINT('',(33.3999994322658,-0.219999155495318,8.00000000000001));
#603=CARTESIAN_POINT('',(33.3999994322658,-24.,8.));
#604=CARTESIAN_POINT('',(33.3999994322658,-0.219999155495318,8.00000000000001));
#605=CARTESIAN_POINT('Origin',(1.99999995529652,-0.219999155495318,8.00000000000001));
#606=CARTESIAN_POINT('',(1.99999995529652,-0.219999155495318,8.00000000000001));
#607=CARTESIAN_POINT('',(33.3999994322658,-0.219999155495316,8.00000000000001));
#608=CARTESIAN_POINT('',(1.99999995529652,-0.219999155495318,8.00000000000001));
#609=CARTESIAN_POINT('Origin',(1.99999995529652,-24.,8.));
#610=CARTESIAN_POINT('',(1.99999995529652,-0.219999155495318,8.00000000000001));
#611=CARTESIAN_POINT('Origin',(17.6999996937811,-12.1099995777477,8.));
#612=UNCERTAINTY_MEASURE_WITH_UNIT(LENGTH_MEASURE(0.01),#616,
'DISTANCE_ACCURACY_VALUE',
'Maximum model space distance between geometric entities at asserted c
onnectivities');
#613=UNCERTAINTY_MEASURE_WITH_UNIT(LENGTH_MEASURE(0.01),#616,
'DISTANCE_ACCURACY_VALUE',
'Maximum model space distance between geometric entities at asserted c
onnectivities');
#614=(
GEOMETRIC_REPRESENTATION_CONTEXT(3)
GLOBAL_UNCERTAINTY_ASSIGNED_CONTEXT((#612))
GLOBAL_UNIT_ASSIGNED_CONTEXT((#616,#618,#619))
REPRESENTATION_CONTEXT('','3D')
);
#615=(
GEOMETRIC_REPRESENTATION_CONTEXT(3)
GLOBAL_UNCERTAINTY_ASSIGNED_CONTEXT((#613))
GLOBAL_UNIT_ASSIGNED_CONTEXT((#616,#618,#619))
REPRESENTATION_CONTEXT('','3D')
);
#616=(
LENGTH_UNIT()
NAMED_UNIT(*)
SI_UNIT(.MILLI.,.METRE.)
);
#617=(
LENGTH_UNIT()
NAMED_UNIT(*)
SI_UNIT($,.METRE.)
);
#618=(
NAMED_UNIT(*)
PLANE_ANGLE_UNIT()
SI_UNIT($,.RADIAN.)
);
#619=(
NAMED_UNIT(*)
SI_UNIT($,.STERADIAN.)
SOLID_ANGLE_UNIT()
);
#620=SHAPE_DEFINITION_REPRESENTATION(#621,#622);
#621=PRODUCT_DEFINITION_SHAPE('',$,#624);
#622=SHAPE_REPRESENTATION('',(#380),#614);
#623=PRODUCT_DEFINITION_CONTEXT('part definition',#628,'design');
#624=PRODUCT_DEFINITION('2026-09-18-15-18-26-633','BME688_Module',#625,
#623);
#625=PRODUCT_DEFINITION_FORMATION('',$,#630);
#626=PRODUCT_RELATED_PRODUCT_CATEGORY('BME688_Module','BME688_Module',(#630));
#627=APPLICATION_PROTOCOL_DEFINITION('international standard',
'automotive_design',2009,#628);
#628=APPLICATION_CONTEXT(
'Core Data for Automotive Mechanical Design Process');
#629=PRODUCT_CONTEXT('part definition',#628,'mechanical');
#630=PRODUCT('2026-09-18-15-18-26-633','BME688_Module',$,(#629));
#631=PRESENTATION_STYLE_ASSIGNMENT((#632));
#632=SURFACE_STYLE_USAGE(.BOTH.,#633);
#633=SURFACE_SIDE_STYLE('',(#634));
#634=SURFACE_STYLE_FILL_AREA(#635);
#635=FILL_AREA_STYLE('Steel - Satin',(#636));
#636=FILL_AREA_STYLE_COLOUR('Steel - Satin',#637);
#637=COLOUR_RGB('Steel - Satin',0.627450980392157,0.627450980392157,0.627450980392157);
ENDSEC;
END-ISO-10303-21;
