ISO-10303-21;
HEADER;
/* Generated by software containing ST-Developer
 * from STEP Tools, Inc. (www.steptools.com) 
 */

FILE_DESCRIPTION(
/* description */ (''),
/* implementation_level */ '2;1');

FILE_NAME(
/* name */ 'Capacitive_Soil_Moisture_Probe_Module.step',
/* time_stamp */ '2026-09-24T16:53:28-04:00',
/* author */ (''),
/* organization */ (''),
/* preprocessor_version */ 'ST-DEVELOPER v20.2',
/* originating_system */ 'Autodesk Translation Framework v15.15.0.0',
/* authorisation */ '');

FILE_SCHEMA (('AUTOMOTIVE_DESIGN { 1 0 10303 214 3 1 1 }'));
ENDSEC;

DATA;
#10=MECHANICAL_DESIGN_GEOMETRIC_PRESENTATION_REPRESENTATION('',(#13,#14),
#1097);
#11=SHAPE_REPRESENTATION_RELATIONSHIP('SRR','None',#1104,#12);
#12=ADVANCED_BREP_SHAPE_REPRESENTATION('',(#15,#16),#1096);
#13=STYLED_ITEM('',(#1113),#15);
#14=STYLED_ITEM('',(#1113),#16);
#15=MANIFOLD_SOLID_BREP('Body10',#680);
#16=MANIFOLD_SOLID_BREP('Body17',#681);
#17=CYLINDRICAL_SURFACE('',#709,1.45);
#18=CYLINDRICAL_SURFACE('',#723,1.45);
#19=CIRCLE('',#698,1.45);
#20=CIRCLE('',#702,1.45);
#21=CIRCLE('',#710,1.45);
#22=CIRCLE('',#714,1.45);
#23=FACE_OUTER_BOUND('',#58,.T.);
#24=FACE_OUTER_BOUND('',#59,.T.);
#25=FACE_OUTER_BOUND('',#60,.T.);
#26=FACE_OUTER_BOUND('',#61,.T.);
#27=FACE_OUTER_BOUND('',#62,.T.);
#28=FACE_OUTER_BOUND('',#63,.T.);
#29=FACE_OUTER_BOUND('',#64,.T.);
#30=FACE_OUTER_BOUND('',#65,.T.);
#31=FACE_OUTER_BOUND('',#66,.T.);
#32=FACE_OUTER_BOUND('',#67,.T.);
#33=FACE_OUTER_BOUND('',#68,.T.);
#34=FACE_OUTER_BOUND('',#69,.T.);
#35=FACE_OUTER_BOUND('',#70,.T.);
#36=FACE_OUTER_BOUND('',#71,.T.);
#37=FACE_OUTER_BOUND('',#72,.T.);
#38=FACE_OUTER_BOUND('',#73,.T.);
#39=FACE_OUTER_BOUND('',#74,.T.);
#40=FACE_OUTER_BOUND('',#75,.T.);
#41=FACE_OUTER_BOUND('',#76,.T.);
#42=FACE_OUTER_BOUND('',#77,.T.);
#43=FACE_OUTER_BOUND('',#78,.T.);
#44=FACE_OUTER_BOUND('',#79,.T.);
#45=FACE_OUTER_BOUND('',#80,.T.);
#46=FACE_OUTER_BOUND('',#81,.T.);
#47=FACE_OUTER_BOUND('',#82,.T.);
#48=FACE_OUTER_BOUND('',#83,.T.);
#49=FACE_OUTER_BOUND('',#84,.T.);
#50=FACE_OUTER_BOUND('',#85,.T.);
#51=FACE_OUTER_BOUND('',#86,.T.);
#52=FACE_OUTER_BOUND('',#87,.T.);
#53=FACE_OUTER_BOUND('',#88,.T.);
#54=FACE_OUTER_BOUND('',#89,.T.);
#55=FACE_OUTER_BOUND('',#90,.T.);
#56=FACE_OUTER_BOUND('',#91,.T.);
#57=FACE_OUTER_BOUND('',#92,.T.);
#58=EDGE_LOOP('',(#426,#427,#428,#429));
#59=EDGE_LOOP('',(#430,#431,#432,#433));
#60=EDGE_LOOP('',(#434,#435,#436,#437,#438,#439,#440,#441,#442));
#61=EDGE_LOOP('',(#443,#444,#445,#446));
#62=EDGE_LOOP('',(#447,#448,#449,#450));
#63=EDGE_LOOP('',(#451,#452,#453,#454,#455,#456,#457,#458,#459));
#64=EDGE_LOOP('',(#460,#461,#462,#463));
#65=EDGE_LOOP('',(#464,#465,#466,#467));
#66=EDGE_LOOP('',(#468,#469,#470,#471,#472,#473));
#67=EDGE_LOOP('',(#474,#475,#476,#477));
#68=EDGE_LOOP('',(#478,#479,#480,#481));
#69=EDGE_LOOP('',(#482,#483,#484,#485));
#70=EDGE_LOOP('',(#486,#487,#488,#489));
#71=EDGE_LOOP('',(#490,#491,#492,#493,#494,#495));
#72=EDGE_LOOP('',(#496,#497,#498,#499,#500,#501,#502,#503,#504));
#73=EDGE_LOOP('',(#505,#506,#507,#508,#509,#510,#511,#512,#513,#514,#515,
#516,#517,#518,#519,#520,#521,#522,#523));
#74=EDGE_LOOP('',(#524,#525,#526,#527));
#75=EDGE_LOOP('',(#528,#529,#530,#531));
#76=EDGE_LOOP('',(#532,#533,#534,#535));
#77=EDGE_LOOP('',(#536,#537,#538,#539,#540,#541));
#78=EDGE_LOOP('',(#542,#543,#544,#545));
#79=EDGE_LOOP('',(#546,#547,#548,#549));
#80=EDGE_LOOP('',(#550,#551,#552,#553,#554,#555));
#81=EDGE_LOOP('',(#556,#557,#558,#559));
#82=EDGE_LOOP('',(#560,#561,#562,#563));
#83=EDGE_LOOP('',(#564,#565,#566,#567));
#84=EDGE_LOOP('',(#568,#569,#570,#571));
#85=EDGE_LOOP('',(#572,#573,#574,#575));
#86=EDGE_LOOP('',(#576,#577,#578,#579));
#87=EDGE_LOOP('',(#580,#581,#582,#583,#584,#585,#586,#587));
#88=EDGE_LOOP('',(#588,#589,#590,#591));
#89=EDGE_LOOP('',(#592,#593,#594,#595));
#90=EDGE_LOOP('',(#596,#597,#598,#599));
#91=EDGE_LOOP('',(#600,#601,#602,#603,#604,#605,#606,#607));
#92=EDGE_LOOP('',(#608,#609,#610,#611));
#93=LINE('',#907,#182);
#94=LINE('',#909,#183);
#95=LINE('',#911,#184);
#96=LINE('',#912,#185);
#97=LINE('',#915,#186);
#98=LINE('',#917,#187);
#99=LINE('',#918,#188);
#100=LINE('',#921,#189);
#101=LINE('',#925,#190);
#102=LINE('',#927,#191);
#103=LINE('',#929,#192);
#104=LINE('',#931,#193);
#105=LINE('',#932,#194);
#106=LINE('',#936,#195);
#107=LINE('',#938,#196);
#108=LINE('',#940,#197);
#109=LINE('',#941,#198);
#110=LINE('',#944,#199);
#111=LINE('',#946,#200);
#112=LINE('',#947,#201);
#113=LINE('',#950,#202);
#114=LINE('',#952,#203);
#115=LINE('',#954,#204);
#116=LINE('',#956,#205);
#117=LINE('',#958,#206);
#118=LINE('',#960,#207);
#119=LINE('',#964,#208);
#120=LINE('',#965,#209);
#121=LINE('',#968,#210);
#122=LINE('',#969,#211);
#123=LINE('',#973,#212);
#124=LINE('',#975,#213);
#125=LINE('',#976,#214);
#126=LINE('',#978,#215);
#127=LINE('',#979,#216);
#128=LINE('',#981,#217);
#129=LINE('',#984,#218);
#130=LINE('',#985,#219);
#131=LINE('',#988,#220);
#132=LINE('',#990,#221);
#133=LINE('',#991,#222);
#134=LINE('',#996,#223);
#135=LINE('',#998,#224);
#136=LINE('',#999,#225);
#137=LINE('',#1002,#226);
#138=LINE('',#1004,#227);
#139=LINE('',#1006,#228);
#140=LINE('',#1008,#229);
#141=LINE('',#1010,#230);
#142=LINE('',#1011,#231);
#143=LINE('',#1014,#232);
#144=LINE('',#1016,#233);
#145=LINE('',#1018,#234);
#146=LINE('',#1019,#235);
#147=LINE('',#1021,#236);
#148=LINE('',#1023,#237);
#149=LINE('',#1025,#238);
#150=LINE('',#1028,#239);
#151=LINE('',#1030,#240);
#152=LINE('',#1032,#241);
#153=LINE('',#1034,#242);
#154=LINE('',#1035,#243);
#155=LINE('',#1037,#244);
#156=LINE('',#1040,#245);
#157=LINE('',#1042,#246);
#158=LINE('',#1047,#247);
#159=LINE('',#1049,#248);
#160=LINE('',#1051,#249);
#161=LINE('',#1052,#250);
#162=LINE('',#1056,#251);
#163=LINE('',#1058,#252);
#164=LINE('',#1060,#253);
#165=LINE('',#1061,#254);
#166=LINE('',#1064,#255);
#167=LINE('',#1066,#256);
#168=LINE('',#1067,#257);
#169=LINE('',#1070,#258);
#170=LINE('',#1072,#259);
#171=LINE('',#1073,#260);
#172=LINE('',#1076,#261);
#173=LINE('',#1078,#262);
#174=LINE('',#1079,#263);
#175=LINE('',#1080,#264);
#176=LINE('',#1083,#265);
#177=LINE('',#1084,#266);
#178=LINE('',#1087,#267);
#179=LINE('',#1088,#268);
#180=LINE('',#1090,#269);
#181=LINE('',#1092,#270);
#182=VECTOR('',#738,10.);
#183=VECTOR('',#739,10.);
#184=VECTOR('',#740,10.);
#185=VECTOR('',#741,10.);
#186=VECTOR('',#744,10.);
#187=VECTOR('',#745,10.);
#188=VECTOR('',#746,10.);
#189=VECTOR('',#749,10.);
#190=VECTOR('',#752,10.);
#191=VECTOR('',#753,10.);
#192=VECTOR('',#754,10.);
#193=VECTOR('',#755,10.);
#194=VECTOR('',#756,10.);
#195=VECTOR('',#759,10.);
#196=VECTOR('',#760,10.);
#197=VECTOR('',#761,10.);
#198=VECTOR('',#762,10.);
#199=VECTOR('',#765,10.);
#200=VECTOR('',#766,10.);
#201=VECTOR('',#767,10.);
#202=VECTOR('',#770,10.);
#203=VECTOR('',#771,10.);
#204=VECTOR('',#772,10.);
#205=VECTOR('',#773,10.);
#206=VECTOR('',#774,10.);
#207=VECTOR('',#775,10.);
#208=VECTOR('',#780,10.);
#209=VECTOR('',#781,10.);
#210=VECTOR('',#784,10.);
#211=VECTOR('',#785,10.);
#212=VECTOR('',#788,10.);
#213=VECTOR('',#789,10.);
#214=VECTOR('',#790,10.);
#215=VECTOR('',#791,10.);
#216=VECTOR('',#792,10.);
#217=VECTOR('',#795,10.);
#218=VECTOR('',#798,10.);
#219=VECTOR('',#799,10.);
#220=VECTOR('',#802,10.);
#221=VECTOR('',#803,10.);
#222=VECTOR('',#804,10.);
#223=VECTOR('',#811,10.);
#224=VECTOR('',#812,10.);
#225=VECTOR('',#813,10.);
#226=VECTOR('',#816,10.);
#227=VECTOR('',#817,10.);
#228=VECTOR('',#818,10.);
#229=VECTOR('',#819,10.);
#230=VECTOR('',#820,10.);
#231=VECTOR('',#821,10.);
#232=VECTOR('',#824,10.);
#233=VECTOR('',#825,10.);
#234=VECTOR('',#826,10.);
#235=VECTOR('',#827,10.);
#236=VECTOR('',#828,10.);
#237=VECTOR('',#829,10.);
#238=VECTOR('',#830,10.);
#239=VECTOR('',#835,10.);
#240=VECTOR('',#838,10.);
#241=VECTOR('',#841,10.);
#242=VECTOR('',#844,10.);
#243=VECTOR('',#845,10.);
#244=VECTOR('',#848,10.);
#245=VECTOR('',#853,10.);
#246=VECTOR('',#856,10.);
#247=VECTOR('',#861,10.);
#248=VECTOR('',#862,10.);
#249=VECTOR('',#863,10.);
#250=VECTOR('',#864,10.);
#251=VECTOR('',#867,10.);
#252=VECTOR('',#868,10.);
#253=VECTOR('',#869,10.);
#254=VECTOR('',#870,10.);
#255=VECTOR('',#873,10.);
#256=VECTOR('',#874,10.);
#257=VECTOR('',#875,10.);
#258=VECTOR('',#878,10.);
#259=VECTOR('',#879,10.);
#260=VECTOR('',#880,10.);
#261=VECTOR('',#883,10.);
#262=VECTOR('',#884,10.);
#263=VECTOR('',#885,10.);
#264=VECTOR('',#886,10.);
#265=VECTOR('',#889,10.);
#266=VECTOR('',#890,10.);
#267=VECTOR('',#893,10.);
#268=VECTOR('',#894,10.);
#269=VECTOR('',#897,10.);
#270=VECTOR('',#900,10.);
#271=VERTEX_POINT('',#905);
#272=VERTEX_POINT('',#906);
#273=VERTEX_POINT('',#908);
#274=VERTEX_POINT('',#910);
#275=VERTEX_POINT('',#914);
#276=VERTEX_POINT('',#916);
#277=VERTEX_POINT('',#920);
#278=VERTEX_POINT('',#922);
#279=VERTEX_POINT('',#924);
#280=VERTEX_POINT('',#926);
#281=VERTEX_POINT('',#928);
#282=VERTEX_POINT('',#930);
#283=VERTEX_POINT('',#934);
#284=VERTEX_POINT('',#935);
#285=VERTEX_POINT('',#937);
#286=VERTEX_POINT('',#939);
#287=VERTEX_POINT('',#943);
#288=VERTEX_POINT('',#945);
#289=VERTEX_POINT('',#949);
#290=VERTEX_POINT('',#951);
#291=VERTEX_POINT('',#953);
#292=VERTEX_POINT('',#955);
#293=VERTEX_POINT('',#957);
#294=VERTEX_POINT('',#959);
#295=VERTEX_POINT('',#963);
#296=VERTEX_POINT('',#967);
#297=VERTEX_POINT('',#971);
#298=VERTEX_POINT('',#972);
#299=VERTEX_POINT('',#974);
#300=VERTEX_POINT('',#977);
#301=VERTEX_POINT('',#983);
#302=VERTEX_POINT('',#987);
#303=VERTEX_POINT('',#989);
#304=VERTEX_POINT('',#995);
#305=VERTEX_POINT('',#997);
#306=VERTEX_POINT('',#1001);
#307=VERTEX_POINT('',#1003);
#308=VERTEX_POINT('',#1005);
#309=VERTEX_POINT('',#1007);
#310=VERTEX_POINT('',#1009);
#311=VERTEX_POINT('',#1013);
#312=VERTEX_POINT('',#1015);
#313=VERTEX_POINT('',#1017);
#314=VERTEX_POINT('',#1020);
#315=VERTEX_POINT('',#1022);
#316=VERTEX_POINT('',#1024);
#317=VERTEX_POINT('',#1045);
#318=VERTEX_POINT('',#1046);
#319=VERTEX_POINT('',#1048);
#320=VERTEX_POINT('',#1050);
#321=VERTEX_POINT('',#1054);
#322=VERTEX_POINT('',#1055);
#323=VERTEX_POINT('',#1057);
#324=VERTEX_POINT('',#1059);
#325=VERTEX_POINT('',#1063);
#326=VERTEX_POINT('',#1065);
#327=VERTEX_POINT('',#1069);
#328=VERTEX_POINT('',#1071);
#329=VERTEX_POINT('',#1075);
#330=VERTEX_POINT('',#1077);
#331=VERTEX_POINT('',#1082);
#332=VERTEX_POINT('',#1086);
#333=EDGE_CURVE('',#271,#272,#93,.T.);
#334=EDGE_CURVE('',#272,#273,#94,.T.);
#335=EDGE_CURVE('',#273,#274,#95,.T.);
#336=EDGE_CURVE('',#274,#271,#96,.T.);
#337=EDGE_CURVE('',#275,#272,#97,.T.);
#338=EDGE_CURVE('',#276,#275,#98,.T.);
#339=EDGE_CURVE('',#273,#276,#99,.T.);
#340=EDGE_CURVE('',#271,#277,#100,.T.);
#341=EDGE_CURVE('',#277,#278,#19,.T.);
#342=EDGE_CURVE('',#278,#279,#101,.T.);
#343=EDGE_CURVE('',#279,#280,#102,.T.);
#344=EDGE_CURVE('',#280,#281,#103,.T.);
#345=EDGE_CURVE('',#281,#282,#104,.T.);
#346=EDGE_CURVE('',#282,#275,#105,.T.);
#347=EDGE_CURVE('',#283,#284,#106,.T.);
#348=EDGE_CURVE('',#284,#285,#107,.T.);
#349=EDGE_CURVE('',#285,#286,#108,.T.);
#350=EDGE_CURVE('',#286,#283,#109,.T.);
#351=EDGE_CURVE('',#287,#284,#110,.T.);
#352=EDGE_CURVE('',#288,#287,#111,.T.);
#353=EDGE_CURVE('',#285,#288,#112,.T.);
#354=EDGE_CURVE('',#283,#289,#113,.T.);
#355=EDGE_CURVE('',#289,#290,#114,.T.);
#356=EDGE_CURVE('',#290,#291,#115,.T.);
#357=EDGE_CURVE('',#292,#291,#116,.T.);
#358=EDGE_CURVE('',#292,#293,#117,.T.);
#359=EDGE_CURVE('',#293,#294,#118,.T.);
#360=EDGE_CURVE('',#294,#287,#20,.T.);
#361=EDGE_CURVE('',#295,#274,#119,.T.);
#362=EDGE_CURVE('',#295,#277,#120,.T.);
#363=EDGE_CURVE('',#296,#286,#121,.T.);
#364=EDGE_CURVE('',#289,#296,#122,.T.);
#365=EDGE_CURVE('',#297,#298,#123,.T.);
#366=EDGE_CURVE('',#299,#298,#124,.T.);
#367=EDGE_CURVE('',#291,#299,#125,.T.);
#368=EDGE_CURVE('',#300,#290,#126,.T.);
#369=EDGE_CURVE('',#297,#300,#127,.T.);
#370=EDGE_CURVE('',#296,#300,#128,.T.);
#371=EDGE_CURVE('',#301,#299,#129,.T.);
#372=EDGE_CURVE('',#292,#301,#130,.T.);
#373=EDGE_CURVE('',#294,#302,#131,.F.);
#374=EDGE_CURVE('',#293,#303,#132,.T.);
#375=EDGE_CURVE('',#302,#303,#133,.T.);
#376=EDGE_CURVE('',#288,#302,#21,.T.);
#377=EDGE_CURVE('',#301,#304,#134,.T.);
#378=EDGE_CURVE('',#304,#305,#135,.T.);
#379=EDGE_CURVE('',#303,#305,#136,.T.);
#380=EDGE_CURVE('',#298,#306,#137,.T.);
#381=EDGE_CURVE('',#306,#307,#138,.T.);
#382=EDGE_CURVE('',#307,#308,#139,.T.);
#383=EDGE_CURVE('',#308,#309,#140,.T.);
#384=EDGE_CURVE('',#310,#309,#141,.T.);
#385=EDGE_CURVE('',#310,#304,#142,.T.);
#386=EDGE_CURVE('',#276,#311,#143,.T.);
#387=EDGE_CURVE('',#311,#312,#144,.T.);
#388=EDGE_CURVE('',#312,#313,#145,.T.);
#389=EDGE_CURVE('',#313,#297,#146,.T.);
#390=EDGE_CURVE('',#305,#314,#147,.T.);
#391=EDGE_CURVE('',#314,#315,#148,.T.);
#392=EDGE_CURVE('',#315,#316,#149,.T.);
#393=EDGE_CURVE('',#316,#295,#22,.T.);
#394=EDGE_CURVE('',#314,#310,#150,.T.);
#395=EDGE_CURVE('',#306,#313,#151,.T.);
#396=EDGE_CURVE('',#312,#307,#152,.T.);
#397=EDGE_CURVE('',#282,#311,#153,.T.);
#398=EDGE_CURVE('',#308,#281,#154,.T.);
#399=EDGE_CURVE('',#309,#280,#155,.T.);
#400=EDGE_CURVE('',#279,#315,#156,.T.);
#401=EDGE_CURVE('',#278,#316,#157,.F.);
#402=EDGE_CURVE('',#317,#318,#158,.T.);
#403=EDGE_CURVE('',#319,#317,#159,.T.);
#404=EDGE_CURVE('',#320,#319,#160,.T.);
#405=EDGE_CURVE('',#318,#320,#161,.T.);
#406=EDGE_CURVE('',#321,#322,#162,.T.);
#407=EDGE_CURVE('',#323,#321,#163,.T.);
#408=EDGE_CURVE('',#324,#323,#164,.T.);
#409=EDGE_CURVE('',#322,#324,#165,.T.);
#410=EDGE_CURVE('',#319,#325,#166,.T.);
#411=EDGE_CURVE('',#326,#325,#167,.T.);
#412=EDGE_CURVE('',#320,#326,#168,.T.);
#413=EDGE_CURVE('',#323,#327,#169,.T.);
#414=EDGE_CURVE('',#328,#327,#170,.T.);
#415=EDGE_CURVE('',#324,#328,#171,.T.);
#416=EDGE_CURVE('',#317,#329,#172,.T.);
#417=EDGE_CURVE('',#330,#329,#173,.T.);
#418=EDGE_CURVE('',#330,#322,#174,.T.);
#419=EDGE_CURVE('',#325,#328,#175,.T.);
#420=EDGE_CURVE('',#331,#330,#176,.T.);
#421=EDGE_CURVE('',#321,#331,#177,.T.);
#422=EDGE_CURVE('',#332,#318,#178,.T.);
#423=EDGE_CURVE('',#329,#332,#179,.T.);
#424=EDGE_CURVE('',#332,#331,#180,.T.);
#425=EDGE_CURVE('',#327,#326,#181,.T.);
#426=ORIENTED_EDGE('',*,*,#333,.T.);
#427=ORIENTED_EDGE('',*,*,#334,.T.);
#428=ORIENTED_EDGE('',*,*,#335,.T.);
#429=ORIENTED_EDGE('',*,*,#336,.T.);
#430=ORIENTED_EDGE('',*,*,#334,.F.);
#431=ORIENTED_EDGE('',*,*,#337,.F.);
#432=ORIENTED_EDGE('',*,*,#338,.F.);
#433=ORIENTED_EDGE('',*,*,#339,.F.);
#434=ORIENTED_EDGE('',*,*,#333,.F.);
#435=ORIENTED_EDGE('',*,*,#340,.T.);
#436=ORIENTED_EDGE('',*,*,#341,.T.);
#437=ORIENTED_EDGE('',*,*,#342,.T.);
#438=ORIENTED_EDGE('',*,*,#343,.T.);
#439=ORIENTED_EDGE('',*,*,#344,.T.);
#440=ORIENTED_EDGE('',*,*,#345,.T.);
#441=ORIENTED_EDGE('',*,*,#346,.T.);
#442=ORIENTED_EDGE('',*,*,#337,.T.);
#443=ORIENTED_EDGE('',*,*,#347,.T.);
#444=ORIENTED_EDGE('',*,*,#348,.T.);
#445=ORIENTED_EDGE('',*,*,#349,.T.);
#446=ORIENTED_EDGE('',*,*,#350,.T.);
#447=ORIENTED_EDGE('',*,*,#348,.F.);
#448=ORIENTED_EDGE('',*,*,#351,.F.);
#449=ORIENTED_EDGE('',*,*,#352,.F.);
#450=ORIENTED_EDGE('',*,*,#353,.F.);
#451=ORIENTED_EDGE('',*,*,#347,.F.);
#452=ORIENTED_EDGE('',*,*,#354,.T.);
#453=ORIENTED_EDGE('',*,*,#355,.T.);
#454=ORIENTED_EDGE('',*,*,#356,.T.);
#455=ORIENTED_EDGE('',*,*,#357,.F.);
#456=ORIENTED_EDGE('',*,*,#358,.T.);
#457=ORIENTED_EDGE('',*,*,#359,.T.);
#458=ORIENTED_EDGE('',*,*,#360,.T.);
#459=ORIENTED_EDGE('',*,*,#351,.T.);
#460=ORIENTED_EDGE('',*,*,#336,.F.);
#461=ORIENTED_EDGE('',*,*,#361,.F.);
#462=ORIENTED_EDGE('',*,*,#362,.T.);
#463=ORIENTED_EDGE('',*,*,#340,.F.);
#464=ORIENTED_EDGE('',*,*,#350,.F.);
#465=ORIENTED_EDGE('',*,*,#363,.F.);
#466=ORIENTED_EDGE('',*,*,#364,.F.);
#467=ORIENTED_EDGE('',*,*,#354,.F.);
#468=ORIENTED_EDGE('',*,*,#365,.T.);
#469=ORIENTED_EDGE('',*,*,#366,.F.);
#470=ORIENTED_EDGE('',*,*,#367,.F.);
#471=ORIENTED_EDGE('',*,*,#356,.F.);
#472=ORIENTED_EDGE('',*,*,#368,.F.);
#473=ORIENTED_EDGE('',*,*,#369,.F.);
#474=ORIENTED_EDGE('',*,*,#368,.T.);
#475=ORIENTED_EDGE('',*,*,#355,.F.);
#476=ORIENTED_EDGE('',*,*,#364,.T.);
#477=ORIENTED_EDGE('',*,*,#370,.T.);
#478=ORIENTED_EDGE('',*,*,#367,.T.);
#479=ORIENTED_EDGE('',*,*,#371,.F.);
#480=ORIENTED_EDGE('',*,*,#372,.F.);
#481=ORIENTED_EDGE('',*,*,#357,.T.);
#482=ORIENTED_EDGE('',*,*,#373,.F.);
#483=ORIENTED_EDGE('',*,*,#359,.F.);
#484=ORIENTED_EDGE('',*,*,#374,.T.);
#485=ORIENTED_EDGE('',*,*,#375,.F.);
#486=ORIENTED_EDGE('',*,*,#352,.T.);
#487=ORIENTED_EDGE('',*,*,#360,.F.);
#488=ORIENTED_EDGE('',*,*,#373,.T.);
#489=ORIENTED_EDGE('',*,*,#376,.F.);
#490=ORIENTED_EDGE('',*,*,#377,.T.);
#491=ORIENTED_EDGE('',*,*,#378,.T.);
#492=ORIENTED_EDGE('',*,*,#379,.F.);
#493=ORIENTED_EDGE('',*,*,#374,.F.);
#494=ORIENTED_EDGE('',*,*,#358,.F.);
#495=ORIENTED_EDGE('',*,*,#372,.T.);
#496=ORIENTED_EDGE('',*,*,#366,.T.);
#497=ORIENTED_EDGE('',*,*,#380,.T.);
#498=ORIENTED_EDGE('',*,*,#381,.T.);
#499=ORIENTED_EDGE('',*,*,#382,.T.);
#500=ORIENTED_EDGE('',*,*,#383,.T.);
#501=ORIENTED_EDGE('',*,*,#384,.F.);
#502=ORIENTED_EDGE('',*,*,#385,.T.);
#503=ORIENTED_EDGE('',*,*,#377,.F.);
#504=ORIENTED_EDGE('',*,*,#371,.T.);
#505=ORIENTED_EDGE('',*,*,#335,.F.);
#506=ORIENTED_EDGE('',*,*,#339,.T.);
#507=ORIENTED_EDGE('',*,*,#386,.T.);
#508=ORIENTED_EDGE('',*,*,#387,.T.);
#509=ORIENTED_EDGE('',*,*,#388,.T.);
#510=ORIENTED_EDGE('',*,*,#389,.T.);
#511=ORIENTED_EDGE('',*,*,#369,.T.);
#512=ORIENTED_EDGE('',*,*,#370,.F.);
#513=ORIENTED_EDGE('',*,*,#363,.T.);
#514=ORIENTED_EDGE('',*,*,#349,.F.);
#515=ORIENTED_EDGE('',*,*,#353,.T.);
#516=ORIENTED_EDGE('',*,*,#376,.T.);
#517=ORIENTED_EDGE('',*,*,#375,.T.);
#518=ORIENTED_EDGE('',*,*,#379,.T.);
#519=ORIENTED_EDGE('',*,*,#390,.T.);
#520=ORIENTED_EDGE('',*,*,#391,.T.);
#521=ORIENTED_EDGE('',*,*,#392,.T.);
#522=ORIENTED_EDGE('',*,*,#393,.T.);
#523=ORIENTED_EDGE('',*,*,#361,.T.);
#524=ORIENTED_EDGE('',*,*,#390,.F.);
#525=ORIENTED_EDGE('',*,*,#378,.F.);
#526=ORIENTED_EDGE('',*,*,#385,.F.);
#527=ORIENTED_EDGE('',*,*,#394,.F.);
#528=ORIENTED_EDGE('',*,*,#389,.F.);
#529=ORIENTED_EDGE('',*,*,#395,.F.);
#530=ORIENTED_EDGE('',*,*,#380,.F.);
#531=ORIENTED_EDGE('',*,*,#365,.F.);
#532=ORIENTED_EDGE('',*,*,#395,.T.);
#533=ORIENTED_EDGE('',*,*,#388,.F.);
#534=ORIENTED_EDGE('',*,*,#396,.T.);
#535=ORIENTED_EDGE('',*,*,#381,.F.);
#536=ORIENTED_EDGE('',*,*,#382,.F.);
#537=ORIENTED_EDGE('',*,*,#396,.F.);
#538=ORIENTED_EDGE('',*,*,#387,.F.);
#539=ORIENTED_EDGE('',*,*,#397,.F.);
#540=ORIENTED_EDGE('',*,*,#345,.F.);
#541=ORIENTED_EDGE('',*,*,#398,.F.);
#542=ORIENTED_EDGE('',*,*,#398,.T.);
#543=ORIENTED_EDGE('',*,*,#344,.F.);
#544=ORIENTED_EDGE('',*,*,#399,.F.);
#545=ORIENTED_EDGE('',*,*,#383,.F.);
#546=ORIENTED_EDGE('',*,*,#397,.T.);
#547=ORIENTED_EDGE('',*,*,#386,.F.);
#548=ORIENTED_EDGE('',*,*,#338,.T.);
#549=ORIENTED_EDGE('',*,*,#346,.F.);
#550=ORIENTED_EDGE('',*,*,#384,.T.);
#551=ORIENTED_EDGE('',*,*,#399,.T.);
#552=ORIENTED_EDGE('',*,*,#343,.F.);
#553=ORIENTED_EDGE('',*,*,#400,.T.);
#554=ORIENTED_EDGE('',*,*,#391,.F.);
#555=ORIENTED_EDGE('',*,*,#394,.T.);
#556=ORIENTED_EDGE('',*,*,#401,.T.);
#557=ORIENTED_EDGE('',*,*,#392,.F.);
#558=ORIENTED_EDGE('',*,*,#400,.F.);
#559=ORIENTED_EDGE('',*,*,#342,.F.);
#560=ORIENTED_EDGE('',*,*,#362,.F.);
#561=ORIENTED_EDGE('',*,*,#393,.F.);
#562=ORIENTED_EDGE('',*,*,#401,.F.);
#563=ORIENTED_EDGE('',*,*,#341,.F.);
#564=ORIENTED_EDGE('',*,*,#402,.F.);
#565=ORIENTED_EDGE('',*,*,#403,.F.);
#566=ORIENTED_EDGE('',*,*,#404,.F.);
#567=ORIENTED_EDGE('',*,*,#405,.F.);
#568=ORIENTED_EDGE('',*,*,#406,.F.);
#569=ORIENTED_EDGE('',*,*,#407,.F.);
#570=ORIENTED_EDGE('',*,*,#408,.F.);
#571=ORIENTED_EDGE('',*,*,#409,.F.);
#572=ORIENTED_EDGE('',*,*,#404,.T.);
#573=ORIENTED_EDGE('',*,*,#410,.T.);
#574=ORIENTED_EDGE('',*,*,#411,.F.);
#575=ORIENTED_EDGE('',*,*,#412,.F.);
#576=ORIENTED_EDGE('',*,*,#408,.T.);
#577=ORIENTED_EDGE('',*,*,#413,.T.);
#578=ORIENTED_EDGE('',*,*,#414,.F.);
#579=ORIENTED_EDGE('',*,*,#415,.F.);
#580=ORIENTED_EDGE('',*,*,#403,.T.);
#581=ORIENTED_EDGE('',*,*,#416,.T.);
#582=ORIENTED_EDGE('',*,*,#417,.F.);
#583=ORIENTED_EDGE('',*,*,#418,.T.);
#584=ORIENTED_EDGE('',*,*,#409,.T.);
#585=ORIENTED_EDGE('',*,*,#415,.T.);
#586=ORIENTED_EDGE('',*,*,#419,.F.);
#587=ORIENTED_EDGE('',*,*,#410,.F.);
#588=ORIENTED_EDGE('',*,*,#418,.F.);
#589=ORIENTED_EDGE('',*,*,#420,.F.);
#590=ORIENTED_EDGE('',*,*,#421,.F.);
#591=ORIENTED_EDGE('',*,*,#406,.T.);
#592=ORIENTED_EDGE('',*,*,#422,.F.);
#593=ORIENTED_EDGE('',*,*,#423,.F.);
#594=ORIENTED_EDGE('',*,*,#416,.F.);
#595=ORIENTED_EDGE('',*,*,#402,.T.);
#596=ORIENTED_EDGE('',*,*,#417,.T.);
#597=ORIENTED_EDGE('',*,*,#423,.T.);
#598=ORIENTED_EDGE('',*,*,#424,.T.);
#599=ORIENTED_EDGE('',*,*,#420,.T.);
#600=ORIENTED_EDGE('',*,*,#405,.T.);
#601=ORIENTED_EDGE('',*,*,#412,.T.);
#602=ORIENTED_EDGE('',*,*,#425,.F.);
#603=ORIENTED_EDGE('',*,*,#413,.F.);
#604=ORIENTED_EDGE('',*,*,#407,.T.);
#605=ORIENTED_EDGE('',*,*,#421,.T.);
#606=ORIENTED_EDGE('',*,*,#424,.F.);
#607=ORIENTED_EDGE('',*,*,#422,.T.);
#608=ORIENTED_EDGE('',*,*,#419,.T.);
#609=ORIENTED_EDGE('',*,*,#414,.T.);
#610=ORIENTED_EDGE('',*,*,#425,.T.);
#611=ORIENTED_EDGE('',*,*,#411,.T.);
#612=PLANE('',#695);
#613=PLANE('',#696);
#614=PLANE('',#697);
#615=PLANE('',#699);
#616=PLANE('',#700);
#617=PLANE('',#701);
#618=PLANE('',#703);
#619=PLANE('',#704);
#620=PLANE('',#705);
#621=PLANE('',#706);
#622=PLANE('',#707);
#623=PLANE('',#708);
#624=PLANE('',#711);
#625=PLANE('',#712);
#626=PLANE('',#713);
#627=PLANE('',#715);
#628=PLANE('',#716);
#629=PLANE('',#717);
#630=PLANE('',#718);
#631=PLANE('',#719);
#632=PLANE('',#720);
#633=PLANE('',#721);
#634=PLANE('',#722);
#635=PLANE('',#724);
#636=PLANE('',#725);
#637=PLANE('',#726);
#638=PLANE('',#727);
#639=PLANE('',#728);
#640=PLANE('',#729);
#641=PLANE('',#730);
#642=PLANE('',#731);
#643=PLANE('',#732);
#644=PLANE('',#733);
#645=ADVANCED_FACE('',(#23),#612,.T.);
#646=ADVANCED_FACE('',(#24),#613,.F.);
#647=ADVANCED_FACE('',(#25),#614,.F.);
#648=ADVANCED_FACE('',(#26),#615,.T.);
#649=ADVANCED_FACE('',(#27),#616,.T.);
#650=ADVANCED_FACE('',(#28),#617,.F.);
#651=ADVANCED_FACE('',(#29),#618,.F.);
#652=ADVANCED_FACE('',(#30),#619,.T.);
#653=ADVANCED_FACE('',(#31),#620,.F.);
#654=ADVANCED_FACE('',(#32),#621,.F.);
#655=ADVANCED_FACE('',(#33),#622,.F.);
#656=ADVANCED_FACE('',(#34),#623,.F.);
#657=ADVANCED_FACE('',(#35),#17,.T.);
#658=ADVANCED_FACE('',(#36),#624,.F.);
#659=ADVANCED_FACE('',(#37),#625,.T.);
#660=ADVANCED_FACE('',(#38),#626,.T.);
#661=ADVANCED_FACE('',(#39),#627,.T.);
#662=ADVANCED_FACE('',(#40),#628,.T.);
#663=ADVANCED_FACE('',(#41),#629,.F.);
#664=ADVANCED_FACE('',(#42),#630,.F.);
#665=ADVANCED_FACE('',(#43),#631,.F.);
#666=ADVANCED_FACE('',(#44),#632,.F.);
#667=ADVANCED_FACE('',(#45),#633,.T.);
#668=ADVANCED_FACE('',(#46),#634,.T.);
#669=ADVANCED_FACE('',(#47),#18,.T.);
#670=ADVANCED_FACE('',(#48),#635,.F.);
#671=ADVANCED_FACE('',(#49),#636,.F.);
#672=ADVANCED_FACE('',(#50),#637,.T.);
#673=ADVANCED_FACE('',(#51),#638,.T.);
#674=ADVANCED_FACE('',(#52),#639,.T.);
#675=ADVANCED_FACE('',(#53),#640,.T.);
#676=ADVANCED_FACE('',(#54),#641,.T.);
#677=ADVANCED_FACE('',(#55),#642,.T.);
#678=ADVANCED_FACE('',(#56),#643,.T.);
#679=ADVANCED_FACE('',(#57),#644,.T.);
#680=CLOSED_SHELL('',(#645,#646,#647,#648,#649,#650,#651,#652,#653,#654,
#655,#656,#657,#658,#659,#660,#661,#662,#663,#664,#665,#666,#667,#668,#669));
#681=CLOSED_SHELL('',(#670,#671,#672,#673,#674,#675,#676,#677,#678,#679));
#682=DERIVED_UNIT_ELEMENT(#684,1.);
#683=DERIVED_UNIT_ELEMENT(#1099,-3.);
#684=(
MASS_UNIT()
NAMED_UNIT(*)
SI_UNIT(.KILO.,.GRAM.)
);
#685=DERIVED_UNIT((#682,#683));
#686=MEASURE_REPRESENTATION_ITEM('density measure',
POSITIVE_RATIO_MEASURE(7850.),#685);
#687=PROPERTY_DEFINITION_REPRESENTATION(#692,#689);
#688=PROPERTY_DEFINITION_REPRESENTATION(#693,#690);
#689=REPRESENTATION('material name',(#691),#1096);
#690=REPRESENTATION('density',(#686),#1096);
#691=DESCRIPTIVE_REPRESENTATION_ITEM('Steel','Steel');
#692=PROPERTY_DEFINITION('material property','material name',#1106);
#693=PROPERTY_DEFINITION('material property','density of part',#1106);
#694=AXIS2_PLACEMENT_3D('',#903,#734,#735);
#695=AXIS2_PLACEMENT_3D('',#904,#736,#737);
#696=AXIS2_PLACEMENT_3D('',#913,#742,#743);
#697=AXIS2_PLACEMENT_3D('',#919,#747,#748);
#698=AXIS2_PLACEMENT_3D('',#923,#750,#751);
#699=AXIS2_PLACEMENT_3D('',#933,#757,#758);
#700=AXIS2_PLACEMENT_3D('',#942,#763,#764);
#701=AXIS2_PLACEMENT_3D('',#948,#768,#769);
#702=AXIS2_PLACEMENT_3D('',#961,#776,#777);
#703=AXIS2_PLACEMENT_3D('',#962,#778,#779);
#704=AXIS2_PLACEMENT_3D('',#966,#782,#783);
#705=AXIS2_PLACEMENT_3D('',#970,#786,#787);
#706=AXIS2_PLACEMENT_3D('',#980,#793,#794);
#707=AXIS2_PLACEMENT_3D('',#982,#796,#797);
#708=AXIS2_PLACEMENT_3D('',#986,#800,#801);
#709=AXIS2_PLACEMENT_3D('',#992,#805,#806);
#710=AXIS2_PLACEMENT_3D('',#993,#807,#808);
#711=AXIS2_PLACEMENT_3D('',#994,#809,#810);
#712=AXIS2_PLACEMENT_3D('',#1000,#814,#815);
#713=AXIS2_PLACEMENT_3D('',#1012,#822,#823);
#714=AXIS2_PLACEMENT_3D('',#1026,#831,#832);
#715=AXIS2_PLACEMENT_3D('',#1027,#833,#834);
#716=AXIS2_PLACEMENT_3D('',#1029,#836,#837);
#717=AXIS2_PLACEMENT_3D('',#1031,#839,#840);
#718=AXIS2_PLACEMENT_3D('',#1033,#842,#843);
#719=AXIS2_PLACEMENT_3D('',#1036,#846,#847);
#720=AXIS2_PLACEMENT_3D('',#1038,#849,#850);
#721=AXIS2_PLACEMENT_3D('',#1039,#851,#852);
#722=AXIS2_PLACEMENT_3D('',#1041,#854,#855);
#723=AXIS2_PLACEMENT_3D('',#1043,#857,#858);
#724=AXIS2_PLACEMENT_3D('',#1044,#859,#860);
#725=AXIS2_PLACEMENT_3D('',#1053,#865,#866);
#726=AXIS2_PLACEMENT_3D('',#1062,#871,#872);
#727=AXIS2_PLACEMENT_3D('',#1068,#876,#877);
#728=AXIS2_PLACEMENT_3D('',#1074,#881,#882);
#729=AXIS2_PLACEMENT_3D('',#1081,#887,#888);
#730=AXIS2_PLACEMENT_3D('',#1085,#891,#892);
#731=AXIS2_PLACEMENT_3D('',#1089,#895,#896);
#732=AXIS2_PLACEMENT_3D('',#1091,#898,#899);
#733=AXIS2_PLACEMENT_3D('',#1093,#901,#902);
#734=DIRECTION('axis',(0.,0.,1.));
#735=DIRECTION('refdir',(1.,0.,0.));
#736=DIRECTION('center_axis',(-0.707106781186547,-0.707106781186548,8.65956056235493E-17));
#737=DIRECTION('ref_axis',(1.22464679914735E-16,0.,1.));
#738=DIRECTION('',(-0.707106781186548,0.707106781186547,8.65956056235494E-17));
#739=DIRECTION('',(-1.22464679914735E-16,0.,-1.));
#740=DIRECTION('',(0.707106781186548,-0.707106781186547,-8.65956056235494E-17));
#741=DIRECTION('',(1.22464679914735E-16,0.,1.));
#742=DIRECTION('center_axis',(1.,0.,-1.22464679914735E-16));
#743=DIRECTION('ref_axis',(-1.22464679914735E-16,0.,-1.));
#744=DIRECTION('',(0.,-1.,0.));
#745=DIRECTION('',(1.22464679914735E-16,0.,1.));
#746=DIRECTION('',(0.,1.,0.));
#747=DIRECTION('center_axis',(-1.22464679914735E-16,0.,-1.));
#748=DIRECTION('ref_axis',(1.,0.,-1.22464679914735E-16));
#749=DIRECTION('',(1.,0.,-1.22464679914735E-16));
#750=DIRECTION('center_axis',(1.22464679914735E-16,0.,1.));
#751=DIRECTION('ref_axis',(-1.,0.,1.22464679914735E-16));
#752=DIRECTION('',(-1.,0.,1.22464679914735E-16));
#753=DIRECTION('',(0.,1.,0.));
#754=DIRECTION('',(1.,0.,-1.22464679914735E-16));
#755=DIRECTION('',(0.,1.,0.));
#756=DIRECTION('',(-1.,0.,1.22464679914735E-16));
#757=DIRECTION('center_axis',(0.707106781186549,-0.707106781186546,-8.65956056235495E-17));
#758=DIRECTION('ref_axis',(-1.22464679914735E-16,0.,-1.));
#759=DIRECTION('',(-0.707106781186546,-0.707106781186549,8.65956056235492E-17));
#760=DIRECTION('',(-1.22464679914735E-16,0.,-1.));
#761=DIRECTION('',(0.707106781186546,0.707106781186549,-8.65956056235492E-17));
#762=DIRECTION('',(1.22464679914735E-16,0.,1.));
#763=DIRECTION('center_axis',(0.,-1.,0.));
#764=DIRECTION('ref_axis',(1.22464679914735E-16,0.,1.));
#765=DIRECTION('',(1.,0.,-1.22464679914735E-16));
#766=DIRECTION('',(1.22464679914735E-16,0.,1.));
#767=DIRECTION('',(-1.,0.,1.22464679914735E-16));
#768=DIRECTION('center_axis',(-1.22464679914735E-16,0.,-1.));
#769=DIRECTION('ref_axis',(1.,0.,-1.22464679914735E-16));
#770=DIRECTION('',(0.,1.,0.));
#771=DIRECTION('',(-1.,0.,1.22464679914735E-16));
#772=DIRECTION('',(0.,-1.,0.));
#773=DIRECTION('',(-1.,0.,1.22464679914735E-16));
#774=DIRECTION('',(0.,-1.,0.));
#775=DIRECTION('',(-1.,0.,1.22464679914735E-16));
#776=DIRECTION('center_axis',(1.22464679914735E-16,0.,1.));
#777=DIRECTION('ref_axis',(1.,0.,-1.22464679914735E-16));
#778=DIRECTION('center_axis',(0.,1.,0.));
#779=DIRECTION('ref_axis',(1.22464679914735E-16,0.,1.));
#780=DIRECTION('',(-1.,0.,1.22464679914735E-16));
#781=DIRECTION('',(1.22464679914735E-16,0.,1.));
#782=DIRECTION('center_axis',(1.,0.,-1.22464679914735E-16));
#783=DIRECTION('ref_axis',(-1.22464679914735E-16,0.,-1.));
#784=DIRECTION('',(0.,-1.,0.));
#785=DIRECTION('',(-1.22464679914735E-16,0.,-1.));
#786=DIRECTION('center_axis',(1.,0.,-1.22464679914735E-16));
#787=DIRECTION('ref_axis',(-1.22464679914735E-16,0.,-1.));
#788=DIRECTION('',(1.22464679914735E-16,0.,1.));
#789=DIRECTION('',(0.,-1.,0.));
#790=DIRECTION('',(-1.22464679914735E-16,0.,-1.));
#791=DIRECTION('',(1.22464679914735E-16,0.,1.));
#792=DIRECTION('',(0.,1.,0.));
#793=DIRECTION('center_axis',(0.,-1.,0.));
#794=DIRECTION('ref_axis',(1.22464679914735E-16,0.,1.));
#795=DIRECTION('',(-1.,0.,1.22464679914735E-16));
#796=DIRECTION('center_axis',(0.,1.,0.));
#797=DIRECTION('ref_axis',(-1.22464679914735E-16,0.,-1.));
#798=DIRECTION('',(-1.,0.,1.22464679914735E-16));
#799=DIRECTION('',(-1.22464679914735E-16,0.,-1.));
#800=DIRECTION('center_axis',(0.,-1.,0.));
#801=DIRECTION('ref_axis',(-1.22464679914735E-16,0.,-1.));
#802=DIRECTION('',(1.22464679914735E-16,0.,1.));
#803=DIRECTION('',(-1.22464679914735E-16,0.,-1.));
#804=DIRECTION('',(1.,0.,-1.22464679914735E-16));
#805=DIRECTION('center_axis',(-1.22464679914735E-16,0.,-1.));
#806=DIRECTION('ref_axis',(-0.919145030018057,-0.393919298579169,1.12562801896381E-16));
#807=DIRECTION('center_axis',(-1.22464679914735E-16,0.,-1.));
#808=DIRECTION('ref_axis',(1.,0.,-1.22464679914735E-16));
#809=DIRECTION('center_axis',(1.,0.,-1.22464679914735E-16));
#810=DIRECTION('ref_axis',(-1.22464679914735E-16,0.,-1.));
#811=DIRECTION('',(0.,-1.,0.));
#812=DIRECTION('',(-1.22464679914735E-16,0.,-1.));
#813=DIRECTION('',(0.,1.,0.));
#814=DIRECTION('center_axis',(1.22464679914735E-16,0.,1.));
#815=DIRECTION('ref_axis',(1.,0.,-1.22464679914735E-16));
#816=DIRECTION('',(-1.,0.,1.22464679914735E-16));
#817=DIRECTION('',(-1.,0.,1.22464679914735E-16));
#818=DIRECTION('',(0.,1.,0.));
#819=DIRECTION('',(-1.,0.,1.22464679914735E-16));
#820=DIRECTION('',(0.,1.,0.));
#821=DIRECTION('',(1.,0.,-1.22464679914735E-16));
#822=DIRECTION('center_axis',(-1.22464679914735E-16,0.,-1.));
#823=DIRECTION('ref_axis',(1.,0.,-1.22464679914735E-16));
#824=DIRECTION('',(1.,0.,-1.22464679914735E-16));
#825=DIRECTION('',(0.,-1.,0.));
#826=DIRECTION('',(1.,0.,-1.22464679914735E-16));
#827=DIRECTION('',(1.,0.,-1.22464679914735E-16));
#828=DIRECTION('',(-1.,0.,1.22464679914735E-16));
#829=DIRECTION('',(0.,-1.,0.));
#830=DIRECTION('',(1.,0.,-1.22464679914735E-16));
#831=DIRECTION('center_axis',(-1.22464679914735E-16,0.,-1.));
#832=DIRECTION('ref_axis',(-1.,0.,1.22464679914735E-16));
#833=DIRECTION('center_axis',(0.,-1.,0.));
#834=DIRECTION('ref_axis',(1.,0.,-1.22464679914735E-16));
#835=DIRECTION('',(1.22464679914735E-16,0.,1.));
#836=DIRECTION('center_axis',(0.,1.,0.));
#837=DIRECTION('ref_axis',(-1.,0.,1.22464679914735E-16));
#838=DIRECTION('',(-1.22464679914735E-16,0.,-1.));
#839=DIRECTION('center_axis',(0.,-1.,0.));
#840=DIRECTION('ref_axis',(1.22464679914735E-16,0.,1.));
#841=DIRECTION('',(1.22464679914735E-16,0.,1.));
#842=DIRECTION('center_axis',(-1.,0.,1.22464679914735E-16));
#843=DIRECTION('ref_axis',(1.22464679914735E-16,0.,1.));
#844=DIRECTION('',(-1.22464679914735E-16,0.,-1.));
#845=DIRECTION('',(1.22464679914735E-16,0.,1.));
#846=DIRECTION('center_axis',(0.,1.,0.));
#847=DIRECTION('ref_axis',(-1.22464679914735E-16,0.,-1.));
#848=DIRECTION('',(1.22464679914735E-16,0.,1.));
#849=DIRECTION('center_axis',(0.,-1.,0.));
#850=DIRECTION('ref_axis',(1.22464679914735E-16,0.,1.));
#851=DIRECTION('center_axis',(1.,0.,-1.22464679914735E-16));
#852=DIRECTION('ref_axis',(-1.22464679914735E-16,0.,-1.));
#853=DIRECTION('',(-1.22464679914735E-16,0.,-1.));
#854=DIRECTION('center_axis',(0.,1.,0.));
#855=DIRECTION('ref_axis',(-1.22464679914735E-16,0.,-1.));
#856=DIRECTION('',(1.22464679914735E-16,0.,1.));
#857=DIRECTION('center_axis',(1.22464679914735E-16,0.,1.));
#858=DIRECTION('ref_axis',(0.919145030018058,-0.393919298579169,-1.12562801896381E-16));
#859=DIRECTION('center_axis',(0.,0.,-1.));
#860=DIRECTION('ref_axis',(-1.,0.,0.));
#861=DIRECTION('',(0.,-1.,0.));
#862=DIRECTION('',(1.,0.,0.));
#863=DIRECTION('',(0.,1.,0.));
#864=DIRECTION('',(-1.,0.,0.));
#865=DIRECTION('center_axis',(0.,0.,-1.));
#866=DIRECTION('ref_axis',(-1.,0.,0.));
#867=DIRECTION('',(0.,1.,0.));
#868=DIRECTION('',(-1.,0.,0.));
#869=DIRECTION('',(0.,-1.,0.));
#870=DIRECTION('',(1.,0.,0.));
#871=DIRECTION('center_axis',(-1.,0.,0.));
#872=DIRECTION('ref_axis',(0.,1.,0.));
#873=DIRECTION('',(0.,0.,-1.));
#874=DIRECTION('',(0.,1.,0.));
#875=DIRECTION('',(0.,0.,-1.));
#876=DIRECTION('center_axis',(1.,0.,0.));
#877=DIRECTION('ref_axis',(0.,-1.,0.));
#878=DIRECTION('',(0.,0.,-1.));
#879=DIRECTION('',(0.,-1.,0.));
#880=DIRECTION('',(0.,0.,-1.));
#881=DIRECTION('center_axis',(0.,1.,0.));
#882=DIRECTION('ref_axis',(1.,0.,0.));
#883=DIRECTION('',(0.,0.,1.));
#884=DIRECTION('',(-1.,0.,0.));
#885=DIRECTION('',(0.,0.,-1.));
#886=DIRECTION('',(1.,0.,0.));
#887=DIRECTION('center_axis',(1.,0.,0.));
#888=DIRECTION('ref_axis',(0.,1.,0.));
#889=DIRECTION('',(0.,1.,0.));
#890=DIRECTION('',(0.,0.,1.));
#891=DIRECTION('center_axis',(-1.,0.,0.));
#892=DIRECTION('ref_axis',(0.,-1.,0.));
#893=DIRECTION('',(0.,0.,-1.));
#894=DIRECTION('',(0.,-1.,0.));
#895=DIRECTION('center_axis',(0.,0.,1.));
#896=DIRECTION('ref_axis',(1.,0.,0.));
#897=DIRECTION('',(1.,0.,0.));
#898=DIRECTION('center_axis',(0.,-1.,0.));
#899=DIRECTION('ref_axis',(-1.,0.,0.));
#900=DIRECTION('',(-1.,0.,0.));
#901=DIRECTION('center_axis',(0.,0.,-1.));
#902=DIRECTION('ref_axis',(-1.,0.,0.));
#903=CARTESIAN_POINT('',(0.,0.,0.));
#904=CARTESIAN_POINT('Origin',(39.9500000447035,-28.7,8.24999985694884));
#905=CARTESIAN_POINT('',(40.9500000447035,-29.7,11.5999998569488));
#906=CARTESIAN_POINT('',(38.9500000447035,-27.7,11.5999998569488));
#907=CARTESIAN_POINT('',(46.6625000931323,-35.4125000484288,11.5999998569488));
#908=CARTESIAN_POINT('',(38.9500000447035,-27.7,-1.43051153145279E-7));
#909=CARTESIAN_POINT('',(38.9500000447035,-27.7,8.24999985694884));
#910=CARTESIAN_POINT('',(40.9500000447035,-29.7,-1.43051153145279E-7));
#911=CARTESIAN_POINT('',(46.3875000335276,-35.1374999888241,-1.43051157586171E-7));
#912=CARTESIAN_POINT('',(40.9500000447035,-29.7,8.24999985694884));
#913=CARTESIAN_POINT('Origin',(38.9500000447035,-6.9999992698431,7.89999985694885));
#914=CARTESIAN_POINT('',(38.9500000447035,7.30156903827606E-7,11.5999998569488));
#915=CARTESIAN_POINT('',(38.9500000447035,-6.9999992698431,11.5999998569488));
#916=CARTESIAN_POINT('',(38.9500000447035,7.30156903827606E-7,-1.43051153145279E-7));
#917=CARTESIAN_POINT('',(38.9500000447035,7.30156903827606E-7,8.59999985694884));
#918=CARTESIAN_POINT('',(38.9500000447035,-6.9999992698431,-1.43051153145279E-7));
#919=CARTESIAN_POINT('Origin',(66.8000002384186,-28.7,11.5999998569488));
#920=CARTESIAN_POINT('',(42.3500002384186,-29.7,11.5999998569488));
#921=CARTESIAN_POINT('',(41.9500000447035,-29.7,11.5999998569488));
#922=CARTESIAN_POINT('',(43.4000002384186,-27.25,11.5999998569488));
#923=CARTESIAN_POINT('Origin',(43.4000002384186,-28.7,11.5999998569488));
#924=CARTESIAN_POINT('',(43.2500002384186,-27.25,11.5999998569488));
#925=CARTESIAN_POINT('',(43.8000002384186,-27.25,11.5999998569488));
#926=CARTESIAN_POINT('',(43.2500002384186,-6.39999767025001,11.5999998569488));
#927=CARTESIAN_POINT('',(43.2500002384186,-17.824998835125,11.5999998569488));
#928=CARTESIAN_POINT('',(49.6500002384186,-6.39999767025001,11.5999998569488));
#929=CARTESIAN_POINT('',(55.0250002384186,-6.39999934434891,11.5999998569488));
#930=CARTESIAN_POINT('',(49.6500002384186,7.30156894945821E-7,11.5999998569488));
#931=CARTESIAN_POINT('',(49.6500003557652,-29.5,11.5999998569488));
#932=CARTESIAN_POINT('',(43.8000002384186,7.30156894945821E-7,11.5999998569488));
#933=CARTESIAN_POINT('Origin',(69.9500001937151,-28.7,8.24999985694884));
#934=CARTESIAN_POINT('',(70.9500001937151,-27.7,11.5999998569488));
#935=CARTESIAN_POINT('',(68.9500001937151,-29.7,11.5999998569488));
#936=CARTESIAN_POINT('',(68.8875001452863,-29.7625000484288,11.5999998569488));
#937=CARTESIAN_POINT('',(68.9500001937151,-29.7,-1.43051157586171E-7));
#938=CARTESIAN_POINT('',(68.9500001937151,-29.7,8.24999985694884));
#939=CARTESIAN_POINT('',(70.9500001937151,-27.7,-1.43051157586171E-7));
#940=CARTESIAN_POINT('',(68.8875001452863,-29.7625000484288,-1.43051162027064E-7));
#941=CARTESIAN_POINT('',(70.9500001937151,-27.7,8.24999985694884));
#942=CARTESIAN_POINT('Origin',(67.9500001937151,-29.7,8.59999985694884));
#943=CARTESIAN_POINT('',(67.55,-29.7,11.5999998569488));
#944=CARTESIAN_POINT('',(67.9500001937151,-29.7,11.5999998569488));
#945=CARTESIAN_POINT('',(67.55,-29.7,-1.43051157586171E-7));
#946=CARTESIAN_POINT('',(67.55,-29.7,7.89999985694884));
#947=CARTESIAN_POINT('',(67.9500001937151,-29.7,-1.43051157586171E-7));
#948=CARTESIAN_POINT('Origin',(65.7,-28.7,11.5999998569488));
#949=CARTESIAN_POINT('',(70.9500001937151,7.30156903827606E-7,11.5999998569488));
#950=CARTESIAN_POINT('',(70.9500001937151,-6.9999992698431,11.5999998569488));
#951=CARTESIAN_POINT('',(60.05,7.30156894945821E-7,11.5999998569488));
#952=CARTESIAN_POINT('',(42.7,7.30156894945821E-7,11.5999998569488));
#953=CARTESIAN_POINT('',(60.05,-6.44999767025001,11.5999998569488));
#954=CARTESIAN_POINT('',(60.05,-29.5,11.5999998569488));
#955=CARTESIAN_POINT('',(66.65,-6.44999767025001,11.5999998569488));
#956=CARTESIAN_POINT('',(59.65,-6.44999767025001,11.5999998569488));
#957=CARTESIAN_POINT('',(66.65,-27.25,11.5999998569488));
#958=CARTESIAN_POINT('',(66.65,-6.9999992698431,11.5999998569488));
#959=CARTESIAN_POINT('',(66.5,-27.25,11.5999998569488));
#960=CARTESIAN_POINT('',(66.1,-27.25,11.5999998569488));
#961=CARTESIAN_POINT('Origin',(66.5,-28.7,11.5999998569488));
#962=CARTESIAN_POINT('Origin',(41.9500000447035,-29.7,8.59999985694884));
#963=CARTESIAN_POINT('',(42.3500002384186,-29.7,-1.43051153145279E-7));
#964=CARTESIAN_POINT('',(41.9500000447035,-29.7,-1.43051153145279E-7));
#965=CARTESIAN_POINT('',(42.3500002384186,-29.7,7.89999985694885));
#966=CARTESIAN_POINT('Origin',(70.9500001937151,-6.9999992698431,7.89999985694884));
#967=CARTESIAN_POINT('',(70.9500001937151,7.30156903827606E-7,-1.43051157586171E-7));
#968=CARTESIAN_POINT('',(70.9500001937151,-6.9999992698431,-1.43051157586171E-7));
#969=CARTESIAN_POINT('',(70.9500001937151,7.30156903827606E-7,2.89999985694884));
#970=CARTESIAN_POINT('Origin',(60.05,-30.3,7.89999985694884));
#971=CARTESIAN_POINT('',(60.05,-11.9999993443489,-1.43051157586171E-7));
#972=CARTESIAN_POINT('',(60.05,-11.9999993443489,2.89999985694884));
#973=CARTESIAN_POINT('',(60.05,-11.9999993443489,3.94999985694884));
#974=CARTESIAN_POINT('',(60.05,-6.44999934434891,2.89999985694884));
#975=CARTESIAN_POINT('',(60.05,-24.6499997243285,2.89999985694884));
#976=CARTESIAN_POINT('',(60.05,-6.44999934434891,5.39999985694884));
#977=CARTESIAN_POINT('',(60.05,7.30156903827606E-7,-1.43051157586171E-7));
#978=CARTESIAN_POINT('',(60.05,7.30156903827606E-7,7.89999985694884));
#979=CARTESIAN_POINT('',(60.05,-29.5,-1.43051157586171E-7));
#980=CARTESIAN_POINT('Origin',(66.5,7.30156903827606E-7,7.89999985694884));
#981=CARTESIAN_POINT('',(59.65,7.30156903827606E-7,-1.43051157586171E-7));
#982=CARTESIAN_POINT('Origin',(66.65,-6.44999934434891,2.89999985694884));
#983=CARTESIAN_POINT('',(66.65,-6.44999934434891,2.89999985694884));
#984=CARTESIAN_POINT('',(59.65,-6.44999934434891,2.89999985694884));
#985=CARTESIAN_POINT('',(66.65,-6.44999767025001,5.39999985694884));
#986=CARTESIAN_POINT('Origin',(66.5,-27.25,7.89999985694884));
#987=CARTESIAN_POINT('',(66.5,-27.25,-1.43051157586171E-7));
#988=CARTESIAN_POINT('',(66.5,-27.25,7.89999985694884));
#989=CARTESIAN_POINT('',(66.65,-27.25,-1.43051157586171E-7));
#990=CARTESIAN_POINT('',(66.65,-27.25,6.89999985694884));
#991=CARTESIAN_POINT('',(66.1,-27.25,-1.43051157586171E-7));
#992=CARTESIAN_POINT('Origin',(66.5,-28.7,7.89999985694884));
#993=CARTESIAN_POINT('Origin',(66.5,-28.7,-1.43051157586171E-7));
#994=CARTESIAN_POINT('Origin',(66.65,-30.3,7.89999985694884));
#995=CARTESIAN_POINT('',(66.65,-25.9999995529652,2.89999985694884));
#996=CARTESIAN_POINT('',(66.65,-21.1499996721744,2.89999985694884));
#997=CARTESIAN_POINT('',(66.65,-25.9999995529652,-1.43051157586171E-7));
#998=CARTESIAN_POINT('',(66.65,-25.9999995529652,4.39999985694884));
#999=CARTESIAN_POINT('',(66.65,-29.5,-1.43051157586171E-7));
#1000=CARTESIAN_POINT('Origin',(56.5250001229346,-18.999999448657,2.89999985694884));
#1001=CARTESIAN_POINT('',(50.2500003557652,-11.9999993443489,2.89999985694884));
#1002=CARTESIAN_POINT('',(40.5000000149012,-11.9999993443489,2.89999985694885));
#1003=CARTESIAN_POINT('',(49.6500003557652,-11.9999993443489,2.89999985694884));
#1004=CARTESIAN_POINT('',(53.9375003585592,-11.9999993443489,2.89999985694884));
#1005=CARTESIAN_POINT('',(49.6500003557652,-6.39999934434891,2.89999985694884));
#1006=CARTESIAN_POINT('',(49.6500003557652,-24.6499997243285,2.89999985694884));
#1007=CARTESIAN_POINT('',(43.2500002384186,-6.39999934434891,2.89999985694884));
#1008=CARTESIAN_POINT('',(43.2500002384186,-6.39999767025001,2.89999985694884));
#1009=CARTESIAN_POINT('',(43.2500002384186,-25.9999995529652,2.89999985694884));
#1010=CARTESIAN_POINT('',(43.2500002384186,-6.89999934434891,2.89999985694884));
#1011=CARTESIAN_POINT('',(72.0000004842877,-25.9999995529652,2.89999985694884));
#1012=CARTESIAN_POINT('Origin',(65.7,-28.7,-1.43051157586171E-7));
#1013=CARTESIAN_POINT('',(49.6500002384186,7.30156894945821E-7,-1.43051153145279E-7));
#1014=CARTESIAN_POINT('',(43.8000002384186,7.30156894945821E-7,-1.43051153145279E-7));
#1015=CARTESIAN_POINT('',(49.6500003557652,-11.9999993443489,-1.43051153145279E-7));
#1016=CARTESIAN_POINT('',(49.6500003557652,-29.5,-1.43051153145279E-7));
#1017=CARTESIAN_POINT('',(50.2500003557652,-11.9999993443489,-1.43051153145279E-7));
#1018=CARTESIAN_POINT('',(58.5250002970919,-11.9999993443489,-1.43051157586171E-7));
#1019=CARTESIAN_POINT('',(40.5000000149012,-11.9999993443489,-1.43051153145279E-7));
#1020=CARTESIAN_POINT('',(43.2500002384186,-25.9999995529652,-1.43051153145279E-7));
#1021=CARTESIAN_POINT('',(72.0000004842877,-25.9999995529652,-1.43051157586171E-7));
#1022=CARTESIAN_POINT('',(43.2500002384186,-27.25,-1.43051153145279E-7));
#1023=CARTESIAN_POINT('',(43.2500002384186,-29.5,-1.43051153145279E-7));
#1024=CARTESIAN_POINT('',(43.4000002384186,-27.25,-1.43051153145279E-7));
#1025=CARTESIAN_POINT('',(43.8000002384186,-27.25,-1.43051153145279E-7));
#1026=CARTESIAN_POINT('Origin',(43.4000002384186,-28.7,-1.43051153145279E-7));
#1027=CARTESIAN_POINT('Origin',(42.15,-25.9999995529652,0.899999856948845));
#1028=CARTESIAN_POINT('',(43.2500002384186,-25.9999995529652,4.39999985694884));
#1029=CARTESIAN_POINT('Origin',(72.0000004842877,-11.9999993443489,0.899999856948841));
#1030=CARTESIAN_POINT('',(50.2500003557652,-11.9999993443489,2.59999985694884));
#1031=CARTESIAN_POINT('Origin',(50.2500003557652,-11.9999993443489,-1.43051153145279E-7));
#1032=CARTESIAN_POINT('',(49.6500003557652,-11.9999993443489,2.59999985694884));
#1033=CARTESIAN_POINT('Origin',(49.6500003557652,-30.3,7.89999985694884));
#1034=CARTESIAN_POINT('',(49.6500003557652,7.30156903827606E-7,7.89999985694884));
#1035=CARTESIAN_POINT('',(49.6500003557652,-6.39999934434891,5.39999985694884));
#1036=CARTESIAN_POINT('Origin',(43.2500002384186,-6.39999934434891,2.89999985694884));
#1037=CARTESIAN_POINT('',(43.2500002384186,-6.39999767025001,8.59999985694884));
#1038=CARTESIAN_POINT('Origin',(67.6000002384186,7.30156903827606E-7,7.89999985694884));
#1039=CARTESIAN_POINT('Origin',(43.2500002384186,-30.3,7.89999985694885));
#1040=CARTESIAN_POINT('',(43.2500002384186,-27.25,6.89999985694884));
#1041=CARTESIAN_POINT('Origin',(43.4000002384186,-27.25,7.89999985694885));
#1042=CARTESIAN_POINT('',(43.4000002384186,-27.25,7.89999985694885));
#1043=CARTESIAN_POINT('Origin',(43.4000002384186,-28.7,7.89999985694885));
#1044=CARTESIAN_POINT('Origin',(34.0249995548511,15.5500019129598,0.899999999999999));
#1045=CARTESIAN_POINT('',(21.7499994181562,24.60000232975,0.899999999999999));
#1046=CARTESIAN_POINT('',(21.7499994181562,6.50000149616972,0.899999999999999));
#1047=CARTESIAN_POINT('',(21.7499994181562,20.0750021213549,0.899999999999999));
#1048=CARTESIAN_POINT('',(20.2499994181562,24.60000232975,0.899999999999999));
#1049=CARTESIAN_POINT('',(27.1374994865037,24.60000232975,0.899999999999999));
#1050=CARTESIAN_POINT('',(20.2499994181562,6.50000149616972,0.899999999999999));
#1051=CARTESIAN_POINT('',(20.2499994181562,11.0250017045648,0.899999999999999));
#1052=CARTESIAN_POINT('',(40.9124996231985,6.50000149616972,0.899999999999999));
#1053=CARTESIAN_POINT('Origin',(34.0249995548511,15.5500019129598,0.899999999999999));
#1054=CARTESIAN_POINT('',(46.25,6.50000149616972,0.899999999999999));
#1055=CARTESIAN_POINT('',(46.25,24.60000232975,0.899999999999999));
#1056=CARTESIAN_POINT('',(46.25,11.0250017045648,0.899999999999999));
#1057=CARTESIAN_POINT('',(47.799999691546,6.50000149616972,0.899999999999999));
#1058=CARTESIAN_POINT('',(40.9124996231985,6.50000149616972,0.899999999999999));
#1059=CARTESIAN_POINT('',(47.799999691546,24.60000232975,0.899999999999999));
#1060=CARTESIAN_POINT('',(47.799999691546,20.0750021213549,0.899999999999999));
#1061=CARTESIAN_POINT('',(27.1374994865037,24.60000232975,0.899999999999999));
#1062=CARTESIAN_POINT('Origin',(20.2499994181562,6.50000149616972,0.999999999999999));
#1063=CARTESIAN_POINT('',(20.2499994181562,24.60000232975,0.));
#1064=CARTESIAN_POINT('',(20.2499994181562,24.60000232975,0.999999999999999));
#1065=CARTESIAN_POINT('',(20.2499994181562,6.50000149616972,0.));
#1066=CARTESIAN_POINT('',(20.2499994181562,24.60000232975,0.));
#1067=CARTESIAN_POINT('',(20.2499994181562,6.50000149616972,0.999999999999999));
#1068=CARTESIAN_POINT('Origin',(47.799999691546,24.60000232975,0.999999999999999));
#1069=CARTESIAN_POINT('',(47.799999691546,6.50000149616972,0.));
#1070=CARTESIAN_POINT('',(47.799999691546,6.50000149616972,0.999999999999999));
#1071=CARTESIAN_POINT('',(47.799999691546,24.60000232975,0.));
#1072=CARTESIAN_POINT('',(47.799999691546,6.50000149616972,0.));
#1073=CARTESIAN_POINT('',(47.799999691546,24.60000232975,0.999999999999999));
#1074=CARTESIAN_POINT('Origin',(20.2499994181562,24.60000232975,0.999999999999999));
#1075=CARTESIAN_POINT('',(21.7499994181562,24.60000232975,3.));
#1076=CARTESIAN_POINT('',(21.7499994181562,24.60000232975,0.999999999999999));
#1077=CARTESIAN_POINT('',(46.25,24.60000232975,3.));
#1078=CARTESIAN_POINT('',(46.25,24.60000232975,3.));
#1079=CARTESIAN_POINT('',(46.25,24.60000232975,0.999999999999999));
#1080=CARTESIAN_POINT('',(47.799999691546,24.60000232975,0.));
#1081=CARTESIAN_POINT('Origin',(46.25,6.50000149616972,0.999999999999999));
#1082=CARTESIAN_POINT('',(46.25,6.50000149616972,3.));
#1083=CARTESIAN_POINT('',(46.25,6.50000149616972,3.));
#1084=CARTESIAN_POINT('',(46.25,6.50000149616972,0.999999999999999));
#1085=CARTESIAN_POINT('Origin',(21.7499994181562,24.60000232975,0.999999999999999));
#1086=CARTESIAN_POINT('',(21.7499994181562,6.50000149616972,3.));
#1087=CARTESIAN_POINT('',(21.7499994181562,6.50000149616972,0.999999999999999));
#1088=CARTESIAN_POINT('',(21.7499994181562,24.60000232975,3.));
#1089=CARTESIAN_POINT('Origin',(33.9999997090781,15.5500019129598,3.));
#1090=CARTESIAN_POINT('',(21.7499994181562,6.50000149616972,3.));
#1091=CARTESIAN_POINT('Origin',(47.799999691546,6.50000149616972,0.999999999999999));
#1092=CARTESIAN_POINT('',(20.2499994181562,6.50000149616972,0.));
#1093=CARTESIAN_POINT('Origin',(34.0249995548511,15.5500019129598,0.));
#1094=UNCERTAINTY_MEASURE_WITH_UNIT(LENGTH_MEASURE(0.01),#1098,
'DISTANCE_ACCURACY_VALUE',
'Maximum model space distance between geometric entities at asserted c
onnectivities');
#1095=UNCERTAINTY_MEASURE_WITH_UNIT(LENGTH_MEASURE(0.01),#1098,
'DISTANCE_ACCURACY_VALUE',
'Maximum model space distance between geometric entities at asserted c
onnectivities');
#1096=(
GEOMETRIC_REPRESENTATION_CONTEXT(3)
GLOBAL_UNCERTAINTY_ASSIGNED_CONTEXT((#1094))
GLOBAL_UNIT_ASSIGNED_CONTEXT((#1098,#1100,#1101))
REPRESENTATION_CONTEXT('','3D')
);
#1097=(
GEOMETRIC_REPRESENTATION_CONTEXT(3)
GLOBAL_UNCERTAINTY_ASSIGNED_CONTEXT((#1095))
GLOBAL_UNIT_ASSIGNED_CONTEXT((#1098,#1100,#1101))
REPRESENTATION_CONTEXT('','3D')
);
#1098=(
LENGTH_UNIT()
NAMED_UNIT(*)
SI_UNIT(.MILLI.,.METRE.)
);
#1099=(
LENGTH_UNIT()
NAMED_UNIT(*)
SI_UNIT($,.METRE.)
);
#1100=(
NAMED_UNIT(*)
PLANE_ANGLE_UNIT()
SI_UNIT($,.RADIAN.)
);
#1101=(
NAMED_UNIT(*)
SI_UNIT($,.STERADIAN.)
SOLID_ANGLE_UNIT()
);
#1102=SHAPE_DEFINITION_REPRESENTATION(#1103,#1104);
#1103=PRODUCT_DEFINITION_SHAPE('',$,#1106);
#1104=SHAPE_REPRESENTATION('',(#694),#1096);
#1105=PRODUCT_DEFINITION_CONTEXT('part definition',#1110,'design');
#1106=PRODUCT_DEFINITION('2026-09-18-15-19-20-816',
'Capacitive_Soil_Moisture_Probe_Module',#1107,#1105);
#1107=PRODUCT_DEFINITION_FORMATION('',$,#1112);
#1108=PRODUCT_RELATED_PRODUCT_CATEGORY(
'Capacitive_Soil_Moisture_Probe_Module',
'Capacitive_Soil_Moisture_Probe_Module',(#1112));
#1109=APPLICATION_PROTOCOL_DEFINITION('international standard',
'automotive_design',2009,#1110);
#1110=APPLICATION_CONTEXT(
'Core Data for Automotive Mechanical Design Process');
#1111=PRODUCT_CONTEXT('part definition',#1110,'mechanical');
#1112=PRODUCT('2026-09-18-15-19-20-816',
'Capacitive_Soil_Moisture_Probe_Module',$,(#1111));
#1113=PRESENTATION_STYLE_ASSIGNMENT((#1114));
#1114=SURFACE_STYLE_USAGE(.BOTH.,#1115);
#1115=SURFACE_SIDE_STYLE('',(#1116));
#1116=SURFACE_STYLE_FILL_AREA(#1117);
#1117=FILL_AREA_STYLE('Steel - Satin',(#1118));
#1118=FILL_AREA_STYLE_COLOUR('Steel - Satin',#1119);
#1119=COLOUR_RGB('Steel - Satin',0.627450980392157,0.627450980392157,0.627450980392157);
ENDSEC;
END-ISO-10303-21;
