ISO-10303-21;
HEADER;
/* Generated by software containing ST-Developer
 * from STEP Tools, Inc. (www.steptools.com) 
 */

FILE_DESCRIPTION(
/* description */ (''),
/* implementation_level */ '2;1');

FILE_NAME(
/* name */ 'SGP41_Module.step',
/* time_stamp */ '2026-09-24T16:53:34-04:00',
/* author */ (''),
/* organization */ (''),
/* preprocessor_version */ 'ST-DEVELOPER v20.2',
/* originating_system */ 'Autodesk Translation Framework v15.15.0.0',
/* authorisation */ '');

FILE_SCHEMA (('AUTOMOTIVE_DESIGN { 1 0 10303 214 3 1 1 }'));
ENDSEC;

DATA;
#10=MECHANICAL_DESIGN_GEOMETRIC_PRESENTATION_REPRESENTATION('',(#13),#776);
#11=SHAPE_REPRESENTATION_RELATIONSHIP('SRR','None',#783,#12);
#12=ADVANCED_BREP_SHAPE_REPRESENTATION('',(#14),#775);
#13=STYLED_ITEM('',(#792),#14);
#14=MANIFOLD_SOLID_BREP('Body8',#464);
#15=FACE_BOUND('',#67,.T.);
#16=FACE_BOUND('',#84,.T.);
#17=PLANE('',#480);
#18=PLANE('',#481);
#19=PLANE('',#486);
#20=PLANE('',#487);
#21=PLANE('',#488);
#22=PLANE('',#489);
#23=PLANE('',#490);
#24=PLANE('',#491);
#25=PLANE('',#492);
#26=PLANE('',#493);
#27=PLANE('',#494);
#28=PLANE('',#495);
#29=PLANE('',#496);
#30=PLANE('',#497);
#31=PLANE('',#498);
#32=PLANE('',#499);
#33=PLANE('',#500);
#34=PLANE('',#501);
#35=PLANE('',#502);
#36=PLANE('',#503);
#37=FACE_OUTER_BOUND('',#60,.T.);
#38=FACE_OUTER_BOUND('',#61,.T.);
#39=FACE_OUTER_BOUND('',#62,.T.);
#40=FACE_OUTER_BOUND('',#63,.T.);
#41=FACE_OUTER_BOUND('',#64,.T.);
#42=FACE_OUTER_BOUND('',#65,.T.);
#43=FACE_OUTER_BOUND('',#66,.T.);
#44=FACE_OUTER_BOUND('',#68,.T.);
#45=FACE_OUTER_BOUND('',#69,.T.);
#46=FACE_OUTER_BOUND('',#70,.T.);
#47=FACE_OUTER_BOUND('',#71,.T.);
#48=FACE_OUTER_BOUND('',#72,.T.);
#49=FACE_OUTER_BOUND('',#73,.T.);
#50=FACE_OUTER_BOUND('',#74,.T.);
#51=FACE_OUTER_BOUND('',#75,.T.);
#52=FACE_OUTER_BOUND('',#76,.T.);
#53=FACE_OUTER_BOUND('',#77,.T.);
#54=FACE_OUTER_BOUND('',#78,.T.);
#55=FACE_OUTER_BOUND('',#79,.T.);
#56=FACE_OUTER_BOUND('',#80,.T.);
#57=FACE_OUTER_BOUND('',#81,.T.);
#58=FACE_OUTER_BOUND('',#82,.T.);
#59=FACE_OUTER_BOUND('',#83,.T.);
#60=EDGE_LOOP('',(#312,#313,#314,#315));
#61=EDGE_LOOP('',(#316,#317,#318,#319));
#62=EDGE_LOOP('',(#320,#321,#322,#323));
#63=EDGE_LOOP('',(#324,#325,#326,#327));
#64=EDGE_LOOP('',(#328,#329,#330,#331));
#65=EDGE_LOOP('',(#332,#333,#334,#335));
#66=EDGE_LOOP('',(#336,#337,#338,#339));
#67=EDGE_LOOP('',(#340,#341,#342,#343,#344,#345,#346,#347,#348,#349,#350,
#351,#352,#353,#354,#355,#356,#357));
#68=EDGE_LOOP('',(#358,#359,#360,#361));
#69=EDGE_LOOP('',(#362,#363,#364,#365));
#70=EDGE_LOOP('',(#366,#367,#368,#369,#370,#371));
#71=EDGE_LOOP('',(#372,#373,#374,#375,#376,#377,#378,#379));
#72=EDGE_LOOP('',(#380,#381,#382,#383));
#73=EDGE_LOOP('',(#384,#385,#386,#387));
#74=EDGE_LOOP('',(#388,#389,#390,#391));
#75=EDGE_LOOP('',(#392,#393,#394,#395));
#76=EDGE_LOOP('',(#396,#397,#398,#399));
#77=EDGE_LOOP('',(#400,#401,#402,#403));
#78=EDGE_LOOP('',(#404,#405,#406,#407));
#79=EDGE_LOOP('',(#408,#409,#410,#411));
#80=EDGE_LOOP('',(#412,#413,#414,#415));
#81=EDGE_LOOP('',(#416,#417,#418,#419));
#82=EDGE_LOOP('',(#420,#421,#422,#423));
#83=EDGE_LOOP('',(#424,#425,#426,#427,#428,#429,#430,#431,#432,#433));
#84=EDGE_LOOP('',(#434,#435,#436,#437));
#85=LINE('',#630,#142);
#86=LINE('',#633,#143);
#87=LINE('',#636,#144);
#88=LINE('',#638,#145);
#89=LINE('',#639,#146);
#90=LINE('',#643,#147);
#91=LINE('',#645,#148);
#92=LINE('',#647,#149);
#93=LINE('',#648,#150);
#94=LINE('',#663,#151);
#95=LINE('',#666,#152);
#96=LINE('',#681,#153);
#97=LINE('',#684,#154);
#98=LINE('',#687,#155);
#99=LINE('',#689,#156);
#100=LINE('',#690,#157);
#101=LINE('',#694,#158);
#102=LINE('',#696,#159);
#103=LINE('',#698,#160);
#104=LINE('',#699,#161);
#105=LINE('',#701,#162);
#106=LINE('',#702,#163);
#107=LINE('',#703,#164);
#108=LINE('',#705,#165);
#109=LINE('',#707,#166);
#110=LINE('',#709,#167);
#111=LINE('',#711,#168);
#112=LINE('',#713,#169);
#113=LINE('',#715,#170);
#114=LINE('',#717,#171);
#115=LINE('',#719,#172);
#116=LINE('',#721,#173);
#117=LINE('',#722,#174);
#118=LINE('',#724,#175);
#119=LINE('',#727,#176);
#120=LINE('',#728,#177);
#121=LINE('',#730,#178);
#122=LINE('',#731,#179);
#123=LINE('',#735,#180);
#124=LINE('',#736,#181);
#125=LINE('',#738,#182);
#126=LINE('',#740,#183);
#127=LINE('',#741,#184);
#128=LINE('',#743,#185);
#129=LINE('',#745,#186);
#130=LINE('',#750,#187);
#131=LINE('',#752,#188);
#132=LINE('',#754,#189);
#133=LINE('',#755,#190);
#134=LINE('',#758,#191);
#135=LINE('',#760,#192);
#136=LINE('',#761,#193);
#137=LINE('',#765,#194);
#138=LINE('',#766,#195);
#139=LINE('',#767,#196);
#140=LINE('',#769,#197);
#141=LINE('',#770,#198);
#142=VECTOR('',#508,10.);
#143=VECTOR('',#511,10.);
#144=VECTOR('',#514,10.);
#145=VECTOR('',#515,10.);
#146=VECTOR('',#516,10.);
#147=VECTOR('',#519,10.);
#148=VECTOR('',#520,10.);
#149=VECTOR('',#521,10.);
#150=VECTOR('',#522,10.);
#151=VECTOR('',#525,10.);
#152=VECTOR('',#528,10.);
#153=VECTOR('',#531,10.);
#154=VECTOR('',#534,10.);
#155=VECTOR('',#537,10.);
#156=VECTOR('',#538,10.);
#157=VECTOR('',#539,10.);
#158=VECTOR('',#542,10.);
#159=VECTOR('',#543,10.);
#160=VECTOR('',#544,10.);
#161=VECTOR('',#545,10.);
#162=VECTOR('',#546,10.);
#163=VECTOR('',#547,10.);
#164=VECTOR('',#548,10.);
#165=VECTOR('',#549,10.);
#166=VECTOR('',#550,10.);
#167=VECTOR('',#551,10.);
#168=VECTOR('',#552,10.);
#169=VECTOR('',#553,10.);
#170=VECTOR('',#554,10.);
#171=VECTOR('',#555,10.);
#172=VECTOR('',#556,10.);
#173=VECTOR('',#557,10.);
#174=VECTOR('',#558,10.);
#175=VECTOR('',#561,10.);
#176=VECTOR('',#564,10.);
#177=VECTOR('',#565,10.);
#178=VECTOR('',#568,10.);
#179=VECTOR('',#569,10.);
#180=VECTOR('',#574,10.);
#181=VECTOR('',#575,10.);
#182=VECTOR('',#578,10.);
#183=VECTOR('',#581,10.);
#184=VECTOR('',#582,10.);
#185=VECTOR('',#585,10.);
#186=VECTOR('',#588,10.);
#187=VECTOR('',#593,10.);
#188=VECTOR('',#594,10.);
#189=VECTOR('',#595,10.);
#190=VECTOR('',#596,10.);
#191=VECTOR('',#599,10.);
#192=VECTOR('',#600,10.);
#193=VECTOR('',#601,10.);
#194=VECTOR('',#604,10.);
#195=VECTOR('',#605,10.);
#196=VECTOR('',#606,10.);
#197=VECTOR('',#609,10.);
#198=VECTOR('',#610,10.);
#199=ELLIPSE('',#478,4.,2.);
#200=ELLIPSE('',#479,4.,2.);
#201=ELLIPSE('',#482,4.,2.);
#202=ELLIPSE('',#483,4.,2.);
#203=ELLIPSE('',#484,4.,2.);
#204=ELLIPSE('',#485,4.,2.);
#205=VERTEX_POINT('',#626);
#206=VERTEX_POINT('',#627);
#207=VERTEX_POINT('',#629);
#208=VERTEX_POINT('',#631);
#209=VERTEX_POINT('',#635);
#210=VERTEX_POINT('',#637);
#211=VERTEX_POINT('',#641);
#212=VERTEX_POINT('',#642);
#213=VERTEX_POINT('',#644);
#214=VERTEX_POINT('',#646);
#215=VERTEX_POINT('',#659);
#216=VERTEX_POINT('',#660);
#217=VERTEX_POINT('',#662);
#218=VERTEX_POINT('',#664);
#219=VERTEX_POINT('',#677);
#220=VERTEX_POINT('',#678);
#221=VERTEX_POINT('',#680);
#222=VERTEX_POINT('',#682);
#223=VERTEX_POINT('',#686);
#224=VERTEX_POINT('',#688);
#225=VERTEX_POINT('',#692);
#226=VERTEX_POINT('',#693);
#227=VERTEX_POINT('',#695);
#228=VERTEX_POINT('',#697);
#229=VERTEX_POINT('',#700);
#230=VERTEX_POINT('',#704);
#231=VERTEX_POINT('',#706);
#232=VERTEX_POINT('',#708);
#233=VERTEX_POINT('',#710);
#234=VERTEX_POINT('',#712);
#235=VERTEX_POINT('',#714);
#236=VERTEX_POINT('',#716);
#237=VERTEX_POINT('',#718);
#238=VERTEX_POINT('',#720);
#239=VERTEX_POINT('',#726);
#240=VERTEX_POINT('',#734);
#241=VERTEX_POINT('',#748);
#242=VERTEX_POINT('',#749);
#243=VERTEX_POINT('',#751);
#244=VERTEX_POINT('',#753);
#245=VERTEX_POINT('',#757);
#246=VERTEX_POINT('',#759);
#247=VERTEX_POINT('',#763);
#248=VERTEX_POINT('',#764);
#249=EDGE_CURVE('',#205,#206,#199,.T.);
#250=EDGE_CURVE('',#207,#205,#85,.T.);
#251=EDGE_CURVE('',#207,#208,#200,.T.);
#252=EDGE_CURVE('',#206,#208,#86,.T.);
#253=EDGE_CURVE('',#209,#205,#87,.T.);
#254=EDGE_CURVE('',#209,#210,#88,.T.);
#255=EDGE_CURVE('',#207,#210,#89,.T.);
#256=EDGE_CURVE('',#211,#212,#90,.T.);
#257=EDGE_CURVE('',#212,#213,#91,.T.);
#258=EDGE_CURVE('',#213,#214,#92,.T.);
#259=EDGE_CURVE('',#214,#211,#93,.T.);
#260=EDGE_CURVE('',#215,#216,#201,.T.);
#261=EDGE_CURVE('',#217,#215,#94,.T.);
#262=EDGE_CURVE('',#217,#218,#202,.T.);
#263=EDGE_CURVE('',#216,#218,#95,.T.);
#264=EDGE_CURVE('',#219,#220,#203,.T.);
#265=EDGE_CURVE('',#221,#219,#96,.T.);
#266=EDGE_CURVE('',#221,#222,#204,.T.);
#267=EDGE_CURVE('',#220,#222,#97,.T.);
#268=EDGE_CURVE('',#223,#218,#98,.T.);
#269=EDGE_CURVE('',#224,#223,#99,.T.);
#270=EDGE_CURVE('',#216,#224,#100,.T.);
#271=EDGE_CURVE('',#225,#226,#101,.T.);
#272=EDGE_CURVE('',#227,#225,#102,.T.);
#273=EDGE_CURVE('',#228,#227,#103,.T.);
#274=EDGE_CURVE('',#226,#228,#104,.T.);
#275=EDGE_CURVE('',#206,#229,#105,.T.);
#276=EDGE_CURVE('',#229,#215,#106,.T.);
#277=EDGE_CURVE('',#224,#219,#107,.T.);
#278=EDGE_CURVE('',#220,#230,#108,.T.);
#279=EDGE_CURVE('',#230,#231,#109,.T.);
#280=EDGE_CURVE('',#231,#232,#110,.T.);
#281=EDGE_CURVE('',#232,#233,#111,.T.);
#282=EDGE_CURVE('',#233,#234,#112,.T.);
#283=EDGE_CURVE('',#234,#235,#113,.T.);
#284=EDGE_CURVE('',#235,#236,#114,.T.);
#285=EDGE_CURVE('',#236,#237,#115,.T.);
#286=EDGE_CURVE('',#237,#238,#116,.T.);
#287=EDGE_CURVE('',#238,#209,#117,.T.);
#288=EDGE_CURVE('',#221,#223,#118,.T.);
#289=EDGE_CURVE('',#239,#222,#119,.T.);
#290=EDGE_CURVE('',#239,#230,#120,.T.);
#291=EDGE_CURVE('',#210,#239,#121,.T.);
#292=EDGE_CURVE('',#231,#238,#122,.T.);
#293=EDGE_CURVE('',#240,#229,#123,.T.);
#294=EDGE_CURVE('',#217,#240,#124,.T.);
#295=EDGE_CURVE('',#240,#208,#125,.T.);
#296=EDGE_CURVE('',#211,#225,#126,.T.);
#297=EDGE_CURVE('',#227,#214,#127,.T.);
#298=EDGE_CURVE('',#226,#212,#128,.T.);
#299=EDGE_CURVE('',#228,#213,#129,.T.);
#300=EDGE_CURVE('',#241,#242,#130,.T.);
#301=EDGE_CURVE('',#241,#243,#131,.T.);
#302=EDGE_CURVE('',#244,#243,#132,.T.);
#303=EDGE_CURVE('',#242,#244,#133,.T.);
#304=EDGE_CURVE('',#243,#245,#134,.T.);
#305=EDGE_CURVE('',#245,#246,#135,.T.);
#306=EDGE_CURVE('',#244,#246,#136,.T.);
#307=EDGE_CURVE('',#247,#248,#137,.T.);
#308=EDGE_CURVE('',#247,#241,#138,.T.);
#309=EDGE_CURVE('',#248,#242,#139,.T.);
#310=EDGE_CURVE('',#245,#247,#140,.T.);
#311=EDGE_CURVE('',#246,#248,#141,.T.);
#312=ORIENTED_EDGE('',*,*,#249,.F.);
#313=ORIENTED_EDGE('',*,*,#250,.F.);
#314=ORIENTED_EDGE('',*,*,#251,.T.);
#315=ORIENTED_EDGE('',*,*,#252,.F.);
#316=ORIENTED_EDGE('',*,*,#250,.T.);
#317=ORIENTED_EDGE('',*,*,#253,.F.);
#318=ORIENTED_EDGE('',*,*,#254,.T.);
#319=ORIENTED_EDGE('',*,*,#255,.F.);
#320=ORIENTED_EDGE('',*,*,#256,.T.);
#321=ORIENTED_EDGE('',*,*,#257,.T.);
#322=ORIENTED_EDGE('',*,*,#258,.T.);
#323=ORIENTED_EDGE('',*,*,#259,.T.);
#324=ORIENTED_EDGE('',*,*,#260,.F.);
#325=ORIENTED_EDGE('',*,*,#261,.F.);
#326=ORIENTED_EDGE('',*,*,#262,.T.);
#327=ORIENTED_EDGE('',*,*,#263,.F.);
#328=ORIENTED_EDGE('',*,*,#264,.F.);
#329=ORIENTED_EDGE('',*,*,#265,.F.);
#330=ORIENTED_EDGE('',*,*,#266,.T.);
#331=ORIENTED_EDGE('',*,*,#267,.F.);
#332=ORIENTED_EDGE('',*,*,#263,.T.);
#333=ORIENTED_EDGE('',*,*,#268,.F.);
#334=ORIENTED_EDGE('',*,*,#269,.F.);
#335=ORIENTED_EDGE('',*,*,#270,.F.);
#336=ORIENTED_EDGE('',*,*,#271,.F.);
#337=ORIENTED_EDGE('',*,*,#272,.F.);
#338=ORIENTED_EDGE('',*,*,#273,.F.);
#339=ORIENTED_EDGE('',*,*,#274,.F.);
#340=ORIENTED_EDGE('',*,*,#249,.T.);
#341=ORIENTED_EDGE('',*,*,#275,.T.);
#342=ORIENTED_EDGE('',*,*,#276,.T.);
#343=ORIENTED_EDGE('',*,*,#260,.T.);
#344=ORIENTED_EDGE('',*,*,#270,.T.);
#345=ORIENTED_EDGE('',*,*,#277,.T.);
#346=ORIENTED_EDGE('',*,*,#264,.T.);
#347=ORIENTED_EDGE('',*,*,#278,.T.);
#348=ORIENTED_EDGE('',*,*,#279,.T.);
#349=ORIENTED_EDGE('',*,*,#280,.T.);
#350=ORIENTED_EDGE('',*,*,#281,.T.);
#351=ORIENTED_EDGE('',*,*,#282,.T.);
#352=ORIENTED_EDGE('',*,*,#283,.T.);
#353=ORIENTED_EDGE('',*,*,#284,.T.);
#354=ORIENTED_EDGE('',*,*,#285,.T.);
#355=ORIENTED_EDGE('',*,*,#286,.T.);
#356=ORIENTED_EDGE('',*,*,#287,.T.);
#357=ORIENTED_EDGE('',*,*,#253,.T.);
#358=ORIENTED_EDGE('',*,*,#265,.T.);
#359=ORIENTED_EDGE('',*,*,#277,.F.);
#360=ORIENTED_EDGE('',*,*,#269,.T.);
#361=ORIENTED_EDGE('',*,*,#288,.F.);
#362=ORIENTED_EDGE('',*,*,#267,.T.);
#363=ORIENTED_EDGE('',*,*,#289,.F.);
#364=ORIENTED_EDGE('',*,*,#290,.T.);
#365=ORIENTED_EDGE('',*,*,#278,.F.);
#366=ORIENTED_EDGE('',*,*,#279,.F.);
#367=ORIENTED_EDGE('',*,*,#290,.F.);
#368=ORIENTED_EDGE('',*,*,#291,.F.);
#369=ORIENTED_EDGE('',*,*,#254,.F.);
#370=ORIENTED_EDGE('',*,*,#287,.F.);
#371=ORIENTED_EDGE('',*,*,#292,.F.);
#372=ORIENTED_EDGE('',*,*,#292,.T.);
#373=ORIENTED_EDGE('',*,*,#286,.F.);
#374=ORIENTED_EDGE('',*,*,#285,.F.);
#375=ORIENTED_EDGE('',*,*,#284,.F.);
#376=ORIENTED_EDGE('',*,*,#283,.F.);
#377=ORIENTED_EDGE('',*,*,#282,.F.);
#378=ORIENTED_EDGE('',*,*,#281,.F.);
#379=ORIENTED_EDGE('',*,*,#280,.F.);
#380=ORIENTED_EDGE('',*,*,#261,.T.);
#381=ORIENTED_EDGE('',*,*,#276,.F.);
#382=ORIENTED_EDGE('',*,*,#293,.F.);
#383=ORIENTED_EDGE('',*,*,#294,.F.);
#384=ORIENTED_EDGE('',*,*,#252,.T.);
#385=ORIENTED_EDGE('',*,*,#295,.F.);
#386=ORIENTED_EDGE('',*,*,#293,.T.);
#387=ORIENTED_EDGE('',*,*,#275,.F.);
#388=ORIENTED_EDGE('',*,*,#272,.T.);
#389=ORIENTED_EDGE('',*,*,#296,.F.);
#390=ORIENTED_EDGE('',*,*,#259,.F.);
#391=ORIENTED_EDGE('',*,*,#297,.F.);
#392=ORIENTED_EDGE('',*,*,#271,.T.);
#393=ORIENTED_EDGE('',*,*,#298,.T.);
#394=ORIENTED_EDGE('',*,*,#256,.F.);
#395=ORIENTED_EDGE('',*,*,#296,.T.);
#396=ORIENTED_EDGE('',*,*,#274,.T.);
#397=ORIENTED_EDGE('',*,*,#299,.T.);
#398=ORIENTED_EDGE('',*,*,#257,.F.);
#399=ORIENTED_EDGE('',*,*,#298,.F.);
#400=ORIENTED_EDGE('',*,*,#273,.T.);
#401=ORIENTED_EDGE('',*,*,#297,.T.);
#402=ORIENTED_EDGE('',*,*,#258,.F.);
#403=ORIENTED_EDGE('',*,*,#299,.F.);
#404=ORIENTED_EDGE('',*,*,#300,.F.);
#405=ORIENTED_EDGE('',*,*,#301,.T.);
#406=ORIENTED_EDGE('',*,*,#302,.F.);
#407=ORIENTED_EDGE('',*,*,#303,.F.);
#408=ORIENTED_EDGE('',*,*,#302,.T.);
#409=ORIENTED_EDGE('',*,*,#304,.T.);
#410=ORIENTED_EDGE('',*,*,#305,.T.);
#411=ORIENTED_EDGE('',*,*,#306,.F.);
#412=ORIENTED_EDGE('',*,*,#307,.F.);
#413=ORIENTED_EDGE('',*,*,#308,.T.);
#414=ORIENTED_EDGE('',*,*,#300,.T.);
#415=ORIENTED_EDGE('',*,*,#309,.F.);
#416=ORIENTED_EDGE('',*,*,#305,.F.);
#417=ORIENTED_EDGE('',*,*,#310,.T.);
#418=ORIENTED_EDGE('',*,*,#307,.T.);
#419=ORIENTED_EDGE('',*,*,#311,.F.);
#420=ORIENTED_EDGE('',*,*,#304,.F.);
#421=ORIENTED_EDGE('',*,*,#301,.F.);
#422=ORIENTED_EDGE('',*,*,#308,.F.);
#423=ORIENTED_EDGE('',*,*,#310,.F.);
#424=ORIENTED_EDGE('',*,*,#289,.T.);
#425=ORIENTED_EDGE('',*,*,#266,.F.);
#426=ORIENTED_EDGE('',*,*,#288,.T.);
#427=ORIENTED_EDGE('',*,*,#268,.T.);
#428=ORIENTED_EDGE('',*,*,#262,.F.);
#429=ORIENTED_EDGE('',*,*,#294,.T.);
#430=ORIENTED_EDGE('',*,*,#295,.T.);
#431=ORIENTED_EDGE('',*,*,#251,.F.);
#432=ORIENTED_EDGE('',*,*,#255,.T.);
#433=ORIENTED_EDGE('',*,*,#291,.T.);
#434=ORIENTED_EDGE('',*,*,#303,.T.);
#435=ORIENTED_EDGE('',*,*,#306,.T.);
#436=ORIENTED_EDGE('',*,*,#311,.T.);
#437=ORIENTED_EDGE('',*,*,#309,.T.);
#438=(
BOUNDED_SURFACE()
B_SPLINE_SURFACE(1,2,((#616,#617,#618,#619,#620),(#621,#622,#623,#624,#625)),
 .UNSPECIFIED.,.F.,.F.,.F.)
B_SPLINE_SURFACE_WITH_KNOTS((2,2),(3,2,3),(0.624999985098839,1.1249999851),
(0.,1.5707963267949,3.14159265358979),.UNSPECIFIED.)
GEOMETRIC_REPRESENTATION_ITEM()
RATIONAL_B_SPLINE_SURFACE(((1.,0.707106781186548,1.,0.707106781186548,1.),
(1.,0.707106781186548,1.,0.707106781186548,1.)))
REPRESENTATION_ITEM('')
SURFACE()
);
#439=(
BOUNDED_SURFACE()
B_SPLINE_SURFACE(1,2,((#649,#650,#651,#652,#653),(#654,#655,#656,#657,#658)),
 .UNSPECIFIED.,.F.,.F.,.F.)
B_SPLINE_SURFACE_WITH_KNOTS((2,2),(3,2,3),(0.5,1.),(-3.14159284432465,-1.5707963267949,
1.90734859462084E-7),.UNSPECIFIED.)
GEOMETRIC_REPRESENTATION_ITEM()
RATIONAL_B_SPLINE_SURFACE(((1.,0.707106713751588,1.,0.707106713751588,1.),
(1.,0.707106713751588,1.,0.707106713751588,1.)))
REPRESENTATION_ITEM('')
SURFACE()
);
#440=(
BOUNDED_SURFACE()
B_SPLINE_SURFACE(1,2,((#667,#668,#669,#670,#671),(#672,#673,#674,#675,#676)),
 .UNSPECIFIED.,.F.,.F.,.F.)
B_SPLINE_SURFACE_WITH_KNOTS((2,2),(3,2,3),(0.5,1.),(-3.14159265358979,-1.5707963267949,
0.),.UNSPECIFIED.)
GEOMETRIC_REPRESENTATION_ITEM()
RATIONAL_B_SPLINE_SURFACE(((1.,0.707106781186548,1.,0.707106781186548,1.),
(1.,0.707106781186548,1.,0.707106781186548,1.)))
REPRESENTATION_ITEM('')
SURFACE()
);
#441=ADVANCED_FACE('',(#37),#438,.T.);
#442=ADVANCED_FACE('',(#38),#17,.F.);
#443=ADVANCED_FACE('',(#39),#18,.T.);
#444=ADVANCED_FACE('',(#40),#439,.T.);
#445=ADVANCED_FACE('',(#41),#440,.T.);
#446=ADVANCED_FACE('',(#42),#19,.F.);
#447=ADVANCED_FACE('',(#43,#15),#20,.F.);
#448=ADVANCED_FACE('',(#44),#21,.F.);
#449=ADVANCED_FACE('',(#45),#22,.F.);
#450=ADVANCED_FACE('',(#46),#23,.F.);
#451=ADVANCED_FACE('',(#47),#24,.F.);
#452=ADVANCED_FACE('',(#48),#25,.F.);
#453=ADVANCED_FACE('',(#49),#26,.F.);
#454=ADVANCED_FACE('',(#50),#27,.T.);
#455=ADVANCED_FACE('',(#51),#28,.T.);
#456=ADVANCED_FACE('',(#52),#29,.T.);
#457=ADVANCED_FACE('',(#53),#30,.T.);
#458=ADVANCED_FACE('',(#54),#31,.F.);
#459=ADVANCED_FACE('',(#55),#32,.F.);
#460=ADVANCED_FACE('',(#56),#33,.F.);
#461=ADVANCED_FACE('',(#57),#34,.F.);
#462=ADVANCED_FACE('',(#58),#35,.F.);
#463=ADVANCED_FACE('',(#59,#16),#36,.T.);
#464=CLOSED_SHELL('',(#441,#442,#443,#444,#445,#446,#447,#448,#449,#450,
#451,#452,#453,#454,#455,#456,#457,#458,#459,#460,#461,#462,#463));
#465=DERIVED_UNIT_ELEMENT(#467,1.);
#466=DERIVED_UNIT_ELEMENT(#778,-3.);
#467=(
MASS_UNIT()
NAMED_UNIT(*)
SI_UNIT(.KILO.,.GRAM.)
);
#468=DERIVED_UNIT((#465,#466));
#469=MEASURE_REPRESENTATION_ITEM('density measure',
POSITIVE_RATIO_MEASURE(7850.),#468);
#470=PROPERTY_DEFINITION_REPRESENTATION(#475,#472);
#471=PROPERTY_DEFINITION_REPRESENTATION(#476,#473);
#472=REPRESENTATION('material name',(#474),#775);
#473=REPRESENTATION('density',(#469),#775);
#474=DESCRIPTIVE_REPRESENTATION_ITEM('Steel','Steel');
#475=PROPERTY_DEFINITION('material property','material name',#785);
#476=PROPERTY_DEFINITION('material property','density of part',#785);
#477=AXIS2_PLACEMENT_3D('',#615,#504,#505);
#478=AXIS2_PLACEMENT_3D('',#628,#506,#507);
#479=AXIS2_PLACEMENT_3D('',#632,#509,#510);
#480=AXIS2_PLACEMENT_3D('',#634,#512,#513);
#481=AXIS2_PLACEMENT_3D('',#640,#517,#518);
#482=AXIS2_PLACEMENT_3D('',#661,#523,#524);
#483=AXIS2_PLACEMENT_3D('',#665,#526,#527);
#484=AXIS2_PLACEMENT_3D('',#679,#529,#530);
#485=AXIS2_PLACEMENT_3D('',#683,#532,#533);
#486=AXIS2_PLACEMENT_3D('',#685,#535,#536);
#487=AXIS2_PLACEMENT_3D('',#691,#540,#541);
#488=AXIS2_PLACEMENT_3D('',#723,#559,#560);
#489=AXIS2_PLACEMENT_3D('',#725,#562,#563);
#490=AXIS2_PLACEMENT_3D('',#729,#566,#567);
#491=AXIS2_PLACEMENT_3D('',#732,#570,#571);
#492=AXIS2_PLACEMENT_3D('',#733,#572,#573);
#493=AXIS2_PLACEMENT_3D('',#737,#576,#577);
#494=AXIS2_PLACEMENT_3D('',#739,#579,#580);
#495=AXIS2_PLACEMENT_3D('',#742,#583,#584);
#496=AXIS2_PLACEMENT_3D('',#744,#586,#587);
#497=AXIS2_PLACEMENT_3D('',#746,#589,#590);
#498=AXIS2_PLACEMENT_3D('',#747,#591,#592);
#499=AXIS2_PLACEMENT_3D('',#756,#597,#598);
#500=AXIS2_PLACEMENT_3D('',#762,#602,#603);
#501=AXIS2_PLACEMENT_3D('',#768,#607,#608);
#502=AXIS2_PLACEMENT_3D('',#771,#611,#612);
#503=AXIS2_PLACEMENT_3D('',#772,#613,#614);
#504=DIRECTION('axis',(0.,0.,1.));
#505=DIRECTION('refdir',(1.,0.,0.));
#506=DIRECTION('center_axis',(0.,0.,-1.));
#507=DIRECTION('ref_axis',(-1.,0.,0.));
#508=DIRECTION('',(0.,0.,1.));
#509=DIRECTION('center_axis',(0.,0.,-1.));
#510=DIRECTION('ref_axis',(-1.,0.,0.));
#511=DIRECTION('',(0.,0.,-1.));
#512=DIRECTION('center_axis',(0.,1.,0.));
#513=DIRECTION('ref_axis',(0.,0.,1.));
#514=DIRECTION('',(1.,0.,0.));
#515=DIRECTION('',(0.,0.,-1.));
#516=DIRECTION('',(-1.,0.,0.));
#517=DIRECTION('center_axis',(0.,0.,-1.));
#518=DIRECTION('ref_axis',(-1.,0.,0.));
#519=DIRECTION('',(-0.999999999999998,-6.28791053185043E-8,0.));
#520=DIRECTION('',(0.,1.,0.));
#521=DIRECTION('',(1.,0.,0.));
#522=DIRECTION('',(0.,-1.,0.));
#523=DIRECTION('center_axis',(0.,0.,-1.));
#524=DIRECTION('ref_axis',(2.22044604925031E-16,-1.,0.));
#525=DIRECTION('',(0.,0.,1.));
#526=DIRECTION('center_axis',(0.,0.,-1.));
#527=DIRECTION('ref_axis',(2.22044604925031E-16,-1.,0.));
#528=DIRECTION('',(0.,0.,-1.));
#529=DIRECTION('center_axis',(0.,0.,-1.));
#530=DIRECTION('ref_axis',(-1.,0.,0.));
#531=DIRECTION('',(0.,0.,1.));
#532=DIRECTION('center_axis',(0.,0.,-1.));
#533=DIRECTION('ref_axis',(-1.,0.,0.));
#534=DIRECTION('',(0.,0.,-1.));
#535=DIRECTION('center_axis',(1.,0.,0.));
#536=DIRECTION('ref_axis',(0.,0.,-1.));
#537=DIRECTION('',(0.,1.,0.));
#538=DIRECTION('',(0.,0.,-1.));
#539=DIRECTION('',(0.,-1.,0.));
#540=DIRECTION('center_axis',(0.,0.,-1.));
#541=DIRECTION('ref_axis',(-1.,0.,0.));
#542=DIRECTION('',(-0.999999999999998,-6.28791053185043E-8,0.));
#543=DIRECTION('',(0.,-1.,0.));
#544=DIRECTION('',(1.,0.,0.));
#545=DIRECTION('',(0.,1.,0.));
#546=DIRECTION('',(1.,0.,0.));
#547=DIRECTION('',(0.,-1.,0.));
#548=DIRECTION('',(-1.,0.,0.));
#549=DIRECTION('',(-1.,0.,0.));
#550=DIRECTION('',(0.,1.,0.));
#551=DIRECTION('',(-1.,0.,0.));
#552=DIRECTION('',(-1.22464679914735E-16,-1.,0.));
#553=DIRECTION('',(-1.,0.,0.));
#554=DIRECTION('',(0.,1.,0.));
#555=DIRECTION('',(1.,0.,0.));
#556=DIRECTION('',(0.,-1.,0.));
#557=DIRECTION('',(1.,-1.22464679914735E-16,0.));
#558=DIRECTION('',(0.,1.,0.));
#559=DIRECTION('center_axis',(0.,-1.,0.));
#560=DIRECTION('ref_axis',(0.,0.,-1.));
#561=DIRECTION('',(1.,0.,0.));
#562=DIRECTION('center_axis',(0.,-1.,0.));
#563=DIRECTION('ref_axis',(0.,0.,-1.));
#564=DIRECTION('',(1.,0.,0.));
#565=DIRECTION('',(0.,0.,1.));
#566=DIRECTION('center_axis',(-1.,0.,0.));
#567=DIRECTION('ref_axis',(0.,0.,1.));
#568=DIRECTION('',(0.,-1.,0.));
#569=DIRECTION('',(0.,0.999999999999977,-2.13357350987856E-7));
#570=DIRECTION('center_axis',(0.,-2.13357350987856E-7,-0.999999999999977));
#571=DIRECTION('ref_axis',(-1.,0.,0.));
#572=DIRECTION('center_axis',(1.,0.,0.));
#573=DIRECTION('ref_axis',(0.,0.,-1.));
#574=DIRECTION('',(0.,0.,1.));
#575=DIRECTION('',(0.,1.,0.));
#576=DIRECTION('center_axis',(0.,1.,0.));
#577=DIRECTION('ref_axis',(0.,0.,1.));
#578=DIRECTION('',(-1.,0.,0.));
#579=DIRECTION('center_axis',(1.,0.,0.));
#580=DIRECTION('ref_axis',(0.,1.,0.));
#581=DIRECTION('',(0.,0.,1.));
#582=DIRECTION('',(0.,0.,-1.));
#583=DIRECTION('center_axis',(6.28791053185043E-8,-0.999999999999998,0.));
#584=DIRECTION('ref_axis',(0.999999999999998,6.28791053185043E-8,0.));
#585=DIRECTION('',(0.,0.,-1.));
#586=DIRECTION('center_axis',(-1.,0.,0.));
#587=DIRECTION('ref_axis',(0.,-1.,0.));
#588=DIRECTION('',(0.,0.,-1.));
#589=DIRECTION('center_axis',(0.,1.,0.));
#590=DIRECTION('ref_axis',(-1.,0.,0.));
#591=DIRECTION('center_axis',(1.,0.,0.));
#592=DIRECTION('ref_axis',(0.,-1.,0.));
#593=DIRECTION('',(0.,0.,1.));
#594=DIRECTION('',(0.,-1.,0.));
#595=DIRECTION('',(0.,0.,-1.));
#596=DIRECTION('',(0.,-1.,0.));
#597=DIRECTION('center_axis',(0.,-1.,0.));
#598=DIRECTION('ref_axis',(-1.,0.,0.));
#599=DIRECTION('',(-1.,0.,0.));
#600=DIRECTION('',(0.,0.,1.));
#601=DIRECTION('',(-1.,0.,0.));
#602=DIRECTION('center_axis',(0.,1.,0.));
#603=DIRECTION('ref_axis',(1.,0.,0.));
#604=DIRECTION('',(0.,0.,1.));
#605=DIRECTION('',(1.,0.,0.));
#606=DIRECTION('',(1.,0.,0.));
#607=DIRECTION('center_axis',(-1.,0.,0.));
#608=DIRECTION('ref_axis',(0.,1.,0.));
#609=DIRECTION('',(0.,1.,0.));
#610=DIRECTION('',(0.,1.,0.));
#611=DIRECTION('center_axis',(0.,0.,-1.));
#612=DIRECTION('ref_axis',(-1.,0.,0.));
#613=DIRECTION('center_axis',(0.,0.,1.));
#614=DIRECTION('ref_axis',(1.,0.,0.));
#615=CARTESIAN_POINT('',(0.,0.,0.));
#616=CARTESIAN_POINT('Ctrl Pts',(13.7,-32.07,8.00000005960465));
#617=CARTESIAN_POINT('Ctrl Pts',(13.7,-30.07,8.00000005960465));
#618=CARTESIAN_POINT('Ctrl Pts',(17.7,-30.07,8.00000005960465));
#619=CARTESIAN_POINT('Ctrl Pts',(21.7,-30.07,8.00000005960465));
#620=CARTESIAN_POINT('Ctrl Pts',(21.7,-32.07,8.00000005960465));
#621=CARTESIAN_POINT('Ctrl Pts',(13.7,-32.07,6.0000000596));
#622=CARTESIAN_POINT('Ctrl Pts',(13.7,-30.07,6.0000000596));
#623=CARTESIAN_POINT('Ctrl Pts',(17.7,-30.07,6.0000000596));
#624=CARTESIAN_POINT('Ctrl Pts',(21.7,-30.07,6.0000000596));
#625=CARTESIAN_POINT('Ctrl Pts',(21.7,-32.07,6.0000000596));
#626=CARTESIAN_POINT('',(13.7,-32.07,8.00000005960465));
#627=CARTESIAN_POINT('',(21.7,-32.07,8.00000005960465));
#628=CARTESIAN_POINT('Origin',(17.7,-32.07,8.00000005960465));
#629=CARTESIAN_POINT('',(13.7,-32.07,6.0000000596));
#630=CARTESIAN_POINT('',(13.7,-32.07,10.5));
#631=CARTESIAN_POINT('',(21.7,-32.07,6.0000000596));
#632=CARTESIAN_POINT('Origin',(17.7,-32.07,6.0000000596));
#633=CARTESIAN_POINT('',(21.7,-32.07,10.5));
#634=CARTESIAN_POINT('Origin',(5.,-32.07,2.50000005960464));
#635=CARTESIAN_POINT('',(4.85,-32.07,8.00000005960465));
#636=CARTESIAN_POINT('',(11.3499998208135,-32.07,8.00000005960465));
#637=CARTESIAN_POINT('',(4.85,-32.07,6.00000005960464));
#638=CARTESIAN_POINT('',(4.85,-32.07,2.50000005960464));
#639=CARTESIAN_POINT('',(5.,-32.07,6.00000005960464));
#640=CARTESIAN_POINT('Origin',(17.7,-41.11,5.9604644553346E-8));
#641=CARTESIAN_POINT('',(33.3999992534518,-52.9999988153577,5.9604644553346E-8));
#642=CARTESIAN_POINT('',(2.00000002980232,-53.0000007897615,5.9604644553346E-8));
#643=CARTESIAN_POINT('',(33.3999992534518,-52.9999988153577,5.9604644553346E-8));
#644=CARTESIAN_POINT('',(2.00000002980232,-29.1999993473291,5.9604644553346E-8));
#645=CARTESIAN_POINT('',(2.00000002980232,-53.0000007897615,5.9604644553346E-8));
#646=CARTESIAN_POINT('',(33.3999992534518,-29.1999993473291,5.9604644553346E-8));
#647=CARTESIAN_POINT('',(2.00000002980232,-29.1999993473291,5.9604644553346E-8));
#648=CARTESIAN_POINT('',(33.3999992534518,-29.1999993473291,5.9604644553346E-8));
#649=CARTESIAN_POINT('Ctrl Pts',(30.55,-36.9000000000001,8.00000005960465));
#650=CARTESIAN_POINT('Ctrl Pts',(32.5500003814697,-36.8999992370605,8.00000005960465));
#651=CARTESIAN_POINT('Ctrl Pts',(32.5500003814697,-40.9,8.00000005960465));
#652=CARTESIAN_POINT('Ctrl Pts',(32.5500003814697,-44.9000007629395,8.00000005960465));
#653=CARTESIAN_POINT('Ctrl Pts',(30.55,-44.8999999999999,8.00000005960465));
#654=CARTESIAN_POINT('Ctrl Pts',(30.55,-36.9000000000001,6.00000005960465));
#655=CARTESIAN_POINT('Ctrl Pts',(32.5500003814697,-36.8999992370605,6.00000005960465));
#656=CARTESIAN_POINT('Ctrl Pts',(32.5500003814697,-40.9,6.00000005960465));
#657=CARTESIAN_POINT('Ctrl Pts',(32.5500003814697,-44.9000007629395,6.00000005960465));
#658=CARTESIAN_POINT('Ctrl Pts',(30.55,-44.8999999999999,6.00000005960465));
#659=CARTESIAN_POINT('',(30.5500003814697,-36.9,8.00000005960465));
#660=CARTESIAN_POINT('',(30.5500003814697,-44.9,8.00000005960465));
#661=CARTESIAN_POINT('Origin',(30.5500003814697,-40.9,8.00000005960465));
#662=CARTESIAN_POINT('',(30.5500003814697,-36.9,6.00000005960465));
#663=CARTESIAN_POINT('',(30.55,-36.9000000000001,10.0000000596046));
#664=CARTESIAN_POINT('',(30.5500003814697,-44.9,6.00000005960465));
#665=CARTESIAN_POINT('Origin',(30.5500003814697,-40.9,6.00000005960465));
#666=CARTESIAN_POINT('',(30.55,-44.8999999999999,10.0000000596046));
#667=CARTESIAN_POINT('Ctrl Pts',(21.7,-50.15,8.00000005960465));
#668=CARTESIAN_POINT('Ctrl Pts',(21.7,-52.15,8.00000005960465));
#669=CARTESIAN_POINT('Ctrl Pts',(17.7,-52.15,8.00000005960465));
#670=CARTESIAN_POINT('Ctrl Pts',(13.7,-52.15,8.00000005960465));
#671=CARTESIAN_POINT('Ctrl Pts',(13.7,-50.15,8.00000005960465));
#672=CARTESIAN_POINT('Ctrl Pts',(21.7,-50.15,6.00000005960465));
#673=CARTESIAN_POINT('Ctrl Pts',(21.7,-52.15,6.00000005960465));
#674=CARTESIAN_POINT('Ctrl Pts',(17.7,-52.15,6.00000005960465));
#675=CARTESIAN_POINT('Ctrl Pts',(13.7,-52.15,6.00000005960465));
#676=CARTESIAN_POINT('Ctrl Pts',(13.7,-50.15,6.00000005960465));
#677=CARTESIAN_POINT('',(21.7,-50.15,8.00000005960465));
#678=CARTESIAN_POINT('',(13.7,-50.15,8.00000005960465));
#679=CARTESIAN_POINT('Origin',(17.7,-50.15,8.00000005960465));
#680=CARTESIAN_POINT('',(21.7,-50.15,6.00000005960465));
#681=CARTESIAN_POINT('',(21.7,-50.15,10.0000000596046));
#682=CARTESIAN_POINT('',(13.7,-50.15,6.00000005960465));
#683=CARTESIAN_POINT('Origin',(17.7,-50.15,6.00000005960465));
#684=CARTESIAN_POINT('',(13.7,-50.15,10.0000000596046));
#685=CARTESIAN_POINT('Origin',(30.55,-32.22,2.50000005960464));
#686=CARTESIAN_POINT('',(30.55,-50.15,6.00000005960464));
#687=CARTESIAN_POINT('',(30.55,-50.,6.00000005960464));
#688=CARTESIAN_POINT('',(30.55,-50.15,8.00000005960465));
#689=CARTESIAN_POINT('',(30.55,-50.15,2.50000005960464));
#690=CARTESIAN_POINT('',(30.55,-36.6600000342727,8.00000005960465));
#691=CARTESIAN_POINT('Origin',(17.6999996416271,-41.1000000685453,8.00000005960465));
#692=CARTESIAN_POINT('',(33.3999992534518,-52.9999988153577,8.00000005960465));
#693=CARTESIAN_POINT('',(2.00000002980232,-53.0000007897615,8.00000005960465));
#694=CARTESIAN_POINT('',(9.85000020984537,-53.0000002961606,8.00000005960465));
#695=CARTESIAN_POINT('',(33.3999992534518,-29.1999993473291,8.00000005960465));
#696=CARTESIAN_POINT('',(33.3999992534518,-47.0499994419515,8.00000005960465));
#697=CARTESIAN_POINT('',(2.00000002980232,-29.1999993473291,8.00000005960465));
#698=CARTESIAN_POINT('',(25.5499994475394,-29.1999993473291,8.00000005960465));
#699=CARTESIAN_POINT('',(2.00000002980232,-35.1499997079372,8.00000005960465));
#700=CARTESIAN_POINT('',(30.55,-32.07,8.00000005960465));
#701=CARTESIAN_POINT('',(11.3499998208135,-32.07,8.00000005960465));
#702=CARTESIAN_POINT('',(30.55,-36.6600000342727,8.00000005960465));
#703=CARTESIAN_POINT('',(11.3499998208135,-50.15,8.00000005960465));
#704=CARTESIAN_POINT('',(4.85,-50.15,8.00000005960465));
#705=CARTESIAN_POINT('',(11.3499998208135,-50.15,8.00000005960465));
#706=CARTESIAN_POINT('',(4.85,-43.0624990813434,8.00000005960465));
#707=CARTESIAN_POINT('',(4.85,-45.5500000342727,8.00000005960465));
#708=CARTESIAN_POINT('',(4.27499990668147,-43.0624990813434,8.00000005960465));
#709=CARTESIAN_POINT('',(10.9874997741543,-43.0624990813434,8.00000005960465));
#710=CARTESIAN_POINT('',(4.27499990668147,-46.0499990813434,8.00000005960465));
#711=CARTESIAN_POINT('',(4.27499990668147,-42.5749995749444,8.00000005960465));
#712=CARTESIAN_POINT('',(3.39999999999999,-46.0499990813434,8.00000005960465));
#713=CARTESIAN_POINT('',(10.7999998208135,-46.0499990813434,8.00000005960465));
#714=CARTESIAN_POINT('',(3.39999999999999,-36.0999990813434,8.00000005960465));
#715=CARTESIAN_POINT('',(3.39999999999999,-39.0999995749444,8.00000005960465));
#716=CARTESIAN_POINT('',(4.27499990668147,-36.0999990813434,8.00000005960465));
#717=CARTESIAN_POINT('',(10.9874997741543,-36.0999990813434,8.00000005960465));
#718=CARTESIAN_POINT('',(4.27499990668147,-39.0874990813434,8.00000005960465));
#719=CARTESIAN_POINT('',(4.27499990668147,-38.5874990813434,8.00000005960465));
#720=CARTESIAN_POINT('',(4.85,-39.0874990813434,8.00000005960465));
#721=CARTESIAN_POINT('',(5.02499972004443,-39.0874990813434,8.00000005960465));
#722=CARTESIAN_POINT('',(4.85,-45.5500000342727,8.00000005960465));
#723=CARTESIAN_POINT('Origin',(30.4,-50.15,2.50000005960464));
#724=CARTESIAN_POINT('',(30.4,-50.15,6.00000005960464));
#725=CARTESIAN_POINT('Origin',(30.4,-50.15,2.50000005960464));
#726=CARTESIAN_POINT('',(4.85,-50.15,6.00000005960464));
#727=CARTESIAN_POINT('',(30.4,-50.15,6.00000005960464));
#728=CARTESIAN_POINT('',(4.85,-50.15,2.50000005960464));
#729=CARTESIAN_POINT('Origin',(4.85,-50.,2.50000005960464));
#730=CARTESIAN_POINT('',(4.85,-32.22,6.00000005960464));
#731=CARTESIAN_POINT('',(4.85,-45.5499991115019,8.00000100904466));
#732=CARTESIAN_POINT('Origin',(17.6999996416271,-41.0999993964697,8.0000000596045));
#733=CARTESIAN_POINT('Origin',(30.55,-32.22,2.50000005960464));
#734=CARTESIAN_POINT('',(30.55,-32.07,6.00000005960464));
#735=CARTESIAN_POINT('',(30.55,-32.07,2.50000005960464));
#736=CARTESIAN_POINT('',(30.55,-50.,6.00000005960464));
#737=CARTESIAN_POINT('Origin',(5.,-32.07,2.50000005960464));
#738=CARTESIAN_POINT('',(5.,-32.07,6.00000005960464));
#739=CARTESIAN_POINT('Origin',(33.3999992534518,-52.9999988153577,2.50000005960464));
#740=CARTESIAN_POINT('',(33.3999992534518,-52.9999988153577,2.50000005960464));
#741=CARTESIAN_POINT('',(33.3999992534518,-29.1999993473291,2.50000005960464));
#742=CARTESIAN_POINT('Origin',(2.00000002980232,-53.0000007897615,2.50000005960464));
#743=CARTESIAN_POINT('',(2.00000002980232,-53.0000007897615,2.50000005960464));
#744=CARTESIAN_POINT('Origin',(2.00000002980232,-29.1999993473291,2.50000005960464));
#745=CARTESIAN_POINT('',(2.00000002980232,-29.1999993473291,2.50000005960464));
#746=CARTESIAN_POINT('Origin',(33.3999992534518,-29.1999993473291,2.50000005960464));
#747=CARTESIAN_POINT('Origin',(23.9999995753169,-46.2000000849366,6.00000005960465));
#748=CARTESIAN_POINT('',(23.9999995753169,-46.2000000849366,4.00000005960465));
#749=CARTESIAN_POINT('',(23.9999995753169,-46.2000000849366,6.00000005960464));
#750=CARTESIAN_POINT('',(23.9999995753169,-46.2000000849366,5.00000005960464));
#751=CARTESIAN_POINT('',(23.9999995753169,-48.7000000290573,4.00000005960465));
#752=CARTESIAN_POINT('',(23.9999995753169,-46.2000000849366,4.00000005960465));
#753=CARTESIAN_POINT('',(23.9999995753169,-48.7000000290573,6.00000005960464));
#754=CARTESIAN_POINT('',(23.9999995753169,-48.7000000290573,6.00000005960465));
#755=CARTESIAN_POINT('',(23.9999995753169,-43.6550000424683,6.00000005960465));
#756=CARTESIAN_POINT('Origin',(23.9999995753169,-48.7000000290573,6.00000005960465));
#757=CARTESIAN_POINT('',(11.3999998569489,-48.7000000290573,4.00000005960465));
#758=CARTESIAN_POINT('',(23.9999995753169,-48.7000000290573,4.00000005960465));
#759=CARTESIAN_POINT('',(11.3999998569489,-48.7000000290573,6.00000005960464));
#760=CARTESIAN_POINT('',(11.3999998569489,-48.7000000290573,5.00000005960464));
#761=CARTESIAN_POINT('',(20.8499997876585,-48.7000000290573,6.00000005960465));
#762=CARTESIAN_POINT('Origin',(11.3999998569489,-46.2000000849366,6.00000005960465));
#763=CARTESIAN_POINT('',(11.3999998569489,-46.2000000849366,4.00000005960465));
#764=CARTESIAN_POINT('',(11.3999998569489,-46.2000000849366,6.00000005960464));
#765=CARTESIAN_POINT('',(11.3999998569489,-46.2000000849366,5.00000005960464));
#766=CARTESIAN_POINT('',(11.3999998569489,-46.2000000849366,4.00000005960465));
#767=CARTESIAN_POINT('',(14.5499999284744,-46.2000000849366,6.00000005960465));
#768=CARTESIAN_POINT('Origin',(11.3999998569489,-48.7000000290573,6.00000005960465));
#769=CARTESIAN_POINT('',(11.3999998569489,-48.7000000290573,4.00000005960465));
#770=CARTESIAN_POINT('',(11.3999998569489,-44.9050000145286,6.00000005960465));
#771=CARTESIAN_POINT('Origin',(17.6999997161329,-47.4500000569969,4.00000005960465));
#772=CARTESIAN_POINT('Origin',(7.54,-47.46,6.00000005960465));
#773=UNCERTAINTY_MEASURE_WITH_UNIT(LENGTH_MEASURE(0.01),#777,
'DISTANCE_ACCURACY_VALUE',
'Maximum model space distance between geometric entities at asserted c
onnectivities');
#774=UNCERTAINTY_MEASURE_WITH_UNIT(LENGTH_MEASURE(0.01),#777,
'DISTANCE_ACCURACY_VALUE',
'Maximum model space distance between geometric entities at asserted c
onnectivities');
#775=(
GEOMETRIC_REPRESENTATION_CONTEXT(3)
GLOBAL_UNCERTAINTY_ASSIGNED_CONTEXT((#773))
GLOBAL_UNIT_ASSIGNED_CONTEXT((#777,#779,#780))
REPRESENTATION_CONTEXT('','3D')
);
#776=(
GEOMETRIC_REPRESENTATION_CONTEXT(3)
GLOBAL_UNCERTAINTY_ASSIGNED_CONTEXT((#774))
GLOBAL_UNIT_ASSIGNED_CONTEXT((#777,#779,#780))
REPRESENTATION_CONTEXT('','3D')
);
#777=(
LENGTH_UNIT()
NAMED_UNIT(*)
SI_UNIT(.MILLI.,.METRE.)
);
#778=(
LENGTH_UNIT()
NAMED_UNIT(*)
SI_UNIT($,.METRE.)
);
#779=(
NAMED_UNIT(*)
PLANE_ANGLE_UNIT()
SI_UNIT($,.RADIAN.)
);
#780=(
NAMED_UNIT(*)
SI_UNIT($,.STERADIAN.)
SOLID_ANGLE_UNIT()
);
#781=SHAPE_DEFINITION_REPRESENTATION(#782,#783);
#782=PRODUCT_DEFINITION_SHAPE('',$,#785);
#783=SHAPE_REPRESENTATION('',(#477),#775);
#784=PRODUCT_DEFINITION_CONTEXT('part definition',#789,'design');
#785=PRODUCT_DEFINITION('2026-09-18-15-18-43-744','SGP41_Module',#786,#784);
#786=PRODUCT_DEFINITION_FORMATION('',$,#791);
#787=PRODUCT_RELATED_PRODUCT_CATEGORY('SGP41_Module','SGP41_Module',(#791));
#788=APPLICATION_PROTOCOL_DEFINITION('international standard',
'automotive_design',2009,#789);
#789=APPLICATION_CONTEXT(
'Core Data for Automotive Mechanical Design Process');
#790=PRODUCT_CONTEXT('part definition',#789,'mechanical');
#791=PRODUCT('2026-09-18-15-18-43-744','SGP41_Module',$,(#790));
#792=PRESENTATION_STYLE_ASSIGNMENT((#793));
#793=SURFACE_STYLE_USAGE(.BOTH.,#794);
#794=SURFACE_SIDE_STYLE('',(#795));
#795=SURFACE_STYLE_FILL_AREA(#796);
#796=FILL_AREA_STYLE('Steel - Satin',(#797));
#797=FILL_AREA_STYLE_COLOUR('Steel - Satin',#798);
#798=COLOUR_RGB('Steel - Satin',0.627450980392157,0.627450980392157,0.627450980392157);
ENDSEC;
END-ISO-10303-21;
