ISO-10303-21;
HEADER;
/* Generated by software containing ST-Developer
 * from STEP Tools, Inc. (www.steptools.com) 
 */

FILE_DESCRIPTION(
/* description */ (''),
/* implementation_level */ '2;1');

FILE_NAME(
/* name */ 'SHT45_Module.step',
/* time_stamp */ '2026-09-24T16:53:38-04:00',
/* author */ (''),
/* organization */ (''),
/* preprocessor_version */ 'ST-DEVELOPER v20.2',
/* originating_system */ 'Autodesk Translation Framework v15.15.0.0',
/* authorisation */ '');

FILE_SCHEMA (('AUTOMOTIVE_DESIGN { 1 0 10303 214 3 1 1 }'));
ENDSEC;

DATA;
#10=MECHANICAL_DESIGN_GEOMETRIC_PRESENTATION_REPRESENTATION('',(#13),#615);
#11=SHAPE_REPRESENTATION_RELATIONSHIP('SRR','None',#622,#12);
#12=ADVANCED_BREP_SHAPE_REPRESENTATION('',(#14),#614);
#13=STYLED_ITEM('',(#631),#14);
#14=MANIFOLD_SOLID_BREP('Body8',#367);
#15=FACE_BOUND('',#49,.T.);
#16=FACE_BOUND('',#53,.T.);
#17=ELLIPSE('',#382,3.5,1.54999996200204);
#18=ELLIPSE('',#383,3.5,1.54999996200204);
#19=ELLIPSE('',#384,3.5,1.54999996200204);
#20=ELLIPSE('',#385,3.5,1.54999996200204);
#21=(
BOUNDED_SURFACE()
B_SPLINE_SURFACE(1,2,((#503,#504,#505,#506,#507),(#508,#509,#510,#511,#512)),
 .UNSPECIFIED.,.F.,.F.,.F.)
B_SPLINE_SURFACE_WITH_KNOTS((2,2),(3,2,3),(0.285714285714286,0.857142857142858),
(-3.58136468336151E-16,1.5707963267949,3.14159265358979),.UNSPECIFIED.)
GEOMETRIC_REPRESENTATION_ITEM()
RATIONAL_B_SPLINE_SURFACE(((1.,0.707106781186547,1.,0.707106781186547,1.),
(1.,0.707106781186547,1.,0.707106781186547,1.)))
REPRESENTATION_ITEM('')
SURFACE()
);
#22=(
BOUNDED_SURFACE()
B_SPLINE_SURFACE(1,2,((#521,#522,#523,#524,#525),(#526,#527,#528,#529,#530)),
 .UNSPECIFIED.,.F.,.F.,.F.)
B_SPLINE_SURFACE_WITH_KNOTS((2,2),(3,2,3),(0.285714285714286,0.857142857142858),
(2.76533154973722E-16,1.5707963267949,3.14159265358979),.UNSPECIFIED.)
GEOMETRIC_REPRESENTATION_ITEM()
RATIONAL_B_SPLINE_SURFACE(((1.,0.707106781186548,1.,0.707106781186548,1.),
(1.,0.707106781186548,1.,0.707106781186548,1.)))
REPRESENTATION_ITEM('')
SURFACE()
);
#23=FACE_OUTER_BOUND('',#43,.T.);
#24=FACE_OUTER_BOUND('',#44,.T.);
#25=FACE_OUTER_BOUND('',#45,.T.);
#26=FACE_OUTER_BOUND('',#46,.T.);
#27=FACE_OUTER_BOUND('',#47,.T.);
#28=FACE_OUTER_BOUND('',#48,.T.);
#29=FACE_OUTER_BOUND('',#50,.T.);
#30=FACE_OUTER_BOUND('',#51,.T.);
#31=FACE_OUTER_BOUND('',#52,.T.);
#32=FACE_OUTER_BOUND('',#54,.T.);
#33=FACE_OUTER_BOUND('',#55,.T.);
#34=FACE_OUTER_BOUND('',#56,.T.);
#35=FACE_OUTER_BOUND('',#57,.T.);
#36=FACE_OUTER_BOUND('',#58,.T.);
#37=FACE_OUTER_BOUND('',#59,.T.);
#38=FACE_OUTER_BOUND('',#60,.T.);
#39=FACE_OUTER_BOUND('',#61,.T.);
#40=FACE_OUTER_BOUND('',#62,.T.);
#41=FACE_OUTER_BOUND('',#63,.T.);
#42=FACE_OUTER_BOUND('',#64,.T.);
#43=EDGE_LOOP('',(#233,#234,#235,#236));
#44=EDGE_LOOP('',(#237,#238,#239,#240));
#45=EDGE_LOOP('',(#241,#242,#243,#244));
#46=EDGE_LOOP('',(#245,#246,#247,#248));
#47=EDGE_LOOP('',(#249,#250,#251,#252));
#48=EDGE_LOOP('',(#253,#254,#255,#256));
#49=EDGE_LOOP('',(#257,#258,#259,#260,#261,#262,#263,#264));
#50=EDGE_LOOP('',(#265,#266,#267,#268));
#51=EDGE_LOOP('',(#269,#270,#271,#272));
#52=EDGE_LOOP('',(#273,#274,#275,#276,#277,#278,#279,#280));
#53=EDGE_LOOP('',(#281,#282,#283,#284));
#54=EDGE_LOOP('',(#285,#286,#287,#288));
#55=EDGE_LOOP('',(#289,#290,#291,#292));
#56=EDGE_LOOP('',(#293,#294,#295,#296));
#57=EDGE_LOOP('',(#297,#298,#299,#300));
#58=EDGE_LOOP('',(#301,#302,#303,#304));
#59=EDGE_LOOP('',(#305,#306,#307,#308));
#60=EDGE_LOOP('',(#309,#310,#311,#312));
#61=EDGE_LOOP('',(#313,#314,#315,#316));
#62=EDGE_LOOP('',(#317,#318,#319,#320));
#63=EDGE_LOOP('',(#321,#322,#323,#324));
#64=EDGE_LOOP('',(#325,#326,#327,#328));
#65=LINE('',#497,#109);
#66=LINE('',#499,#110);
#67=LINE('',#501,#111);
#68=LINE('',#502,#112);
#69=LINE('',#517,#113);
#70=LINE('',#520,#114);
#71=LINE('',#535,#115);
#72=LINE('',#538,#116);
#73=LINE('',#541,#117);
#74=LINE('',#543,#118);
#75=LINE('',#544,#119);
#76=LINE('',#547,#120);
#77=LINE('',#549,#121);
#78=LINE('',#550,#122);
#79=LINE('',#554,#123);
#80=LINE('',#556,#124);
#81=LINE('',#558,#125);
#82=LINE('',#559,#126);
#83=LINE('',#561,#127);
#84=LINE('',#562,#128);
#85=LINE('',#564,#129);
#86=LINE('',#565,#130);
#87=LINE('',#568,#131);
#88=LINE('',#569,#132);
#89=LINE('',#572,#133);
#90=LINE('',#573,#134);
#91=LINE('',#575,#135);
#92=LINE('',#576,#136);
#93=LINE('',#579,#137);
#94=LINE('',#581,#138);
#95=LINE('',#583,#139);
#96=LINE('',#584,#140);
#97=LINE('',#587,#141);
#98=LINE('',#589,#142);
#99=LINE('',#590,#143);
#100=LINE('',#593,#144);
#101=LINE('',#594,#145);
#102=LINE('',#597,#146);
#103=LINE('',#598,#147);
#104=LINE('',#602,#148);
#105=LINE('',#605,#149);
#106=LINE('',#606,#150);
#107=LINE('',#608,#151);
#108=LINE('',#610,#152);
#109=VECTOR('',#407,10.);
#110=VECTOR('',#408,10.);
#111=VECTOR('',#409,10.);
#112=VECTOR('',#410,10.);
#113=VECTOR('',#413,10.);
#114=VECTOR('',#416,10.);
#115=VECTOR('',#419,10.);
#116=VECTOR('',#422,10.);
#117=VECTOR('',#425,10.);
#118=VECTOR('',#426,10.);
#119=VECTOR('',#427,10.);
#120=VECTOR('',#430,10.);
#121=VECTOR('',#431,10.);
#122=VECTOR('',#432,10.);
#123=VECTOR('',#435,10.);
#124=VECTOR('',#436,10.);
#125=VECTOR('',#437,10.);
#126=VECTOR('',#438,10.);
#127=VECTOR('',#439,10.);
#128=VECTOR('',#440,10.);
#129=VECTOR('',#441,10.);
#130=VECTOR('',#442,10.);
#131=VECTOR('',#445,10.);
#132=VECTOR('',#446,10.);
#133=VECTOR('',#449,10.);
#134=VECTOR('',#450,10.);
#135=VECTOR('',#453,10.);
#136=VECTOR('',#454,10.);
#137=VECTOR('',#455,10.);
#138=VECTOR('',#456,10.);
#139=VECTOR('',#457,10.);
#140=VECTOR('',#458,10.);
#141=VECTOR('',#461,10.);
#142=VECTOR('',#462,10.);
#143=VECTOR('',#463,10.);
#144=VECTOR('',#466,10.);
#145=VECTOR('',#467,10.);
#146=VECTOR('',#470,10.);
#147=VECTOR('',#471,10.);
#148=VECTOR('',#478,10.);
#149=VECTOR('',#483,10.);
#150=VECTOR('',#484,10.);
#151=VECTOR('',#487,10.);
#152=VECTOR('',#490,10.);
#153=VERTEX_POINT('',#495);
#154=VERTEX_POINT('',#496);
#155=VERTEX_POINT('',#498);
#156=VERTEX_POINT('',#500);
#157=VERTEX_POINT('',#513);
#158=VERTEX_POINT('',#514);
#159=VERTEX_POINT('',#516);
#160=VERTEX_POINT('',#518);
#161=VERTEX_POINT('',#531);
#162=VERTEX_POINT('',#532);
#163=VERTEX_POINT('',#534);
#164=VERTEX_POINT('',#536);
#165=VERTEX_POINT('',#540);
#166=VERTEX_POINT('',#542);
#167=VERTEX_POINT('',#546);
#168=VERTEX_POINT('',#548);
#169=VERTEX_POINT('',#552);
#170=VERTEX_POINT('',#553);
#171=VERTEX_POINT('',#555);
#172=VERTEX_POINT('',#557);
#173=VERTEX_POINT('',#560);
#174=VERTEX_POINT('',#563);
#175=VERTEX_POINT('',#567);
#176=VERTEX_POINT('',#571);
#177=VERTEX_POINT('',#577);
#178=VERTEX_POINT('',#578);
#179=VERTEX_POINT('',#580);
#180=VERTEX_POINT('',#582);
#181=VERTEX_POINT('',#586);
#182=VERTEX_POINT('',#588);
#183=VERTEX_POINT('',#592);
#184=VERTEX_POINT('',#596);
#185=EDGE_CURVE('',#153,#154,#65,.T.);
#186=EDGE_CURVE('',#154,#155,#66,.T.);
#187=EDGE_CURVE('',#155,#156,#67,.T.);
#188=EDGE_CURVE('',#156,#153,#68,.T.);
#189=EDGE_CURVE('',#157,#158,#17,.T.);
#190=EDGE_CURVE('',#159,#157,#69,.T.);
#191=EDGE_CURVE('',#159,#160,#18,.T.);
#192=EDGE_CURVE('',#158,#160,#70,.T.);
#193=EDGE_CURVE('',#161,#162,#19,.T.);
#194=EDGE_CURVE('',#163,#161,#71,.T.);
#195=EDGE_CURVE('',#163,#164,#20,.T.);
#196=EDGE_CURVE('',#162,#164,#72,.T.);
#197=EDGE_CURVE('',#160,#165,#73,.F.);
#198=EDGE_CURVE('',#166,#165,#74,.T.);
#199=EDGE_CURVE('',#158,#166,#75,.T.);
#200=EDGE_CURVE('',#167,#157,#76,.T.);
#201=EDGE_CURVE('',#167,#168,#77,.F.);
#202=EDGE_CURVE('',#168,#159,#78,.F.);
#203=EDGE_CURVE('',#169,#170,#79,.T.);
#204=EDGE_CURVE('',#171,#169,#80,.T.);
#205=EDGE_CURVE('',#172,#171,#81,.T.);
#206=EDGE_CURVE('',#170,#172,#82,.T.);
#207=EDGE_CURVE('',#166,#173,#83,.T.);
#208=EDGE_CURVE('',#173,#161,#84,.T.);
#209=EDGE_CURVE('',#162,#174,#85,.T.);
#210=EDGE_CURVE('',#174,#167,#86,.T.);
#211=EDGE_CURVE('',#164,#175,#87,.F.);
#212=EDGE_CURVE('',#174,#175,#88,.T.);
#213=EDGE_CURVE('',#173,#176,#89,.F.);
#214=EDGE_CURVE('',#176,#163,#90,.F.);
#215=EDGE_CURVE('',#175,#168,#91,.F.);
#216=EDGE_CURVE('',#165,#176,#92,.F.);
#217=EDGE_CURVE('',#177,#178,#93,.T.);
#218=EDGE_CURVE('',#179,#177,#94,.T.);
#219=EDGE_CURVE('',#180,#179,#95,.T.);
#220=EDGE_CURVE('',#178,#180,#96,.T.);
#221=EDGE_CURVE('',#180,#181,#97,.T.);
#222=EDGE_CURVE('',#181,#182,#98,.T.);
#223=EDGE_CURVE('',#178,#182,#99,.T.);
#224=EDGE_CURVE('',#179,#183,#100,.T.);
#225=EDGE_CURVE('',#183,#181,#101,.T.);
#226=EDGE_CURVE('',#184,#183,#102,.T.);
#227=EDGE_CURVE('',#182,#184,#103,.T.);
#228=EDGE_CURVE('',#177,#184,#104,.T.);
#229=EDGE_CURVE('',#169,#153,#105,.T.);
#230=EDGE_CURVE('',#171,#156,#106,.T.);
#231=EDGE_CURVE('',#172,#155,#107,.T.);
#232=EDGE_CURVE('',#170,#154,#108,.T.);
#233=ORIENTED_EDGE('',*,*,#185,.T.);
#234=ORIENTED_EDGE('',*,*,#186,.T.);
#235=ORIENTED_EDGE('',*,*,#187,.T.);
#236=ORIENTED_EDGE('',*,*,#188,.T.);
#237=ORIENTED_EDGE('',*,*,#189,.F.);
#238=ORIENTED_EDGE('',*,*,#190,.F.);
#239=ORIENTED_EDGE('',*,*,#191,.T.);
#240=ORIENTED_EDGE('',*,*,#192,.F.);
#241=ORIENTED_EDGE('',*,*,#193,.F.);
#242=ORIENTED_EDGE('',*,*,#194,.F.);
#243=ORIENTED_EDGE('',*,*,#195,.T.);
#244=ORIENTED_EDGE('',*,*,#196,.F.);
#245=ORIENTED_EDGE('',*,*,#192,.T.);
#246=ORIENTED_EDGE('',*,*,#197,.T.);
#247=ORIENTED_EDGE('',*,*,#198,.F.);
#248=ORIENTED_EDGE('',*,*,#199,.F.);
#249=ORIENTED_EDGE('',*,*,#190,.T.);
#250=ORIENTED_EDGE('',*,*,#200,.F.);
#251=ORIENTED_EDGE('',*,*,#201,.T.);
#252=ORIENTED_EDGE('',*,*,#202,.T.);
#253=ORIENTED_EDGE('',*,*,#203,.F.);
#254=ORIENTED_EDGE('',*,*,#204,.F.);
#255=ORIENTED_EDGE('',*,*,#205,.F.);
#256=ORIENTED_EDGE('',*,*,#206,.F.);
#257=ORIENTED_EDGE('',*,*,#189,.T.);
#258=ORIENTED_EDGE('',*,*,#199,.T.);
#259=ORIENTED_EDGE('',*,*,#207,.T.);
#260=ORIENTED_EDGE('',*,*,#208,.T.);
#261=ORIENTED_EDGE('',*,*,#193,.T.);
#262=ORIENTED_EDGE('',*,*,#209,.T.);
#263=ORIENTED_EDGE('',*,*,#210,.T.);
#264=ORIENTED_EDGE('',*,*,#200,.T.);
#265=ORIENTED_EDGE('',*,*,#196,.T.);
#266=ORIENTED_EDGE('',*,*,#211,.T.);
#267=ORIENTED_EDGE('',*,*,#212,.F.);
#268=ORIENTED_EDGE('',*,*,#209,.F.);
#269=ORIENTED_EDGE('',*,*,#194,.T.);
#270=ORIENTED_EDGE('',*,*,#208,.F.);
#271=ORIENTED_EDGE('',*,*,#213,.T.);
#272=ORIENTED_EDGE('',*,*,#214,.T.);
#273=ORIENTED_EDGE('',*,*,#202,.F.);
#274=ORIENTED_EDGE('',*,*,#215,.F.);
#275=ORIENTED_EDGE('',*,*,#211,.F.);
#276=ORIENTED_EDGE('',*,*,#195,.F.);
#277=ORIENTED_EDGE('',*,*,#214,.F.);
#278=ORIENTED_EDGE('',*,*,#216,.F.);
#279=ORIENTED_EDGE('',*,*,#197,.F.);
#280=ORIENTED_EDGE('',*,*,#191,.F.);
#281=ORIENTED_EDGE('',*,*,#217,.F.);
#282=ORIENTED_EDGE('',*,*,#218,.F.);
#283=ORIENTED_EDGE('',*,*,#219,.F.);
#284=ORIENTED_EDGE('',*,*,#220,.F.);
#285=ORIENTED_EDGE('',*,*,#220,.T.);
#286=ORIENTED_EDGE('',*,*,#221,.T.);
#287=ORIENTED_EDGE('',*,*,#222,.T.);
#288=ORIENTED_EDGE('',*,*,#223,.F.);
#289=ORIENTED_EDGE('',*,*,#219,.T.);
#290=ORIENTED_EDGE('',*,*,#224,.T.);
#291=ORIENTED_EDGE('',*,*,#225,.T.);
#292=ORIENTED_EDGE('',*,*,#221,.F.);
#293=ORIENTED_EDGE('',*,*,#222,.F.);
#294=ORIENTED_EDGE('',*,*,#225,.F.);
#295=ORIENTED_EDGE('',*,*,#226,.F.);
#296=ORIENTED_EDGE('',*,*,#227,.F.);
#297=ORIENTED_EDGE('',*,*,#210,.F.);
#298=ORIENTED_EDGE('',*,*,#212,.T.);
#299=ORIENTED_EDGE('',*,*,#215,.T.);
#300=ORIENTED_EDGE('',*,*,#201,.F.);
#301=ORIENTED_EDGE('',*,*,#207,.F.);
#302=ORIENTED_EDGE('',*,*,#198,.T.);
#303=ORIENTED_EDGE('',*,*,#216,.T.);
#304=ORIENTED_EDGE('',*,*,#213,.F.);
#305=ORIENTED_EDGE('',*,*,#218,.T.);
#306=ORIENTED_EDGE('',*,*,#228,.T.);
#307=ORIENTED_EDGE('',*,*,#226,.T.);
#308=ORIENTED_EDGE('',*,*,#224,.F.);
#309=ORIENTED_EDGE('',*,*,#217,.T.);
#310=ORIENTED_EDGE('',*,*,#223,.T.);
#311=ORIENTED_EDGE('',*,*,#227,.T.);
#312=ORIENTED_EDGE('',*,*,#228,.F.);
#313=ORIENTED_EDGE('',*,*,#204,.T.);
#314=ORIENTED_EDGE('',*,*,#229,.T.);
#315=ORIENTED_EDGE('',*,*,#188,.F.);
#316=ORIENTED_EDGE('',*,*,#230,.F.);
#317=ORIENTED_EDGE('',*,*,#205,.T.);
#318=ORIENTED_EDGE('',*,*,#230,.T.);
#319=ORIENTED_EDGE('',*,*,#187,.F.);
#320=ORIENTED_EDGE('',*,*,#231,.F.);
#321=ORIENTED_EDGE('',*,*,#206,.T.);
#322=ORIENTED_EDGE('',*,*,#231,.T.);
#323=ORIENTED_EDGE('',*,*,#186,.F.);
#324=ORIENTED_EDGE('',*,*,#232,.F.);
#325=ORIENTED_EDGE('',*,*,#203,.T.);
#326=ORIENTED_EDGE('',*,*,#232,.T.);
#327=ORIENTED_EDGE('',*,*,#185,.F.);
#328=ORIENTED_EDGE('',*,*,#229,.F.);
#329=PLANE('',#381);
#330=PLANE('',#386);
#331=PLANE('',#387);
#332=PLANE('',#388);
#333=PLANE('',#389);
#334=PLANE('',#390);
#335=PLANE('',#391);
#336=PLANE('',#392);
#337=PLANE('',#393);
#338=PLANE('',#394);
#339=PLANE('',#395);
#340=PLANE('',#396);
#341=PLANE('',#397);
#342=PLANE('',#398);
#343=PLANE('',#399);
#344=PLANE('',#400);
#345=PLANE('',#401);
#346=PLANE('',#402);
#347=ADVANCED_FACE('',(#23),#329,.T.);
#348=ADVANCED_FACE('',(#24),#21,.T.);
#349=ADVANCED_FACE('',(#25),#22,.T.);
#350=ADVANCED_FACE('',(#26),#330,.F.);
#351=ADVANCED_FACE('',(#27),#331,.F.);
#352=ADVANCED_FACE('',(#28,#15),#332,.T.);
#353=ADVANCED_FACE('',(#29),#333,.F.);
#354=ADVANCED_FACE('',(#30),#334,.F.);
#355=ADVANCED_FACE('',(#31,#16),#335,.F.);
#356=ADVANCED_FACE('',(#32),#336,.F.);
#357=ADVANCED_FACE('',(#33),#337,.F.);
#358=ADVANCED_FACE('',(#34),#338,.F.);
#359=ADVANCED_FACE('',(#35),#339,.F.);
#360=ADVANCED_FACE('',(#36),#340,.F.);
#361=ADVANCED_FACE('',(#37),#341,.F.);
#362=ADVANCED_FACE('',(#38),#342,.F.);
#363=ADVANCED_FACE('',(#39),#343,.T.);
#364=ADVANCED_FACE('',(#40),#344,.T.);
#365=ADVANCED_FACE('',(#41),#345,.T.);
#366=ADVANCED_FACE('',(#42),#346,.T.);
#367=CLOSED_SHELL('',(#347,#348,#349,#350,#351,#352,#353,#354,#355,#356,
#357,#358,#359,#360,#361,#362,#363,#364,#365,#366));
#368=DERIVED_UNIT_ELEMENT(#370,1.);
#369=DERIVED_UNIT_ELEMENT(#617,-3.);
#370=(
MASS_UNIT()
NAMED_UNIT(*)
SI_UNIT(.KILO.,.GRAM.)
);
#371=DERIVED_UNIT((#368,#369));
#372=MEASURE_REPRESENTATION_ITEM('density measure',
POSITIVE_RATIO_MEASURE(7850.),#371);
#373=PROPERTY_DEFINITION_REPRESENTATION(#378,#375);
#374=PROPERTY_DEFINITION_REPRESENTATION(#379,#376);
#375=REPRESENTATION('material name',(#377),#614);
#376=REPRESENTATION('density',(#372),#614);
#377=DESCRIPTIVE_REPRESENTATION_ITEM('Steel','Steel');
#378=PROPERTY_DEFINITION('material property','material name',#624);
#379=PROPERTY_DEFINITION('material property','density of part',#624);
#380=AXIS2_PLACEMENT_3D('',#493,#403,#404);
#381=AXIS2_PLACEMENT_3D('',#494,#405,#406);
#382=AXIS2_PLACEMENT_3D('',#515,#411,#412);
#383=AXIS2_PLACEMENT_3D('',#519,#414,#415);
#384=AXIS2_PLACEMENT_3D('',#533,#417,#418);
#385=AXIS2_PLACEMENT_3D('',#537,#420,#421);
#386=AXIS2_PLACEMENT_3D('',#539,#423,#424);
#387=AXIS2_PLACEMENT_3D('',#545,#428,#429);
#388=AXIS2_PLACEMENT_3D('',#551,#433,#434);
#389=AXIS2_PLACEMENT_3D('',#566,#443,#444);
#390=AXIS2_PLACEMENT_3D('',#570,#447,#448);
#391=AXIS2_PLACEMENT_3D('',#574,#451,#452);
#392=AXIS2_PLACEMENT_3D('',#585,#459,#460);
#393=AXIS2_PLACEMENT_3D('',#591,#464,#465);
#394=AXIS2_PLACEMENT_3D('',#595,#468,#469);
#395=AXIS2_PLACEMENT_3D('',#599,#472,#473);
#396=AXIS2_PLACEMENT_3D('',#600,#474,#475);
#397=AXIS2_PLACEMENT_3D('',#601,#476,#477);
#398=AXIS2_PLACEMENT_3D('',#603,#479,#480);
#399=AXIS2_PLACEMENT_3D('',#604,#481,#482);
#400=AXIS2_PLACEMENT_3D('',#607,#485,#486);
#401=AXIS2_PLACEMENT_3D('',#609,#488,#489);
#402=AXIS2_PLACEMENT_3D('',#611,#491,#492);
#403=DIRECTION('axis',(0.,0.,1.));
#404=DIRECTION('refdir',(1.,0.,0.));
#405=DIRECTION('center_axis',(0.,0.,-1.));
#406=DIRECTION('ref_axis',(-1.,0.,0.));
#407=DIRECTION('',(0.,-1.,0.));
#408=DIRECTION('',(-1.,0.,0.));
#409=DIRECTION('',(0.,1.,0.));
#410=DIRECTION('',(1.,-1.75114044875206E-17,0.));
#411=DIRECTION('center_axis',(0.,0.,-1.));
#412=DIRECTION('ref_axis',(-1.,0.,0.));
#413=DIRECTION('',(0.,0.,1.));
#414=DIRECTION('center_axis',(0.,0.,-1.));
#415=DIRECTION('ref_axis',(-1.,0.,0.));
#416=DIRECTION('',(0.,0.,-1.));
#417=DIRECTION('center_axis',(0.,0.,-1.));
#418=DIRECTION('ref_axis',(1.,1.22464679914735E-16,0.));
#419=DIRECTION('',(0.,0.,1.));
#420=DIRECTION('center_axis',(0.,0.,-1.));
#421=DIRECTION('ref_axis',(1.,1.22464679914735E-16,0.));
#422=DIRECTION('',(0.,0.,-1.));
#423=DIRECTION('center_axis',(0.,1.,0.));
#424=DIRECTION('ref_axis',(1.,0.,0.));
#425=DIRECTION('',(-1.,0.,0.));
#426=DIRECTION('',(0.,0.,-1.));
#427=DIRECTION('',(1.,0.,0.));
#428=DIRECTION('center_axis',(0.,1.,0.));
#429=DIRECTION('ref_axis',(1.,0.,0.));
#430=DIRECTION('',(1.,0.,0.));
#431=DIRECTION('',(0.,0.,1.));
#432=DIRECTION('',(-1.,0.,0.));
#433=DIRECTION('center_axis',(0.,0.,1.));
#434=DIRECTION('ref_axis',(-1.,0.,0.));
#435=DIRECTION('',(0.,-1.,0.));
#436=DIRECTION('',(1.,-1.75114044875206E-17,0.));
#437=DIRECTION('',(0.,1.,0.));
#438=DIRECTION('',(-1.,0.,0.));
#439=DIRECTION('',(0.,-1.,0.));
#440=DIRECTION('',(-1.,0.,0.));
#441=DIRECTION('',(-1.,0.,0.));
#442=DIRECTION('',(0.,1.,0.));
#443=DIRECTION('center_axis',(0.,-1.,0.));
#444=DIRECTION('ref_axis',(-1.,0.,0.));
#445=DIRECTION('',(1.,0.,0.));
#446=DIRECTION('',(0.,0.,-1.));
#447=DIRECTION('center_axis',(0.,-1.,0.));
#448=DIRECTION('ref_axis',(-1.,0.,0.));
#449=DIRECTION('',(0.,0.,1.));
#450=DIRECTION('',(1.,0.,0.));
#451=DIRECTION('center_axis',(0.,0.,-1.));
#452=DIRECTION('ref_axis',(-1.,0.,0.));
#453=DIRECTION('',(0.,-1.,0.));
#454=DIRECTION('',(0.,1.,0.));
#455=DIRECTION('',(0.,1.,0.));
#456=DIRECTION('',(1.,0.,0.));
#457=DIRECTION('',(0.,-1.,0.));
#458=DIRECTION('',(-1.,0.,0.));
#459=DIRECTION('center_axis',(0.,1.,0.));
#460=DIRECTION('ref_axis',(1.,0.,0.));
#461=DIRECTION('',(0.,0.,-1.));
#462=DIRECTION('',(1.,0.,0.));
#463=DIRECTION('',(0.,0.,-1.));
#464=DIRECTION('center_axis',(-1.,0.,0.));
#465=DIRECTION('ref_axis',(0.,1.,0.));
#466=DIRECTION('',(0.,0.,-1.));
#467=DIRECTION('',(0.,1.,0.));
#468=DIRECTION('center_axis',(0.,0.,-1.));
#469=DIRECTION('ref_axis',(-1.,0.,0.));
#470=DIRECTION('',(-1.,0.,0.));
#471=DIRECTION('',(0.,-1.,0.));
#472=DIRECTION('center_axis',(-1.,0.,0.));
#473=DIRECTION('ref_axis',(0.,1.,0.));
#474=DIRECTION('center_axis',(1.,0.,0.));
#475=DIRECTION('ref_axis',(0.,-1.,0.));
#476=DIRECTION('center_axis',(0.,-1.,0.));
#477=DIRECTION('ref_axis',(-1.,0.,0.));
#478=DIRECTION('',(0.,0.,-1.));
#479=DIRECTION('center_axis',(1.,0.,0.));
#480=DIRECTION('ref_axis',(0.,-1.,0.));
#481=DIRECTION('center_axis',(1.75114044875206E-17,1.,0.));
#482=DIRECTION('ref_axis',(1.,-1.75114044875206E-17,0.));
#483=DIRECTION('',(0.,0.,-1.));
#484=DIRECTION('',(0.,0.,-1.));
#485=DIRECTION('center_axis',(-1.,0.,0.));
#486=DIRECTION('ref_axis',(0.,1.,0.));
#487=DIRECTION('',(0.,0.,-1.));
#488=DIRECTION('center_axis',(0.,-1.,0.));
#489=DIRECTION('ref_axis',(-1.,0.,0.));
#490=DIRECTION('',(0.,0.,-1.));
#491=DIRECTION('center_axis',(1.,0.,0.));
#492=DIRECTION('ref_axis',(0.,-1.,0.));
#493=CARTESIAN_POINT('',(0.,0.,0.));
#494=CARTESIAN_POINT('Origin',(57.6999997161329,-12.1000001989305,0.));
#495=CARTESIAN_POINT('',(73.5499994322657,-0.0500003978610053,0.));
#496=CARTESIAN_POINT('',(73.5499994322657,-24.15,0.));
#497=CARTESIAN_POINT('',(73.5499994322657,-0.0500003978610053,0.));
#498=CARTESIAN_POINT('',(41.85,-24.15,0.));
#499=CARTESIAN_POINT('',(73.5499994322657,-24.15,0.));
#500=CARTESIAN_POINT('',(41.85,-0.0500003978610047,0.));
#501=CARTESIAN_POINT('',(41.85,-24.15,0.));
#502=CARTESIAN_POINT('',(41.85,-0.0500003978610047,0.));
#503=CARTESIAN_POINT('Ctrl Pts',(54.1999987103045,-3.04999992847443,8.));
#504=CARTESIAN_POINT('Ctrl Pts',(54.1999987103045,-1.49999996647239,8.));
#505=CARTESIAN_POINT('Ctrl Pts',(57.6999987103045,-1.49999996647239,8.));
#506=CARTESIAN_POINT('Ctrl Pts',(61.1999987103045,-1.49999996647239,8.));
#507=CARTESIAN_POINT('Ctrl Pts',(61.1999987103045,-3.04999992847443,8.));
#508=CARTESIAN_POINT('Ctrl Pts',(54.1999987103045,-3.04999992847443,6.));
#509=CARTESIAN_POINT('Ctrl Pts',(54.1999987103045,-1.49999996647239,6.));
#510=CARTESIAN_POINT('Ctrl Pts',(57.6999987103045,-1.49999996647239,6.));
#511=CARTESIAN_POINT('Ctrl Pts',(61.1999987103045,-1.49999996647239,6.));
#512=CARTESIAN_POINT('Ctrl Pts',(61.1999987103045,-3.04999992847443,6.));
#513=CARTESIAN_POINT('',(54.1999987103045,-3.04999992847443,8.));
#514=CARTESIAN_POINT('',(61.1999987103045,-3.04999992847443,8.));
#515=CARTESIAN_POINT('Origin',(57.6999987103045,-3.04999992847443,8.));
#516=CARTESIAN_POINT('',(54.1999987103045,-3.04999992847443,6.));
#517=CARTESIAN_POINT('',(54.1999987103045,-3.04999992847443,9.));
#518=CARTESIAN_POINT('',(61.1999987103045,-3.04999992847443,6.));
#519=CARTESIAN_POINT('Origin',(57.6999987103045,-3.04999992847443,6.));
#520=CARTESIAN_POINT('',(61.1999987103045,-3.04999992847443,9.));
#521=CARTESIAN_POINT('Ctrl Pts',(61.1999987103045,-21.1499995306134,8.));
#522=CARTESIAN_POINT('Ctrl Pts',(61.1999987103045,-22.6999994926155,8.));
#523=CARTESIAN_POINT('Ctrl Pts',(57.6999987103045,-22.6999994926155,8.));
#524=CARTESIAN_POINT('Ctrl Pts',(54.1999987103045,-22.6999994926155,8.));
#525=CARTESIAN_POINT('Ctrl Pts',(54.1999987103045,-21.1499995306134,8.));
#526=CARTESIAN_POINT('Ctrl Pts',(61.1999987103045,-21.1499995306134,6.));
#527=CARTESIAN_POINT('Ctrl Pts',(61.1999987103045,-22.6999994926155,6.));
#528=CARTESIAN_POINT('Ctrl Pts',(57.6999987103045,-22.6999994926155,6.));
#529=CARTESIAN_POINT('Ctrl Pts',(54.1999987103045,-22.6999994926155,6.));
#530=CARTESIAN_POINT('Ctrl Pts',(54.1999987103045,-21.1499995306134,6.));
#531=CARTESIAN_POINT('',(61.1999987103045,-21.1499995306134,8.));
#532=CARTESIAN_POINT('',(54.1999987103045,-21.1499995306134,8.));
#533=CARTESIAN_POINT('Origin',(57.6999987103045,-21.1499995306134,8.));
#534=CARTESIAN_POINT('',(61.1999987103045,-21.1499995306134,6.));
#535=CARTESIAN_POINT('',(61.1999987103045,-21.1499995306134,9.));
#536=CARTESIAN_POINT('',(54.1999987103045,-21.1499995306134,6.));
#537=CARTESIAN_POINT('Origin',(57.6999987103045,-21.1499995306134,6.));
#538=CARTESIAN_POINT('',(54.1999987103045,-21.1499995306134,9.));
#539=CARTESIAN_POINT('Origin',(44.9999989941716,-3.04999992847443,8.));
#540=CARTESIAN_POINT('',(70.5499984264374,-3.04999992847443,6.));
#541=CARTESIAN_POINT('',(51.3499988522381,-3.04999992847443,6.));
#542=CARTESIAN_POINT('',(70.5499984264374,-3.04999992847443,8.));
#543=CARTESIAN_POINT('',(70.5499984264374,-3.04999992847443,8.));
#544=CARTESIAN_POINT('',(51.3499993551522,-3.04999992847443,8.));
#545=CARTESIAN_POINT('Origin',(44.9999989941716,-3.04999992847443,8.));
#546=CARTESIAN_POINT('',(44.8499989941716,-3.04999992847443,8.));
#547=CARTESIAN_POINT('',(51.3499993551522,-3.04999992847443,8.));
#548=CARTESIAN_POINT('',(44.8499989941716,-3.04999992847443,6.));
#549=CARTESIAN_POINT('',(44.8499989941716,-3.04999992847443,8.));
#550=CARTESIAN_POINT('',(51.3499988522381,-3.04999992847443,6.));
#551=CARTESIAN_POINT('Origin',(57.6999997161329,-12.1000001989305,8.));
#552=CARTESIAN_POINT('',(73.5499994322657,-0.0500003978610053,8.));
#553=CARTESIAN_POINT('',(73.5499994322657,-24.15,8.));
#554=CARTESIAN_POINT('',(73.5499994322657,-0.0500003978610053,8.));
#555=CARTESIAN_POINT('',(41.85,-0.0500003978610047,8.));
#556=CARTESIAN_POINT('',(41.85,-0.0500003978610047,8.));
#557=CARTESIAN_POINT('',(41.85,-24.15,8.));
#558=CARTESIAN_POINT('',(41.85,-24.15,8.));
#559=CARTESIAN_POINT('',(73.5499994322657,-24.15,8.));
#560=CARTESIAN_POINT('',(70.5499984264374,-21.1499995306134,8.));
#561=CARTESIAN_POINT('',(70.5499984264374,-7.65000006370246,8.));
#562=CARTESIAN_POINT('',(64.0499990712851,-21.1499995306134,8.));
#563=CARTESIAN_POINT('',(44.8499989941716,-21.1499995306134,8.));
#564=CARTESIAN_POINT('',(64.0499990712851,-21.1499995306134,8.));
#565=CARTESIAN_POINT('',(44.8499989941716,-16.549999864772,8.));
#566=CARTESIAN_POINT('Origin',(70.3999984264374,-21.1499995306134,8.));
#567=CARTESIAN_POINT('',(44.8499989941716,-21.1499995306134,6.));
#568=CARTESIAN_POINT('',(64.0499985683709,-21.1499995306134,6.));
#569=CARTESIAN_POINT('',(44.8499989941716,-21.1499995306134,8.));
#570=CARTESIAN_POINT('Origin',(70.3999984264374,-21.1499995306134,8.));
#571=CARTESIAN_POINT('',(70.5499984264374,-21.1499995306134,6.));
#572=CARTESIAN_POINT('',(70.5499984264374,-21.1499995306134,8.));
#573=CARTESIAN_POINT('',(64.0499985683709,-21.1499995306134,6.));
#574=CARTESIAN_POINT('Origin',(57.6999987103045,-12.0999997295439,6.));
#575=CARTESIAN_POINT('',(44.8499989941716,-16.5499996300787,6.));
#576=CARTESIAN_POINT('',(70.5499984264374,-7.64999982900918,6.));
#577=CARTESIAN_POINT('',(64.05,-19.73,6.));
#578=CARTESIAN_POINT('',(64.05,-17.19,6.));
#579=CARTESIAN_POINT('',(64.05,-14.644999864772,6.));
#580=CARTESIAN_POINT('',(51.35,-19.73,6.));
#581=CARTESIAN_POINT('',(60.8749993551523,-19.73,6.));
#582=CARTESIAN_POINT('',(51.35,-17.19,6.));
#583=CARTESIAN_POINT('',(51.35,-15.914999864772,6.));
#584=CARTESIAN_POINT('',(54.5249993551522,-17.19,6.));
#585=CARTESIAN_POINT('Origin',(51.35,-17.19,11.5));
#586=CARTESIAN_POINT('',(51.35,-17.19,4.));
#587=CARTESIAN_POINT('',(51.35,-17.19,11.5));
#588=CARTESIAN_POINT('',(64.05,-17.19,4.));
#589=CARTESIAN_POINT('',(51.35,-17.19,4.));
#590=CARTESIAN_POINT('',(64.05,-17.19,11.5));
#591=CARTESIAN_POINT('Origin',(51.35,-19.73,11.5));
#592=CARTESIAN_POINT('',(51.35,-19.73,4.));
#593=CARTESIAN_POINT('',(51.35,-19.73,11.5));
#594=CARTESIAN_POINT('',(51.35,-19.73,4.));
#595=CARTESIAN_POINT('Origin',(57.7,-18.46,4.));
#596=CARTESIAN_POINT('',(64.05,-19.73,4.));
#597=CARTESIAN_POINT('',(64.05,-19.73,4.));
#598=CARTESIAN_POINT('',(64.05,-17.19,4.));
#599=CARTESIAN_POINT('Origin',(44.8499989941716,-20.9999995306134,8.));
#600=CARTESIAN_POINT('Origin',(70.5499984264374,-3.19999992847443,8.));
#601=CARTESIAN_POINT('Origin',(64.05,-19.73,11.5));
#602=CARTESIAN_POINT('',(64.05,-19.73,11.5));
#603=CARTESIAN_POINT('Origin',(64.05,-17.19,11.5));
#604=CARTESIAN_POINT('Origin',(41.85,-0.0500003978610047,8.));
#605=CARTESIAN_POINT('',(73.5499994322657,-0.0500003978610053,8.));
#606=CARTESIAN_POINT('',(41.85,-0.0500003978610047,8.));
#607=CARTESIAN_POINT('Origin',(41.85,-24.15,8.));
#608=CARTESIAN_POINT('',(41.85,-24.15,8.));
#609=CARTESIAN_POINT('Origin',(73.5499994322657,-24.15,8.));
#610=CARTESIAN_POINT('',(73.5499994322657,-24.15,8.));
#611=CARTESIAN_POINT('Origin',(73.5499994322657,-0.0500003978610053,8.));
#612=UNCERTAINTY_MEASURE_WITH_UNIT(LENGTH_MEASURE(0.01),#616,
'DISTANCE_ACCURACY_VALUE',
'Maximum model space distance between geometric entities at asserted c
onnectivities');
#613=UNCERTAINTY_MEASURE_WITH_UNIT(LENGTH_MEASURE(0.01),#616,
'DISTANCE_ACCURACY_VALUE',
'Maximum model space distance between geometric entities at asserted c
onnectivities');
#614=(
GEOMETRIC_REPRESENTATION_CONTEXT(3)
GLOBAL_UNCERTAINTY_ASSIGNED_CONTEXT((#612))
GLOBAL_UNIT_ASSIGNED_CONTEXT((#616,#618,#619))
REPRESENTATION_CONTEXT('','3D')
);
#615=(
GEOMETRIC_REPRESENTATION_CONTEXT(3)
GLOBAL_UNCERTAINTY_ASSIGNED_CONTEXT((#613))
GLOBAL_UNIT_ASSIGNED_CONTEXT((#616,#618,#619))
REPRESENTATION_CONTEXT('','3D')
);
#616=(
LENGTH_UNIT()
NAMED_UNIT(*)
SI_UNIT(.MILLI.,.METRE.)
);
#617=(
LENGTH_UNIT()
NAMED_UNIT(*)
SI_UNIT($,.METRE.)
);
#618=(
NAMED_UNIT(*)
PLANE_ANGLE_UNIT()
SI_UNIT($,.RADIAN.)
);
#619=(
NAMED_UNIT(*)
SI_UNIT($,.STERADIAN.)
SOLID_ANGLE_UNIT()
);
#620=SHAPE_DEFINITION_REPRESENTATION(#621,#622);
#621=PRODUCT_DEFINITION_SHAPE('',$,#624);
#622=SHAPE_REPRESENTATION('',(#380),#614);
#623=PRODUCT_DEFINITION_CONTEXT('part definition',#628,'design');
#624=PRODUCT_DEFINITION('2026-09-18-15-19-02-024','SHT45_Module',#625,#623);
#625=PRODUCT_DEFINITION_FORMATION('',$,#630);
#626=PRODUCT_RELATED_PRODUCT_CATEGORY('SHT45_Module','SHT45_Module',(#630));
#627=APPLICATION_PROTOCOL_DEFINITION('international standard',
'automotive_design',2009,#628);
#628=APPLICATION_CONTEXT(
'Core Data for Automotive Mechanical Design Process');
#629=PRODUCT_CONTEXT('part definition',#628,'mechanical');
#630=PRODUCT('2026-09-18-15-19-02-024','SHT45_Module',$,(#629));
#631=PRESENTATION_STYLE_ASSIGNMENT((#632));
#632=SURFACE_STYLE_USAGE(.BOTH.,#633);
#633=SURFACE_SIDE_STYLE('',(#634));
#634=SURFACE_STYLE_FILL_AREA(#635);
#635=FILL_AREA_STYLE('Steel - Satin',(#636));
#636=FILL_AREA_STYLE_COLOUR('Steel - Satin',#637);
#637=COLOUR_RGB('Steel - Satin',0.627450980392157,0.627450980392157,0.627450980392157);
ENDSEC;
END-ISO-10303-21;
