ISO-10303-21;
HEADER;
/* Generated by software containing ST-Developer
 * from STEP Tools, Inc. (www.steptools.com) 
 */

FILE_DESCRIPTION(
/* description */ (''),
/* implementation_level */ '2;1');

FILE_NAME(
/* name */ 'Snap_Fit_Modeling_Piece.step',
/* time_stamp */ '2026-09-24T16:53:50-04:00',
/* author */ (''),
/* organization */ (''),
/* preprocessor_version */ 'ST-DEVELOPER v20.2',
/* originating_system */ 'Autodesk Translation Framework v15.15.0.0',
/* authorisation */ '');

FILE_SCHEMA (('AUTOMOTIVE_DESIGN { 1 0 10303 214 3 1 1 }'));
ENDSEC;

DATA;
#10=MECHANICAL_DESIGN_GEOMETRIC_PRESENTATION_REPRESENTATION('',(#21),#953);
#11=SHAPE_REPRESENTATION_RELATIONSHIP('SRR','None',#967,#12);
#12=ADVANCED_BREP_SHAPE_REPRESENTATION('',(#22),#951);
#13=ITEM_DEFINED_TRANSFORMATION($,$,#588,#619);
#14=ITEM_DEFINED_TRANSFORMATION($,$,#587,#620);
#15=(
REPRESENTATION_RELATIONSHIP($,$,#968,#967)
REPRESENTATION_RELATIONSHIP_WITH_TRANSFORMATION(#13)
SHAPE_REPRESENTATION_RELATIONSHIP()
);
#16=(
REPRESENTATION_RELATIONSHIP($,$,#967,#966)
REPRESENTATION_RELATIONSHIP_WITH_TRANSFORMATION(#14)
SHAPE_REPRESENTATION_RELATIONSHIP()
);
#17=CONTEXT_DEPENDENT_SHAPE_REPRESENTATION(#15,#964);
#18=CONTEXT_DEPENDENT_SHAPE_REPRESENTATION(#16,#965);
#19=NEXT_ASSEMBLY_USAGE_OCCURRENCE('ESP32_Heltec_LoRa_V3_Enclosure:1',
'ESP32_Heltec_LoRa_V3_Enclosure:1','ESP32_Heltec_LoRa_V3_Enclosure:1',#971,
#972,'ESP32_Heltec_LoRa_V3_Enclosure:1');
#20=NEXT_ASSEMBLY_USAGE_OCCURRENCE('Heltec_LoRa_V3_Model:1',
'Heltec_LoRa_V3_Model:1','Heltec_LoRa_V3_Model:1',#970,#971,
'Heltec_LoRa_V3_Model:1');
#21=STYLED_ITEM('',(#985),#22);
#22=MANIFOLD_SOLID_BREP('Body2',#573);
#23=(
BOUNDED_SURFACE()
B_SPLINE_SURFACE(1,2,((#863,#864,#865,#866,#867),(#868,#869,#870,#871,#872)),
 .UNSPECIFIED.,.F.,.F.,.F.)
B_SPLINE_SURFACE_WITH_KNOTS((2,2),(3,2,3),(0.249999988125638,1.24999994062819),
(-3.1415926553701,-1.5707963267949,1.78030545860963E-9),.UNSPECIFIED.)
GEOMETRIC_REPRESENTATION_ITEM()
RATIONAL_B_SPLINE_SURFACE(((1.,0.707106780557115,1.,0.707106780557115,1.),
(1.,0.707106780557115,1.,0.707106780557115,1.)))
REPRESENTATION_ITEM('')
SURFACE()
);
#24=(
BOUNDED_SURFACE()
B_SPLINE_SURFACE(1,2,((#886,#887,#888,#889,#890),(#891,#892,#893,#894,#895)),
 .UNSPECIFIED.,.F.,.F.,.F.)
B_SPLINE_SURFACE_WITH_KNOTS((2,2),(3,2,3),(0.249999988125638,1.24999994062819),
(-3.1415926553701,-1.5707963267949,1.78030505387326E-9),.UNSPECIFIED.)
GEOMETRIC_REPRESENTATION_ITEM()
RATIONAL_B_SPLINE_SURFACE(((1.,0.707106780557115,1.,0.707106780557115,1.),
(1.,0.707106780557115,1.,0.707106780557115,1.)))
REPRESENTATION_ITEM('')
SURFACE()
);
#25=ELLIPSE('',#594,4.00000018998981,2.0009550828804);
#26=ELLIPSE('',#595,4.00000018998981,2.0009550828804);
#27=ELLIPSE('',#601,4.00000018998981,2.0009550828804);
#28=ELLIPSE('',#604,4.00000018998981,2.0009550828804);
#29=FACE_OUTER_BOUND('',#57,.T.);
#30=FACE_OUTER_BOUND('',#58,.T.);
#31=FACE_OUTER_BOUND('',#59,.T.);
#32=FACE_OUTER_BOUND('',#60,.T.);
#33=FACE_OUTER_BOUND('',#61,.T.);
#34=FACE_OUTER_BOUND('',#62,.T.);
#35=FACE_OUTER_BOUND('',#63,.T.);
#36=FACE_OUTER_BOUND('',#64,.T.);
#37=FACE_OUTER_BOUND('',#65,.T.);
#38=FACE_OUTER_BOUND('',#66,.T.);
#39=FACE_OUTER_BOUND('',#67,.T.);
#40=FACE_OUTER_BOUND('',#68,.T.);
#41=FACE_OUTER_BOUND('',#69,.T.);
#42=FACE_OUTER_BOUND('',#70,.T.);
#43=FACE_OUTER_BOUND('',#71,.T.);
#44=FACE_OUTER_BOUND('',#72,.T.);
#45=FACE_OUTER_BOUND('',#73,.T.);
#46=FACE_OUTER_BOUND('',#74,.T.);
#47=FACE_OUTER_BOUND('',#75,.T.);
#48=FACE_OUTER_BOUND('',#76,.T.);
#49=FACE_OUTER_BOUND('',#77,.T.);
#50=FACE_OUTER_BOUND('',#78,.T.);
#51=FACE_OUTER_BOUND('',#79,.T.);
#52=FACE_OUTER_BOUND('',#80,.T.);
#53=FACE_OUTER_BOUND('',#81,.T.);
#54=FACE_OUTER_BOUND('',#82,.T.);
#55=FACE_OUTER_BOUND('',#83,.T.);
#56=FACE_OUTER_BOUND('',#84,.T.);
#57=EDGE_LOOP('',(#363,#364,#365,#366));
#58=EDGE_LOOP('',(#367,#368,#369,#370));
#59=EDGE_LOOP('',(#371,#372,#373,#374));
#60=EDGE_LOOP('',(#375,#376,#377,#378));
#61=EDGE_LOOP('',(#379,#380,#381,#382,#383,#384,#385,#386,#387,#388,#389,
#390,#391,#392,#393,#394,#395,#396,#397,#398,#399,#400,#401,#402,#403,#404));
#62=EDGE_LOOP('',(#405,#406,#407,#408));
#63=EDGE_LOOP('',(#409,#410,#411,#412));
#64=EDGE_LOOP('',(#413,#414,#415,#416));
#65=EDGE_LOOP('',(#417,#418,#419,#420));
#66=EDGE_LOOP('',(#421,#422,#423,#424));
#67=EDGE_LOOP('',(#425,#426,#427,#428));
#68=EDGE_LOOP('',(#429,#430,#431,#432));
#69=EDGE_LOOP('',(#433,#434,#435,#436));
#70=EDGE_LOOP('',(#437,#438,#439,#440));
#71=EDGE_LOOP('',(#441,#442,#443,#444));
#72=EDGE_LOOP('',(#445,#446,#447,#448,#449,#450,#451,#452,#453,#454,#455,
#456,#457,#458,#459,#460,#461,#462,#463,#464,#465,#466));
#73=EDGE_LOOP('',(#467,#468,#469,#470));
#74=EDGE_LOOP('',(#471,#472,#473,#474,#475,#476,#477,#478));
#75=EDGE_LOOP('',(#479,#480,#481,#482));
#76=EDGE_LOOP('',(#483,#484,#485,#486));
#77=EDGE_LOOP('',(#487,#488,#489,#490));
#78=EDGE_LOOP('',(#491,#492,#493,#494));
#79=EDGE_LOOP('',(#495,#496,#497,#498));
#80=EDGE_LOOP('',(#499,#500,#501,#502));
#81=EDGE_LOOP('',(#503,#504,#505,#506));
#82=EDGE_LOOP('',(#507,#508,#509,#510));
#83=EDGE_LOOP('',(#511,#512,#513,#514));
#84=EDGE_LOOP('',(#515,#516,#517,#518));
#85=LINE('',#771,#159);
#86=LINE('',#773,#160);
#87=LINE('',#775,#161);
#88=LINE('',#776,#162);
#89=LINE('',#780,#163);
#90=LINE('',#782,#164);
#91=LINE('',#784,#165);
#92=LINE('',#785,#166);
#93=LINE('',#788,#167);
#94=LINE('',#790,#168);
#95=LINE('',#791,#169);
#96=LINE('',#794,#170);
#97=LINE('',#796,#171);
#98=LINE('',#797,#172);
#99=LINE('',#800,#173);
#100=LINE('',#802,#174);
#101=LINE('',#804,#175);
#102=LINE('',#806,#176);
#103=LINE('',#807,#177);
#104=LINE('',#809,#178);
#105=LINE('',#811,#179);
#106=LINE('',#813,#180);
#107=LINE('',#817,#181);
#108=LINE('',#819,#182);
#109=LINE('',#821,#183);
#110=LINE('',#823,#184);
#111=LINE('',#825,#185);
#112=LINE('',#827,#186);
#113=LINE('',#829,#187);
#114=LINE('',#831,#188);
#115=LINE('',#833,#189);
#116=LINE('',#837,#190);
#117=LINE('',#839,#191);
#118=LINE('',#840,#192);
#119=LINE('',#843,#193);
#120=LINE('',#845,#194);
#121=LINE('',#846,#195);
#122=LINE('',#849,#196);
#123=LINE('',#850,#197);
#124=LINE('',#853,#198);
#125=LINE('',#854,#199);
#126=LINE('',#857,#200);
#127=LINE('',#858,#201);
#128=LINE('',#861,#202);
#129=LINE('',#862,#203);
#130=LINE('',#874,#204);
#131=LINE('',#877,#205);
#132=LINE('',#880,#206);
#133=LINE('',#881,#207);
#134=LINE('',#884,#208);
#135=LINE('',#885,#209);
#136=LINE('',#897,#210);
#137=LINE('',#900,#211);
#138=LINE('',#903,#212);
#139=LINE('',#904,#213);
#140=LINE('',#907,#214);
#141=LINE('',#908,#215);
#142=LINE('',#910,#216);
#143=LINE('',#911,#217);
#144=LINE('',#912,#218);
#145=LINE('',#914,#219);
#146=LINE('',#915,#220);
#147=LINE('',#916,#221);
#148=LINE('',#920,#222);
#149=LINE('',#922,#223);
#150=LINE('',#924,#224);
#151=LINE('',#925,#225);
#152=LINE('',#927,#226);
#153=LINE('',#928,#227);
#154=LINE('',#930,#228);
#155=LINE('',#932,#229);
#156=LINE('',#935,#230);
#157=LINE('',#937,#231);
#158=LINE('',#940,#232);
#159=VECTOR('',#629,10.);
#160=VECTOR('',#630,10.);
#161=VECTOR('',#631,10.);
#162=VECTOR('',#632,10.);
#163=VECTOR('',#635,10.);
#164=VECTOR('',#636,10.);
#165=VECTOR('',#637,10.);
#166=VECTOR('',#638,10.);
#167=VECTOR('',#641,10.);
#168=VECTOR('',#642,10.);
#169=VECTOR('',#643,10.);
#170=VECTOR('',#646,10.);
#171=VECTOR('',#647,10.);
#172=VECTOR('',#648,10.);
#173=VECTOR('',#651,10.);
#174=VECTOR('',#652,10.);
#175=VECTOR('',#653,10.);
#176=VECTOR('',#654,10.);
#177=VECTOR('',#655,10.);
#178=VECTOR('',#656,10.);
#179=VECTOR('',#657,10.);
#180=VECTOR('',#658,10.);
#181=VECTOR('',#661,10.);
#182=VECTOR('',#662,10.);
#183=VECTOR('',#663,10.);
#184=VECTOR('',#664,10.);
#185=VECTOR('',#665,10.);
#186=VECTOR('',#666,10.);
#187=VECTOR('',#667,10.);
#188=VECTOR('',#668,10.);
#189=VECTOR('',#669,10.);
#190=VECTOR('',#672,10.);
#191=VECTOR('',#673,10.);
#192=VECTOR('',#674,10.);
#193=VECTOR('',#677,10.);
#194=VECTOR('',#678,10.);
#195=VECTOR('',#679,10.);
#196=VECTOR('',#682,10.);
#197=VECTOR('',#683,10.);
#198=VECTOR('',#686,10.);
#199=VECTOR('',#687,10.);
#200=VECTOR('',#690,10.);
#201=VECTOR('',#691,10.);
#202=VECTOR('',#694,10.);
#203=VECTOR('',#695,10.);
#204=VECTOR('',#696,10.);
#205=VECTOR('',#699,10.);
#206=VECTOR('',#702,10.);
#207=VECTOR('',#703,10.);
#208=VECTOR('',#706,10.);
#209=VECTOR('',#707,10.);
#210=VECTOR('',#708,10.);
#211=VECTOR('',#711,10.);
#212=VECTOR('',#714,10.);
#213=VECTOR('',#715,10.);
#214=VECTOR('',#718,10.);
#215=VECTOR('',#719,10.);
#216=VECTOR('',#720,10.);
#217=VECTOR('',#721,10.);
#218=VECTOR('',#722,10.);
#219=VECTOR('',#723,10.);
#220=VECTOR('',#724,10.);
#221=VECTOR('',#725,10.);
#222=VECTOR('',#728,10.);
#223=VECTOR('',#729,10.);
#224=VECTOR('',#730,10.);
#225=VECTOR('',#731,10.);
#226=VECTOR('',#734,10.);
#227=VECTOR('',#735,10.);
#228=VECTOR('',#738,10.);
#229=VECTOR('',#741,10.);
#230=VECTOR('',#746,10.);
#231=VECTOR('',#749,10.);
#232=VECTOR('',#754,10.);
#233=VERTEX_POINT('',#769);
#234=VERTEX_POINT('',#770);
#235=VERTEX_POINT('',#772);
#236=VERTEX_POINT('',#774);
#237=VERTEX_POINT('',#778);
#238=VERTEX_POINT('',#779);
#239=VERTEX_POINT('',#781);
#240=VERTEX_POINT('',#783);
#241=VERTEX_POINT('',#787);
#242=VERTEX_POINT('',#789);
#243=VERTEX_POINT('',#793);
#244=VERTEX_POINT('',#795);
#245=VERTEX_POINT('',#799);
#246=VERTEX_POINT('',#801);
#247=VERTEX_POINT('',#803);
#248=VERTEX_POINT('',#805);
#249=VERTEX_POINT('',#808);
#250=VERTEX_POINT('',#810);
#251=VERTEX_POINT('',#812);
#252=VERTEX_POINT('',#814);
#253=VERTEX_POINT('',#816);
#254=VERTEX_POINT('',#818);
#255=VERTEX_POINT('',#820);
#256=VERTEX_POINT('',#822);
#257=VERTEX_POINT('',#824);
#258=VERTEX_POINT('',#826);
#259=VERTEX_POINT('',#828);
#260=VERTEX_POINT('',#830);
#261=VERTEX_POINT('',#832);
#262=VERTEX_POINT('',#834);
#263=VERTEX_POINT('',#836);
#264=VERTEX_POINT('',#838);
#265=VERTEX_POINT('',#842);
#266=VERTEX_POINT('',#844);
#267=VERTEX_POINT('',#848);
#268=VERTEX_POINT('',#852);
#269=VERTEX_POINT('',#856);
#270=VERTEX_POINT('',#860);
#271=VERTEX_POINT('',#873);
#272=VERTEX_POINT('',#875);
#273=VERTEX_POINT('',#879);
#274=VERTEX_POINT('',#883);
#275=VERTEX_POINT('',#896);
#276=VERTEX_POINT('',#898);
#277=VERTEX_POINT('',#902);
#278=VERTEX_POINT('',#906);
#279=VERTEX_POINT('',#909);
#280=VERTEX_POINT('',#913);
#281=VERTEX_POINT('',#918);
#282=VERTEX_POINT('',#919);
#283=VERTEX_POINT('',#921);
#284=VERTEX_POINT('',#923);
#285=EDGE_CURVE('',#233,#234,#85,.T.);
#286=EDGE_CURVE('',#235,#233,#86,.T.);
#287=EDGE_CURVE('',#235,#236,#87,.T.);
#288=EDGE_CURVE('',#234,#236,#88,.T.);
#289=EDGE_CURVE('',#237,#238,#89,.T.);
#290=EDGE_CURVE('',#239,#237,#90,.T.);
#291=EDGE_CURVE('',#239,#240,#91,.T.);
#292=EDGE_CURVE('',#238,#240,#92,.T.);
#293=EDGE_CURVE('',#240,#241,#93,.T.);
#294=EDGE_CURVE('',#242,#241,#94,.F.);
#295=EDGE_CURVE('',#238,#242,#95,.T.);
#296=EDGE_CURVE('',#243,#233,#96,.T.);
#297=EDGE_CURVE('',#243,#244,#97,.F.);
#298=EDGE_CURVE('',#244,#235,#98,.T.);
#299=EDGE_CURVE('',#245,#234,#99,.T.);
#300=EDGE_CURVE('',#245,#246,#100,.T.);
#301=EDGE_CURVE('',#246,#247,#101,.T.);
#302=EDGE_CURVE('',#247,#248,#102,.T.);
#303=EDGE_CURVE('',#237,#248,#103,.T.);
#304=EDGE_CURVE('',#242,#249,#104,.T.);
#305=EDGE_CURVE('',#249,#250,#105,.T.);
#306=EDGE_CURVE('',#250,#251,#106,.T.);
#307=EDGE_CURVE('',#251,#252,#25,.T.);
#308=EDGE_CURVE('',#252,#253,#107,.T.);
#309=EDGE_CURVE('',#253,#254,#108,.T.);
#310=EDGE_CURVE('',#254,#255,#109,.T.);
#311=EDGE_CURVE('',#255,#256,#110,.T.);
#312=EDGE_CURVE('',#256,#257,#111,.T.);
#313=EDGE_CURVE('',#257,#258,#112,.T.);
#314=EDGE_CURVE('',#258,#259,#113,.T.);
#315=EDGE_CURVE('',#259,#260,#114,.T.);
#316=EDGE_CURVE('',#260,#261,#115,.T.);
#317=EDGE_CURVE('',#261,#262,#26,.T.);
#318=EDGE_CURVE('',#262,#263,#116,.T.);
#319=EDGE_CURVE('',#263,#264,#117,.T.);
#320=EDGE_CURVE('',#264,#243,#118,.T.);
#321=EDGE_CURVE('',#257,#265,#119,.T.);
#322=EDGE_CURVE('',#265,#266,#120,.T.);
#323=EDGE_CURVE('',#258,#266,#121,.T.);
#324=EDGE_CURVE('',#256,#267,#122,.T.);
#325=EDGE_CURVE('',#267,#265,#123,.T.);
#326=EDGE_CURVE('',#268,#255,#124,.T.);
#327=EDGE_CURVE('',#268,#267,#125,.T.);
#328=EDGE_CURVE('',#266,#269,#126,.T.);
#329=EDGE_CURVE('',#259,#269,#127,.F.);
#330=EDGE_CURVE('',#254,#270,#128,.F.);
#331=EDGE_CURVE('',#270,#268,#129,.T.);
#332=EDGE_CURVE('',#271,#261,#130,.T.);
#333=EDGE_CURVE('',#271,#272,#27,.T.);
#334=EDGE_CURVE('',#262,#272,#131,.T.);
#335=EDGE_CURVE('',#260,#273,#132,.F.);
#336=EDGE_CURVE('',#273,#271,#133,.T.);
#337=EDGE_CURVE('',#272,#274,#134,.T.);
#338=EDGE_CURVE('',#263,#274,#135,.T.);
#339=EDGE_CURVE('',#275,#251,#136,.T.);
#340=EDGE_CURVE('',#275,#276,#28,.T.);
#341=EDGE_CURVE('',#252,#276,#137,.T.);
#342=EDGE_CURVE('',#250,#277,#138,.F.);
#343=EDGE_CURVE('',#277,#275,#139,.T.);
#344=EDGE_CURVE('',#278,#270,#140,.T.);
#345=EDGE_CURVE('',#276,#278,#141,.T.);
#346=EDGE_CURVE('',#279,#277,#142,.T.);
#347=EDGE_CURVE('',#241,#279,#143,.T.);
#348=EDGE_CURVE('',#236,#239,#144,.T.);
#349=EDGE_CURVE('',#280,#244,#145,.T.);
#350=EDGE_CURVE('',#274,#280,#146,.T.);
#351=EDGE_CURVE('',#269,#273,#147,.T.);
#352=EDGE_CURVE('',#281,#282,#148,.T.);
#353=EDGE_CURVE('',#282,#283,#149,.T.);
#354=EDGE_CURVE('',#283,#284,#150,.T.);
#355=EDGE_CURVE('',#284,#281,#151,.T.);
#356=EDGE_CURVE('',#248,#284,#152,.T.);
#357=EDGE_CURVE('',#245,#283,#153,.T.);
#358=EDGE_CURVE('',#247,#281,#154,.T.);
#359=EDGE_CURVE('',#246,#282,#155,.T.);
#360=EDGE_CURVE('',#253,#278,#156,.F.);
#361=EDGE_CURVE('',#249,#279,#157,.T.);
#362=EDGE_CURVE('',#264,#280,#158,.F.);
#363=ORIENTED_EDGE('',*,*,#285,.F.);
#364=ORIENTED_EDGE('',*,*,#286,.F.);
#365=ORIENTED_EDGE('',*,*,#287,.T.);
#366=ORIENTED_EDGE('',*,*,#288,.F.);
#367=ORIENTED_EDGE('',*,*,#289,.F.);
#368=ORIENTED_EDGE('',*,*,#290,.F.);
#369=ORIENTED_EDGE('',*,*,#291,.T.);
#370=ORIENTED_EDGE('',*,*,#292,.F.);
#371=ORIENTED_EDGE('',*,*,#292,.T.);
#372=ORIENTED_EDGE('',*,*,#293,.T.);
#373=ORIENTED_EDGE('',*,*,#294,.F.);
#374=ORIENTED_EDGE('',*,*,#295,.F.);
#375=ORIENTED_EDGE('',*,*,#286,.T.);
#376=ORIENTED_EDGE('',*,*,#296,.F.);
#377=ORIENTED_EDGE('',*,*,#297,.T.);
#378=ORIENTED_EDGE('',*,*,#298,.T.);
#379=ORIENTED_EDGE('',*,*,#285,.T.);
#380=ORIENTED_EDGE('',*,*,#299,.F.);
#381=ORIENTED_EDGE('',*,*,#300,.T.);
#382=ORIENTED_EDGE('',*,*,#301,.T.);
#383=ORIENTED_EDGE('',*,*,#302,.T.);
#384=ORIENTED_EDGE('',*,*,#303,.F.);
#385=ORIENTED_EDGE('',*,*,#289,.T.);
#386=ORIENTED_EDGE('',*,*,#295,.T.);
#387=ORIENTED_EDGE('',*,*,#304,.T.);
#388=ORIENTED_EDGE('',*,*,#305,.T.);
#389=ORIENTED_EDGE('',*,*,#306,.T.);
#390=ORIENTED_EDGE('',*,*,#307,.T.);
#391=ORIENTED_EDGE('',*,*,#308,.T.);
#392=ORIENTED_EDGE('',*,*,#309,.T.);
#393=ORIENTED_EDGE('',*,*,#310,.T.);
#394=ORIENTED_EDGE('',*,*,#311,.T.);
#395=ORIENTED_EDGE('',*,*,#312,.T.);
#396=ORIENTED_EDGE('',*,*,#313,.T.);
#397=ORIENTED_EDGE('',*,*,#314,.T.);
#398=ORIENTED_EDGE('',*,*,#315,.T.);
#399=ORIENTED_EDGE('',*,*,#316,.T.);
#400=ORIENTED_EDGE('',*,*,#317,.T.);
#401=ORIENTED_EDGE('',*,*,#318,.T.);
#402=ORIENTED_EDGE('',*,*,#319,.T.);
#403=ORIENTED_EDGE('',*,*,#320,.T.);
#404=ORIENTED_EDGE('',*,*,#296,.T.);
#405=ORIENTED_EDGE('',*,*,#313,.F.);
#406=ORIENTED_EDGE('',*,*,#321,.T.);
#407=ORIENTED_EDGE('',*,*,#322,.T.);
#408=ORIENTED_EDGE('',*,*,#323,.F.);
#409=ORIENTED_EDGE('',*,*,#312,.F.);
#410=ORIENTED_EDGE('',*,*,#324,.T.);
#411=ORIENTED_EDGE('',*,*,#325,.T.);
#412=ORIENTED_EDGE('',*,*,#321,.F.);
#413=ORIENTED_EDGE('',*,*,#311,.F.);
#414=ORIENTED_EDGE('',*,*,#326,.F.);
#415=ORIENTED_EDGE('',*,*,#327,.T.);
#416=ORIENTED_EDGE('',*,*,#324,.F.);
#417=ORIENTED_EDGE('',*,*,#323,.T.);
#418=ORIENTED_EDGE('',*,*,#328,.T.);
#419=ORIENTED_EDGE('',*,*,#329,.F.);
#420=ORIENTED_EDGE('',*,*,#314,.F.);
#421=ORIENTED_EDGE('',*,*,#326,.T.);
#422=ORIENTED_EDGE('',*,*,#310,.F.);
#423=ORIENTED_EDGE('',*,*,#330,.T.);
#424=ORIENTED_EDGE('',*,*,#331,.T.);
#425=ORIENTED_EDGE('',*,*,#317,.F.);
#426=ORIENTED_EDGE('',*,*,#332,.F.);
#427=ORIENTED_EDGE('',*,*,#333,.T.);
#428=ORIENTED_EDGE('',*,*,#334,.F.);
#429=ORIENTED_EDGE('',*,*,#332,.T.);
#430=ORIENTED_EDGE('',*,*,#316,.F.);
#431=ORIENTED_EDGE('',*,*,#335,.T.);
#432=ORIENTED_EDGE('',*,*,#336,.T.);
#433=ORIENTED_EDGE('',*,*,#334,.T.);
#434=ORIENTED_EDGE('',*,*,#337,.T.);
#435=ORIENTED_EDGE('',*,*,#338,.F.);
#436=ORIENTED_EDGE('',*,*,#318,.F.);
#437=ORIENTED_EDGE('',*,*,#307,.F.);
#438=ORIENTED_EDGE('',*,*,#339,.F.);
#439=ORIENTED_EDGE('',*,*,#340,.T.);
#440=ORIENTED_EDGE('',*,*,#341,.F.);
#441=ORIENTED_EDGE('',*,*,#339,.T.);
#442=ORIENTED_EDGE('',*,*,#306,.F.);
#443=ORIENTED_EDGE('',*,*,#342,.T.);
#444=ORIENTED_EDGE('',*,*,#343,.T.);
#445=ORIENTED_EDGE('',*,*,#344,.F.);
#446=ORIENTED_EDGE('',*,*,#345,.F.);
#447=ORIENTED_EDGE('',*,*,#340,.F.);
#448=ORIENTED_EDGE('',*,*,#343,.F.);
#449=ORIENTED_EDGE('',*,*,#346,.F.);
#450=ORIENTED_EDGE('',*,*,#347,.F.);
#451=ORIENTED_EDGE('',*,*,#293,.F.);
#452=ORIENTED_EDGE('',*,*,#291,.F.);
#453=ORIENTED_EDGE('',*,*,#348,.F.);
#454=ORIENTED_EDGE('',*,*,#287,.F.);
#455=ORIENTED_EDGE('',*,*,#298,.F.);
#456=ORIENTED_EDGE('',*,*,#349,.F.);
#457=ORIENTED_EDGE('',*,*,#350,.F.);
#458=ORIENTED_EDGE('',*,*,#337,.F.);
#459=ORIENTED_EDGE('',*,*,#333,.F.);
#460=ORIENTED_EDGE('',*,*,#336,.F.);
#461=ORIENTED_EDGE('',*,*,#351,.F.);
#462=ORIENTED_EDGE('',*,*,#328,.F.);
#463=ORIENTED_EDGE('',*,*,#322,.F.);
#464=ORIENTED_EDGE('',*,*,#325,.F.);
#465=ORIENTED_EDGE('',*,*,#327,.F.);
#466=ORIENTED_EDGE('',*,*,#331,.F.);
#467=ORIENTED_EDGE('',*,*,#352,.T.);
#468=ORIENTED_EDGE('',*,*,#353,.T.);
#469=ORIENTED_EDGE('',*,*,#354,.T.);
#470=ORIENTED_EDGE('',*,*,#355,.T.);
#471=ORIENTED_EDGE('',*,*,#290,.T.);
#472=ORIENTED_EDGE('',*,*,#303,.T.);
#473=ORIENTED_EDGE('',*,*,#356,.T.);
#474=ORIENTED_EDGE('',*,*,#354,.F.);
#475=ORIENTED_EDGE('',*,*,#357,.F.);
#476=ORIENTED_EDGE('',*,*,#299,.T.);
#477=ORIENTED_EDGE('',*,*,#288,.T.);
#478=ORIENTED_EDGE('',*,*,#348,.T.);
#479=ORIENTED_EDGE('',*,*,#302,.F.);
#480=ORIENTED_EDGE('',*,*,#358,.T.);
#481=ORIENTED_EDGE('',*,*,#355,.F.);
#482=ORIENTED_EDGE('',*,*,#356,.F.);
#483=ORIENTED_EDGE('',*,*,#301,.F.);
#484=ORIENTED_EDGE('',*,*,#359,.T.);
#485=ORIENTED_EDGE('',*,*,#352,.F.);
#486=ORIENTED_EDGE('',*,*,#358,.F.);
#487=ORIENTED_EDGE('',*,*,#300,.F.);
#488=ORIENTED_EDGE('',*,*,#357,.T.);
#489=ORIENTED_EDGE('',*,*,#353,.F.);
#490=ORIENTED_EDGE('',*,*,#359,.F.);
#491=ORIENTED_EDGE('',*,*,#341,.T.);
#492=ORIENTED_EDGE('',*,*,#345,.T.);
#493=ORIENTED_EDGE('',*,*,#360,.F.);
#494=ORIENTED_EDGE('',*,*,#308,.F.);
#495=ORIENTED_EDGE('',*,*,#305,.F.);
#496=ORIENTED_EDGE('',*,*,#361,.T.);
#497=ORIENTED_EDGE('',*,*,#346,.T.);
#498=ORIENTED_EDGE('',*,*,#342,.F.);
#499=ORIENTED_EDGE('',*,*,#304,.F.);
#500=ORIENTED_EDGE('',*,*,#294,.T.);
#501=ORIENTED_EDGE('',*,*,#347,.T.);
#502=ORIENTED_EDGE('',*,*,#361,.F.);
#503=ORIENTED_EDGE('',*,*,#320,.F.);
#504=ORIENTED_EDGE('',*,*,#362,.T.);
#505=ORIENTED_EDGE('',*,*,#349,.T.);
#506=ORIENTED_EDGE('',*,*,#297,.F.);
#507=ORIENTED_EDGE('',*,*,#319,.F.);
#508=ORIENTED_EDGE('',*,*,#338,.T.);
#509=ORIENTED_EDGE('',*,*,#350,.T.);
#510=ORIENTED_EDGE('',*,*,#362,.F.);
#511=ORIENTED_EDGE('',*,*,#315,.F.);
#512=ORIENTED_EDGE('',*,*,#329,.T.);
#513=ORIENTED_EDGE('',*,*,#351,.T.);
#514=ORIENTED_EDGE('',*,*,#335,.F.);
#515=ORIENTED_EDGE('',*,*,#309,.F.);
#516=ORIENTED_EDGE('',*,*,#360,.T.);
#517=ORIENTED_EDGE('',*,*,#344,.T.);
#518=ORIENTED_EDGE('',*,*,#330,.F.);
#519=PLANE('',#589);
#520=PLANE('',#590);
#521=PLANE('',#591);
#522=PLANE('',#592);
#523=PLANE('',#593);
#524=PLANE('',#596);
#525=PLANE('',#597);
#526=PLANE('',#598);
#527=PLANE('',#599);
#528=PLANE('',#600);
#529=PLANE('',#602);
#530=PLANE('',#603);
#531=PLANE('',#605);
#532=PLANE('',#606);
#533=PLANE('',#607);
#534=PLANE('',#608);
#535=PLANE('',#609);
#536=PLANE('',#610);
#537=PLANE('',#611);
#538=PLANE('',#612);
#539=PLANE('',#613);
#540=PLANE('',#614);
#541=PLANE('',#615);
#542=PLANE('',#616);
#543=PLANE('',#617);
#544=PLANE('',#618);
#545=ADVANCED_FACE('',(#29),#519,.F.);
#546=ADVANCED_FACE('',(#30),#520,.F.);
#547=ADVANCED_FACE('',(#31),#521,.F.);
#548=ADVANCED_FACE('',(#32),#522,.F.);
#549=ADVANCED_FACE('',(#33),#523,.T.);
#550=ADVANCED_FACE('',(#34),#524,.F.);
#551=ADVANCED_FACE('',(#35),#525,.F.);
#552=ADVANCED_FACE('',(#36),#526,.F.);
#553=ADVANCED_FACE('',(#37),#527,.F.);
#554=ADVANCED_FACE('',(#38),#528,.F.);
#555=ADVANCED_FACE('',(#39),#23,.T.);
#556=ADVANCED_FACE('',(#40),#529,.F.);
#557=ADVANCED_FACE('',(#41),#530,.F.);
#558=ADVANCED_FACE('',(#42),#24,.T.);
#559=ADVANCED_FACE('',(#43),#531,.F.);
#560=ADVANCED_FACE('',(#44),#532,.F.);
#561=ADVANCED_FACE('',(#45),#533,.T.);
#562=ADVANCED_FACE('',(#46),#534,.T.);
#563=ADVANCED_FACE('',(#47),#535,.T.);
#564=ADVANCED_FACE('',(#48),#536,.T.);
#565=ADVANCED_FACE('',(#49),#537,.T.);
#566=ADVANCED_FACE('',(#50),#538,.F.);
#567=ADVANCED_FACE('',(#51),#539,.F.);
#568=ADVANCED_FACE('',(#52),#540,.F.);
#569=ADVANCED_FACE('',(#53),#541,.F.);
#570=ADVANCED_FACE('',(#54),#542,.F.);
#571=ADVANCED_FACE('',(#55),#543,.F.);
#572=ADVANCED_FACE('',(#56),#544,.F.);
#573=CLOSED_SHELL('',(#545,#546,#547,#548,#549,#550,#551,#552,#553,#554,
#555,#556,#557,#558,#559,#560,#561,#562,#563,#564,#565,#566,#567,#568,#569,
#570,#571,#572));
#574=DERIVED_UNIT_ELEMENT(#576,1.);
#575=DERIVED_UNIT_ELEMENT(#955,-3.);
#576=(
MASS_UNIT()
NAMED_UNIT(*)
SI_UNIT(.KILO.,.GRAM.)
);
#577=DERIVED_UNIT((#574,#575));
#578=MEASURE_REPRESENTATION_ITEM('density measure',
POSITIVE_RATIO_MEASURE(7850.),#577);
#579=PROPERTY_DEFINITION_REPRESENTATION(#584,#581);
#580=PROPERTY_DEFINITION_REPRESENTATION(#585,#582);
#581=REPRESENTATION('material name',(#583),#952);
#582=REPRESENTATION('density',(#578),#952);
#583=DESCRIPTIVE_REPRESENTATION_ITEM('Steel','Steel');
#584=PROPERTY_DEFINITION('material property','material name',#972);
#585=PROPERTY_DEFINITION('material property','density of part',#972);
#586=AXIS2_PLACEMENT_3D('',#765,#621,#622);
#587=AXIS2_PLACEMENT_3D('',#766,#623,#624);
#588=AXIS2_PLACEMENT_3D('',#767,#625,#626);
#589=AXIS2_PLACEMENT_3D('',#768,#627,#628);
#590=AXIS2_PLACEMENT_3D('',#777,#633,#634);
#591=AXIS2_PLACEMENT_3D('',#786,#639,#640);
#592=AXIS2_PLACEMENT_3D('',#792,#644,#645);
#593=AXIS2_PLACEMENT_3D('',#798,#649,#650);
#594=AXIS2_PLACEMENT_3D('',#815,#659,#660);
#595=AXIS2_PLACEMENT_3D('',#835,#670,#671);
#596=AXIS2_PLACEMENT_3D('',#841,#675,#676);
#597=AXIS2_PLACEMENT_3D('',#847,#680,#681);
#598=AXIS2_PLACEMENT_3D('',#851,#684,#685);
#599=AXIS2_PLACEMENT_3D('',#855,#688,#689);
#600=AXIS2_PLACEMENT_3D('',#859,#692,#693);
#601=AXIS2_PLACEMENT_3D('',#876,#697,#698);
#602=AXIS2_PLACEMENT_3D('',#878,#700,#701);
#603=AXIS2_PLACEMENT_3D('',#882,#704,#705);
#604=AXIS2_PLACEMENT_3D('',#899,#709,#710);
#605=AXIS2_PLACEMENT_3D('',#901,#712,#713);
#606=AXIS2_PLACEMENT_3D('',#905,#716,#717);
#607=AXIS2_PLACEMENT_3D('',#917,#726,#727);
#608=AXIS2_PLACEMENT_3D('',#926,#732,#733);
#609=AXIS2_PLACEMENT_3D('',#929,#736,#737);
#610=AXIS2_PLACEMENT_3D('',#931,#739,#740);
#611=AXIS2_PLACEMENT_3D('',#933,#742,#743);
#612=AXIS2_PLACEMENT_3D('',#934,#744,#745);
#613=AXIS2_PLACEMENT_3D('',#936,#747,#748);
#614=AXIS2_PLACEMENT_3D('',#938,#750,#751);
#615=AXIS2_PLACEMENT_3D('',#939,#752,#753);
#616=AXIS2_PLACEMENT_3D('',#941,#755,#756);
#617=AXIS2_PLACEMENT_3D('',#942,#757,#758);
#618=AXIS2_PLACEMENT_3D('',#943,#759,#760);
#619=AXIS2_PLACEMENT_3D('',#944,#761,#762);
#620=AXIS2_PLACEMENT_3D('',#945,#763,#764);
#621=DIRECTION('axis',(0.,0.,1.));
#622=DIRECTION('refdir',(1.,0.,0.));
#623=DIRECTION('axis',(0.,0.,1.));
#624=DIRECTION('refdir',(1.,0.,0.));
#625=DIRECTION('axis',(0.,0.,1.));
#626=DIRECTION('refdir',(1.,0.,0.));
#627=DIRECTION('center_axis',(0.,1.,0.));
#628=DIRECTION('ref_axis',(1.,0.,0.));
#629=DIRECTION('',(1.,0.,0.));
#630=DIRECTION('',(0.,0.,1.));
#631=DIRECTION('',(1.,0.,0.));
#632=DIRECTION('',(0.,0.,-1.));
#633=DIRECTION('center_axis',(0.,-1.,0.));
#634=DIRECTION('ref_axis',(-1.,0.,0.));
#635=DIRECTION('',(-1.,0.,0.));
#636=DIRECTION('',(0.,0.,1.));
#637=DIRECTION('',(-1.,0.,0.));
#638=DIRECTION('',(0.,0.,-1.));
#639=DIRECTION('center_axis',(1.,0.,0.));
#640=DIRECTION('ref_axis',(0.,-1.,0.));
#641=DIRECTION('',(0.,-1.,0.));
#642=DIRECTION('',(0.,0.,1.));
#643=DIRECTION('',(0.,-1.,0.));
#644=DIRECTION('center_axis',(1.,0.,0.));
#645=DIRECTION('ref_axis',(0.,-1.,0.));
#646=DIRECTION('',(0.,-1.,0.));
#647=DIRECTION('',(0.,0.,1.));
#648=DIRECTION('',(0.,-1.,0.));
#649=DIRECTION('center_axis',(0.,0.,1.));
#650=DIRECTION('ref_axis',(1.,0.,0.));
#651=DIRECTION('',(0.,-1.,0.));
#652=DIRECTION('',(-1.,0.,0.));
#653=DIRECTION('',(0.,-1.,0.));
#654=DIRECTION('',(1.,0.,0.));
#655=DIRECTION('',(0.,-1.,0.));
#656=DIRECTION('',(-0.707106781186548,-0.707106781186548,0.));
#657=DIRECTION('',(0.,-1.,0.));
#658=DIRECTION('',(-1.,0.,0.));
#659=DIRECTION('center_axis',(0.,0.,-1.));
#660=DIRECTION('ref_axis',(-1.,0.,0.));
#661=DIRECTION('',(-1.,0.,0.));
#662=DIRECTION('',(-0.707106781186548,0.707106781186548,0.));
#663=DIRECTION('',(0.,1.,0.));
#664=DIRECTION('',(-1.,0.,0.));
#665=DIRECTION('',(0.,1.,0.));
#666=DIRECTION('',(1.,0.,0.));
#667=DIRECTION('',(0.,1.,0.));
#668=DIRECTION('',(0.707106781186548,0.707106781186548,0.));
#669=DIRECTION('',(1.,0.,0.));
#670=DIRECTION('center_axis',(0.,0.,-1.));
#671=DIRECTION('ref_axis',(1.,1.22464679914735E-16,0.));
#672=DIRECTION('',(1.,0.,0.));
#673=DIRECTION('',(0.,-1.,0.));
#674=DIRECTION('',(0.706643527274313,-0.707569731801268,0.));
#675=DIRECTION('center_axis',(0.,1.,0.));
#676=DIRECTION('ref_axis',(1.,0.,0.));
#677=DIRECTION('',(0.,0.,-1.));
#678=DIRECTION('',(1.,0.,0.));
#679=DIRECTION('',(0.,0.,-1.));
#680=DIRECTION('center_axis',(-1.,0.,0.));
#681=DIRECTION('ref_axis',(0.,1.,0.));
#682=DIRECTION('',(0.,0.,-1.));
#683=DIRECTION('',(0.,1.,0.));
#684=DIRECTION('center_axis',(0.,-1.,0.));
#685=DIRECTION('ref_axis',(-1.,0.,0.));
#686=DIRECTION('',(0.,0.,1.));
#687=DIRECTION('',(-1.,0.,0.));
#688=DIRECTION('center_axis',(-1.,0.,0.));
#689=DIRECTION('ref_axis',(0.,1.,0.));
#690=DIRECTION('',(0.,1.,0.));
#691=DIRECTION('',(0.,0.,1.));
#692=DIRECTION('center_axis',(-1.,0.,0.));
#693=DIRECTION('ref_axis',(0.,1.,0.));
#694=DIRECTION('',(0.,0.,1.));
#695=DIRECTION('',(0.,1.,0.));
#696=DIRECTION('',(0.,0.,1.));
#697=DIRECTION('center_axis',(0.,0.,-1.));
#698=DIRECTION('ref_axis',(1.,1.22464679914735E-16,0.));
#699=DIRECTION('',(0.,0.,-1.));
#700=DIRECTION('center_axis',(0.,1.,0.));
#701=DIRECTION('ref_axis',(1.,0.,0.));
#702=DIRECTION('',(0.,0.,1.));
#703=DIRECTION('',(1.,0.,0.));
#704=DIRECTION('center_axis',(0.,1.,0.));
#705=DIRECTION('ref_axis',(1.,0.,0.));
#706=DIRECTION('',(1.,0.,0.));
#707=DIRECTION('',(0.,0.,-1.));
#708=DIRECTION('',(0.,0.,1.));
#709=DIRECTION('center_axis',(0.,0.,-1.));
#710=DIRECTION('ref_axis',(-1.,0.,0.));
#711=DIRECTION('',(0.,0.,-1.));
#712=DIRECTION('center_axis',(0.,-1.,0.));
#713=DIRECTION('ref_axis',(-1.,0.,0.));
#714=DIRECTION('',(0.,0.,1.));
#715=DIRECTION('',(-1.,0.,0.));
#716=DIRECTION('center_axis',(0.,0.,-1.));
#717=DIRECTION('ref_axis',(-1.,0.,0.));
#718=DIRECTION('',(-0.707106781186548,0.707106781186548,0.));
#719=DIRECTION('',(-1.,0.,0.));
#720=DIRECTION('',(0.,-1.,0.));
#721=DIRECTION('',(-0.707106781186548,-0.707106781186548,0.));
#722=DIRECTION('',(0.,-1.,0.));
#723=DIRECTION('',(0.706643527274313,-0.707569731801268,0.));
#724=DIRECTION('',(0.,-1.,0.));
#725=DIRECTION('',(0.707106781186548,0.707106781186548,0.));
#726=DIRECTION('center_axis',(0.,0.,-1.));
#727=DIRECTION('ref_axis',(-1.,0.,0.));
#728=DIRECTION('',(0.,1.,0.));
#729=DIRECTION('',(1.,0.,0.));
#730=DIRECTION('',(0.,-1.,0.));
#731=DIRECTION('',(-1.,0.,0.));
#732=DIRECTION('center_axis',(1.,0.,0.));
#733=DIRECTION('ref_axis',(0.,0.,-1.));
#734=DIRECTION('',(0.,0.,-1.));
#735=DIRECTION('',(0.,0.,-1.));
#736=DIRECTION('center_axis',(0.,-1.,0.));
#737=DIRECTION('ref_axis',(0.,0.,-1.));
#738=DIRECTION('',(0.,0.,-1.));
#739=DIRECTION('center_axis',(-1.,0.,0.));
#740=DIRECTION('ref_axis',(0.,0.,1.));
#741=DIRECTION('',(0.,0.,-1.));
#742=DIRECTION('center_axis',(0.,1.,0.));
#743=DIRECTION('ref_axis',(0.,0.,1.));
#744=DIRECTION('center_axis',(0.,-1.,0.));
#745=DIRECTION('ref_axis',(-1.,0.,0.));
#746=DIRECTION('',(0.,0.,1.));
#747=DIRECTION('center_axis',(1.,0.,0.));
#748=DIRECTION('ref_axis',(0.,-1.,0.));
#749=DIRECTION('',(0.,0.,-1.));
#750=DIRECTION('center_axis',(0.707106781186548,-0.707106781186548,0.));
#751=DIRECTION('ref_axis',(-0.707106781186548,-0.707106781186548,0.));
#752=DIRECTION('center_axis',(0.707569731801268,0.706643527274313,0.));
#753=DIRECTION('ref_axis',(0.706643527274313,-0.707569731801268,0.));
#754=DIRECTION('',(0.,0.,1.));
#755=DIRECTION('center_axis',(1.,0.,0.));
#756=DIRECTION('ref_axis',(0.,-1.,0.));
#757=DIRECTION('center_axis',(-0.707106781186548,0.707106781186548,0.));
#758=DIRECTION('ref_axis',(0.707106781186548,0.707106781186548,0.));
#759=DIRECTION('center_axis',(-0.707106781186548,-0.707106781186548,0.));
#760=DIRECTION('ref_axis',(-0.707106781186548,0.707106781186548,0.));
#761=DIRECTION('',(0.,0.,1.));
#762=DIRECTION('',(1.,0.,0.));
#763=DIRECTION('',(0.,0.,1.));
#764=DIRECTION('',(1.,0.,0.));
#765=CARTESIAN_POINT('',(0.,0.,0.));
#766=CARTESIAN_POINT('',(0.,0.,0.));
#767=CARTESIAN_POINT('',(0.,0.,0.));
#768=CARTESIAN_POINT('Origin',(-10.1100004837615,1.00000001490116,0.));
#769=CARTESIAN_POINT('',(-10.1100004837615,1.00000001490116,0.));
#770=CARTESIAN_POINT('',(-4.18500048376154,1.00000001490116,0.));
#771=CARTESIAN_POINT('',(-23.101250604965,1.00000001490116,0.));
#772=CARTESIAN_POINT('',(-10.1100004837615,1.00000001490116,-4.));
#773=CARTESIAN_POINT('',(-10.1100004837615,1.00000001490116,0.));
#774=CARTESIAN_POINT('',(-4.18500048376154,1.00000001490116,-4.));
#775=CARTESIAN_POINT('',(-10.1100004837615,1.00000001490116,-4.));
#776=CARTESIAN_POINT('',(-4.18500048376154,1.00000001490116,0.));
#777=CARTESIAN_POINT('Origin',(-4.18500048376154,-0.999999985098839,0.));
#778=CARTESIAN_POINT('',(-4.18500048376154,-0.999999985098839,0.));
#779=CARTESIAN_POINT('',(-10.1100004837615,-0.999999985098839,0.));
#780=CARTESIAN_POINT('',(-20.138750604965,-0.999999985098839,0.));
#781=CARTESIAN_POINT('',(-4.18500048376154,-0.999999985098839,-4.));
#782=CARTESIAN_POINT('',(-4.18500048376154,-0.999999985098838,0.));
#783=CARTESIAN_POINT('',(-10.1100004837615,-0.999999985098839,-4.));
#784=CARTESIAN_POINT('',(-4.18500048376154,-0.999999985098839,-4.));
#785=CARTESIAN_POINT('',(-10.1100004837615,-0.999999985098839,0.));
#786=CARTESIAN_POINT('Origin',(-10.1100004837615,5.08000024128705,0.));
#787=CARTESIAN_POINT('',(-10.1100004837615,-5.11106625846503,-4.));
#788=CARTESIAN_POINT('',(-10.1100004837615,2.54000012064353,-4.));
#789=CARTESIAN_POINT('',(-10.1100004837615,-5.11106625846503,0.));
#790=CARTESIAN_POINT('',(-10.1100004837615,-5.11106625846504,0.));
#791=CARTESIAN_POINT('',(-10.1100004837615,2.54000012064353,0.));
#792=CARTESIAN_POINT('Origin',(-10.1100004837615,5.08000024128705,0.));
#793=CARTESIAN_POINT('',(-10.1100004837615,5.1110374888785,0.));
#794=CARTESIAN_POINT('',(-10.1100004837615,2.54000012064353,0.));
#795=CARTESIAN_POINT('',(-10.1100004837615,5.1110374888785,-4.));
#796=CARTESIAN_POINT('',(-10.1100004837615,5.1110374888785,0.));
#797=CARTESIAN_POINT('',(-10.1100004837615,2.54000012064353,-4.));
#798=CARTESIAN_POINT('Origin',(-36.0925007261685,0.,0.));
#799=CARTESIAN_POINT('',(-4.18500048376154,18.6999997161329,0.));
#800=CARTESIAN_POINT('',(-4.18500048376154,-15.6999997161329,0.));
#801=CARTESIAN_POINT('',(-68.0000009685755,18.6999997161329,0.));
#802=CARTESIAN_POINT('',(-65.0000009685755,18.6999997161329,0.));
#803=CARTESIAN_POINT('',(-68.0000009685755,-18.6999997161329,0.));
#804=CARTESIAN_POINT('',(-68.0000009685755,-15.6999997161329,0.));
#805=CARTESIAN_POINT('',(-4.18500048376154,-18.6999997161329,0.));
#806=CARTESIAN_POINT('',(-7.18500048376154,-18.6999997161329,0.));
#807=CARTESIAN_POINT('',(-4.18500048376154,-15.6999997161329,0.));
#808=CARTESIAN_POINT('',(-13.9200006647268,-8.92106643943032,0.));
#809=CARTESIAN_POINT('',(-15.3388424754525,-10.339908250156,0.));
#810=CARTESIAN_POINT('',(-13.9200006647268,-12.7750006032176,0.));
#811=CARTESIAN_POINT('',(-13.9200006647268,-4.44500021112617,0.));
#812=CARTESIAN_POINT('',(-35.4500016837846,-12.7750006032176,0.));
#813=CARTESIAN_POINT('',(-25.0437506954477,-12.7750006032176,0.));
#814=CARTESIAN_POINT('',(-43.4500020637643,-12.7750006032176,0.));
#815=CARTESIAN_POINT('Origin',(-39.4500018737745,-12.7750006067799,0.));
#816=CARTESIAN_POINT('',(-59.7460688534883,-12.7750006032176,0.));
#817=CARTESIAN_POINT('',(-25.0437506954477,-12.7750006032176,0.));
#818=CARTESIAN_POINT('',(-61.9487529388454,-10.5723165178605,0.));
#819=CARTESIAN_POINT('',(-57.0374104681683,-15.4836589885377,0.));
#820=CARTESIAN_POINT('',(-61.9487529388454,-4.99999992549419,0.));
#821=CARTESIAN_POINT('',(-61.9487529388454,-5.27062525034125,0.));
#822=CARTESIAN_POINT('',(-63.5000009462237,-4.99999992549419,0.));
#823=CARTESIAN_POINT('',(-49.020626832507,-4.99999992549419,0.));
#824=CARTESIAN_POINT('',(-63.5000009462237,5.00000007450581,0.));
#825=CARTESIAN_POINT('',(-63.5000009462237,-2.4999999627471,0.));
#826=CARTESIAN_POINT('',(-61.9487529388454,5.00000007450581,0.));
#827=CARTESIAN_POINT('',(-49.7962508361961,5.00000007450581,0.));
#828=CARTESIAN_POINT('',(-61.9487529388454,10.5723165178605,0.));
#829=CARTESIAN_POINT('',(-61.9487529388454,-5.27062525034125,0.));
#830=CARTESIAN_POINT('',(-59.7460688534883,12.7750006032176,0.));
#831=CARTESIAN_POINT('',(-58.1167855194358,14.4042839372701,0.));
#832=CARTESIAN_POINT('',(-43.4500020637643,12.7750006032176,0.));
#833=CARTESIAN_POINT('',(-47.9037517812394,12.7750006032176,0.));
#834=CARTESIAN_POINT('',(-35.4500016837847,12.7750006032176,0.));
#835=CARTESIAN_POINT('Origin',(-39.4500018737745,12.7750006067799,0.));
#836=CARTESIAN_POINT('',(-13.9249996870756,12.7750006032176,0.));
#837=CARTESIAN_POINT('',(-47.9037517812394,12.7750006032176,0.));
#838=CARTESIAN_POINT('',(-13.9249996870756,8.93103704866094,0.));
#839=CARTESIAN_POINT('',(-13.9249996870756,6.35000030160882,0.));
#840=CARTESIAN_POINT('',(-17.2378247058106,12.2482042192885,0.));
#841=CARTESIAN_POINT('Origin',(-63.5000009462237,5.00000007450581,0.));
#842=CARTESIAN_POINT('',(-63.5000009462237,5.00000007450581,-4.));
#843=CARTESIAN_POINT('',(-63.5000009462237,5.00000007450581,0.));
#844=CARTESIAN_POINT('',(-61.9487529388454,5.00000007450581,-4.));
#845=CARTESIAN_POINT('',(-63.5000009462237,5.00000007450581,-4.));
#846=CARTESIAN_POINT('',(-61.9487529388454,5.00000007450581,0.));
#847=CARTESIAN_POINT('Origin',(-63.5000009462237,-4.99999992549419,0.));
#848=CARTESIAN_POINT('',(-63.5000009462237,-4.99999992549419,-4.));
#849=CARTESIAN_POINT('',(-63.5000009462237,-4.99999992549419,0.));
#850=CARTESIAN_POINT('',(-63.5000009462237,-4.99999992549419,-4.));
#851=CARTESIAN_POINT('Origin',(-61.9487529388454,-4.99999992549419,0.));
#852=CARTESIAN_POINT('',(-61.9487529388454,-4.99999992549419,-4.));
#853=CARTESIAN_POINT('',(-61.9487529388454,-4.99999992549419,0.));
#854=CARTESIAN_POINT('',(-61.8999986164272,-4.99999992549419,-4.));
#855=CARTESIAN_POINT('Origin',(-61.9487529388454,-10.5412505006825,0.));
#856=CARTESIAN_POINT('',(-61.9487529388454,10.5723165178605,-4.));
#857=CARTESIAN_POINT('',(-61.9487529388454,-5.27062525034125,-4.));
#858=CARTESIAN_POINT('',(-61.9487529388454,10.5723165178605,0.));
#859=CARTESIAN_POINT('Origin',(-61.9487529388454,-10.5412505006825,0.));
#860=CARTESIAN_POINT('',(-61.9487529388454,-10.5723165178605,-4.));
#861=CARTESIAN_POINT('',(-61.9487529388454,-10.5723165178605,0.));
#862=CARTESIAN_POINT('',(-61.9487529388454,-5.27062525034125,-4.));
#863=CARTESIAN_POINT('Ctrl Pts',(-43.4500020637643,12.7750006032176,0.));
#864=CARTESIAN_POINT('Ctrl Pts',(-43.4500020708855,14.7759556896603,0.));
#865=CARTESIAN_POINT('Ctrl Pts',(-39.4500018737745,14.7759556896603,0.));
#866=CARTESIAN_POINT('Ctrl Pts',(-35.4500016766634,14.7759556896603,0.));
#867=CARTESIAN_POINT('Ctrl Pts',(-35.4500016837847,12.7750006032176,0.));
#868=CARTESIAN_POINT('Ctrl Pts',(-43.4500020637643,12.7750006032176,-4.));
#869=CARTESIAN_POINT('Ctrl Pts',(-43.4500020708855,14.7759556896603,-4.));
#870=CARTESIAN_POINT('Ctrl Pts',(-39.4500018737745,14.7759556896603,-4.));
#871=CARTESIAN_POINT('Ctrl Pts',(-35.4500016766634,14.7759556896603,-4.));
#872=CARTESIAN_POINT('Ctrl Pts',(-35.4500016837847,12.7750006032176,-4.));
#873=CARTESIAN_POINT('',(-43.4500020637643,12.7750006032176,-4.));
#874=CARTESIAN_POINT('',(-43.4500020637643,12.7750006032176,1.));
#875=CARTESIAN_POINT('',(-35.4500016837847,12.7750006032176,-4.));
#876=CARTESIAN_POINT('Origin',(-39.4500018737745,12.7750006067799,-4.));
#877=CARTESIAN_POINT('',(-35.4500016837847,12.7750006032176,1.));
#878=CARTESIAN_POINT('Origin',(-59.7150028363103,12.7750006032176,0.));
#879=CARTESIAN_POINT('',(-59.7460688534883,12.7750006032176,-4.));
#880=CARTESIAN_POINT('',(-59.7460688534883,12.7750006032176,0.));
#881=CARTESIAN_POINT('',(-47.8721897738069,12.7750006032176,-4.));
#882=CARTESIAN_POINT('Origin',(-59.7150028363103,12.7750006032176,0.));
#883=CARTESIAN_POINT('',(-13.9249996870756,12.7750006032176,-4.));
#884=CARTESIAN_POINT('',(-47.8721897738069,12.7750006032176,-4.));
#885=CARTESIAN_POINT('',(-13.9249996870756,12.7750006032176,0.));
#886=CARTESIAN_POINT('Ctrl Pts',(-35.4500016837846,-12.7750006032176,0.));
#887=CARTESIAN_POINT('Ctrl Pts',(-35.4500016766634,-14.7759556896603,0.));
#888=CARTESIAN_POINT('Ctrl Pts',(-39.4500018737745,-14.7759556896603,0.));
#889=CARTESIAN_POINT('Ctrl Pts',(-43.4500020708855,-14.7759556896603,0.));
#890=CARTESIAN_POINT('Ctrl Pts',(-43.4500020637643,-12.7750006032176,0.));
#891=CARTESIAN_POINT('Ctrl Pts',(-35.4500016837846,-12.7750006032176,-4.));
#892=CARTESIAN_POINT('Ctrl Pts',(-35.4500016766634,-14.7759556896603,-4.));
#893=CARTESIAN_POINT('Ctrl Pts',(-39.4500018737745,-14.7759556896603,-4.));
#894=CARTESIAN_POINT('Ctrl Pts',(-43.4500020708855,-14.7759556896603,-4.));
#895=CARTESIAN_POINT('Ctrl Pts',(-43.4500020637643,-12.7750006032176,-4.));
#896=CARTESIAN_POINT('',(-35.4500016837846,-12.7750006032176,-4.));
#897=CARTESIAN_POINT('',(-35.4500016837846,-12.7750006032176,1.));
#898=CARTESIAN_POINT('',(-43.4500020637643,-12.7750006032176,-4.));
#899=CARTESIAN_POINT('Origin',(-39.4500018737745,-12.7750006067799,-4.));
#900=CARTESIAN_POINT('',(-43.4500020637643,-12.7750006032176,1.));
#901=CARTESIAN_POINT('Origin',(-13.9950006647268,-12.7750006032176,0.));
#902=CARTESIAN_POINT('',(-13.9200006647268,-12.7750006032176,-4.));
#903=CARTESIAN_POINT('',(-13.9200006647268,-12.7750006032176,0.));
#904=CARTESIAN_POINT('',(-25.0121886880152,-12.7750006032176,-4.));
#905=CARTESIAN_POINT('Origin',(-36.0293767113035,0.,-4.));
#906=CARTESIAN_POINT('',(-59.7460688534883,-12.7750006032176,-4.));
#907=CARTESIAN_POINT('',(-57.021629464452,-15.4994399922539,-4.));
#908=CARTESIAN_POINT('',(-25.0121886880152,-12.7750006032176,-4.));
#909=CARTESIAN_POINT('',(-13.9200006647268,-8.92106643943032,-4.));
#910=CARTESIAN_POINT('',(-13.9200006647268,-4.44500021112617,-4.));
#911=CARTESIAN_POINT('',(-15.3230614717363,-10.3241272464398,-4.));
#912=CARTESIAN_POINT('',(-4.18500048376154,7.84999986551702,-4.));
#913=CARTESIAN_POINT('',(-13.9249996870756,8.93103704866094,-4.));
#914=CARTESIAN_POINT('',(-17.2220643728535,12.2324232291101,-4.));
#915=CARTESIAN_POINT('',(-13.9249996870756,6.35000030160882,-4.));
#916=CARTESIAN_POINT('',(-58.1010045157196,14.4200649409864,-4.));
#917=CARTESIAN_POINT('Origin',(-36.0925007261685,0.,-7.));
#918=CARTESIAN_POINT('',(-68.0000009685755,-18.6999997161329,-7.));
#919=CARTESIAN_POINT('',(-68.0000009685755,18.6999997161329,-7.));
#920=CARTESIAN_POINT('',(-68.0000009685755,-15.6999997161329,-7.));
#921=CARTESIAN_POINT('',(-4.18500048376155,18.6999997161329,-7.));
#922=CARTESIAN_POINT('',(-7.18500048376154,18.6999997161329,-7.));
#923=CARTESIAN_POINT('',(-4.18500048376155,-18.6999997161329,-7.));
#924=CARTESIAN_POINT('',(-4.18500048376154,15.6999997161329,-7.));
#925=CARTESIAN_POINT('',(-11.0000001639128,-18.6999997161329,-7.));
#926=CARTESIAN_POINT('Origin',(-4.18500048376154,15.6999997161329,0.));
#927=CARTESIAN_POINT('',(-4.18500048376154,-18.6999997161329,0.));
#928=CARTESIAN_POINT('',(-4.18500048376154,18.6999997161329,-2.));
#929=CARTESIAN_POINT('Origin',(-7.18500048376154,-18.6999997161329,0.));
#930=CARTESIAN_POINT('',(-68.0000009685755,-18.6999997161329,0.));
#931=CARTESIAN_POINT('Origin',(-68.0000009685755,-15.6999997161329,0.));
#932=CARTESIAN_POINT('',(-68.0000009685755,18.6999997161329,0.));
#933=CARTESIAN_POINT('Origin',(-65.0000009685755,18.6999997161329,0.));
#934=CARTESIAN_POINT('Origin',(-13.9950006647268,-12.7750006032176,0.));
#935=CARTESIAN_POINT('',(-59.7460688534883,-12.7750006032176,0.));
#936=CARTESIAN_POINT('Origin',(-13.9200006647268,-8.89000042225234,0.));
#937=CARTESIAN_POINT('',(-13.9200006647268,-8.92106643943032,0.));
#938=CARTESIAN_POINT('Origin',(-10.1319674751725,-5.13303324987604,0.));
#939=CARTESIAN_POINT('Origin',(-13.9469319571905,8.95299806561507,0.));
#940=CARTESIAN_POINT('',(-13.9249996870756,8.93103704866094,0.));
#941=CARTESIAN_POINT('Origin',(-13.9249996870756,12.7000006032176,0.));
#942=CARTESIAN_POINT('Origin',(-61.9267859474344,10.5942835092715,0.));
#943=CARTESIAN_POINT('Origin',(-59.7680358448993,-12.7530336118066,0.));
#944=CARTESIAN_POINT('',(0.,0.,0.));
#945=CARTESIAN_POINT('',(0.,0.,0.));
#946=UNCERTAINTY_MEASURE_WITH_UNIT(LENGTH_MEASURE(0.01),#954,
'DISTANCE_ACCURACY_VALUE',
'Maximum model space distance between geometric entities at asserted c
onnectivities');
#947=UNCERTAINTY_MEASURE_WITH_UNIT(LENGTH_MEASURE(0.01),#954,
'DISTANCE_ACCURACY_VALUE',
'Maximum model space distance between geometric entities at asserted c
onnectivities');
#948=UNCERTAINTY_MEASURE_WITH_UNIT(LENGTH_MEASURE(0.01),#954,
'DISTANCE_ACCURACY_VALUE',
'Maximum model space distance between geometric entities at asserted c
onnectivities');
#949=UNCERTAINTY_MEASURE_WITH_UNIT(LENGTH_MEASURE(0.01),#954,
'DISTANCE_ACCURACY_VALUE',
'Maximum model space distance between geometric entities at asserted c
onnectivities');
#950=(
GEOMETRIC_REPRESENTATION_CONTEXT(3)
GLOBAL_UNCERTAINTY_ASSIGNED_CONTEXT((#946))
GLOBAL_UNIT_ASSIGNED_CONTEXT((#954,#956,#957))
REPRESENTATION_CONTEXT('','3D')
);
#951=(
GEOMETRIC_REPRESENTATION_CONTEXT(3)
GLOBAL_UNCERTAINTY_ASSIGNED_CONTEXT((#947))
GLOBAL_UNIT_ASSIGNED_CONTEXT((#954,#956,#957))
REPRESENTATION_CONTEXT('','3D')
);
#952=(
GEOMETRIC_REPRESENTATION_CONTEXT(3)
GLOBAL_UNCERTAINTY_ASSIGNED_CONTEXT((#948))
GLOBAL_UNIT_ASSIGNED_CONTEXT((#954,#956,#957))
REPRESENTATION_CONTEXT('','3D')
);
#953=(
GEOMETRIC_REPRESENTATION_CONTEXT(3)
GLOBAL_UNCERTAINTY_ASSIGNED_CONTEXT((#949))
GLOBAL_UNIT_ASSIGNED_CONTEXT((#954,#956,#957))
REPRESENTATION_CONTEXT('','3D')
);
#954=(
LENGTH_UNIT()
NAMED_UNIT(*)
SI_UNIT(.MILLI.,.METRE.)
);
#955=(
LENGTH_UNIT()
NAMED_UNIT(*)
SI_UNIT($,.METRE.)
);
#956=(
NAMED_UNIT(*)
PLANE_ANGLE_UNIT()
SI_UNIT($,.RADIAN.)
);
#957=(
NAMED_UNIT(*)
SI_UNIT($,.STERADIAN.)
SOLID_ANGLE_UNIT()
);
#958=SHAPE_DEFINITION_REPRESENTATION(#961,#966);
#959=SHAPE_DEFINITION_REPRESENTATION(#962,#967);
#960=SHAPE_DEFINITION_REPRESENTATION(#963,#968);
#961=PRODUCT_DEFINITION_SHAPE('',$,#970);
#962=PRODUCT_DEFINITION_SHAPE('',$,#971);
#963=PRODUCT_DEFINITION_SHAPE('',$,#972);
#964=PRODUCT_DEFINITION_SHAPE($,$,#19);
#965=PRODUCT_DEFINITION_SHAPE($,$,#20);
#966=SHAPE_REPRESENTATION('',(#586,#620),#950);
#967=SHAPE_REPRESENTATION('',(#587,#619),#951);
#968=SHAPE_REPRESENTATION('',(#588),#952);
#969=PRODUCT_DEFINITION_CONTEXT('part definition',#980,'design');
#970=PRODUCT_DEFINITION('2026-09-24-15-28-54-065',
'Snap_Fit_Modeling_Piece',#973,#969);
#971=PRODUCT_DEFINITION('2026-09-24-15-54-10-165',
'Heltec_LoRa_V3_Model',#974,#969);
#972=PRODUCT_DEFINITION('2026-09-24-15-54-10-212',
'ESP32_Heltec_LoRa_V3_Enclosure',#975,#969);
#973=PRODUCT_DEFINITION_FORMATION('',$,#982);
#974=PRODUCT_DEFINITION_FORMATION('',$,#983);
#975=PRODUCT_DEFINITION_FORMATION('',$,#984);
#976=PRODUCT_RELATED_PRODUCT_CATEGORY('Snap_Fit_Modeling_Piece',
'Snap_Fit_Modeling_Piece',(#982));
#977=PRODUCT_RELATED_PRODUCT_CATEGORY('Heltec_LoRa_V3_Model',
'Heltec_LoRa_V3_Model',(#983));
#978=PRODUCT_RELATED_PRODUCT_CATEGORY('ESP32_Heltec_LoRa_V3_Enclosure',
'ESP32_Heltec_LoRa_V3_Enclosure',(#984));
#979=APPLICATION_PROTOCOL_DEFINITION('international standard',
'automotive_design',2009,#980);
#980=APPLICATION_CONTEXT(
'Core Data for Automotive Mechanical Design Process');
#981=PRODUCT_CONTEXT('part definition',#980,'mechanical');
#982=PRODUCT('2026-09-24-15-28-54-065','Snap_Fit_Modeling_Piece',$,(#981));
#983=PRODUCT('2026-09-24-15-54-10-165','Heltec_LoRa_V3_Model',$,(#981));
#984=PRODUCT('2026-09-24-15-54-10-212','ESP32_Heltec_LoRa_V3_Enclosure',
$,(#981));
#985=PRESENTATION_STYLE_ASSIGNMENT((#990));
#986=PRESENTATION_STYLE_ASSIGNMENT((#991));
#987=PRESENTATION_STYLE_ASSIGNMENT((#992));
#988=PRESENTATION_STYLE_ASSIGNMENT((#993));
#989=PRESENTATION_STYLE_ASSIGNMENT((#994));
#990=SURFACE_STYLE_USAGE(.BOTH.,#995);
#991=SURFACE_STYLE_USAGE(.BOTH.,#996);
#992=SURFACE_STYLE_USAGE(.BOTH.,#997);
#993=SURFACE_STYLE_USAGE(.BOTH.,#998);
#994=SURFACE_STYLE_USAGE(.BOTH.,#999);
#995=SURFACE_SIDE_STYLE('',(#1000));
#996=SURFACE_SIDE_STYLE('',(#1001));
#997=SURFACE_SIDE_STYLE('',(#1002));
#998=SURFACE_SIDE_STYLE('',(#1003));
#999=SURFACE_SIDE_STYLE('',(#1004));
#1000=SURFACE_STYLE_FILL_AREA(#1005);
#1001=SURFACE_STYLE_FILL_AREA(#1006);
#1002=SURFACE_STYLE_FILL_AREA(#1007);
#1003=SURFACE_STYLE_FILL_AREA(#1008);
#1004=SURFACE_STYLE_FILL_AREA(#1009);
#1005=FILL_AREA_STYLE('Steel - Satin',(#1010));
#1006=FILL_AREA_STYLE('Opaque(255,255,128)',(#1011));
#1007=FILL_AREA_STYLE('Opaque(64,64,64)',(#1012));
#1008=FILL_AREA_STYLE('Opaque(217,217,217)',(#1013));
#1009=FILL_AREA_STYLE('Opaque(242,194,46)',(#1014));
#1010=FILL_AREA_STYLE_COLOUR('Steel - Satin',#1015);
#1011=FILL_AREA_STYLE_COLOUR('Opaque(255,255,128)',#1016);
#1012=FILL_AREA_STYLE_COLOUR('Opaque(64,64,64)',#1017);
#1013=FILL_AREA_STYLE_COLOUR('Opaque(217,217,217)',#1018);
#1014=FILL_AREA_STYLE_COLOUR('Opaque(242,194,46)',#1019);
#1015=COLOUR_RGB('Steel - Satin',0.627450980392157,0.627450980392157,0.627450980392157);
#1016=COLOUR_RGB('Opaque(255,255,128)',1.,1.,0.501960784313725);
#1017=COLOUR_RGB('Opaque(64,64,64)',0.250980392156863,0.250980392156863,
0.250980392156863);
#1018=COLOUR_RGB('Opaque(217,217,217)',0.850980392156863,0.850980392156863,
0.850980392156863);
#1019=COLOUR_RGB('Opaque(242,194,46)',0.949019607843137,0.76078431372549,
0.180392156862745);
ENDSEC;
END-ISO-10303-21;
