ISO-10303-21;
HEADER;
/* Generated by software containing ST-Developer
 * from STEP Tools, Inc. (www.steptools.com) 
 */

FILE_DESCRIPTION(
/* description */ (''),
/* implementation_level */ '2;1');

FILE_NAME(
/* name */ 'Solar_Panel_Fit.step',
/* time_stamp */ '2026-09-24T16:53:53-04:00',
/* author */ (''),
/* organization */ (''),
/* preprocessor_version */ 'ST-DEVELOPER v20.2',
/* originating_system */ 'Autodesk Translation Framework v15.15.0.0',
/* authorisation */ '');

FILE_SCHEMA (('AUTOMOTIVE_DESIGN { 1 0 10303 214 3 1 1 }','FEATURE_BASED_PROCESS_PLANNING',
'PROCESS_PLANNING_SCHEMA'));
ENDSEC;

DATA;
#10=MECHANICAL_DESIGN_GEOMETRIC_PRESENTATION_REPRESENTATION('',(#13),#1653);
#11=SHAPE_REPRESENTATION_RELATIONSHIP('SRR','None',#1660,#12);
#12=ADVANCED_BREP_SHAPE_REPRESENTATION('',(#14),#1652);
#13=STYLED_ITEM('',(#1669),#14);
#14=MANIFOLD_SOLID_BREP('Body1',#1037);
#15=FACE_BOUND('',#78,.T.);
#16=FACE_BOUND('',#82,.T.);
#17=FACE_BOUND('',#89,.T.);
#18=CIRCLE('',#1053,7.5);
#19=CIRCLE('',#1054,7.5);
#20=CIRCLE('',#1058,10.);
#21=CIRCLE('',#1059,10.);
#22=CYLINDRICAL_SURFACE('',#1052,7.5);
#23=CYLINDRICAL_SURFACE('',#1057,10.);
#24=FACE_OUTER_BOUND('',#75,.T.);
#25=FACE_OUTER_BOUND('',#76,.T.);
#26=FACE_OUTER_BOUND('',#77,.T.);
#27=FACE_OUTER_BOUND('',#79,.T.);
#28=FACE_OUTER_BOUND('',#80,.T.);
#29=FACE_OUTER_BOUND('',#81,.T.);
#30=FACE_OUTER_BOUND('',#83,.T.);
#31=FACE_OUTER_BOUND('',#84,.T.);
#32=FACE_OUTER_BOUND('',#85,.T.);
#33=FACE_OUTER_BOUND('',#86,.T.);
#34=FACE_OUTER_BOUND('',#87,.T.);
#35=FACE_OUTER_BOUND('',#88,.T.);
#36=FACE_OUTER_BOUND('',#90,.T.);
#37=FACE_OUTER_BOUND('',#91,.T.);
#38=FACE_OUTER_BOUND('',#92,.T.);
#39=FACE_OUTER_BOUND('',#93,.T.);
#40=FACE_OUTER_BOUND('',#94,.T.);
#41=FACE_OUTER_BOUND('',#95,.T.);
#42=FACE_OUTER_BOUND('',#96,.T.);
#43=FACE_OUTER_BOUND('',#97,.T.);
#44=FACE_OUTER_BOUND('',#98,.T.);
#45=FACE_OUTER_BOUND('',#99,.T.);
#46=FACE_OUTER_BOUND('',#100,.T.);
#47=FACE_OUTER_BOUND('',#101,.T.);
#48=FACE_OUTER_BOUND('',#102,.T.);
#49=FACE_OUTER_BOUND('',#103,.T.);
#50=FACE_OUTER_BOUND('',#104,.T.);
#51=FACE_OUTER_BOUND('',#105,.T.);
#52=FACE_OUTER_BOUND('',#106,.T.);
#53=FACE_OUTER_BOUND('',#107,.T.);
#54=FACE_OUTER_BOUND('',#108,.T.);
#55=FACE_OUTER_BOUND('',#109,.T.);
#56=FACE_OUTER_BOUND('',#110,.T.);
#57=FACE_OUTER_BOUND('',#111,.T.);
#58=FACE_OUTER_BOUND('',#112,.T.);
#59=FACE_OUTER_BOUND('',#113,.T.);
#60=FACE_OUTER_BOUND('',#114,.T.);
#61=FACE_OUTER_BOUND('',#115,.T.);
#62=FACE_OUTER_BOUND('',#116,.T.);
#63=FACE_OUTER_BOUND('',#117,.T.);
#64=FACE_OUTER_BOUND('',#118,.T.);
#65=FACE_OUTER_BOUND('',#119,.T.);
#66=FACE_OUTER_BOUND('',#120,.T.);
#67=FACE_OUTER_BOUND('',#121,.T.);
#68=FACE_OUTER_BOUND('',#122,.T.);
#69=FACE_OUTER_BOUND('',#123,.T.);
#70=FACE_OUTER_BOUND('',#124,.T.);
#71=FACE_OUTER_BOUND('',#125,.T.);
#72=FACE_OUTER_BOUND('',#126,.T.);
#73=FACE_OUTER_BOUND('',#127,.T.);
#74=FACE_OUTER_BOUND('',#128,.T.);
#75=EDGE_LOOP('',(#649,#650,#651,#652));
#76=EDGE_LOOP('',(#653,#654,#655,#656));
#77=EDGE_LOOP('',(#657,#658,#659,#660));
#78=EDGE_LOOP('',(#661,#662,#663,#664,#665,#666,#667,#668,#669,#670,#671,
#672,#673,#674,#675,#676,#677,#678,#679,#680,#681,#682,#683,#684,#685,#686,
#687,#688,#689,#690,#691,#692,#693,#694,#695,#696,#697,#698));
#79=EDGE_LOOP('',(#699,#700,#701,#702));
#80=EDGE_LOOP('',(#703,#704,#705,#706));
#81=EDGE_LOOP('',(#707,#708,#709,#710,#711,#712,#713,#714,#715,#716,#717,
#718,#719,#720,#721,#722,#723,#724,#725,#726,#727,#728,#729,#730,#731,#732,
#733,#734,#735,#736,#737,#738,#739,#740,#741,#742,#743,#744));
#82=EDGE_LOOP('',(#745,#746,#747,#748,#749,#750));
#83=EDGE_LOOP('',(#751,#752,#753,#754));
#84=EDGE_LOOP('',(#755,#756,#757,#758));
#85=EDGE_LOOP('',(#759,#760,#761,#762));
#86=EDGE_LOOP('',(#763,#764,#765,#766));
#87=EDGE_LOOP('',(#767,#768,#769,#770));
#88=EDGE_LOOP('',(#771,#772,#773,#774));
#89=EDGE_LOOP('',(#775,#776,#777,#778,#779,#780));
#90=EDGE_LOOP('',(#781,#782,#783,#784));
#91=EDGE_LOOP('',(#785,#786,#787,#788));
#92=EDGE_LOOP('',(#789,#790,#791,#792));
#93=EDGE_LOOP('',(#793,#794,#795,#796));
#94=EDGE_LOOP('',(#797,#798,#799,#800));
#95=EDGE_LOOP('',(#801,#802,#803,#804));
#96=EDGE_LOOP('',(#805,#806,#807,#808));
#97=EDGE_LOOP('',(#809,#810,#811,#812));
#98=EDGE_LOOP('',(#813,#814,#815,#816));
#99=EDGE_LOOP('',(#817,#818,#819,#820));
#100=EDGE_LOOP('',(#821,#822,#823,#824));
#101=EDGE_LOOP('',(#825,#826,#827,#828));
#102=EDGE_LOOP('',(#829,#830,#831,#832));
#103=EDGE_LOOP('',(#833,#834,#835,#836));
#104=EDGE_LOOP('',(#837,#838,#839,#840));
#105=EDGE_LOOP('',(#841,#842,#843,#844));
#106=EDGE_LOOP('',(#845,#846,#847,#848));
#107=EDGE_LOOP('',(#849,#850,#851,#852));
#108=EDGE_LOOP('',(#853,#854,#855,#856));
#109=EDGE_LOOP('',(#857,#858,#859,#860));
#110=EDGE_LOOP('',(#861,#862,#863,#864));
#111=EDGE_LOOP('',(#865,#866,#867,#868));
#112=EDGE_LOOP('',(#869,#870,#871,#872));
#113=EDGE_LOOP('',(#873,#874,#875,#876));
#114=EDGE_LOOP('',(#877,#878,#879,#880));
#115=EDGE_LOOP('',(#881,#882,#883,#884));
#116=EDGE_LOOP('',(#885,#886,#887,#888));
#117=EDGE_LOOP('',(#889,#890,#891,#892));
#118=EDGE_LOOP('',(#893,#894,#895,#896));
#119=EDGE_LOOP('',(#897,#898,#899,#900));
#120=EDGE_LOOP('',(#901,#902,#903,#904));
#121=EDGE_LOOP('',(#905,#906,#907,#908));
#122=EDGE_LOOP('',(#909,#910,#911,#912));
#123=EDGE_LOOP('',(#913,#914,#915,#916));
#124=EDGE_LOOP('',(#917,#918,#919,#920));
#125=EDGE_LOOP('',(#921,#922,#923,#924));
#126=EDGE_LOOP('',(#925,#926,#927,#928));
#127=EDGE_LOOP('',(#929,#930,#931,#932));
#128=EDGE_LOOP('',(#933,#934,#935,#936));
#129=LINE('',#1362,#269);
#130=LINE('',#1364,#270);
#131=LINE('',#1366,#271);
#132=LINE('',#1367,#272);
#133=LINE('',#1373,#273);
#134=LINE('',#1377,#274);
#135=LINE('',#1379,#275);
#136=LINE('',#1381,#276);
#137=LINE('',#1382,#277);
#138=LINE('',#1384,#278);
#139=LINE('',#1386,#279);
#140=LINE('',#1388,#280);
#141=LINE('',#1390,#281);
#142=LINE('',#1392,#282);
#143=LINE('',#1394,#283);
#144=LINE('',#1396,#284);
#145=LINE('',#1398,#285);
#146=LINE('',#1400,#286);
#147=LINE('',#1402,#287);
#148=LINE('',#1404,#288);
#149=LINE('',#1406,#289);
#150=LINE('',#1408,#290);
#151=LINE('',#1410,#291);
#152=LINE('',#1412,#292);
#153=LINE('',#1414,#293);
#154=LINE('',#1416,#294);
#155=LINE('',#1418,#295);
#156=LINE('',#1420,#296);
#157=LINE('',#1422,#297);
#158=LINE('',#1424,#298);
#159=LINE('',#1426,#299);
#160=LINE('',#1428,#300);
#161=LINE('',#1430,#301);
#162=LINE('',#1432,#302);
#163=LINE('',#1434,#303);
#164=LINE('',#1436,#304);
#165=LINE('',#1438,#305);
#166=LINE('',#1440,#306);
#167=LINE('',#1442,#307);
#168=LINE('',#1444,#308);
#169=LINE('',#1446,#309);
#170=LINE('',#1448,#310);
#171=LINE('',#1450,#311);
#172=LINE('',#1452,#312);
#173=LINE('',#1453,#313);
#174=LINE('',#1456,#314);
#175=LINE('',#1457,#315);
#176=LINE('',#1463,#316);
#177=LINE('',#1466,#317);
#178=LINE('',#1470,#318);
#179=LINE('',#1472,#319);
#180=LINE('',#1474,#320);
#181=LINE('',#1476,#321);
#182=LINE('',#1478,#322);
#183=LINE('',#1480,#323);
#184=LINE('',#1482,#324);
#185=LINE('',#1484,#325);
#186=LINE('',#1486,#326);
#187=LINE('',#1488,#327);
#188=LINE('',#1490,#328);
#189=LINE('',#1492,#329);
#190=LINE('',#1494,#330);
#191=LINE('',#1496,#331);
#192=LINE('',#1498,#332);
#193=LINE('',#1500,#333);
#194=LINE('',#1502,#334);
#195=LINE('',#1504,#335);
#196=LINE('',#1506,#336);
#197=LINE('',#1508,#337);
#198=LINE('',#1510,#338);
#199=LINE('',#1512,#339);
#200=LINE('',#1514,#340);
#201=LINE('',#1516,#341);
#202=LINE('',#1518,#342);
#203=LINE('',#1520,#343);
#204=LINE('',#1521,#344);
#205=LINE('',#1523,#345);
#206=LINE('',#1525,#346);
#207=LINE('',#1527,#347);
#208=LINE('',#1529,#348);
#209=LINE('',#1531,#349);
#210=LINE('',#1533,#350);
#211=LINE('',#1535,#351);
#212=LINE('',#1536,#352);
#213=LINE('',#1538,#353);
#214=LINE('',#1540,#354);
#215=LINE('',#1542,#355);
#216=LINE('',#1544,#356);
#217=LINE('',#1545,#357);
#218=LINE('',#1548,#358);
#219=LINE('',#1549,#359);
#220=LINE('',#1552,#360);
#221=LINE('',#1553,#361);
#222=LINE('',#1556,#362);
#223=LINE('',#1557,#363);
#224=LINE('',#1560,#364);
#225=LINE('',#1561,#365);
#226=LINE('',#1563,#366);
#227=LINE('',#1567,#367);
#228=LINE('',#1569,#368);
#229=LINE('',#1571,#369);
#230=LINE('',#1572,#370);
#231=LINE('',#1574,#371);
#232=LINE('',#1575,#372);
#233=LINE('',#1577,#373);
#234=LINE('',#1579,#374);
#235=LINE('',#1581,#375);
#236=LINE('',#1583,#376);
#237=LINE('',#1585,#377);
#238=LINE('',#1587,#378);
#239=LINE('',#1589,#379);
#240=LINE('',#1591,#380);
#241=LINE('',#1593,#381);
#242=LINE('',#1595,#382);
#243=LINE('',#1597,#383);
#244=LINE('',#1599,#384);
#245=LINE('',#1601,#385);
#246=LINE('',#1603,#386);
#247=LINE('',#1605,#387);
#248=LINE('',#1607,#388);
#249=LINE('',#1609,#389);
#250=LINE('',#1611,#390);
#251=LINE('',#1612,#391);
#252=LINE('',#1614,#392);
#253=LINE('',#1615,#393);
#254=LINE('',#1617,#394);
#255=LINE('',#1618,#395);
#256=LINE('',#1620,#396);
#257=LINE('',#1621,#397);
#258=LINE('',#1623,#398);
#259=LINE('',#1626,#399);
#260=LINE('',#1628,#400);
#261=LINE('',#1630,#401);
#262=LINE('',#1633,#402);
#263=LINE('',#1635,#403);
#264=LINE('',#1636,#404);
#265=LINE('',#1642,#405);
#266=LINE('',#1643,#406);
#267=LINE('',#1645,#407);
#268=LINE('',#1647,#408);
#269=VECTOR('',#1110,10.);
#270=VECTOR('',#1111,10.);
#271=VECTOR('',#1112,10.);
#272=VECTOR('',#1113,10.);
#273=VECTOR('',#1120,10.);
#274=VECTOR('',#1123,10.);
#275=VECTOR('',#1124,10.);
#276=VECTOR('',#1125,10.);
#277=VECTOR('',#1126,10.);
#278=VECTOR('',#1127,10.);
#279=VECTOR('',#1128,10.);
#280=VECTOR('',#1129,10.);
#281=VECTOR('',#1130,10.);
#282=VECTOR('',#1131,10.);
#283=VECTOR('',#1132,10.);
#284=VECTOR('',#1133,10.);
#285=VECTOR('',#1134,10.);
#286=VECTOR('',#1135,10.);
#287=VECTOR('',#1136,10.);
#288=VECTOR('',#1137,10.);
#289=VECTOR('',#1138,10.);
#290=VECTOR('',#1139,10.);
#291=VECTOR('',#1140,10.);
#292=VECTOR('',#1141,10.);
#293=VECTOR('',#1142,10.);
#294=VECTOR('',#1143,10.);
#295=VECTOR('',#1144,10.);
#296=VECTOR('',#1145,10.);
#297=VECTOR('',#1146,10.);
#298=VECTOR('',#1147,10.);
#299=VECTOR('',#1148,10.);
#300=VECTOR('',#1149,10.);
#301=VECTOR('',#1150,10.);
#302=VECTOR('',#1151,10.);
#303=VECTOR('',#1152,10.);
#304=VECTOR('',#1153,10.);
#305=VECTOR('',#1154,10.);
#306=VECTOR('',#1155,10.);
#307=VECTOR('',#1156,10.);
#308=VECTOR('',#1157,10.);
#309=VECTOR('',#1158,10.);
#310=VECTOR('',#1159,10.);
#311=VECTOR('',#1160,10.);
#312=VECTOR('',#1161,10.);
#313=VECTOR('',#1162,10.);
#314=VECTOR('',#1165,10.);
#315=VECTOR('',#1166,10.);
#316=VECTOR('',#1171,10.);
#317=VECTOR('',#1174,10.);
#318=VECTOR('',#1177,10.);
#319=VECTOR('',#1178,10.);
#320=VECTOR('',#1179,10.);
#321=VECTOR('',#1180,10.);
#322=VECTOR('',#1181,10.);
#323=VECTOR('',#1182,10.);
#324=VECTOR('',#1183,10.);
#325=VECTOR('',#1184,10.);
#326=VECTOR('',#1185,10.);
#327=VECTOR('',#1186,10.);
#328=VECTOR('',#1187,10.);
#329=VECTOR('',#1188,10.);
#330=VECTOR('',#1189,10.);
#331=VECTOR('',#1190,10.);
#332=VECTOR('',#1191,10.);
#333=VECTOR('',#1192,10.);
#334=VECTOR('',#1193,10.);
#335=VECTOR('',#1194,10.);
#336=VECTOR('',#1195,10.);
#337=VECTOR('',#1196,10.);
#338=VECTOR('',#1197,10.);
#339=VECTOR('',#1198,10.);
#340=VECTOR('',#1199,10.);
#341=VECTOR('',#1200,10.);
#342=VECTOR('',#1201,10.);
#343=VECTOR('',#1202,10.);
#344=VECTOR('',#1203,10.);
#345=VECTOR('',#1204,10.);
#346=VECTOR('',#1205,10.);
#347=VECTOR('',#1206,10.);
#348=VECTOR('',#1207,10.);
#349=VECTOR('',#1208,10.);
#350=VECTOR('',#1209,10.);
#351=VECTOR('',#1210,10.);
#352=VECTOR('',#1211,10.);
#353=VECTOR('',#1212,10.);
#354=VECTOR('',#1213,10.);
#355=VECTOR('',#1214,10.);
#356=VECTOR('',#1215,10.);
#357=VECTOR('',#1216,10.);
#358=VECTOR('',#1219,10.);
#359=VECTOR('',#1220,10.);
#360=VECTOR('',#1223,10.);
#361=VECTOR('',#1224,10.);
#362=VECTOR('',#1227,10.);
#363=VECTOR('',#1228,10.);
#364=VECTOR('',#1231,10.);
#365=VECTOR('',#1232,10.);
#366=VECTOR('',#1235,10.);
#367=VECTOR('',#1238,10.);
#368=VECTOR('',#1239,10.);
#369=VECTOR('',#1240,10.);
#370=VECTOR('',#1241,10.);
#371=VECTOR('',#1244,10.);
#372=VECTOR('',#1245,10.);
#373=VECTOR('',#1248,10.);
#374=VECTOR('',#1251,10.);
#375=VECTOR('',#1254,10.);
#376=VECTOR('',#1257,10.);
#377=VECTOR('',#1260,10.);
#378=VECTOR('',#1263,10.);
#379=VECTOR('',#1266,10.);
#380=VECTOR('',#1269,10.);
#381=VECTOR('',#1272,10.);
#382=VECTOR('',#1275,10.);
#383=VECTOR('',#1278,10.);
#384=VECTOR('',#1281,10.);
#385=VECTOR('',#1284,10.);
#386=VECTOR('',#1287,10.);
#387=VECTOR('',#1290,10.);
#388=VECTOR('',#1293,10.);
#389=VECTOR('',#1296,10.);
#390=VECTOR('',#1299,10.);
#391=VECTOR('',#1300,10.);
#392=VECTOR('',#1303,10.);
#393=VECTOR('',#1304,10.);
#394=VECTOR('',#1307,10.);
#395=VECTOR('',#1308,10.);
#396=VECTOR('',#1311,10.);
#397=VECTOR('',#1312,10.);
#398=VECTOR('',#1315,10.);
#399=VECTOR('',#1320,10.);
#400=VECTOR('',#1323,10.);
#401=VECTOR('',#1326,10.);
#402=VECTOR('',#1331,10.);
#403=VECTOR('',#1334,10.);
#404=VECTOR('',#1335,10.);
#405=VECTOR('',#1346,10.);
#406=VECTOR('',#1347,10.);
#407=VECTOR('',#1350,10.);
#408=VECTOR('',#1353,10.);
#409=VERTEX_POINT('',#1360);
#410=VERTEX_POINT('',#1361);
#411=VERTEX_POINT('',#1363);
#412=VERTEX_POINT('',#1365);
#413=VERTEX_POINT('',#1369);
#414=VERTEX_POINT('',#1371);
#415=VERTEX_POINT('',#1375);
#416=VERTEX_POINT('',#1376);
#417=VERTEX_POINT('',#1378);
#418=VERTEX_POINT('',#1380);
#419=VERTEX_POINT('',#1383);
#420=VERTEX_POINT('',#1385);
#421=VERTEX_POINT('',#1387);
#422=VERTEX_POINT('',#1389);
#423=VERTEX_POINT('',#1391);
#424=VERTEX_POINT('',#1393);
#425=VERTEX_POINT('',#1395);
#426=VERTEX_POINT('',#1397);
#427=VERTEX_POINT('',#1399);
#428=VERTEX_POINT('',#1401);
#429=VERTEX_POINT('',#1403);
#430=VERTEX_POINT('',#1405);
#431=VERTEX_POINT('',#1407);
#432=VERTEX_POINT('',#1409);
#433=VERTEX_POINT('',#1411);
#434=VERTEX_POINT('',#1413);
#435=VERTEX_POINT('',#1415);
#436=VERTEX_POINT('',#1417);
#437=VERTEX_POINT('',#1419);
#438=VERTEX_POINT('',#1421);
#439=VERTEX_POINT('',#1423);
#440=VERTEX_POINT('',#1425);
#441=VERTEX_POINT('',#1427);
#442=VERTEX_POINT('',#1429);
#443=VERTEX_POINT('',#1431);
#444=VERTEX_POINT('',#1433);
#445=VERTEX_POINT('',#1435);
#446=VERTEX_POINT('',#1437);
#447=VERTEX_POINT('',#1439);
#448=VERTEX_POINT('',#1441);
#449=VERTEX_POINT('',#1443);
#450=VERTEX_POINT('',#1445);
#451=VERTEX_POINT('',#1447);
#452=VERTEX_POINT('',#1449);
#453=VERTEX_POINT('',#1451);
#454=VERTEX_POINT('',#1455);
#455=VERTEX_POINT('',#1459);
#456=VERTEX_POINT('',#1460);
#457=VERTEX_POINT('',#1462);
#458=VERTEX_POINT('',#1464);
#459=VERTEX_POINT('',#1468);
#460=VERTEX_POINT('',#1469);
#461=VERTEX_POINT('',#1471);
#462=VERTEX_POINT('',#1473);
#463=VERTEX_POINT('',#1475);
#464=VERTEX_POINT('',#1477);
#465=VERTEX_POINT('',#1479);
#466=VERTEX_POINT('',#1481);
#467=VERTEX_POINT('',#1483);
#468=VERTEX_POINT('',#1485);
#469=VERTEX_POINT('',#1487);
#470=VERTEX_POINT('',#1489);
#471=VERTEX_POINT('',#1491);
#472=VERTEX_POINT('',#1493);
#473=VERTEX_POINT('',#1495);
#474=VERTEX_POINT('',#1497);
#475=VERTEX_POINT('',#1499);
#476=VERTEX_POINT('',#1501);
#477=VERTEX_POINT('',#1503);
#478=VERTEX_POINT('',#1505);
#479=VERTEX_POINT('',#1507);
#480=VERTEX_POINT('',#1509);
#481=VERTEX_POINT('',#1511);
#482=VERTEX_POINT('',#1513);
#483=VERTEX_POINT('',#1515);
#484=VERTEX_POINT('',#1517);
#485=VERTEX_POINT('',#1519);
#486=VERTEX_POINT('',#1522);
#487=VERTEX_POINT('',#1524);
#488=VERTEX_POINT('',#1526);
#489=VERTEX_POINT('',#1528);
#490=VERTEX_POINT('',#1530);
#491=VERTEX_POINT('',#1532);
#492=VERTEX_POINT('',#1534);
#493=VERTEX_POINT('',#1537);
#494=VERTEX_POINT('',#1539);
#495=VERTEX_POINT('',#1541);
#496=VERTEX_POINT('',#1543);
#497=VERTEX_POINT('',#1547);
#498=VERTEX_POINT('',#1551);
#499=VERTEX_POINT('',#1555);
#500=VERTEX_POINT('',#1559);
#501=VERTEX_POINT('',#1565);
#502=VERTEX_POINT('',#1566);
#503=VERTEX_POINT('',#1568);
#504=VERTEX_POINT('',#1570);
#505=EDGE_CURVE('',#409,#410,#129,.T.);
#506=EDGE_CURVE('',#411,#410,#130,.T.);
#507=EDGE_CURVE('',#412,#411,#131,.T.);
#508=EDGE_CURVE('',#412,#409,#132,.T.);
#509=EDGE_CURVE('',#410,#413,#18,.T.);
#510=EDGE_CURVE('',#409,#414,#19,.T.);
#511=EDGE_CURVE('',#413,#414,#133,.T.);
#512=EDGE_CURVE('',#415,#416,#134,.T.);
#513=EDGE_CURVE('',#416,#417,#135,.T.);
#514=EDGE_CURVE('',#418,#417,#136,.T.);
#515=EDGE_CURVE('',#415,#418,#137,.T.);
#516=EDGE_CURVE('',#413,#419,#138,.T.);
#517=EDGE_CURVE('',#419,#420,#139,.T.);
#518=EDGE_CURVE('',#420,#421,#140,.T.);
#519=EDGE_CURVE('',#421,#422,#141,.T.);
#520=EDGE_CURVE('',#422,#423,#142,.T.);
#521=EDGE_CURVE('',#423,#424,#143,.T.);
#522=EDGE_CURVE('',#424,#425,#144,.T.);
#523=EDGE_CURVE('',#425,#426,#145,.T.);
#524=EDGE_CURVE('',#426,#427,#146,.T.);
#525=EDGE_CURVE('',#427,#428,#147,.T.);
#526=EDGE_CURVE('',#428,#429,#148,.T.);
#527=EDGE_CURVE('',#429,#430,#149,.T.);
#528=EDGE_CURVE('',#430,#431,#150,.T.);
#529=EDGE_CURVE('',#431,#432,#151,.T.);
#530=EDGE_CURVE('',#432,#433,#152,.T.);
#531=EDGE_CURVE('',#433,#434,#153,.T.);
#532=EDGE_CURVE('',#434,#435,#154,.T.);
#533=EDGE_CURVE('',#435,#436,#155,.T.);
#534=EDGE_CURVE('',#436,#437,#156,.T.);
#535=EDGE_CURVE('',#437,#438,#157,.T.);
#536=EDGE_CURVE('',#438,#439,#158,.T.);
#537=EDGE_CURVE('',#439,#440,#159,.T.);
#538=EDGE_CURVE('',#440,#441,#160,.T.);
#539=EDGE_CURVE('',#441,#442,#161,.T.);
#540=EDGE_CURVE('',#442,#443,#162,.T.);
#541=EDGE_CURVE('',#443,#444,#163,.T.);
#542=EDGE_CURVE('',#444,#445,#164,.T.);
#543=EDGE_CURVE('',#445,#446,#165,.T.);
#544=EDGE_CURVE('',#446,#447,#166,.T.);
#545=EDGE_CURVE('',#447,#448,#167,.T.);
#546=EDGE_CURVE('',#448,#449,#168,.T.);
#547=EDGE_CURVE('',#449,#450,#169,.T.);
#548=EDGE_CURVE('',#450,#451,#170,.T.);
#549=EDGE_CURVE('',#451,#452,#171,.T.);
#550=EDGE_CURVE('',#452,#453,#172,.T.);
#551=EDGE_CURVE('',#453,#411,#173,.T.);
#552=EDGE_CURVE('',#414,#454,#174,.T.);
#553=EDGE_CURVE('',#454,#419,#175,.T.);
#554=EDGE_CURVE('',#455,#456,#20,.T.);
#555=EDGE_CURVE('',#457,#455,#176,.T.);
#556=EDGE_CURVE('',#458,#457,#21,.T.);
#557=EDGE_CURVE('',#456,#458,#177,.T.);
#558=EDGE_CURVE('',#459,#460,#178,.T.);
#559=EDGE_CURVE('',#461,#459,#179,.T.);
#560=EDGE_CURVE('',#462,#461,#180,.T.);
#561=EDGE_CURVE('',#463,#462,#181,.T.);
#562=EDGE_CURVE('',#464,#463,#182,.T.);
#563=EDGE_CURVE('',#465,#464,#183,.T.);
#564=EDGE_CURVE('',#466,#465,#184,.T.);
#565=EDGE_CURVE('',#467,#466,#185,.T.);
#566=EDGE_CURVE('',#468,#467,#186,.T.);
#567=EDGE_CURVE('',#469,#468,#187,.T.);
#568=EDGE_CURVE('',#470,#469,#188,.T.);
#569=EDGE_CURVE('',#471,#470,#189,.T.);
#570=EDGE_CURVE('',#472,#471,#190,.T.);
#571=EDGE_CURVE('',#473,#472,#191,.T.);
#572=EDGE_CURVE('',#474,#473,#192,.T.);
#573=EDGE_CURVE('',#475,#474,#193,.T.);
#574=EDGE_CURVE('',#476,#475,#194,.T.);
#575=EDGE_CURVE('',#477,#476,#195,.T.);
#576=EDGE_CURVE('',#478,#477,#196,.T.);
#577=EDGE_CURVE('',#479,#478,#197,.T.);
#578=EDGE_CURVE('',#480,#479,#198,.T.);
#579=EDGE_CURVE('',#481,#480,#199,.T.);
#580=EDGE_CURVE('',#482,#481,#200,.T.);
#581=EDGE_CURVE('',#483,#482,#201,.T.);
#582=EDGE_CURVE('',#484,#483,#202,.T.);
#583=EDGE_CURVE('',#485,#484,#203,.T.);
#584=EDGE_CURVE('',#454,#485,#204,.T.);
#585=EDGE_CURVE('',#486,#412,#205,.T.);
#586=EDGE_CURVE('',#487,#486,#206,.T.);
#587=EDGE_CURVE('',#488,#487,#207,.T.);
#588=EDGE_CURVE('',#489,#488,#208,.T.);
#589=EDGE_CURVE('',#490,#489,#209,.T.);
#590=EDGE_CURVE('',#491,#490,#210,.T.);
#591=EDGE_CURVE('',#492,#491,#211,.T.);
#592=EDGE_CURVE('',#460,#492,#212,.T.);
#593=EDGE_CURVE('',#457,#493,#213,.T.);
#594=EDGE_CURVE('',#493,#494,#214,.T.);
#595=EDGE_CURVE('',#494,#495,#215,.T.);
#596=EDGE_CURVE('',#495,#496,#216,.T.);
#597=EDGE_CURVE('',#496,#458,#217,.T.);
#598=EDGE_CURVE('',#497,#455,#218,.T.);
#599=EDGE_CURVE('',#493,#497,#219,.T.);
#600=EDGE_CURVE('',#496,#498,#220,.T.);
#601=EDGE_CURVE('',#456,#498,#221,.T.);
#602=EDGE_CURVE('',#498,#499,#222,.T.);
#603=EDGE_CURVE('',#495,#499,#223,.T.);
#604=EDGE_CURVE('',#499,#500,#224,.T.);
#605=EDGE_CURVE('',#494,#500,#225,.T.);
#606=EDGE_CURVE('',#500,#497,#226,.T.);
#607=EDGE_CURVE('',#501,#502,#227,.T.);
#608=EDGE_CURVE('',#502,#503,#228,.T.);
#609=EDGE_CURVE('',#503,#504,#229,.T.);
#610=EDGE_CURVE('',#504,#501,#230,.T.);
#611=EDGE_CURVE('',#477,#428,#231,.T.);
#612=EDGE_CURVE('',#427,#478,#232,.T.);
#613=EDGE_CURVE('',#429,#476,#233,.T.);
#614=EDGE_CURVE('',#475,#430,#234,.T.);
#615=EDGE_CURVE('',#431,#474,#235,.T.);
#616=EDGE_CURVE('',#473,#432,#236,.T.);
#617=EDGE_CURVE('',#433,#472,#237,.T.);
#618=EDGE_CURVE('',#434,#471,#238,.T.);
#619=EDGE_CURVE('',#435,#470,#239,.T.);
#620=EDGE_CURVE('',#469,#436,#240,.T.);
#621=EDGE_CURVE('',#468,#437,#241,.T.);
#622=EDGE_CURVE('',#438,#467,#242,.T.);
#623=EDGE_CURVE('',#466,#439,#243,.T.);
#624=EDGE_CURVE('',#440,#465,#244,.T.);
#625=EDGE_CURVE('',#464,#441,#245,.T.);
#626=EDGE_CURVE('',#442,#463,#246,.T.);
#627=EDGE_CURVE('',#443,#462,#247,.T.);
#628=EDGE_CURVE('',#444,#461,#248,.T.);
#629=EDGE_CURVE('',#459,#445,#249,.T.);
#630=EDGE_CURVE('',#424,#481,#250,.T.);
#631=EDGE_CURVE('',#482,#423,#251,.T.);
#632=EDGE_CURVE('',#422,#483,#252,.T.);
#633=EDGE_CURVE('',#484,#421,#253,.T.);
#634=EDGE_CURVE('',#449,#490,#254,.T.);
#635=EDGE_CURVE('',#491,#448,#255,.T.);
#636=EDGE_CURVE('',#451,#488,#256,.T.);
#637=EDGE_CURVE('',#489,#450,#257,.T.);
#638=EDGE_CURVE('',#447,#492,#258,.T.);
#639=EDGE_CURVE('',#452,#487,#259,.T.);
#640=EDGE_CURVE('',#460,#446,#260,.T.);
#641=EDGE_CURVE('',#453,#486,#261,.T.);
#642=EDGE_CURVE('',#420,#485,#262,.T.);
#643=EDGE_CURVE('',#426,#479,#263,.T.);
#644=EDGE_CURVE('',#480,#425,#264,.T.);
#645=EDGE_CURVE('',#418,#504,#265,.T.);
#646=EDGE_CURVE('',#417,#501,#266,.T.);
#647=EDGE_CURVE('',#415,#503,#267,.T.);
#648=EDGE_CURVE('',#416,#502,#268,.T.);
#649=ORIENTED_EDGE('',*,*,#505,.T.);
#650=ORIENTED_EDGE('',*,*,#506,.F.);
#651=ORIENTED_EDGE('',*,*,#507,.F.);
#652=ORIENTED_EDGE('',*,*,#508,.T.);
#653=ORIENTED_EDGE('',*,*,#509,.F.);
#654=ORIENTED_EDGE('',*,*,#505,.F.);
#655=ORIENTED_EDGE('',*,*,#510,.T.);
#656=ORIENTED_EDGE('',*,*,#511,.F.);
#657=ORIENTED_EDGE('',*,*,#512,.T.);
#658=ORIENTED_EDGE('',*,*,#513,.T.);
#659=ORIENTED_EDGE('',*,*,#514,.F.);
#660=ORIENTED_EDGE('',*,*,#515,.F.);
#661=ORIENTED_EDGE('',*,*,#509,.T.);
#662=ORIENTED_EDGE('',*,*,#516,.T.);
#663=ORIENTED_EDGE('',*,*,#517,.T.);
#664=ORIENTED_EDGE('',*,*,#518,.T.);
#665=ORIENTED_EDGE('',*,*,#519,.T.);
#666=ORIENTED_EDGE('',*,*,#520,.T.);
#667=ORIENTED_EDGE('',*,*,#521,.T.);
#668=ORIENTED_EDGE('',*,*,#522,.T.);
#669=ORIENTED_EDGE('',*,*,#523,.T.);
#670=ORIENTED_EDGE('',*,*,#524,.T.);
#671=ORIENTED_EDGE('',*,*,#525,.T.);
#672=ORIENTED_EDGE('',*,*,#526,.T.);
#673=ORIENTED_EDGE('',*,*,#527,.T.);
#674=ORIENTED_EDGE('',*,*,#528,.T.);
#675=ORIENTED_EDGE('',*,*,#529,.T.);
#676=ORIENTED_EDGE('',*,*,#530,.T.);
#677=ORIENTED_EDGE('',*,*,#531,.T.);
#678=ORIENTED_EDGE('',*,*,#532,.T.);
#679=ORIENTED_EDGE('',*,*,#533,.T.);
#680=ORIENTED_EDGE('',*,*,#534,.T.);
#681=ORIENTED_EDGE('',*,*,#535,.T.);
#682=ORIENTED_EDGE('',*,*,#536,.T.);
#683=ORIENTED_EDGE('',*,*,#537,.T.);
#684=ORIENTED_EDGE('',*,*,#538,.T.);
#685=ORIENTED_EDGE('',*,*,#539,.T.);
#686=ORIENTED_EDGE('',*,*,#540,.T.);
#687=ORIENTED_EDGE('',*,*,#541,.T.);
#688=ORIENTED_EDGE('',*,*,#542,.T.);
#689=ORIENTED_EDGE('',*,*,#543,.T.);
#690=ORIENTED_EDGE('',*,*,#544,.T.);
#691=ORIENTED_EDGE('',*,*,#545,.T.);
#692=ORIENTED_EDGE('',*,*,#546,.T.);
#693=ORIENTED_EDGE('',*,*,#547,.T.);
#694=ORIENTED_EDGE('',*,*,#548,.T.);
#695=ORIENTED_EDGE('',*,*,#549,.T.);
#696=ORIENTED_EDGE('',*,*,#550,.T.);
#697=ORIENTED_EDGE('',*,*,#551,.T.);
#698=ORIENTED_EDGE('',*,*,#506,.T.);
#699=ORIENTED_EDGE('',*,*,#511,.T.);
#700=ORIENTED_EDGE('',*,*,#552,.T.);
#701=ORIENTED_EDGE('',*,*,#553,.T.);
#702=ORIENTED_EDGE('',*,*,#516,.F.);
#703=ORIENTED_EDGE('',*,*,#554,.F.);
#704=ORIENTED_EDGE('',*,*,#555,.F.);
#705=ORIENTED_EDGE('',*,*,#556,.F.);
#706=ORIENTED_EDGE('',*,*,#557,.F.);
#707=ORIENTED_EDGE('',*,*,#558,.F.);
#708=ORIENTED_EDGE('',*,*,#559,.F.);
#709=ORIENTED_EDGE('',*,*,#560,.F.);
#710=ORIENTED_EDGE('',*,*,#561,.F.);
#711=ORIENTED_EDGE('',*,*,#562,.F.);
#712=ORIENTED_EDGE('',*,*,#563,.F.);
#713=ORIENTED_EDGE('',*,*,#564,.F.);
#714=ORIENTED_EDGE('',*,*,#565,.F.);
#715=ORIENTED_EDGE('',*,*,#566,.F.);
#716=ORIENTED_EDGE('',*,*,#567,.F.);
#717=ORIENTED_EDGE('',*,*,#568,.F.);
#718=ORIENTED_EDGE('',*,*,#569,.F.);
#719=ORIENTED_EDGE('',*,*,#570,.F.);
#720=ORIENTED_EDGE('',*,*,#571,.F.);
#721=ORIENTED_EDGE('',*,*,#572,.F.);
#722=ORIENTED_EDGE('',*,*,#573,.F.);
#723=ORIENTED_EDGE('',*,*,#574,.F.);
#724=ORIENTED_EDGE('',*,*,#575,.F.);
#725=ORIENTED_EDGE('',*,*,#576,.F.);
#726=ORIENTED_EDGE('',*,*,#577,.F.);
#727=ORIENTED_EDGE('',*,*,#578,.F.);
#728=ORIENTED_EDGE('',*,*,#579,.F.);
#729=ORIENTED_EDGE('',*,*,#580,.F.);
#730=ORIENTED_EDGE('',*,*,#581,.F.);
#731=ORIENTED_EDGE('',*,*,#582,.F.);
#732=ORIENTED_EDGE('',*,*,#583,.F.);
#733=ORIENTED_EDGE('',*,*,#584,.F.);
#734=ORIENTED_EDGE('',*,*,#552,.F.);
#735=ORIENTED_EDGE('',*,*,#510,.F.);
#736=ORIENTED_EDGE('',*,*,#508,.F.);
#737=ORIENTED_EDGE('',*,*,#585,.F.);
#738=ORIENTED_EDGE('',*,*,#586,.F.);
#739=ORIENTED_EDGE('',*,*,#587,.F.);
#740=ORIENTED_EDGE('',*,*,#588,.F.);
#741=ORIENTED_EDGE('',*,*,#589,.F.);
#742=ORIENTED_EDGE('',*,*,#590,.F.);
#743=ORIENTED_EDGE('',*,*,#591,.F.);
#744=ORIENTED_EDGE('',*,*,#592,.F.);
#745=ORIENTED_EDGE('',*,*,#556,.T.);
#746=ORIENTED_EDGE('',*,*,#593,.T.);
#747=ORIENTED_EDGE('',*,*,#594,.T.);
#748=ORIENTED_EDGE('',*,*,#595,.T.);
#749=ORIENTED_EDGE('',*,*,#596,.T.);
#750=ORIENTED_EDGE('',*,*,#597,.T.);
#751=ORIENTED_EDGE('',*,*,#555,.T.);
#752=ORIENTED_EDGE('',*,*,#598,.F.);
#753=ORIENTED_EDGE('',*,*,#599,.F.);
#754=ORIENTED_EDGE('',*,*,#593,.F.);
#755=ORIENTED_EDGE('',*,*,#557,.T.);
#756=ORIENTED_EDGE('',*,*,#597,.F.);
#757=ORIENTED_EDGE('',*,*,#600,.T.);
#758=ORIENTED_EDGE('',*,*,#601,.F.);
#759=ORIENTED_EDGE('',*,*,#602,.F.);
#760=ORIENTED_EDGE('',*,*,#600,.F.);
#761=ORIENTED_EDGE('',*,*,#596,.F.);
#762=ORIENTED_EDGE('',*,*,#603,.T.);
#763=ORIENTED_EDGE('',*,*,#604,.F.);
#764=ORIENTED_EDGE('',*,*,#603,.F.);
#765=ORIENTED_EDGE('',*,*,#595,.F.);
#766=ORIENTED_EDGE('',*,*,#605,.T.);
#767=ORIENTED_EDGE('',*,*,#606,.F.);
#768=ORIENTED_EDGE('',*,*,#605,.F.);
#769=ORIENTED_EDGE('',*,*,#594,.F.);
#770=ORIENTED_EDGE('',*,*,#599,.T.);
#771=ORIENTED_EDGE('',*,*,#607,.T.);
#772=ORIENTED_EDGE('',*,*,#608,.T.);
#773=ORIENTED_EDGE('',*,*,#609,.T.);
#774=ORIENTED_EDGE('',*,*,#610,.T.);
#775=ORIENTED_EDGE('',*,*,#554,.T.);
#776=ORIENTED_EDGE('',*,*,#601,.T.);
#777=ORIENTED_EDGE('',*,*,#602,.T.);
#778=ORIENTED_EDGE('',*,*,#604,.T.);
#779=ORIENTED_EDGE('',*,*,#606,.T.);
#780=ORIENTED_EDGE('',*,*,#598,.T.);
#781=ORIENTED_EDGE('',*,*,#576,.T.);
#782=ORIENTED_EDGE('',*,*,#611,.T.);
#783=ORIENTED_EDGE('',*,*,#525,.F.);
#784=ORIENTED_EDGE('',*,*,#612,.T.);
#785=ORIENTED_EDGE('',*,*,#575,.T.);
#786=ORIENTED_EDGE('',*,*,#613,.F.);
#787=ORIENTED_EDGE('',*,*,#526,.F.);
#788=ORIENTED_EDGE('',*,*,#611,.F.);
#789=ORIENTED_EDGE('',*,*,#574,.T.);
#790=ORIENTED_EDGE('',*,*,#614,.T.);
#791=ORIENTED_EDGE('',*,*,#527,.F.);
#792=ORIENTED_EDGE('',*,*,#613,.T.);
#793=ORIENTED_EDGE('',*,*,#573,.T.);
#794=ORIENTED_EDGE('',*,*,#615,.F.);
#795=ORIENTED_EDGE('',*,*,#528,.F.);
#796=ORIENTED_EDGE('',*,*,#614,.F.);
#797=ORIENTED_EDGE('',*,*,#572,.T.);
#798=ORIENTED_EDGE('',*,*,#616,.T.);
#799=ORIENTED_EDGE('',*,*,#529,.F.);
#800=ORIENTED_EDGE('',*,*,#615,.T.);
#801=ORIENTED_EDGE('',*,*,#571,.T.);
#802=ORIENTED_EDGE('',*,*,#617,.F.);
#803=ORIENTED_EDGE('',*,*,#530,.F.);
#804=ORIENTED_EDGE('',*,*,#616,.F.);
#805=ORIENTED_EDGE('',*,*,#570,.T.);
#806=ORIENTED_EDGE('',*,*,#618,.F.);
#807=ORIENTED_EDGE('',*,*,#531,.F.);
#808=ORIENTED_EDGE('',*,*,#617,.T.);
#809=ORIENTED_EDGE('',*,*,#569,.T.);
#810=ORIENTED_EDGE('',*,*,#619,.F.);
#811=ORIENTED_EDGE('',*,*,#532,.F.);
#812=ORIENTED_EDGE('',*,*,#618,.T.);
#813=ORIENTED_EDGE('',*,*,#568,.T.);
#814=ORIENTED_EDGE('',*,*,#620,.T.);
#815=ORIENTED_EDGE('',*,*,#533,.F.);
#816=ORIENTED_EDGE('',*,*,#619,.T.);
#817=ORIENTED_EDGE('',*,*,#567,.T.);
#818=ORIENTED_EDGE('',*,*,#621,.T.);
#819=ORIENTED_EDGE('',*,*,#534,.F.);
#820=ORIENTED_EDGE('',*,*,#620,.F.);
#821=ORIENTED_EDGE('',*,*,#566,.T.);
#822=ORIENTED_EDGE('',*,*,#622,.F.);
#823=ORIENTED_EDGE('',*,*,#535,.F.);
#824=ORIENTED_EDGE('',*,*,#621,.F.);
#825=ORIENTED_EDGE('',*,*,#565,.T.);
#826=ORIENTED_EDGE('',*,*,#623,.T.);
#827=ORIENTED_EDGE('',*,*,#536,.F.);
#828=ORIENTED_EDGE('',*,*,#622,.T.);
#829=ORIENTED_EDGE('',*,*,#564,.T.);
#830=ORIENTED_EDGE('',*,*,#624,.F.);
#831=ORIENTED_EDGE('',*,*,#537,.F.);
#832=ORIENTED_EDGE('',*,*,#623,.F.);
#833=ORIENTED_EDGE('',*,*,#563,.T.);
#834=ORIENTED_EDGE('',*,*,#625,.T.);
#835=ORIENTED_EDGE('',*,*,#538,.F.);
#836=ORIENTED_EDGE('',*,*,#624,.T.);
#837=ORIENTED_EDGE('',*,*,#562,.T.);
#838=ORIENTED_EDGE('',*,*,#626,.F.);
#839=ORIENTED_EDGE('',*,*,#539,.F.);
#840=ORIENTED_EDGE('',*,*,#625,.F.);
#841=ORIENTED_EDGE('',*,*,#561,.T.);
#842=ORIENTED_EDGE('',*,*,#627,.F.);
#843=ORIENTED_EDGE('',*,*,#540,.F.);
#844=ORIENTED_EDGE('',*,*,#626,.T.);
#845=ORIENTED_EDGE('',*,*,#560,.T.);
#846=ORIENTED_EDGE('',*,*,#628,.F.);
#847=ORIENTED_EDGE('',*,*,#541,.F.);
#848=ORIENTED_EDGE('',*,*,#627,.T.);
#849=ORIENTED_EDGE('',*,*,#559,.T.);
#850=ORIENTED_EDGE('',*,*,#629,.T.);
#851=ORIENTED_EDGE('',*,*,#542,.F.);
#852=ORIENTED_EDGE('',*,*,#628,.T.);
#853=ORIENTED_EDGE('',*,*,#580,.T.);
#854=ORIENTED_EDGE('',*,*,#630,.F.);
#855=ORIENTED_EDGE('',*,*,#521,.F.);
#856=ORIENTED_EDGE('',*,*,#631,.F.);
#857=ORIENTED_EDGE('',*,*,#582,.T.);
#858=ORIENTED_EDGE('',*,*,#632,.F.);
#859=ORIENTED_EDGE('',*,*,#519,.F.);
#860=ORIENTED_EDGE('',*,*,#633,.F.);
#861=ORIENTED_EDGE('',*,*,#590,.T.);
#862=ORIENTED_EDGE('',*,*,#634,.F.);
#863=ORIENTED_EDGE('',*,*,#546,.F.);
#864=ORIENTED_EDGE('',*,*,#635,.F.);
#865=ORIENTED_EDGE('',*,*,#588,.T.);
#866=ORIENTED_EDGE('',*,*,#636,.F.);
#867=ORIENTED_EDGE('',*,*,#548,.F.);
#868=ORIENTED_EDGE('',*,*,#637,.F.);
#869=ORIENTED_EDGE('',*,*,#591,.T.);
#870=ORIENTED_EDGE('',*,*,#635,.T.);
#871=ORIENTED_EDGE('',*,*,#545,.F.);
#872=ORIENTED_EDGE('',*,*,#638,.T.);
#873=ORIENTED_EDGE('',*,*,#589,.T.);
#874=ORIENTED_EDGE('',*,*,#637,.T.);
#875=ORIENTED_EDGE('',*,*,#547,.F.);
#876=ORIENTED_EDGE('',*,*,#634,.T.);
#877=ORIENTED_EDGE('',*,*,#587,.T.);
#878=ORIENTED_EDGE('',*,*,#639,.F.);
#879=ORIENTED_EDGE('',*,*,#549,.F.);
#880=ORIENTED_EDGE('',*,*,#636,.T.);
#881=ORIENTED_EDGE('',*,*,#592,.T.);
#882=ORIENTED_EDGE('',*,*,#638,.F.);
#883=ORIENTED_EDGE('',*,*,#544,.F.);
#884=ORIENTED_EDGE('',*,*,#640,.F.);
#885=ORIENTED_EDGE('',*,*,#586,.T.);
#886=ORIENTED_EDGE('',*,*,#641,.F.);
#887=ORIENTED_EDGE('',*,*,#550,.F.);
#888=ORIENTED_EDGE('',*,*,#639,.T.);
#889=ORIENTED_EDGE('',*,*,#585,.T.);
#890=ORIENTED_EDGE('',*,*,#507,.T.);
#891=ORIENTED_EDGE('',*,*,#551,.F.);
#892=ORIENTED_EDGE('',*,*,#641,.T.);
#893=ORIENTED_EDGE('',*,*,#584,.T.);
#894=ORIENTED_EDGE('',*,*,#642,.F.);
#895=ORIENTED_EDGE('',*,*,#517,.F.);
#896=ORIENTED_EDGE('',*,*,#553,.F.);
#897=ORIENTED_EDGE('',*,*,#578,.T.);
#898=ORIENTED_EDGE('',*,*,#643,.F.);
#899=ORIENTED_EDGE('',*,*,#523,.F.);
#900=ORIENTED_EDGE('',*,*,#644,.F.);
#901=ORIENTED_EDGE('',*,*,#577,.T.);
#902=ORIENTED_EDGE('',*,*,#612,.F.);
#903=ORIENTED_EDGE('',*,*,#524,.F.);
#904=ORIENTED_EDGE('',*,*,#643,.T.);
#905=ORIENTED_EDGE('',*,*,#579,.T.);
#906=ORIENTED_EDGE('',*,*,#644,.T.);
#907=ORIENTED_EDGE('',*,*,#522,.F.);
#908=ORIENTED_EDGE('',*,*,#630,.T.);
#909=ORIENTED_EDGE('',*,*,#583,.T.);
#910=ORIENTED_EDGE('',*,*,#633,.T.);
#911=ORIENTED_EDGE('',*,*,#518,.F.);
#912=ORIENTED_EDGE('',*,*,#642,.T.);
#913=ORIENTED_EDGE('',*,*,#581,.T.);
#914=ORIENTED_EDGE('',*,*,#631,.T.);
#915=ORIENTED_EDGE('',*,*,#520,.F.);
#916=ORIENTED_EDGE('',*,*,#632,.T.);
#917=ORIENTED_EDGE('',*,*,#645,.F.);
#918=ORIENTED_EDGE('',*,*,#514,.T.);
#919=ORIENTED_EDGE('',*,*,#646,.T.);
#920=ORIENTED_EDGE('',*,*,#610,.F.);
#921=ORIENTED_EDGE('',*,*,#647,.F.);
#922=ORIENTED_EDGE('',*,*,#515,.T.);
#923=ORIENTED_EDGE('',*,*,#645,.T.);
#924=ORIENTED_EDGE('',*,*,#609,.F.);
#925=ORIENTED_EDGE('',*,*,#646,.F.);
#926=ORIENTED_EDGE('',*,*,#513,.F.);
#927=ORIENTED_EDGE('',*,*,#648,.T.);
#928=ORIENTED_EDGE('',*,*,#607,.F.);
#929=ORIENTED_EDGE('',*,*,#648,.F.);
#930=ORIENTED_EDGE('',*,*,#512,.F.);
#931=ORIENTED_EDGE('',*,*,#647,.T.);
#932=ORIENTED_EDGE('',*,*,#608,.F.);
#933=ORIENTED_EDGE('',*,*,#558,.T.);
#934=ORIENTED_EDGE('',*,*,#640,.T.);
#935=ORIENTED_EDGE('',*,*,#543,.F.);
#936=ORIENTED_EDGE('',*,*,#629,.F.);
#937=PLANE('',#1051);
#938=PLANE('',#1055);
#939=PLANE('',#1056);
#940=PLANE('',#1060);
#941=PLANE('',#1061);
#942=PLANE('',#1062);
#943=PLANE('',#1063);
#944=PLANE('',#1064);
#945=PLANE('',#1065);
#946=PLANE('',#1066);
#947=PLANE('',#1067);
#948=PLANE('',#1068);
#949=PLANE('',#1069);
#950=PLANE('',#1070);
#951=PLANE('',#1071);
#952=PLANE('',#1072);
#953=PLANE('',#1073);
#954=PLANE('',#1074);
#955=PLANE('',#1075);
#956=PLANE('',#1076);
#957=PLANE('',#1077);
#958=PLANE('',#1078);
#959=PLANE('',#1079);
#960=PLANE('',#1080);
#961=PLANE('',#1081);
#962=PLANE('',#1082);
#963=PLANE('',#1083);
#964=PLANE('',#1084);
#965=PLANE('',#1085);
#966=PLANE('',#1086);
#967=PLANE('',#1087);
#968=PLANE('',#1088);
#969=PLANE('',#1089);
#970=PLANE('',#1090);
#971=PLANE('',#1091);
#972=PLANE('',#1092);
#973=PLANE('',#1093);
#974=PLANE('',#1094);
#975=PLANE('',#1095);
#976=PLANE('',#1096);
#977=PLANE('',#1097);
#978=PLANE('',#1098);
#979=PLANE('',#1099);
#980=PLANE('',#1100);
#981=PLANE('',#1101);
#982=PLANE('',#1102);
#983=PLANE('',#1103);
#984=PLANE('',#1104);
#985=PLANE('',#1105);
#986=ADVANCED_FACE('',(#24),#937,.F.);
#987=ADVANCED_FACE('',(#25),#22,.F.);
#988=ADVANCED_FACE('',(#26,#15),#938,.T.);
#989=ADVANCED_FACE('',(#27),#939,.F.);
#990=ADVANCED_FACE('',(#28),#23,.F.);
#991=ADVANCED_FACE('',(#29,#16),#940,.T.);
#992=ADVANCED_FACE('',(#30),#941,.F.);
#993=ADVANCED_FACE('',(#31),#942,.F.);
#994=ADVANCED_FACE('',(#32),#943,.F.);
#995=ADVANCED_FACE('',(#33),#944,.F.);
#996=ADVANCED_FACE('',(#34),#945,.F.);
#997=ADVANCED_FACE('',(#35,#17),#946,.T.);
#998=ADVANCED_FACE('',(#36),#947,.F.);
#999=ADVANCED_FACE('',(#37),#948,.F.);
#1000=ADVANCED_FACE('',(#38),#949,.F.);
#1001=ADVANCED_FACE('',(#39),#950,.F.);
#1002=ADVANCED_FACE('',(#40),#951,.F.);
#1003=ADVANCED_FACE('',(#41),#952,.F.);
#1004=ADVANCED_FACE('',(#42),#953,.F.);
#1005=ADVANCED_FACE('',(#43),#954,.F.);
#1006=ADVANCED_FACE('',(#44),#955,.F.);
#1007=ADVANCED_FACE('',(#45),#956,.F.);
#1008=ADVANCED_FACE('',(#46),#957,.F.);
#1009=ADVANCED_FACE('',(#47),#958,.F.);
#1010=ADVANCED_FACE('',(#48),#959,.F.);
#1011=ADVANCED_FACE('',(#49),#960,.F.);
#1012=ADVANCED_FACE('',(#50),#961,.F.);
#1013=ADVANCED_FACE('',(#51),#962,.F.);
#1014=ADVANCED_FACE('',(#52),#963,.F.);
#1015=ADVANCED_FACE('',(#53),#964,.F.);
#1016=ADVANCED_FACE('',(#54),#965,.F.);
#1017=ADVANCED_FACE('',(#55),#966,.F.);
#1018=ADVANCED_FACE('',(#56),#967,.F.);
#1019=ADVANCED_FACE('',(#57),#968,.F.);
#1020=ADVANCED_FACE('',(#58),#969,.F.);
#1021=ADVANCED_FACE('',(#59),#970,.F.);
#1022=ADVANCED_FACE('',(#60),#971,.F.);
#1023=ADVANCED_FACE('',(#61),#972,.F.);
#1024=ADVANCED_FACE('',(#62),#973,.F.);
#1025=ADVANCED_FACE('',(#63),#974,.F.);
#1026=ADVANCED_FACE('',(#64),#975,.F.);
#1027=ADVANCED_FACE('',(#65),#976,.F.);
#1028=ADVANCED_FACE('',(#66),#977,.F.);
#1029=ADVANCED_FACE('',(#67),#978,.F.);
#1030=ADVANCED_FACE('',(#68),#979,.F.);
#1031=ADVANCED_FACE('',(#69),#980,.F.);
#1032=ADVANCED_FACE('',(#70),#981,.T.);
#1033=ADVANCED_FACE('',(#71),#982,.T.);
#1034=ADVANCED_FACE('',(#72),#983,.T.);
#1035=ADVANCED_FACE('',(#73),#984,.T.);
#1036=ADVANCED_FACE('',(#74),#985,.F.);
#1037=CLOSED_SHELL('',(#986,#987,#988,#989,#990,#991,#992,#993,#994,#995,
#996,#997,#998,#999,#1000,#1001,#1002,#1003,#1004,#1005,#1006,#1007,#1008,
#1009,#1010,#1011,#1012,#1013,#1014,#1015,#1016,#1017,#1018,#1019,#1020,
#1021,#1022,#1023,#1024,#1025,#1026,#1027,#1028,#1029,#1030,#1031,#1032,
#1033,#1034,#1035,#1036));
#1038=DERIVED_UNIT_ELEMENT(#1040,1.);
#1039=DERIVED_UNIT_ELEMENT(#1655,-3.);
#1040=(
MASS_UNIT()
NAMED_UNIT(*)
SI_UNIT(.KILO.,.GRAM.)
);
#1041=DERIVED_UNIT((#1038,#1039));
#1042=MEASURE_REPRESENTATION_ITEM('density measure',
POSITIVE_RATIO_MEASURE(7850.),#1041);
#1043=PROPERTY_DEFINITION_REPRESENTATION(#1048,#1045);
#1044=PROPERTY_DEFINITION_REPRESENTATION(#1049,#1046);
#1045=REPRESENTATION('material name',(#1047),#1652);
#1046=REPRESENTATION('density',(#1042),#1652);
#1047=DESCRIPTIVE_REPRESENTATION_ITEM('Steel','Steel');
#1048=PROPERTY_DEFINITION('material property','material name',#1662);
#1049=PROPERTY_DEFINITION('material property','density of part',#1662);
#1050=AXIS2_PLACEMENT_3D('',#1358,#1106,#1107);
#1051=AXIS2_PLACEMENT_3D('',#1359,#1108,#1109);
#1052=AXIS2_PLACEMENT_3D('',#1368,#1114,#1115);
#1053=AXIS2_PLACEMENT_3D('',#1370,#1116,#1117);
#1054=AXIS2_PLACEMENT_3D('',#1372,#1118,#1119);
#1055=AXIS2_PLACEMENT_3D('',#1374,#1121,#1122);
#1056=AXIS2_PLACEMENT_3D('',#1454,#1163,#1164);
#1057=AXIS2_PLACEMENT_3D('',#1458,#1167,#1168);
#1058=AXIS2_PLACEMENT_3D('',#1461,#1169,#1170);
#1059=AXIS2_PLACEMENT_3D('',#1465,#1172,#1173);
#1060=AXIS2_PLACEMENT_3D('',#1467,#1175,#1176);
#1061=AXIS2_PLACEMENT_3D('',#1546,#1217,#1218);
#1062=AXIS2_PLACEMENT_3D('',#1550,#1221,#1222);
#1063=AXIS2_PLACEMENT_3D('',#1554,#1225,#1226);
#1064=AXIS2_PLACEMENT_3D('',#1558,#1229,#1230);
#1065=AXIS2_PLACEMENT_3D('',#1562,#1233,#1234);
#1066=AXIS2_PLACEMENT_3D('',#1564,#1236,#1237);
#1067=AXIS2_PLACEMENT_3D('',#1573,#1242,#1243);
#1068=AXIS2_PLACEMENT_3D('',#1576,#1246,#1247);
#1069=AXIS2_PLACEMENT_3D('',#1578,#1249,#1250);
#1070=AXIS2_PLACEMENT_3D('',#1580,#1252,#1253);
#1071=AXIS2_PLACEMENT_3D('',#1582,#1255,#1256);
#1072=AXIS2_PLACEMENT_3D('',#1584,#1258,#1259);
#1073=AXIS2_PLACEMENT_3D('',#1586,#1261,#1262);
#1074=AXIS2_PLACEMENT_3D('',#1588,#1264,#1265);
#1075=AXIS2_PLACEMENT_3D('',#1590,#1267,#1268);
#1076=AXIS2_PLACEMENT_3D('',#1592,#1270,#1271);
#1077=AXIS2_PLACEMENT_3D('',#1594,#1273,#1274);
#1078=AXIS2_PLACEMENT_3D('',#1596,#1276,#1277);
#1079=AXIS2_PLACEMENT_3D('',#1598,#1279,#1280);
#1080=AXIS2_PLACEMENT_3D('',#1600,#1282,#1283);
#1081=AXIS2_PLACEMENT_3D('',#1602,#1285,#1286);
#1082=AXIS2_PLACEMENT_3D('',#1604,#1288,#1289);
#1083=AXIS2_PLACEMENT_3D('',#1606,#1291,#1292);
#1084=AXIS2_PLACEMENT_3D('',#1608,#1294,#1295);
#1085=AXIS2_PLACEMENT_3D('',#1610,#1297,#1298);
#1086=AXIS2_PLACEMENT_3D('',#1613,#1301,#1302);
#1087=AXIS2_PLACEMENT_3D('',#1616,#1305,#1306);
#1088=AXIS2_PLACEMENT_3D('',#1619,#1309,#1310);
#1089=AXIS2_PLACEMENT_3D('',#1622,#1313,#1314);
#1090=AXIS2_PLACEMENT_3D('',#1624,#1316,#1317);
#1091=AXIS2_PLACEMENT_3D('',#1625,#1318,#1319);
#1092=AXIS2_PLACEMENT_3D('',#1627,#1321,#1322);
#1093=AXIS2_PLACEMENT_3D('',#1629,#1324,#1325);
#1094=AXIS2_PLACEMENT_3D('',#1631,#1327,#1328);
#1095=AXIS2_PLACEMENT_3D('',#1632,#1329,#1330);
#1096=AXIS2_PLACEMENT_3D('',#1634,#1332,#1333);
#1097=AXIS2_PLACEMENT_3D('',#1637,#1336,#1337);
#1098=AXIS2_PLACEMENT_3D('',#1638,#1338,#1339);
#1099=AXIS2_PLACEMENT_3D('',#1639,#1340,#1341);
#1100=AXIS2_PLACEMENT_3D('',#1640,#1342,#1343);
#1101=AXIS2_PLACEMENT_3D('',#1641,#1344,#1345);
#1102=AXIS2_PLACEMENT_3D('',#1644,#1348,#1349);
#1103=AXIS2_PLACEMENT_3D('',#1646,#1351,#1352);
#1104=AXIS2_PLACEMENT_3D('',#1648,#1354,#1355);
#1105=AXIS2_PLACEMENT_3D('',#1649,#1356,#1357);
#1106=DIRECTION('axis',(0.,0.,1.));
#1107=DIRECTION('refdir',(1.,0.,0.));
#1108=DIRECTION('center_axis',(-1.,0.,0.));
#1109=DIRECTION('ref_axis',(0.,0.,1.));
#1110=DIRECTION('',(0.,0.,1.));
#1111=DIRECTION('',(0.,1.,0.));
#1112=DIRECTION('',(0.,0.,1.));
#1113=DIRECTION('',(0.,1.,0.));
#1114=DIRECTION('center_axis',(0.,0.,-1.));
#1115=DIRECTION('ref_axis',(-1.,0.,0.));
#1116=DIRECTION('center_axis',(0.,0.,-1.));
#1117=DIRECTION('ref_axis',(-1.,0.,0.));
#1118=DIRECTION('center_axis',(0.,0.,-1.));
#1119=DIRECTION('ref_axis',(-1.,0.,0.));
#1120=DIRECTION('',(0.,0.,-1.));
#1121=DIRECTION('center_axis',(0.,0.,1.));
#1122=DIRECTION('ref_axis',(1.,0.,0.));
#1123=DIRECTION('',(-1.,0.,0.));
#1124=DIRECTION('',(0.,-1.,0.));
#1125=DIRECTION('',(-1.,0.,0.));
#1126=DIRECTION('',(0.,-1.,0.));
#1127=DIRECTION('',(0.,1.,0.));
#1128=DIRECTION('',(-1.,0.,0.));
#1129=DIRECTION('',(0.,-1.,0.));
#1130=DIRECTION('',(-1.,0.,0.));
#1131=DIRECTION('',(0.,1.,0.));
#1132=DIRECTION('',(1.,0.,0.));
#1133=DIRECTION('',(0.,-1.,0.));
#1134=DIRECTION('',(1.,0.,0.));
#1135=DIRECTION('',(0.,1.,0.));
#1136=DIRECTION('',(1.,0.,0.));
#1137=DIRECTION('',(-3.44509284839767E-16,1.,0.));
#1138=DIRECTION('',(-1.,-3.33066907387547E-16,0.));
#1139=DIRECTION('',(-3.33066907387547E-16,1.,0.));
#1140=DIRECTION('',(1.,3.33066907387547E-16,0.));
#1141=DIRECTION('',(2.22044604925031E-16,-1.,0.));
#1142=DIRECTION('',(-1.,-3.44509284839767E-16,0.));
#1143=DIRECTION('',(3.44509284839767E-16,-1.,0.));
#1144=DIRECTION('',(1.,0.,0.));
#1145=DIRECTION('',(0.,-1.,0.));
#1146=DIRECTION('',(1.,1.22464679914735E-16,0.));
#1147=DIRECTION('',(0.,1.,0.));
#1148=DIRECTION('',(1.,0.,0.));
#1149=DIRECTION('',(0.,-1.,0.));
#1150=DIRECTION('',(-1.,0.,0.));
#1151=DIRECTION('',(-1.22464679914735E-16,1.,0.));
#1152=DIRECTION('',(-1.,-1.22464679914735E-16,0.));
#1153=DIRECTION('',(0.,-1.,0.));
#1154=DIRECTION('',(-1.,0.,0.));
#1155=DIRECTION('',(4.66973964754502E-16,-1.,0.));
#1156=DIRECTION('',(1.,0.,0.));
#1157=DIRECTION('',(0.,-1.,0.));
#1158=DIRECTION('',(-1.,0.,0.));
#1159=DIRECTION('',(0.,1.,0.));
#1160=DIRECTION('',(1.,4.66973964754502E-16,0.));
#1161=DIRECTION('',(-4.66973964754502E-16,1.,0.));
#1162=DIRECTION('',(-1.,0.,0.));
#1163=DIRECTION('center_axis',(-1.,0.,0.));
#1164=DIRECTION('ref_axis',(0.,0.,1.));
#1165=DIRECTION('',(0.,1.,0.));
#1166=DIRECTION('',(0.,0.,1.));
#1167=DIRECTION('center_axis',(0.,0.,-1.));
#1168=DIRECTION('ref_axis',(-1.,0.,0.));
#1169=DIRECTION('center_axis',(0.,0.,1.));
#1170=DIRECTION('ref_axis',(-1.,0.,0.));
#1171=DIRECTION('',(0.,0.,-1.));
#1172=DIRECTION('center_axis',(0.,0.,-1.));
#1173=DIRECTION('ref_axis',(-1.,0.,0.));
#1174=DIRECTION('',(0.,0.,1.));
#1175=DIRECTION('center_axis',(0.,0.,1.));
#1176=DIRECTION('ref_axis',(1.,0.,0.));
#1177=DIRECTION('',(-1.,0.,0.));
#1178=DIRECTION('',(0.,-1.,0.));
#1179=DIRECTION('',(-1.,-1.22464679914735E-16,0.));
#1180=DIRECTION('',(-1.22464679914735E-16,1.,0.));
#1181=DIRECTION('',(-1.,0.,0.));
#1182=DIRECTION('',(1.22464679914735E-16,-1.,0.));
#1183=DIRECTION('',(1.,0.,0.));
#1184=DIRECTION('',(-1.22464679914735E-16,1.,0.));
#1185=DIRECTION('',(1.,1.22464679914735E-16,0.));
#1186=DIRECTION('',(0.,-1.,0.));
#1187=DIRECTION('',(1.,0.,0.));
#1188=DIRECTION('',(3.44509284839767E-16,-1.,0.));
#1189=DIRECTION('',(-1.,-3.44509284839767E-16,0.));
#1190=DIRECTION('',(2.22044604925031E-16,-1.,0.));
#1191=DIRECTION('',(1.,3.44509284839767E-16,0.));
#1192=DIRECTION('',(-3.33066907387547E-16,1.,0.));
#1193=DIRECTION('',(-1.,-3.44509284839767E-16,0.));
#1194=DIRECTION('',(-3.44509284839767E-16,1.,0.));
#1195=DIRECTION('',(1.,0.,0.));
#1196=DIRECTION('',(0.,1.,0.));
#1197=DIRECTION('',(1.,0.,0.));
#1198=DIRECTION('',(0.,-1.,0.));
#1199=DIRECTION('',(1.,0.,0.));
#1200=DIRECTION('',(0.,1.,0.));
#1201=DIRECTION('',(-1.,0.,0.));
#1202=DIRECTION('',(0.,-1.,0.));
#1203=DIRECTION('',(-1.,0.,0.));
#1204=DIRECTION('',(-1.,0.,0.));
#1205=DIRECTION('',(-4.66973964754502E-16,1.,0.));
#1206=DIRECTION('',(1.,4.66973964754502E-16,0.));
#1207=DIRECTION('',(0.,1.,0.));
#1208=DIRECTION('',(-1.,-4.66973964754502E-16,0.));
#1209=DIRECTION('',(0.,-1.,0.));
#1210=DIRECTION('',(1.,4.66973964754502E-16,0.));
#1211=DIRECTION('',(4.66973964754502E-16,-1.,0.));
#1212=DIRECTION('',(1.,0.,0.));
#1213=DIRECTION('',(0.,-1.,0.));
#1214=DIRECTION('',(-1.,0.,0.));
#1215=DIRECTION('',(0.,1.,0.));
#1216=DIRECTION('',(1.,0.,0.));
#1217=DIRECTION('center_axis',(0.,1.,0.));
#1218=DIRECTION('ref_axis',(1.,0.,0.));
#1219=DIRECTION('',(-1.,0.,0.));
#1220=DIRECTION('',(0.,0.,-1.));
#1221=DIRECTION('center_axis',(0.,1.,0.));
#1222=DIRECTION('ref_axis',(1.,0.,0.));
#1223=DIRECTION('',(0.,0.,-1.));
#1224=DIRECTION('',(-1.,0.,0.));
#1225=DIRECTION('center_axis',(-1.,0.,0.));
#1226=DIRECTION('ref_axis',(0.,1.,0.));
#1227=DIRECTION('',(0.,-1.,0.));
#1228=DIRECTION('',(0.,0.,-1.));
#1229=DIRECTION('center_axis',(0.,-1.,0.));
#1230=DIRECTION('ref_axis',(-1.,0.,0.));
#1231=DIRECTION('',(1.,0.,0.));
#1232=DIRECTION('',(0.,0.,-1.));
#1233=DIRECTION('center_axis',(1.,0.,0.));
#1234=DIRECTION('ref_axis',(0.,-1.,0.));
#1235=DIRECTION('',(0.,1.,0.));
#1236=DIRECTION('center_axis',(0.,0.,-1.));
#1237=DIRECTION('ref_axis',(-1.,0.,0.));
#1238=DIRECTION('',(0.,1.,0.));
#1239=DIRECTION('',(1.,0.,0.));
#1240=DIRECTION('',(0.,-1.,0.));
#1241=DIRECTION('',(-1.,0.,0.));
#1242=DIRECTION('center_axis',(0.,1.,0.));
#1243=DIRECTION('ref_axis',(1.,0.,0.));
#1244=DIRECTION('',(0.,0.,1.));
#1245=DIRECTION('',(0.,0.,-1.));
#1246=DIRECTION('center_axis',(-1.,-3.44509284839767E-16,0.));
#1247=DIRECTION('ref_axis',(-3.44509284839767E-16,1.,0.));
#1248=DIRECTION('',(0.,0.,-1.));
#1249=DIRECTION('center_axis',(3.44509284839767E-16,-1.,0.));
#1250=DIRECTION('ref_axis',(-1.,-3.44509284839767E-16,0.));
#1251=DIRECTION('',(0.,0.,1.));
#1252=DIRECTION('center_axis',(-1.,-3.33066907387547E-16,0.));
#1253=DIRECTION('ref_axis',(0.,0.,1.));
#1254=DIRECTION('',(0.,0.,-1.));
#1255=DIRECTION('center_axis',(-3.44509284839767E-16,1.,0.));
#1256=DIRECTION('ref_axis',(1.,3.44509284839767E-16,0.));
#1257=DIRECTION('',(0.,0.,1.));
#1258=DIRECTION('center_axis',(1.,2.22044604925031E-16,0.));
#1259=DIRECTION('ref_axis',(0.,0.,-1.));
#1260=DIRECTION('',(0.,0.,-1.));
#1261=DIRECTION('center_axis',(3.44509284839767E-16,-1.,0.));
#1262=DIRECTION('ref_axis',(-1.,-3.44509284839767E-16,0.));
#1263=DIRECTION('',(0.,0.,-1.));
#1264=DIRECTION('center_axis',(1.,3.44509284839767E-16,0.));
#1265=DIRECTION('ref_axis',(3.44509284839767E-16,-1.,0.));
#1266=DIRECTION('',(0.,0.,-1.));
#1267=DIRECTION('center_axis',(0.,1.,0.));
#1268=DIRECTION('ref_axis',(1.,0.,0.));
#1269=DIRECTION('',(0.,0.,1.));
#1270=DIRECTION('center_axis',(1.,0.,0.));
#1271=DIRECTION('ref_axis',(0.,0.,-1.));
#1272=DIRECTION('',(0.,0.,1.));
#1273=DIRECTION('center_axis',(-1.22464679914735E-16,1.,0.));
#1274=DIRECTION('ref_axis',(1.,1.22464679914735E-16,0.));
#1275=DIRECTION('',(0.,0.,-1.));
#1276=DIRECTION('center_axis',(-1.,-1.22464679914735E-16,0.));
#1277=DIRECTION('ref_axis',(-1.22464679914735E-16,1.,0.));
#1278=DIRECTION('',(0.,0.,1.));
#1279=DIRECTION('center_axis',(0.,1.,0.));
#1280=DIRECTION('ref_axis',(0.,0.,1.));
#1281=DIRECTION('',(0.,0.,-1.));
#1282=DIRECTION('center_axis',(1.,1.22464679914735E-16,0.));
#1283=DIRECTION('ref_axis',(1.22464679914735E-16,-1.,0.));
#1284=DIRECTION('',(0.,0.,1.));
#1285=DIRECTION('center_axis',(0.,-1.,0.));
#1286=DIRECTION('ref_axis',(0.,0.,-1.));
#1287=DIRECTION('',(0.,0.,-1.));
#1288=DIRECTION('center_axis',(-1.,-1.22464679914735E-16,0.));
#1289=DIRECTION('ref_axis',(-1.22464679914735E-16,1.,0.));
#1290=DIRECTION('',(0.,0.,-1.));
#1291=DIRECTION('center_axis',(1.22464679914735E-16,-1.,0.));
#1292=DIRECTION('ref_axis',(-1.,-1.22464679914735E-16,0.));
#1293=DIRECTION('',(0.,0.,-1.));
#1294=DIRECTION('center_axis',(1.,0.,0.));
#1295=DIRECTION('ref_axis',(0.,0.,-1.));
#1296=DIRECTION('',(0.,0.,1.));
#1297=DIRECTION('center_axis',(0.,1.,0.));
#1298=DIRECTION('ref_axis',(0.,0.,1.));
#1299=DIRECTION('',(0.,0.,-1.));
#1300=DIRECTION('',(0.,0.,1.));
#1301=DIRECTION('center_axis',(0.,-1.,0.));
#1302=DIRECTION('ref_axis',(0.,0.,-1.));
#1303=DIRECTION('',(0.,0.,-1.));
#1304=DIRECTION('',(0.,0.,1.));
#1305=DIRECTION('center_axis',(1.,0.,0.));
#1306=DIRECTION('ref_axis',(0.,0.,-1.));
#1307=DIRECTION('',(0.,0.,-1.));
#1308=DIRECTION('',(0.,0.,1.));
#1309=DIRECTION('center_axis',(-1.,0.,0.));
#1310=DIRECTION('ref_axis',(0.,0.,1.));
#1311=DIRECTION('',(0.,0.,-1.));
#1312=DIRECTION('',(0.,0.,1.));
#1313=DIRECTION('center_axis',(-4.66973964754502E-16,1.,0.));
#1314=DIRECTION('ref_axis',(1.,4.66973964754502E-16,0.));
#1315=DIRECTION('',(0.,0.,-1.));
#1316=DIRECTION('center_axis',(4.66973964754502E-16,-1.,0.));
#1317=DIRECTION('ref_axis',(-1.,-4.66973964754502E-16,0.));
#1318=DIRECTION('center_axis',(-4.66973964754502E-16,1.,0.));
#1319=DIRECTION('ref_axis',(1.,4.66973964754502E-16,0.));
#1320=DIRECTION('',(0.,0.,-1.));
#1321=DIRECTION('center_axis',(1.,4.66973964754502E-16,0.));
#1322=DIRECTION('ref_axis',(4.66973964754502E-16,-1.,0.));
#1323=DIRECTION('',(0.,0.,1.));
#1324=DIRECTION('center_axis',(-1.,-4.66973964754502E-16,0.));
#1325=DIRECTION('ref_axis',(-4.66973964754502E-16,1.,0.));
#1326=DIRECTION('',(0.,0.,-1.));
#1327=DIRECTION('center_axis',(0.,-1.,0.));
#1328=DIRECTION('ref_axis',(0.,0.,-1.));
#1329=DIRECTION('center_axis',(0.,-1.,0.));
#1330=DIRECTION('ref_axis',(-1.,0.,0.));
#1331=DIRECTION('',(0.,0.,-1.));
#1332=DIRECTION('center_axis',(0.,1.,0.));
#1333=DIRECTION('ref_axis',(1.,0.,0.));
#1334=DIRECTION('',(0.,0.,-1.));
#1335=DIRECTION('',(0.,0.,1.));
#1336=DIRECTION('center_axis',(-1.,0.,0.));
#1337=DIRECTION('ref_axis',(0.,0.,1.));
#1338=DIRECTION('center_axis',(1.,0.,0.));
#1339=DIRECTION('ref_axis',(0.,-1.,0.));
#1340=DIRECTION('center_axis',(1.,0.,0.));
#1341=DIRECTION('ref_axis',(0.,-1.,0.));
#1342=DIRECTION('center_axis',(-1.,0.,0.));
#1343=DIRECTION('ref_axis',(0.,1.,0.));
#1344=DIRECTION('center_axis',(0.,-1.,0.));
#1345=DIRECTION('ref_axis',(0.,0.,-1.));
#1346=DIRECTION('',(0.,0.,-1.));
#1347=DIRECTION('',(0.,0.,-1.));
#1348=DIRECTION('center_axis',(1.,0.,0.));
#1349=DIRECTION('ref_axis',(0.,0.,-1.));
#1350=DIRECTION('',(0.,0.,-1.));
#1351=DIRECTION('center_axis',(-1.,0.,0.));
#1352=DIRECTION('ref_axis',(0.,0.,1.));
#1353=DIRECTION('',(0.,0.,-1.));
#1354=DIRECTION('center_axis',(0.,1.,0.));
#1355=DIRECTION('ref_axis',(0.,0.,1.));
#1356=DIRECTION('center_axis',(0.,-1.,0.));
#1357=DIRECTION('ref_axis',(0.,0.,-1.));
#1358=CARTESIAN_POINT('',(0.,0.,0.));
#1359=CARTESIAN_POINT('Origin',(-0.15,-145.,16.));
#1360=CARTESIAN_POINT('',(-0.149999999999998,-127.575000707805,12.5));
#1361=CARTESIAN_POINT('',(-0.149999999999998,-127.575000707805,15.));
#1362=CARTESIAN_POINT('',(-0.15,-127.575000707805,15.));
#1363=CARTESIAN_POINT('',(-0.15,-145.15,15.));
#1364=CARTESIAN_POINT('',(-0.149999999999997,-108.75,15.));
#1365=CARTESIAN_POINT('',(-0.149999999999997,-145.15,12.5));
#1366=CARTESIAN_POINT('',(-0.15,-145.15,16.));
#1367=CARTESIAN_POINT('',(-0.150000000000001,-108.75,12.5));
#1368=CARTESIAN_POINT('Origin',(-0.149999999999999,-120.075000707805,15.));
#1369=CARTESIAN_POINT('',(-0.150000000000001,-112.575000707805,15.));
#1370=CARTESIAN_POINT('Origin',(-0.149999999999999,-120.075000707805,15.));
#1371=CARTESIAN_POINT('',(-0.150000000000001,-112.575000707805,12.5));
#1372=CARTESIAN_POINT('Origin',(-0.149999999999999,-120.075000707805,12.5));
#1373=CARTESIAN_POINT('',(-0.15,-112.575000707805,15.));
#1374=CARTESIAN_POINT('Origin',(72.5,-72.5,15.));
#1375=CARTESIAN_POINT('',(155.,10.,15.));
#1376=CARTESIAN_POINT('',(-10.,10.,15.));
#1377=CARTESIAN_POINT('',(-5.,10.,15.));
#1378=CARTESIAN_POINT('',(-10.,-155.,15.));
#1379=CARTESIAN_POINT('',(-10.,-150.,15.));
#1380=CARTESIAN_POINT('',(155.,-155.,15.));
#1381=CARTESIAN_POINT('',(-5.,-155.,15.));
#1382=CARTESIAN_POINT('',(155.,0.,15.));
#1383=CARTESIAN_POINT('',(-0.150000000000003,-80.0000002142042,15.));
#1384=CARTESIAN_POINT('',(-0.149999999999997,-108.75,15.));
#1385=CARTESIAN_POINT('',(-2.5000000372529,-80.0000002142042,15.));
#1386=CARTESIAN_POINT('',(36.175,-80.0000002142042,15.));
#1387=CARTESIAN_POINT('',(-2.5000000372529,-95.,15.));
#1388=CARTESIAN_POINT('',(-2.5000000372529,-80.,15.));
#1389=CARTESIAN_POINT('',(-5.07500000000001,-95.,15.));
#1390=CARTESIAN_POINT('',(34.9999999813735,-95.,15.));
#1391=CARTESIAN_POINT('',(-5.07500000000001,-50.0000008568168,15.));
#1392=CARTESIAN_POINT('',(-5.07500000000001,-65.0000004284084,15.));
#1393=CARTESIAN_POINT('',(-2.5000000372529,-50.0000008568168,15.));
#1394=CARTESIAN_POINT('',(33.7125,-50.0000008568168,15.));
#1395=CARTESIAN_POINT('',(-2.5000000372529,-65.0000006426126,15.));
#1396=CARTESIAN_POINT('',(-2.5000000372529,-65.0000004284084,15.));
#1397=CARTESIAN_POINT('',(-0.150000000000003,-65.0000006426126,15.));
#1398=CARTESIAN_POINT('',(34.9999999813735,-65.0000006426126,15.));
#1399=CARTESIAN_POINT('',(-0.15,0.150000000000001,15.));
#1400=CARTESIAN_POINT('',(-0.149999999999997,-108.75,15.));
#1401=CARTESIAN_POINT('',(64.8875002142041,0.150000000000006,15.));
#1402=CARTESIAN_POINT('',(36.25,0.150000000000006,15.));
#1403=CARTESIAN_POINT('',(64.8875002142041,2.38749960884439,15.));
#1404=CARTESIAN_POINT('',(64.8875002142041,-36.2312502142043,15.));
#1405=CARTESIAN_POINT('',(49.8875004284083,2.38749960884439,15.));
#1406=CARTESIAN_POINT('',(64.9437502142041,2.38749960884439,15.));
#1407=CARTESIAN_POINT('',(49.8875004284083,4.96249957159152,15.));
#1408=CARTESIAN_POINT('',(49.8875004284083,-35.0562501955778,15.));
#1409=CARTESIAN_POINT('',(94.8874995715915,4.96249957159151,15.));
#1410=CARTESIAN_POINT('',(79.9437497857958,4.9624995715915,15.));
#1411=CARTESIAN_POINT('',(94.8874995715915,2.38749960884441,15.));
#1412=CARTESIAN_POINT('',(94.8874995715916,-33.7687502142042,15.));
#1413=CARTESIAN_POINT('',(79.8874997857957,2.38749960884441,15.));
#1414=CARTESIAN_POINT('',(79.9437497857958,2.3874996088444,15.));
#1415=CARTESIAN_POINT('',(79.8874997857957,0.150000000000006,15.));
#1416=CARTESIAN_POINT('',(79.8874997857958,-35.0562501955778,15.));
#1417=CARTESIAN_POINT('',(145.15,0.150000000000006,15.));
#1418=CARTESIAN_POINT('',(36.25,0.150000000000006,15.));
#1419=CARTESIAN_POINT('',(145.15,-65.0000006426126,15.));
#1420=CARTESIAN_POINT('',(145.15,-108.75,15.));
#1421=CARTESIAN_POINT('',(147.275000037253,-65.0000006426126,15.));
#1422=CARTESIAN_POINT('',(108.7125,-65.0000006426126,15.));
#1423=CARTESIAN_POINT('',(147.275000037253,-50.0000008568168,15.));
#1424=CARTESIAN_POINT('',(147.275000037253,-65.0000004284084,15.));
#1425=CARTESIAN_POINT('',(149.85,-50.0000008568168,15.));
#1426=CARTESIAN_POINT('',(109.887500018626,-50.0000008568168,15.));
#1427=CARTESIAN_POINT('',(149.85,-95.,15.));
#1428=CARTESIAN_POINT('',(149.85,-80.,15.));
#1429=CARTESIAN_POINT('',(147.275000037253,-95.,15.));
#1430=CARTESIAN_POINT('',(111.175,-95.,15.));
#1431=CARTESIAN_POINT('',(147.275000037253,-80.0000002142042,15.));
#1432=CARTESIAN_POINT('',(147.275000037253,-80.,15.));
#1433=CARTESIAN_POINT('',(145.15,-80.0000002142042,15.));
#1434=CARTESIAN_POINT('',(109.887500018626,-80.0000002142042,15.));
#1435=CARTESIAN_POINT('',(145.15,-145.15,15.));
#1436=CARTESIAN_POINT('',(145.15,-108.75,15.));
#1437=CARTESIAN_POINT('',(79.8874997857958,-145.15,15.));
#1438=CARTESIAN_POINT('',(36.25,-145.15,15.));
#1439=CARTESIAN_POINT('',(79.8874997857958,-147.387500465661,15.));
#1440=CARTESIAN_POINT('',(79.8874997857958,-108.768750214204,15.));
#1441=CARTESIAN_POINT('',(94.8874995715916,-147.387500465661,15.));
#1442=CARTESIAN_POINT('',(79.9437497857958,-147.387500465661,15.));
#1443=CARTESIAN_POINT('',(94.8874995715916,-149.962500428409,15.));
#1444=CARTESIAN_POINT('',(94.8874995715916,-109.943750232831,15.));
#1445=CARTESIAN_POINT('',(49.8875004284084,-149.962500428409,15.));
#1446=CARTESIAN_POINT('',(64.9437502142042,-149.962500428409,15.));
#1447=CARTESIAN_POINT('',(49.8875004284084,-147.387500465661,15.));
#1448=CARTESIAN_POINT('',(49.8875004284084,-111.231250214204,15.));
#1449=CARTESIAN_POINT('',(64.8875002142042,-147.387500465661,15.));
#1450=CARTESIAN_POINT('',(64.9437502142042,-147.387500465661,15.));
#1451=CARTESIAN_POINT('',(64.8875002142042,-145.15,15.));
#1452=CARTESIAN_POINT('',(64.8875002142042,-109.943750232831,15.));
#1453=CARTESIAN_POINT('',(36.25,-145.15,15.));
#1454=CARTESIAN_POINT('Origin',(-0.15,-145.,16.));
#1455=CARTESIAN_POINT('',(-0.149999999999997,-80.0000002142042,12.5));
#1456=CARTESIAN_POINT('',(-0.150000000000001,-108.75,12.5));
#1457=CARTESIAN_POINT('',(-0.15,-80.0000002142042,15.5));
#1458=CARTESIAN_POINT('Origin',(72.3875,-92.4625004284085,12.5));
#1459=CARTESIAN_POINT('',(82.3875,-92.4625004284085,0.));
#1460=CARTESIAN_POINT('',(62.3875,-92.4625004284085,0.));
#1461=CARTESIAN_POINT('Origin',(72.3875,-92.4625004284085,0.));
#1462=CARTESIAN_POINT('',(82.3875,-92.4625004284085,12.5));
#1463=CARTESIAN_POINT('',(82.3875,-92.4625004284085,12.5));
#1464=CARTESIAN_POINT('',(62.3875,-92.4625004284085,12.5));
#1465=CARTESIAN_POINT('Origin',(72.3875,-92.4625004284085,12.5));
#1466=CARTESIAN_POINT('',(62.3875,-92.4625004284085,12.5));
#1467=CARTESIAN_POINT('Origin',(72.5,-72.5,12.5));
#1468=CARTESIAN_POINT('',(145.15,-145.15,12.5));
#1469=CARTESIAN_POINT('',(79.8874997857958,-145.15,12.5));
#1470=CARTESIAN_POINT('',(108.75,-145.15,12.5));
#1471=CARTESIAN_POINT('',(145.15,-80.0000002142042,12.5));
#1472=CARTESIAN_POINT('',(145.15,-36.25,12.5));
#1473=CARTESIAN_POINT('',(147.275000037253,-80.0000002142042,12.5));
#1474=CARTESIAN_POINT('',(109.887500018626,-80.0000002142042,12.5));
#1475=CARTESIAN_POINT('',(147.275000037253,-95.,12.5));
#1476=CARTESIAN_POINT('',(147.275000037253,-80.,12.5));
#1477=CARTESIAN_POINT('',(149.85,-95.,12.5));
#1478=CARTESIAN_POINT('',(111.175,-95.,12.5));
#1479=CARTESIAN_POINT('',(149.85,-50.0000008568168,12.5));
#1480=CARTESIAN_POINT('',(149.85,-65.0000004284084,12.5));
#1481=CARTESIAN_POINT('',(147.275000037253,-50.0000008568168,12.5));
#1482=CARTESIAN_POINT('',(109.887500018626,-50.0000008568168,12.5));
#1483=CARTESIAN_POINT('',(147.275000037253,-65.0000006426126,12.5));
#1484=CARTESIAN_POINT('',(147.275000037253,-68.7500003213063,12.5));
#1485=CARTESIAN_POINT('',(145.15,-65.0000006426126,12.5));
#1486=CARTESIAN_POINT('',(108.7125,-65.0000006426126,12.5));
#1487=CARTESIAN_POINT('',(145.15,0.150000000000006,12.5));
#1488=CARTESIAN_POINT('',(145.15,-36.25,12.5));
#1489=CARTESIAN_POINT('',(79.8874997857957,0.150000000000006,12.5));
#1490=CARTESIAN_POINT('',(36.25,0.150000000000001,12.5));
#1491=CARTESIAN_POINT('',(79.8874997857957,2.38749960884441,12.5));
#1492=CARTESIAN_POINT('',(79.8874997857957,-35.0562501955778,12.5));
#1493=CARTESIAN_POINT('',(94.8874995715915,2.38749960884441,12.5));
#1494=CARTESIAN_POINT('',(79.9437497857958,2.3874996088444,12.5));
#1495=CARTESIAN_POINT('',(94.8874995715915,4.96249957159151,12.5));
#1496=CARTESIAN_POINT('',(94.8874995715915,-33.7687502142042,12.5));
#1497=CARTESIAN_POINT('',(49.8875004284083,4.96249957159153,12.5));
#1498=CARTESIAN_POINT('',(64.9437502142041,4.9624995715915,12.5));
#1499=CARTESIAN_POINT('',(49.8875004284083,2.38749960884439,12.5));
#1500=CARTESIAN_POINT('',(49.8875004284083,-35.0562501955778,12.5));
#1501=CARTESIAN_POINT('',(64.8875002142041,2.38749960884439,12.5));
#1502=CARTESIAN_POINT('',(68.693750107102,2.38749960884439,12.5));
#1503=CARTESIAN_POINT('',(64.8875002142041,0.150000000000006,12.5));
#1504=CARTESIAN_POINT('',(64.8875002142041,-36.2312502142043,12.5));
#1505=CARTESIAN_POINT('',(-0.149999999999997,0.150000000000006,12.5));
#1506=CARTESIAN_POINT('',(36.25,0.150000000000001,12.5));
#1507=CARTESIAN_POINT('',(-0.149999999999997,-65.0000006426126,12.5));
#1508=CARTESIAN_POINT('',(-0.150000000000001,-108.75,12.5));
#1509=CARTESIAN_POINT('',(-2.50000003725289,-65.0000006426126,12.5));
#1510=CARTESIAN_POINT('',(34.9999999813735,-65.0000006426126,12.5));
#1511=CARTESIAN_POINT('',(-2.50000003725289,-50.0000008568168,12.5));
#1512=CARTESIAN_POINT('',(-2.5000000372529,-65.0000004284084,12.5));
#1513=CARTESIAN_POINT('',(-5.07500000000001,-50.0000008568168,12.5));
#1514=CARTESIAN_POINT('',(33.7125,-50.0000008568168,12.5));
#1515=CARTESIAN_POINT('',(-5.07500000000001,-95.,12.5));
#1516=CARTESIAN_POINT('',(-5.07500000000001,-80.,12.5));
#1517=CARTESIAN_POINT('',(-2.50000003725289,-95.,12.5));
#1518=CARTESIAN_POINT('',(34.9999999813735,-95.,12.5));
#1519=CARTESIAN_POINT('',(-2.50000003725289,-80.0000002142042,12.5));
#1520=CARTESIAN_POINT('',(-2.5000000372529,-65.0000004284084,12.5));
#1521=CARTESIAN_POINT('',(36.175,-80.0000002142042,12.5));
#1522=CARTESIAN_POINT('',(64.8875002142042,-145.15,12.5));
#1523=CARTESIAN_POINT('',(108.75,-145.15,12.5));
#1524=CARTESIAN_POINT('',(64.8875002142042,-147.387500465661,12.5));
#1525=CARTESIAN_POINT('',(64.8875002142042,-109.943750232831,12.5));
#1526=CARTESIAN_POINT('',(49.8875004284084,-147.387500465661,12.5));
#1527=CARTESIAN_POINT('',(64.9437502142042,-147.387500465661,12.5));
#1528=CARTESIAN_POINT('',(49.8875004284084,-149.962500428409,12.5));
#1529=CARTESIAN_POINT('',(49.8875004284084,-111.231250214204,12.5));
#1530=CARTESIAN_POINT('',(94.8874995715916,-149.962500428409,12.5));
#1531=CARTESIAN_POINT('',(79.9437497857958,-149.962500428409,12.5));
#1532=CARTESIAN_POINT('',(94.8874995715916,-147.387500465661,12.5));
#1533=CARTESIAN_POINT('',(94.8874995715916,-109.943750232831,12.5));
#1534=CARTESIAN_POINT('',(79.8874997857958,-147.387500465661,12.5));
#1535=CARTESIAN_POINT('',(76.1937498928979,-147.387500465661,12.5));
#1536=CARTESIAN_POINT('',(79.8874997857958,-108.768750214204,12.5));
#1537=CARTESIAN_POINT('',(97.3875,-92.4625004284085,12.5));
#1538=CARTESIAN_POINT('',(59.94375,-92.4625004284085,12.5));
#1539=CARTESIAN_POINT('',(97.3875,-137.462500428409,12.5));
#1540=CARTESIAN_POINT('',(97.3875,-82.4812502142043,12.5));
#1541=CARTESIAN_POINT('',(47.3875,-137.462500428409,12.5));
#1542=CARTESIAN_POINT('',(84.94375,-137.462500428409,12.5));
#1543=CARTESIAN_POINT('',(47.3875,-92.4625004284085,12.5));
#1544=CARTESIAN_POINT('',(47.3875,-104.981250214204,12.5));
#1545=CARTESIAN_POINT('',(59.94375,-92.4625004284085,12.5));
#1546=CARTESIAN_POINT('Origin',(47.3875,-92.4625004284085,12.5));
#1547=CARTESIAN_POINT('',(97.3875,-92.4625004284085,0.));
#1548=CARTESIAN_POINT('',(59.94375,-92.4625004284085,0.));
#1549=CARTESIAN_POINT('',(97.3875,-92.4625004284085,12.5));
#1550=CARTESIAN_POINT('Origin',(47.3875,-92.4625004284085,12.5));
#1551=CARTESIAN_POINT('',(47.3875,-92.4625004284085,0.));
#1552=CARTESIAN_POINT('',(47.3875,-92.4625004284085,12.5));
#1553=CARTESIAN_POINT('',(59.94375,-92.4625004284085,0.));
#1554=CARTESIAN_POINT('Origin',(47.3875,-137.462500428409,12.5));
#1555=CARTESIAN_POINT('',(47.3875,-137.462500428409,0.));
#1556=CARTESIAN_POINT('',(47.3875,-104.981250214204,0.));
#1557=CARTESIAN_POINT('',(47.3875,-137.462500428409,12.5));
#1558=CARTESIAN_POINT('Origin',(97.3875,-137.462500428409,12.5));
#1559=CARTESIAN_POINT('',(97.3875,-137.462500428409,0.));
#1560=CARTESIAN_POINT('',(84.94375,-137.462500428409,0.));
#1561=CARTESIAN_POINT('',(97.3875,-137.462500428409,12.5));
#1562=CARTESIAN_POINT('Origin',(97.3875,-92.4625004284085,12.5));
#1563=CARTESIAN_POINT('',(97.3875,-82.4812502142043,0.));
#1564=CARTESIAN_POINT('Origin',(72.5,-72.5,0.));
#1565=CARTESIAN_POINT('',(-10.,-155.,0.));
#1566=CARTESIAN_POINT('',(-10.,10.,0.));
#1567=CARTESIAN_POINT('',(-10.,5.,0.));
#1568=CARTESIAN_POINT('',(155.,10.,0.));
#1569=CARTESIAN_POINT('',(150.,10.,0.));
#1570=CARTESIAN_POINT('',(155.,-155.,0.));
#1571=CARTESIAN_POINT('',(155.,-150.,0.));
#1572=CARTESIAN_POINT('',(0.,-155.,0.));
#1573=CARTESIAN_POINT('Origin',(0.,0.15,16.));
#1574=CARTESIAN_POINT('',(64.8875002142041,0.15,16.));
#1575=CARTESIAN_POINT('',(-0.15,0.150000000000006,16.));
#1576=CARTESIAN_POINT('Origin',(64.8875002142041,0.0374995715914911,16.));
#1577=CARTESIAN_POINT('',(64.8875002142041,2.38749960884439,16.));
#1578=CARTESIAN_POINT('Origin',(64.8875002142041,2.38749960884439,16.));
#1579=CARTESIAN_POINT('',(49.8875004284083,2.38749960884439,16.));
#1580=CARTESIAN_POINT('Origin',(49.8875004284083,2.38749960884439,16.));
#1581=CARTESIAN_POINT('',(49.8875004284083,4.96249957159152,16.));
#1582=CARTESIAN_POINT('Origin',(57.3875004284083,4.9624995715915,16.));
#1583=CARTESIAN_POINT('',(94.8874995715915,4.96249957159151,16.));
#1584=CARTESIAN_POINT('Origin',(94.8874995715915,4.96249957159151,16.));
#1585=CARTESIAN_POINT('',(94.8874995715915,2.38749960884441,16.));
#1586=CARTESIAN_POINT('Origin',(87.3874995715915,2.38749960884441,16.));
#1587=CARTESIAN_POINT('',(79.8874997857957,2.38749960884441,16.));
#1588=CARTESIAN_POINT('Origin',(79.8874997857957,2.38749960884441,16.));
#1589=CARTESIAN_POINT('',(79.8874997857957,0.15,16.));
#1590=CARTESIAN_POINT('Origin',(0.,0.15,16.));
#1591=CARTESIAN_POINT('',(145.15,0.15,16.));
#1592=CARTESIAN_POINT('Origin',(145.15,0.,16.));
#1593=CARTESIAN_POINT('',(145.15,-65.0000006426126,16.));
#1594=CARTESIAN_POINT('Origin',(144.925,-65.0000006426126,16.));
#1595=CARTESIAN_POINT('',(147.275000037253,-65.0000006426126,16.));
#1596=CARTESIAN_POINT('Origin',(147.275000037253,-65.0000006426126,16.));
#1597=CARTESIAN_POINT('',(147.275000037253,-50.0000008568168,16.));
#1598=CARTESIAN_POINT('Origin',(147.275000037253,-50.0000008568168,16.));
#1599=CARTESIAN_POINT('',(149.85,-50.0000008568168,16.));
#1600=CARTESIAN_POINT('Origin',(149.85,-57.5000008568168,16.));
#1601=CARTESIAN_POINT('',(149.85,-95.,16.));
#1602=CARTESIAN_POINT('Origin',(149.85,-95.,16.));
#1603=CARTESIAN_POINT('',(147.275000037253,-95.,16.));
#1604=CARTESIAN_POINT('Origin',(147.275000037253,-87.5,16.));
#1605=CARTESIAN_POINT('',(147.275000037253,-80.0000002142042,16.));
#1606=CARTESIAN_POINT('Origin',(147.275000037253,-80.0000002142042,16.));
#1607=CARTESIAN_POINT('',(145.15,-80.0000002142042,16.));
#1608=CARTESIAN_POINT('Origin',(145.15,0.,16.));
#1609=CARTESIAN_POINT('',(145.15,-145.15,16.));
#1610=CARTESIAN_POINT('Origin',(-5.07500000000001,-50.0000008568168,15.));
#1611=CARTESIAN_POINT('',(-2.5000000372529,-50.0000008568168,15.));
#1612=CARTESIAN_POINT('',(-5.07500000000001,-50.0000008568168,15.));
#1613=CARTESIAN_POINT('Origin',(-2.5000000372529,-95.,15.));
#1614=CARTESIAN_POINT('',(-5.07500000000001,-95.,15.));
#1615=CARTESIAN_POINT('',(-2.5000000372529,-95.,15.));
#1616=CARTESIAN_POINT('Origin',(94.8874995715916,-147.387500465661,16.));
#1617=CARTESIAN_POINT('',(94.8874995715916,-149.962500428409,16.));
#1618=CARTESIAN_POINT('',(94.8874995715916,-147.387500465661,16.));
#1619=CARTESIAN_POINT('Origin',(49.8875004284084,-149.962500428409,16.));
#1620=CARTESIAN_POINT('',(49.8875004284084,-147.387500465661,16.));
#1621=CARTESIAN_POINT('',(49.8875004284084,-149.962500428409,16.));
#1622=CARTESIAN_POINT('Origin',(79.8874997857958,-147.387500465661,16.));
#1623=CARTESIAN_POINT('',(79.8874997857958,-147.387500465661,16.));
#1624=CARTESIAN_POINT('Origin',(87.3874995715916,-149.962500428409,16.));
#1625=CARTESIAN_POINT('Origin',(57.3875004284084,-147.387500465661,16.));
#1626=CARTESIAN_POINT('',(64.8875002142042,-147.387500465661,16.));
#1627=CARTESIAN_POINT('Origin',(79.8874997857958,-145.037500428408,16.));
#1628=CARTESIAN_POINT('',(79.8874997857958,-145.15,16.));
#1629=CARTESIAN_POINT('Origin',(64.8875002142042,-147.387500465661,16.));
#1630=CARTESIAN_POINT('',(64.8875002142042,-145.15,16.));
#1631=CARTESIAN_POINT('Origin',(145.,-145.15,16.));
#1632=CARTESIAN_POINT('Origin',(-0.150000000000003,-80.0000002142042,15.));
#1633=CARTESIAN_POINT('',(-2.5000000372529,-80.0000002142042,15.));
#1634=CARTESIAN_POINT('Origin',(-2.5000000372529,-65.0000006426126,15.));
#1635=CARTESIAN_POINT('',(-0.15,-65.0000006426126,15.5));
#1636=CARTESIAN_POINT('',(-2.5000000372529,-65.0000006426126,15.));
#1637=CARTESIAN_POINT('Origin',(-0.15,-145.,16.));
#1638=CARTESIAN_POINT('Origin',(-2.5000000372529,-57.5000008568168,15.));
#1639=CARTESIAN_POINT('Origin',(-2.5000000372529,-57.5000008568168,15.));
#1640=CARTESIAN_POINT('Origin',(-5.07500000000001,-87.5,15.));
#1641=CARTESIAN_POINT('Origin',(0.,-155.,5.));
#1642=CARTESIAN_POINT('',(155.,-155.,5.));
#1643=CARTESIAN_POINT('',(-10.,-155.,5.));
#1644=CARTESIAN_POINT('Origin',(155.,-145.,5.));
#1645=CARTESIAN_POINT('',(155.,10.,5.));
#1646=CARTESIAN_POINT('Origin',(-10.,0.,5.));
#1647=CARTESIAN_POINT('',(-10.,10.,10.));
#1648=CARTESIAN_POINT('Origin',(145.,10.,5.));
#1649=CARTESIAN_POINT('Origin',(145.,-145.15,16.));
#1650=UNCERTAINTY_MEASURE_WITH_UNIT(LENGTH_MEASURE(0.01),#1654,
'DISTANCE_ACCURACY_VALUE',
'Maximum model space distance between geometric entities at asserted c
onnectivities');
#1651=UNCERTAINTY_MEASURE_WITH_UNIT(LENGTH_MEASURE(0.01),#1654,
'DISTANCE_ACCURACY_VALUE',
'Maximum model space distance between geometric entities at asserted c
onnectivities');
#1652=(
GEOMETRIC_REPRESENTATION_CONTEXT(3)
GLOBAL_UNCERTAINTY_ASSIGNED_CONTEXT((#1650))
GLOBAL_UNIT_ASSIGNED_CONTEXT((#1654,#1656,#1657))
REPRESENTATION_CONTEXT('','3D')
);
#1653=(
GEOMETRIC_REPRESENTATION_CONTEXT(3)
GLOBAL_UNCERTAINTY_ASSIGNED_CONTEXT((#1651))
GLOBAL_UNIT_ASSIGNED_CONTEXT((#1654,#1656,#1657))
REPRESENTATION_CONTEXT('','3D')
);
#1654=(
LENGTH_UNIT()
NAMED_UNIT(*)
SI_UNIT(.MILLI.,.METRE.)
);
#1655=(
LENGTH_UNIT()
NAMED_UNIT(*)
SI_UNIT($,.METRE.)
);
#1656=(
NAMED_UNIT(*)
PLANE_ANGLE_UNIT()
SI_UNIT($,.RADIAN.)
);
#1657=(
NAMED_UNIT(*)
SI_UNIT($,.STERADIAN.)
SOLID_ANGLE_UNIT()
);
#1658=SHAPE_DEFINITION_REPRESENTATION(#1659,#1660);
#1659=PRODUCT_DEFINITION_SHAPE('',$,#1662);
#1660=SHAPE_REPRESENTATION('',(#1050),#1652);
#1661=PRODUCT_DEFINITION_CONTEXT('part definition',#1666,'design');
#1662=PRODUCT_DEFINITION('2026-09-24-14-30-26-043','Solar_Panel_Fit',#1663,
#1661);
#1663=PRODUCT_DEFINITION_FORMATION('',$,#1668);
#1664=PRODUCT_RELATED_PRODUCT_CATEGORY('Solar_Panel_Fit',
'Solar_Panel_Fit',(#1668));
#1665=APPLICATION_PROTOCOL_DEFINITION('international standard',
'automotive_design',2009,#1666);
#1666=APPLICATION_CONTEXT(
'Core Data for Automotive Mechanical Design Process');
#1667=PRODUCT_CONTEXT('part definition',#1666,'mechanical');
#1668=PRODUCT('2026-09-24-14-30-26-043','Solar_Panel_Fit',$,(#1667));
#1669=PRESENTATION_STYLE_ASSIGNMENT((#1670));
#1670=SURFACE_STYLE_USAGE(.BOTH.,#1671);
#1671=SURFACE_SIDE_STYLE('',(#1672));
#1672=SURFACE_STYLE_FILL_AREA(#1673);
#1673=FILL_AREA_STYLE('Steel - Satin',(#1674));
#1674=FILL_AREA_STYLE_COLOUR('Steel - Satin',#1675);
#1675=COLOUR_RGB('Steel - Satin',0.627450980392157,0.627450980392157,0.627450980392157);
ENDSEC;
END-ISO-10303-21;
